<?xml version="1.0" standalone="no"?>
<!DOCTYPE svg PUBLIC "-//W3C//DTD SVG 20010904//EN"
 "http://www.w3.org/TR/2001/REC-SVG-20010904/DTD/svg10.dtd">
<svg version="1.0" xmlns="http://www.w3.org/2000/svg"
 width="500.000000pt" height="500.000000pt" viewBox="0 0 500.000000 500.000000"
 preserveAspectRatio="xMidYMid meet">

<g transform="translate(0.000000,500.000000) scale(0.100000,-0.100000)"
fill="#000000" stroke="none">
<path d="M2090 2898 c0 -726 1 -742 54 -846 29 -58 102 -127 160 -153 107 -47
294 -44 400 6 63 30 130 98 157 161 47 104 49 140 49 842 l0 662 -165 0 -164
0 -3 -668 c-3 -625 -4 -670 -21 -695 -16 -24 -24 -28 -60 -25 -37 3 -44 7 -59
38 -17 32 -18 87 -18 693 l0 657 -165 0 -165 0 0 -672z"/>
<path d="M2977 1862 c-44 -30 -56 -53 -57 -109 0 -41 5 -58 26 -82 50 -60 148
-60 198 0 21 24 26 41 26 82 -1 77 -49 127 -125 127 -22 0 -52 -8 -68 -18z"/>
</g>
</svg>
