<?xml version="1.0" standalone="no"?>
<!DOCTYPE svg PUBLIC "-//W3C//DTD SVG 20010904//EN"
 "http://www.w3.org/TR/2001/REC-SVG-20010904/DTD/svg10.dtd">
<svg version="1.0" xmlns="http://www.w3.org/2000/svg"
 width="512.000000pt" height="512.000000pt" viewBox="0 0 512.000000 512.000000"
 preserveAspectRatio="xMidYMid meet">

<g transform="translate(0.000000,512.000000) scale(0.100000,-0.100000)"
fill="#000000" stroke="none">
<path d="M1970 4867 c-34 -17 -53 -58 -41 -89 13 -35 126 -138 151 -138 28 0
80 52 80 80 0 25 -113 145 -145 154 -11 3 -31 0 -45 -7z"/>
<path d="M3221 4701 c-107 -97 -196 -181 -197 -186 -3 -9 48 -49 367 -293 60
-45 109 -89 109 -97 0 -7 -4 -25 -10 -39 -5 -15 -23 -79 -40 -143 -26 -95 -29
-118 -18 -129 7 -7 73 -55 146 -108 118 -84 136 -94 156 -85 21 10 23 19 30
127 6 110 36 305 48 317 15 15 182 22 424 17 259 -5 466 7 479 28 10 16 -137
182 -248 280 l-88 77 -202 7 c-110 4 -203 9 -205 11 -2 2 19 43 48 90 28 48
50 88 48 91 -2 2 -43 22 -92 44 -160 74 -338 128 -541 165 -14 2 -74 -46 -214
-174z"/>
<path d="M4589 4691 c-16 -16 -29 -39 -29 -51 0 -12 13 -35 29 -51 16 -16 39
-29 51 -29 28 0 80 52 80 80 0 12 -13 35 -29 51 -16 16 -39 29 -51 29 -12 0
-35 -13 -51 -29z"/>
<path d="M2429 4531 c-16 -16 -29 -39 -29 -51 0 -28 52 -80 80 -80 28 0 80 52
80 80 0 28 -52 80 -80 80 -12 0 -35 -13 -51 -29z"/>
<path d="M1261 3979 c-233 -126 -498 -362 -654 -581 -54 -77 -153 -247 -172
-297 -7 -20 -38 -99 -68 -176 -134 -342 -161 -699 -82 -1085 94 -461 313 -830
668 -1126 109 -91 235 -177 250 -171 7 3 93 73 192 156 99 83 183 151 186 151
4 0 10 -67 14 -150 l7 -150 -45 -84 -45 -85 56 -21 c196 -74 424 -113 667
-113 539 -2 1021 195 1413 577 96 93 206 223 195 229 -5 2 -33 10 -63 17 -61
14 -365 93 -447 116 l-53 15 0 164 c0 91 -3 165 -6 165 -3 0 -78 -43 -167 -97
-88 -53 -191 -107 -229 -120 -90 -31 -200 -43 -291 -32 -87 11 -101 16 -292
91 -222 88 -328 105 -475 74 -36 -8 -72 -10 -80 -6 -46 25 -350 364 -350 391
0 3 78 44 173 92 150 76 181 88 245 95 124 14 180 1 429 -98 351 -141 420
-143 657 -21 71 36 129 71 129 76 0 6 -64 47 -143 92 -78 45 -148 87 -155 95
-7 7 -20 46 -30 86 -16 67 -19 72 -39 66 -40 -13 -200 -7 -259 10 -31 9 -129
48 -217 87 -260 114 -358 123 -578 50 -64 -22 -146 -42 -182 -46 -81 -8 -213
15 -278 47 -45 22 -47 26 -59 83 -34 164 -58 515 -35 515 11 0 85 -47 162
-104 139 -103 260 -146 431 -153 206 -10 344 34 529 167 117 84 181 114 292
135 120 23 164 33 244 56 l71 21 51 89 51 89 -86 102 c-47 57 -88 107 -93 111
-4 5 -58 -5 -119 -23 -93 -26 -121 -30 -169 -24 -84 10 -199 48 -267 90 -96
58 -165 90 -245 116 -64 20 -96 23 -220 23 -195 0 -260 -20 -483 -149 -26 -16
-50 -26 -53 -23 -9 9 66 190 131 315 35 67 63 122 62 122 -1 0 -35 -18 -76
-41z"/>
<path d="M3010 3827 c-34 -17 -53 -58 -41 -89 13 -35 126 -138 151 -138 28 0
80 52 80 80 0 25 -113 145 -145 154 -11 3 -31 0 -45 -7z"/>
<path d="M4589 3571 c-16 -16 -29 -39 -29 -51 0 -12 13 -35 29 -51 16 -16 39
-29 51 -29 28 0 80 52 80 80 0 12 -13 35 -29 51 -16 16 -39 29 -51 29 -12 0
-35 -13 -51 -29z"/>
<path d="M3279 3174 l-76 -135 57 -232 c31 -128 65 -269 75 -314 10 -46 25
-89 34 -96 15 -13 190 -114 336 -194 39 -21 103 -56 143 -78 l72 -40 0 -322
c0 -298 1 -322 18 -327 9 -3 130 -35 267 -71 138 -36 258 -68 267 -71 40 -12
234 338 297 536 50 156 54 138 -46 193 -137 75 -267 172 -392 295 l-116 113
54 -6 c30 -3 174 -48 320 -100 177 -62 268 -90 272 -83 16 26 22 249 10 392
-7 82 -14 153 -17 158 -3 4 -49 8 -103 8 -54 0 -208 14 -342 31 -235 29 -404
35 -449 15 -13 -5 -25 14 -57 91 -23 54 -45 110 -48 126 -4 15 -10 27 -14 27
-3 0 -59 -12 -124 -26 l-119 -26 -26 31 c-114 133 -208 240 -212 240 -3 0 -39
-60 -81 -135z"/>
<path d="M3549 1971 c-16 -16 -29 -39 -29 -51 0 -28 52 -80 80 -80 28 0 80 52
80 80 0 28 -52 80 -80 80 -12 0 -35 -13 -51 -29z"/>
<path d="M4589 1091 c-16 -16 -29 -39 -29 -51 0 -28 52 -80 80 -80 28 0 80 52
80 80 0 28 -52 80 -80 80 -12 0 -35 -13 -51 -29z"/>
<path d="M4240 722 l0 -240 195 117 c107 64 194 118 194 121 1 3 -43 31 -97
63 -53 32 -126 76 -162 99 -36 22 -80 49 -97 60 l-33 20 0 -240z"/>
<path d="M3709 531 c-16 -16 -29 -39 -29 -51 0 -28 52 -80 80 -80 28 0 80 52
80 80 0 28 -52 80 -80 80 -12 0 -35 -13 -51 -29z"/>
</g>
</svg>
