<?xml version="1.0" standalone="no"?>
<!DOCTYPE svg PUBLIC "-//W3C//DTD SVG 20010904//EN"
 "http://www.w3.org/TR/2001/REC-SVG-20010904/DTD/svg10.dtd">
<svg version="1.0" xmlns="http://www.w3.org/2000/svg"
 width="500.000000pt" height="500.000000pt" viewBox="0 0 500.000000 500.000000"
 preserveAspectRatio="xMidYMid meet">

<g transform="translate(0.000000,500.000000) scale(0.100000,-0.100000)"
fill="#000000" stroke="none">
<path d="M1918 3074 c-5 -4 -8 -247 -8 -541 l0 -533 171 0 c106 0 187 5 212
12 59 18 103 67 126 140 l20 63 0 -107 1 -108 115 0 115 0 0 540 0 540 -115 0
-115 0 -1 -312 c0 -175 -4 -301 -9 -286 -9 30 -42 88 -50 88 -3 0 -13 7 -24
15 -18 13 -17 15 14 42 47 39 60 79 60 185 0 109 -11 156 -47 198 -49 59 -70
64 -273 68 -102 2 -188 0 -192 -4z m293 -185 c6 -13 10 -55 7 -106 -3 -91 -16
-113 -65 -113 -23 0 -23 1 -23 120 l0 120 35 0 c25 0 37 -6 46 -21z m3 -411
c12 -17 16 -49 16 -134 0 -110 -1 -113 -26 -133 -15 -12 -37 -21 -50 -21 l-24
0 0 155 0 155 34 0 c25 0 39 -7 50 -22z"/>
<path d="M2873 2921 c-83 -21 -150 -83 -179 -163 -22 -63 -20 -546 2 -613 34
-98 127 -155 254 -155 124 0 209 48 251 142 23 52 24 60 24 323 0 253 -1 273
-21 315 -47 102 -116 148 -231 155 -37 2 -82 1 -100 -4z m109 -178 c17 -15 18
-37 18 -284 0 -230 -2 -270 -16 -283 -22 -22 -50 -20 -68 6 -14 19 -16 63 -16
278 0 215 2 259 16 278 18 26 41 28 66 5z"/>
<path d="M3356 2920 c-44 -14 -85 -59 -101 -114 -21 -71 -21 -511 0 -582 24
-81 81 -124 165 -124 57 0 101 18 124 52 16 22 16 22 16 -15 0 -104 -75 -141
-200 -97 -30 11 -58 19 -61 20 -4 0 -23 -27 -42 -59 -39 -66 -40 -64 33 -102
37 -19 64 -24 158 -27 221 -8 305 45 331 208 6 37 11 230 11 453 l0 387 -115
0 -115 0 0 -42 0 -43 -20 33 c-33 53 -108 74 -184 52z m189 -184 c14 -21 16
-56 13 -236 -3 -196 -4 -213 -22 -226 -24 -17 -28 -17 -52 0 -18 13 -19 30
-22 230 -2 142 1 222 8 236 15 28 56 26 75 -4z"/>
<path d="M1352 2523 c3 -362 5 -402 22 -441 25 -57 64 -83 135 -89 69 -6 112
12 141 60 l20 32 0 -42 0 -43 110 0 110 0 0 460 0 460 -110 0 -110 0 0 -358
c0 -307 -2 -361 -16 -380 -19 -28 -49 -28 -68 0 -14 19 -16 73 -16 380 l0 358
-111 0 -110 0 3 -397z"/>
<path d="M3866 2211 c-38 -26 -55 -57 -56 -104 0 -79 50 -127 134 -127 117 0
166 148 75 225 -39 32 -109 34 -153 6z"/>
</g>
</svg>
