<svg xmlns="http://www.w3.org/2000/svg" xmlns:xlink="http://www.w3.org/1999/xlink" width="1920" zoomAndPan="magnify" viewBox="0 0 1440 809.999993" height="1080" preserveAspectRatio="xMidYMid meet" version="1.0"><defs><g/></defs><g fill="#000000" fill-opacity="1"><g transform="translate(302.785801, 406.553972)"><g><path d="M 12.25 -56.078125 C 12.894531 -59.660156 13.460938 -63.535156 13.953125 -67.703125 C 14.441406 -71.867188 15.257812 -75.828125 16.40625 -79.578125 C 17.550781 -83.335938 19.222656 -86.398438 21.421875 -88.765625 C 23.628906 -91.128906 26.773438 -92.3125 30.859375 -92.3125 C 35.585938 -92.3125 39.992188 -90.269531 44.078125 -86.1875 C 48.160156 -82.101562 50.203125 -77.046875 50.203125 -71.015625 C 49.546875 -67.585938 48.601562 -64.035156 47.375 -60.359375 C 46.15625 -56.679688 45.546875 -52.96875 45.546875 -49.21875 C 45.546875 -48.070312 45.953125 -46.882812 46.765625 -45.65625 C 47.585938 -44.4375 48.8125 -43.828125 50.4375 -43.828125 C 52.726562 -43.828125 54.8125 -45.253906 56.6875 -48.109375 C 58.5625 -50.972656 60.3125 -54.484375 61.9375 -58.640625 C 63.570312 -62.804688 65.285156 -66.925781 67.078125 -71 C 68.878906 -75.082031 71.003906 -78.550781 73.453125 -81.40625 C 75.898438 -84.269531 78.757812 -85.703125 82.03125 -85.703125 C 84.3125 -85.703125 86.878906 -84.925781 89.734375 -83.375 C 92.597656 -81.820312 95.046875 -79.65625 97.078125 -76.875 C 99.117188 -74.101562 100.140625 -70.84375 100.140625 -67.09375 C 100.140625 -65.78125 99.894531 -64.632812 99.40625 -63.65625 C 96.957031 -57.289062 94.101562 -50.597656 90.84375 -43.578125 C 87.582031 -36.566406 83.785156 -29.957031 79.453125 -23.75 C 75.128906 -17.550781 70.234375 -12.488281 64.765625 -8.5625 C 59.296875 -4.644531 53.132812 -2.6875 46.28125 -2.6875 C 38.28125 -2.6875 31.75 -4.769531 26.6875 -8.9375 C 21.625 -13.101562 17.953125 -18.203125 15.671875 -24.234375 C 13.390625 -30.273438 12.25 -36.070312 12.25 -41.625 C 12.25 -43.90625 12.367188 -46.269531 12.609375 -48.71875 C 12.859375 -51.175781 13.0625 -53.628906 13.21875 -56.078125 C 13.21875 -56.078125 13.132812 -56.078125 12.96875 -56.078125 C 12.8125 -56.078125 12.570312 -56.078125 12.25 -56.078125 Z M 12.25 -56.078125 "/></g></g></g><g fill="#000000" fill-opacity="1"><g transform="translate(402.917487, 406.553972)"><g><path d="M 75.90625 -174.828125 C 81.945312 -174.660156 88.109375 -173.394531 94.390625 -171.03125 C 100.679688 -168.664062 106.476562 -165.523438 111.78125 -161.609375 C 117.082031 -157.691406 121.363281 -153.078125 124.625 -147.765625 C 127.894531 -142.460938 129.53125 -136.628906 129.53125 -130.265625 C 129.53125 -124.390625 128.140625 -118.472656 125.359375 -112.515625 C 122.585938 -106.554688 119.117188 -100.882812 114.953125 -95.5 C 110.796875 -90.113281 106.675781 -85.210938 102.59375 -80.796875 C 99.65625 -77.703125 98.1875 -74.765625 98.1875 -71.984375 C 98.1875 -69.867188 99.53125 -67.175781 102.21875 -63.90625 C 104.914062 -60.644531 108.222656 -57.132812 112.140625 -53.375 C 116.054688 -49.625 119.972656 -45.828125 123.890625 -41.984375 C 127.816406 -38.148438 131.125 -34.519531 133.8125 -31.09375 C 136.507812 -27.664062 137.859375 -24.566406 137.859375 -21.796875 C 137.859375 -18.203125 135.9375 -15.300781 132.09375 -13.09375 C 128.257812 -10.894531 123.363281 -9.097656 117.40625 -7.703125 C 111.445312 -6.316406 105.40625 -5.175781 99.28125 -4.28125 C 93.164062 -3.382812 87.738281 -2.53125 83 -1.71875 C 78.4375 -0.894531 73.785156 -0.320312 69.046875 0 C 64.316406 0.320312 59.503906 1.140625 54.609375 2.453125 C 53.460938 2.609375 52.398438 2.804688 51.421875 3.046875 C 50.441406 3.296875 49.460938 3.421875 48.484375 3.421875 C 47.671875 3.421875 46.078125 2.726562 43.703125 1.34375 C 41.335938 -0.0390625 39.132812 -1.789062 37.09375 -3.90625 C 35.050781 -6.03125 34.03125 -8.15625 34.03125 -10.28125 C 34.03125 -13.0625 35.09375 -15.429688 37.21875 -17.390625 C 39.34375 -19.347656 42.035156 -20.976562 45.296875 -22.28125 C 48.566406 -23.582031 51.832031 -24.5625 55.09375 -25.21875 C 58.351562 -25.875 61.046875 -26.203125 63.171875 -26.203125 C 64.804688 -26.203125 66.476562 -25.992188 68.1875 -25.578125 C 69.90625 -25.171875 71.582031 -24.96875 73.21875 -24.96875 C 76.644531 -24.96875 79.988281 -25.863281 83.25 -27.65625 C 86.519531 -29.457031 88.15625 -31.503906 88.15625 -33.796875 C 88.15625 -35.585938 87.296875 -37.460938 85.578125 -39.421875 C 83.859375 -41.378906 81.816406 -43.296875 79.453125 -45.171875 C 77.085938 -47.054688 74.925781 -48.566406 72.96875 -49.703125 C 71.007812 -50.847656 69.703125 -51.421875 69.046875 -51.421875 C 67.253906 -51.421875 65.703125 -50.476562 64.390625 -48.59375 C 63.085938 -46.71875 61.742188 -44.597656 60.359375 -42.234375 C 58.972656 -39.867188 57.300781 -37.75 55.34375 -35.875 C 53.382812 -34 50.851562 -33.0625 47.75 -33.0625 C 41.707031 -33.0625 37.050781 -35.097656 33.78125 -39.171875 C 30.519531 -43.253906 28.195312 -48.640625 26.8125 -55.328125 C 25.425781 -62.023438 24.523438 -69.332031 24.109375 -77.25 C 23.703125 -85.164062 23.253906 -93.039062 22.765625 -100.875 C 22.273438 -108.71875 21.21875 -115.65625 19.59375 -121.6875 C 18.445312 -126.101562 17.34375 -131.003906 16.28125 -136.390625 C 15.21875 -141.773438 14.6875 -145.9375 14.6875 -148.875 C 14.6875 -153.9375 16.804688 -158.097656 21.046875 -161.359375 C 25.296875 -164.628906 30.644531 -167.203125 37.09375 -169.078125 C 43.539062 -170.953125 50.234375 -172.335938 57.171875 -173.234375 C 64.109375 -174.128906 70.351562 -174.660156 75.90625 -174.828125 Z M 95.5 -128.0625 C 95.5 -128.550781 95.5 -129.039062 95.5 -129.53125 C 95.5 -130.019531 95.5 -130.425781 95.5 -130.75 C 95.5 -137.28125 93.289062 -141.769531 88.875 -144.21875 C 84.46875 -146.664062 78.675781 -147.890625 71.5 -147.890625 C 65.78125 -147.890625 60.878906 -146.953125 56.796875 -145.078125 C 52.722656 -143.203125 50.6875 -140.796875 50.6875 -137.859375 C 52.476562 -133.941406 53.703125 -129.125 54.359375 -123.40625 C 55.015625 -117.695312 55.585938 -112.023438 56.078125 -106.390625 C 56.566406 -100.753906 57.335938 -96.019531 58.390625 -92.1875 C 59.453125 -88.351562 61.289062 -86.4375 63.90625 -86.4375 C 65.21875 -86.4375 66.851562 -86.925781 68.8125 -87.90625 C 76.15625 -92.632812 81.828125 -98.507812 85.828125 -105.53125 C 89.828125 -112.550781 93.050781 -120.0625 95.5 -128.0625 Z M 95.5 -128.0625 "/></g></g></g><g fill="#000000" fill-opacity="1"><g transform="translate(545.647938, 406.553972)"><g><path d="M 50.6875 -87.65625 C 50.6875 -78.1875 50.273438 -68.71875 49.453125 -59.25 C 48.640625 -49.78125 48.234375 -40.234375 48.234375 -30.609375 C 48.234375 -26.035156 48.640625 -21.503906 49.453125 -17.015625 C 50.273438 -12.523438 50.6875 -8.078125 50.6875 -3.671875 C 50.6875 -0.734375 49.785156 2.242188 47.984375 5.265625 C 46.191406 8.285156 43.988281 10.851562 41.375 12.96875 C 38.769531 15.09375 36.160156 16.15625 33.546875 16.15625 C 31.097656 16.15625 28.484375 15.09375 25.703125 12.96875 C 22.929688 10.851562 20.484375 8.203125 18.359375 5.015625 C 16.242188 1.835938 14.941406 -1.460938 14.453125 -4.890625 C 12.984375 -18.117188 12.25 -31.34375 12.25 -44.5625 C 12.25 -61.21875 12.738281 -78.359375 13.71875 -95.984375 C 14.695312 -113.617188 15.753906 -130.84375 16.890625 -147.65625 C 17.378906 -156.144531 18.804688 -162.101562 21.171875 -165.53125 C 23.546875 -168.957031 27.507812 -170.671875 33.0625 -170.671875 C 39.09375 -170.671875 43.984375 -168.546875 47.734375 -164.296875 C 51.492188 -160.054688 53.375 -154.507812 53.375 -147.65625 C 53.375 -138.675781 52.882812 -129.859375 51.90625 -121.203125 C 50.925781 -112.554688 50.4375 -103.90625 50.4375 -95.25 C 50.4375 -94.101562 50.4375 -92.878906 50.4375 -91.578125 C 50.4375 -90.273438 50.519531 -88.96875 50.6875 -87.65625 Z M 50.6875 -87.65625 "/></g></g></g><g fill="#000000" fill-opacity="1"><g transform="translate(606.363463, 406.553972)"><g><path d="M 49.21875 -66.609375 C 54.28125 -66.609375 58.8125 -65.175781 62.8125 -62.3125 C 66.8125 -59.457031 70.035156 -55.742188 72.484375 -51.171875 C 74.929688 -46.597656 76.15625 -41.785156 76.15625 -36.734375 C 75.988281 -31.015625 74.3125 -25.75 71.125 -20.9375 C 67.945312 -16.125 63.828125 -12.242188 58.765625 -9.296875 C 53.703125 -6.359375 48.148438 -4.890625 42.109375 -4.890625 C 32.972656 -4.890625 25.710938 -7.378906 20.328125 -12.359375 C 14.941406 -17.335938 12.25 -23.503906 12.25 -30.859375 C 12.25 -43.910156 15.304688 -53.128906 21.421875 -58.515625 C 27.546875 -63.910156 36.8125 -66.609375 49.21875 -66.609375 Z M 49.21875 -66.609375 "/></g></g></g><g fill="#000000" fill-opacity="1"><g transform="translate(694.743734, 406.553972)"><g><path d="M 99.40625 22.53125 C 98.269531 36.238281 95.210938 48.882812 90.234375 60.46875 C 85.253906 72.0625 77.703125 82.1875 67.578125 90.84375 C 65.453125 92.476562 63.207031 93.742188 60.84375 94.640625 C 58.476562 95.535156 56.398438 95.984375 54.609375 95.984375 C 51.179688 95.984375 47.875 94.59375 44.6875 91.8125 C 41.5 89.039062 39.90625 85.367188 39.90625 80.796875 C 39.90625 78.515625 40.476562 76.515625 41.625 74.796875 C 42.769531 73.085938 44.078125 71.414062 45.546875 69.78125 C 49.785156 65.375 53.414062 59.863281 56.4375 53.25 C 59.457031 46.644531 61.820312 39.953125 63.53125 33.171875 C 65.25 26.398438 66.109375 20.648438 66.109375 15.921875 C 66.109375 12.492188 65.863281 8.367188 65.375 3.546875 C 64.882812 -1.265625 64.066406 -5.914062 62.921875 -10.40625 C 61.785156 -14.894531 60.316406 -18.648438 58.515625 -21.671875 C 56.722656 -24.691406 54.519531 -26.203125 51.90625 -26.203125 C 50.28125 -26.203125 48.203125 -25.585938 45.671875 -24.359375 C 43.140625 -23.140625 40.363281 -21.914062 37.34375 -20.6875 C 34.320312 -19.46875 31.257812 -18.859375 28.15625 -18.859375 C 25.050781 -18.859375 21.867188 -19.753906 18.609375 -21.546875 C 15.347656 -23.335938 12.65625 -25.90625 10.53125 -29.25 C 8.40625 -32.601562 7.34375 -36.566406 7.34375 -41.140625 C 7.34375 -44.890625 8.523438 -48.722656 10.890625 -52.640625 C 13.265625 -56.554688 16.367188 -59.863281 20.203125 -62.5625 C 24.035156 -65.257812 28.078125 -66.609375 32.328125 -66.609375 C 33.628906 -66.609375 34.929688 -66.484375 36.234375 -66.234375 C 37.546875 -65.992188 38.769531 -65.875 39.90625 -65.875 C 43.664062 -65.875 47.175781 -66.644531 50.4375 -68.1875 C 53.707031 -69.738281 56.972656 -72.066406 60.234375 -75.171875 C 62.191406 -76.960938 64.882812 -77.859375 68.3125 -77.859375 C 71.414062 -77.859375 74.476562 -77.125 77.5 -75.65625 C 80.519531 -74.1875 83.050781 -72.1875 85.09375 -69.65625 C 87.132812 -67.132812 88.15625 -64.238281 88.15625 -60.96875 C 88.15625 -52.644531 89.050781 -44.5625 90.84375 -36.71875 C 92.632812 -28.882812 94.425781 -21.09375 96.21875 -13.34375 C 98.019531 -5.59375 98.921875 2.363281 98.921875 10.53125 C 98.921875 12.65625 98.878906 14.734375 98.796875 16.765625 C 98.710938 18.804688 98.914062 20.726562 99.40625 22.53125 Z M 99.40625 22.53125 "/></g></g></g><g fill="#000000" fill-opacity="1"><g transform="translate(801.485565, 406.553972)"><g><path d="M 12.25 -20.328125 C 12.738281 -24.566406 14.082031 -28.519531 16.28125 -32.1875 C 18.488281 -35.863281 21.140625 -38.882812 24.234375 -41.25 C 27.335938 -43.625 30.441406 -44.8125 33.546875 -44.8125 C 35.503906 -44.8125 37.664062 -43.910156 40.03125 -42.109375 C 42.394531 -40.316406 44.679688 -38.03125 46.890625 -35.25 C 49.097656 -32.476562 50.894531 -29.664062 52.28125 -26.8125 C 53.664062 -23.957031 54.359375 -21.550781 54.359375 -19.59375 C 53.703125 -16.164062 52.109375 -12.941406 49.578125 -9.921875 C 47.046875 -6.898438 43.984375 -4.488281 40.390625 -2.6875 C 36.804688 -0.894531 33.140625 0 29.390625 0 C 23.347656 0 18.976562 -1.914062 16.28125 -5.75 C 13.59375 -9.59375 12.25 -14.453125 12.25 -20.328125 Z M 12.25 -20.328125 "/></g></g></g><g fill="#000000" fill-opacity="1"><g transform="translate(432.372419, 459.575719)"><g><path d="M 20.625 -0.828125 L 20.359375 -0.5625 C 19.117188 -0.457031 17.851562 -0.398438 16.5625 -0.390625 C 15.28125 -0.378906 13.992188 -0.382812 12.703125 -0.40625 C 11.285156 -0.40625 9.878906 -0.398438 8.484375 -0.390625 C 7.085938 -0.378906 5.726562 -0.300781 4.40625 -0.15625 C 4.007812 -0.425781 3.832031 -0.691406 3.875 -0.953125 C 3.925781 -1.210938 4.003906 -1.457031 4.109375 -1.6875 C 4.234375 -1.90625 4.296875 -2.050781 4.296875 -2.125 C 4.441406 -2.226562 4.617188 -2.28125 4.828125 -2.28125 C 5.046875 -2.28125 5.265625 -2.28125 5.484375 -2.28125 C 5.609375 -2.28125 5.738281 -2.269531 5.875 -2.25 C 6.019531 -2.238281 6.15625 -2.25 6.28125 -2.28125 C 6.40625 -4.09375 6.46875 -6.007812 6.46875 -8.03125 C 6.46875 -10.050781 6.453125 -12.019531 6.421875 -13.9375 C 6.421875 -14.457031 6.414062 -14.96875 6.40625 -15.46875 C 6.394531 -15.96875 6.390625 -16.46875 6.390625 -16.96875 C 6.359375 -17.90625 6.347656 -18.796875 6.359375 -19.640625 C 6.378906 -20.492188 6.398438 -21.296875 6.421875 -22.046875 C 6.253906 -22.085938 6.078125 -22.113281 5.890625 -22.125 C 5.703125 -22.144531 5.519531 -22.15625 5.34375 -22.15625 C 5.019531 -22.15625 4.710938 -22.1875 4.421875 -22.25 C 4.140625 -22.3125 3.898438 -22.476562 3.703125 -22.75 C 3.722656 -22.820312 3.742188 -22.921875 3.765625 -23.046875 C 3.816406 -23.347656 3.898438 -23.640625 4.015625 -23.921875 C 4.128906 -24.210938 4.359375 -24.347656 4.703125 -24.328125 C 5.648438 -24.296875 6.703125 -24.257812 7.859375 -24.21875 C 9.015625 -24.1875 10.164062 -24.171875 11.3125 -24.171875 C 12.457031 -24.171875 13.441406 -24.171875 14.265625 -24.171875 C 14.566406 -24.171875 14.863281 -24.179688 15.15625 -24.203125 C 15.457031 -24.234375 15.757812 -24.257812 16.0625 -24.28125 C 16.90625 -24.351562 17.722656 -24.390625 18.515625 -24.390625 C 19.316406 -24.390625 20.019531 -24.179688 20.625 -23.765625 C 20.59375 -23.515625 20.582031 -23.21875 20.59375 -22.875 C 20.613281 -22.539062 20.625 -22.1875 20.625 -21.8125 C 20.675781 -21.113281 20.691406 -20.40625 20.671875 -19.6875 C 20.660156 -18.96875 20.554688 -18.394531 20.359375 -17.96875 C 19.910156 -17.875 19.578125 -17.929688 19.359375 -18.140625 C 19.148438 -18.347656 19.007812 -18.640625 18.9375 -19.015625 C 18.84375 -19.515625 18.773438 -20.082031 18.734375 -20.71875 C 18.703125 -21.351562 18.570312 -21.832031 18.34375 -22.15625 C 18.039062 -22.15625 17.707031 -22.15625 17.34375 -22.15625 C 16.988281 -22.15625 16.613281 -22.164062 16.21875 -22.1875 C 15.019531 -22.1875 13.753906 -22.1875 12.421875 -22.1875 C 11.085938 -22.1875 10.007812 -22.140625 9.1875 -22.046875 C 9.21875 -21.722656 9.234375 -21.3125 9.234375 -20.8125 C 9.234375 -20.3125 9.21875 -19.75 9.1875 -19.125 C 9.1875 -18.78125 9.1875 -18.425781 9.1875 -18.0625 C 9.1875 -17.695312 9.1875 -17.332031 9.1875 -16.96875 C 9.1875 -16.363281 9.203125 -15.757812 9.234375 -15.15625 C 9.273438 -14.5625 9.320312 -13.992188 9.375 -13.453125 C 10.34375 -13.546875 11.34375 -13.601562 12.375 -13.625 C 13.414062 -13.65625 14.429688 -13.695312 15.421875 -13.75 C 15.753906 -13.894531 15.992188 -14.125 16.140625 -14.4375 C 16.285156 -14.75 16.421875 -15.082031 16.546875 -15.4375 C 16.671875 -15.800781 16.832031 -16.109375 17.03125 -16.359375 C 17.207031 -16.460938 17.359375 -16.492188 17.484375 -16.453125 C 17.609375 -16.421875 17.742188 -16.363281 17.890625 -16.28125 C 17.941406 -16.257812 18.003906 -16.226562 18.078125 -16.1875 C 18.148438 -16.15625 18.238281 -16.128906 18.34375 -16.109375 C 18.195312 -15.554688 18.109375 -14.929688 18.078125 -14.234375 C 18.054688 -13.535156 18.054688 -12.828125 18.078125 -12.109375 C 18.078125 -11.503906 18.0625 -10.914062 18.03125 -10.34375 C 18.007812 -9.769531 17.960938 -9.273438 17.890625 -8.859375 C 17.316406 -8.804688 16.941406 -8.945312 16.765625 -9.28125 C 16.597656 -9.613281 16.460938 -9.992188 16.359375 -10.421875 C 16.304688 -10.597656 16.253906 -10.769531 16.203125 -10.9375 C 16.160156 -11.113281 16.101562 -11.28125 16.03125 -11.4375 C 14.882812 -11.601562 13.6875 -11.695312 12.4375 -11.71875 C 11.195312 -11.75 10.113281 -11.554688 9.1875 -11.140625 C 9.238281 -9.765625 9.273438 -8.359375 9.296875 -6.921875 C 9.328125 -5.492188 9.289062 -3.992188 9.1875 -2.421875 C 10.113281 -2.378906 11.125 -2.34375 12.21875 -2.3125 C 13.3125 -2.289062 14.40625 -2.320312 15.5 -2.40625 C 16.59375 -2.5 17.59375 -2.65625 18.5 -2.875 C 18.769531 -3.351562 18.953125 -3.894531 19.046875 -4.5 C 19.148438 -5.113281 19.296875 -5.691406 19.484375 -6.234375 C 19.671875 -6.785156 20.015625 -7.160156 20.515625 -7.359375 C 20.890625 -6.609375 21.054688 -5.78125 21.015625 -4.875 C 20.972656 -3.96875 20.890625 -3.113281 20.765625 -2.3125 C 20.742188 -2.039062 20.710938 -1.78125 20.671875 -1.53125 C 20.640625 -1.28125 20.625 -1.046875 20.625 -0.828125 Z M 20.625 -0.828125 "/></g></g></g><g fill="#000000" fill-opacity="1"><g transform="translate(457.399334, 459.575719)"><g><path d="M 26 -23.46875 C 25.457031 -22.914062 24.828125 -22.4375 24.109375 -22.03125 C 23.398438 -21.632812 22.796875 -21.128906 22.296875 -20.515625 C 22.148438 -19.890625 22 -19.273438 21.84375 -18.671875 C 21.695312 -18.078125 21.539062 -17.492188 21.375 -16.921875 C 20.601562 -14.253906 19.734375 -11.675781 18.765625 -9.1875 C 17.804688 -6.695312 16.941406 -4.054688 16.171875 -1.265625 C 15.921875 -1.015625 15.710938 -0.734375 15.546875 -0.421875 C 15.390625 -0.117188 15.203125 0.171875 14.984375 0.453125 C 14.703125 0.597656 14.4375 0.644531 14.1875 0.59375 C 13.945312 0.539062 13.710938 0.476562 13.484375 0.40625 C 13.285156 0.363281 13.148438 0.328125 13.078125 0.296875 C 12.003906 -2.367188 11.023438 -5.195312 10.140625 -8.1875 C 9.253906 -11.175781 8.335938 -14.101562 7.390625 -16.96875 C 7.066406 -17.957031 6.726562 -18.925781 6.375 -19.875 C 6.03125 -20.820312 5.660156 -21.753906 5.265625 -22.671875 C 5.046875 -22.753906 4.828125 -22.78125 4.609375 -22.75 C 4.398438 -22.726562 4.195312 -22.703125 4 -22.671875 C 3.769531 -22.628906 3.554688 -22.597656 3.359375 -22.578125 C 3.160156 -22.566406 2.960938 -22.597656 2.765625 -22.671875 C 2.585938 -22.953125 2.535156 -23.195312 2.609375 -23.40625 C 2.691406 -23.613281 2.78125 -23.816406 2.875 -24.015625 C 2.925781 -24.097656 2.96875 -24.171875 3 -24.234375 C 3.039062 -24.296875 3.070312 -24.363281 3.09375 -24.4375 C 3.59375 -24.40625 4.09375 -24.398438 4.59375 -24.421875 C 5.09375 -24.453125 5.59375 -24.484375 6.09375 -24.515625 C 6.46875 -24.554688 6.847656 -24.582031 7.234375 -24.59375 C 7.617188 -24.613281 7.984375 -24.625 8.328125 -24.625 C 9.003906 -24.59375 9.632812 -24.488281 10.21875 -24.3125 C 10.800781 -24.144531 11.304688 -23.800781 11.734375 -23.28125 C 11.285156 -23.050781 10.78125 -22.835938 10.21875 -22.640625 C 9.65625 -22.441406 9.203125 -22.316406 8.859375 -22.265625 C 9.054688 -21.390625 9.269531 -20.507812 9.5 -19.625 C 9.738281 -18.75 10 -17.863281 10.28125 -16.96875 C 10.945312 -14.789062 11.675781 -12.609375 12.46875 -10.421875 C 13.269531 -8.234375 13.945312 -6.03125 14.5 -3.8125 C 15.363281 -5.90625 16.238281 -8.023438 17.125 -10.171875 C 18.007812 -12.328125 18.800781 -14.578125 19.5 -16.921875 C 20 -18.585938 20.410156 -20.28125 20.734375 -22 C 20.554688 -22.28125 20.289062 -22.472656 19.9375 -22.578125 C 19.59375 -22.691406 19.234375 -22.796875 18.859375 -22.890625 C 18.492188 -22.992188 18.1875 -23.144531 17.9375 -23.34375 C 17.976562 -23.71875 18.210938 -24 18.640625 -24.1875 C 19.066406 -24.375 19.585938 -24.492188 20.203125 -24.546875 C 20.828125 -24.597656 21.46875 -24.609375 22.125 -24.578125 C 22.789062 -24.554688 23.382812 -24.519531 23.90625 -24.46875 C 24.351562 -24.414062 24.769531 -24.296875 25.15625 -24.109375 C 25.539062 -23.921875 25.820312 -23.707031 26 -23.46875 Z M 26 -23.46875 "/></g></g></g><g fill="#000000" fill-opacity="1"><g transform="translate(486.161612, 459.575719)"><g><path d="M 20.625 -0.828125 L 20.359375 -0.5625 C 19.117188 -0.457031 17.851562 -0.398438 16.5625 -0.390625 C 15.28125 -0.378906 13.992188 -0.382812 12.703125 -0.40625 C 11.285156 -0.40625 9.878906 -0.398438 8.484375 -0.390625 C 7.085938 -0.378906 5.726562 -0.300781 4.40625 -0.15625 C 4.007812 -0.425781 3.832031 -0.691406 3.875 -0.953125 C 3.925781 -1.210938 4.003906 -1.457031 4.109375 -1.6875 C 4.234375 -1.90625 4.296875 -2.050781 4.296875 -2.125 C 4.441406 -2.226562 4.617188 -2.28125 4.828125 -2.28125 C 5.046875 -2.28125 5.265625 -2.28125 5.484375 -2.28125 C 5.609375 -2.28125 5.738281 -2.269531 5.875 -2.25 C 6.019531 -2.238281 6.15625 -2.25 6.28125 -2.28125 C 6.40625 -4.09375 6.46875 -6.007812 6.46875 -8.03125 C 6.46875 -10.050781 6.453125 -12.019531 6.421875 -13.9375 C 6.421875 -14.457031 6.414062 -14.96875 6.40625 -15.46875 C 6.394531 -15.96875 6.390625 -16.46875 6.390625 -16.96875 C 6.359375 -17.90625 6.347656 -18.796875 6.359375 -19.640625 C 6.378906 -20.492188 6.398438 -21.296875 6.421875 -22.046875 C 6.253906 -22.085938 6.078125 -22.113281 5.890625 -22.125 C 5.703125 -22.144531 5.519531 -22.15625 5.34375 -22.15625 C 5.019531 -22.15625 4.710938 -22.1875 4.421875 -22.25 C 4.140625 -22.3125 3.898438 -22.476562 3.703125 -22.75 C 3.722656 -22.820312 3.742188 -22.921875 3.765625 -23.046875 C 3.816406 -23.347656 3.898438 -23.640625 4.015625 -23.921875 C 4.128906 -24.210938 4.359375 -24.347656 4.703125 -24.328125 C 5.648438 -24.296875 6.703125 -24.257812 7.859375 -24.21875 C 9.015625 -24.1875 10.164062 -24.171875 11.3125 -24.171875 C 12.457031 -24.171875 13.441406 -24.171875 14.265625 -24.171875 C 14.566406 -24.171875 14.863281 -24.179688 15.15625 -24.203125 C 15.457031 -24.234375 15.757812 -24.257812 16.0625 -24.28125 C 16.90625 -24.351562 17.722656 -24.390625 18.515625 -24.390625 C 19.316406 -24.390625 20.019531 -24.179688 20.625 -23.765625 C 20.59375 -23.515625 20.582031 -23.21875 20.59375 -22.875 C 20.613281 -22.539062 20.625 -22.1875 20.625 -21.8125 C 20.675781 -21.113281 20.691406 -20.40625 20.671875 -19.6875 C 20.660156 -18.96875 20.554688 -18.394531 20.359375 -17.96875 C 19.910156 -17.875 19.578125 -17.929688 19.359375 -18.140625 C 19.148438 -18.347656 19.007812 -18.640625 18.9375 -19.015625 C 18.84375 -19.515625 18.773438 -20.082031 18.734375 -20.71875 C 18.703125 -21.351562 18.570312 -21.832031 18.34375 -22.15625 C 18.039062 -22.15625 17.707031 -22.15625 17.34375 -22.15625 C 16.988281 -22.15625 16.613281 -22.164062 16.21875 -22.1875 C 15.019531 -22.1875 13.753906 -22.1875 12.421875 -22.1875 C 11.085938 -22.1875 10.007812 -22.140625 9.1875 -22.046875 C 9.21875 -21.722656 9.234375 -21.3125 9.234375 -20.8125 C 9.234375 -20.3125 9.21875 -19.75 9.1875 -19.125 C 9.1875 -18.78125 9.1875 -18.425781 9.1875 -18.0625 C 9.1875 -17.695312 9.1875 -17.332031 9.1875 -16.96875 C 9.1875 -16.363281 9.203125 -15.757812 9.234375 -15.15625 C 9.273438 -14.5625 9.320312 -13.992188 9.375 -13.453125 C 10.34375 -13.546875 11.34375 -13.601562 12.375 -13.625 C 13.414062 -13.65625 14.429688 -13.695312 15.421875 -13.75 C 15.753906 -13.894531 15.992188 -14.125 16.140625 -14.4375 C 16.285156 -14.75 16.421875 -15.082031 16.546875 -15.4375 C 16.671875 -15.800781 16.832031 -16.109375 17.03125 -16.359375 C 17.207031 -16.460938 17.359375 -16.492188 17.484375 -16.453125 C 17.609375 -16.421875 17.742188 -16.363281 17.890625 -16.28125 C 17.941406 -16.257812 18.003906 -16.226562 18.078125 -16.1875 C 18.148438 -16.15625 18.238281 -16.128906 18.34375 -16.109375 C 18.195312 -15.554688 18.109375 -14.929688 18.078125 -14.234375 C 18.054688 -13.535156 18.054688 -12.828125 18.078125 -12.109375 C 18.078125 -11.503906 18.0625 -10.914062 18.03125 -10.34375 C 18.007812 -9.769531 17.960938 -9.273438 17.890625 -8.859375 C 17.316406 -8.804688 16.941406 -8.945312 16.765625 -9.28125 C 16.597656 -9.613281 16.460938 -9.992188 16.359375 -10.421875 C 16.304688 -10.597656 16.253906 -10.769531 16.203125 -10.9375 C 16.160156 -11.113281 16.101562 -11.28125 16.03125 -11.4375 C 14.882812 -11.601562 13.6875 -11.695312 12.4375 -11.71875 C 11.195312 -11.75 10.113281 -11.554688 9.1875 -11.140625 C 9.238281 -9.765625 9.273438 -8.359375 9.296875 -6.921875 C 9.328125 -5.492188 9.289062 -3.992188 9.1875 -2.421875 C 10.113281 -2.378906 11.125 -2.34375 12.21875 -2.3125 C 13.3125 -2.289062 14.40625 -2.320312 15.5 -2.40625 C 16.59375 -2.5 17.59375 -2.65625 18.5 -2.875 C 18.769531 -3.351562 18.953125 -3.894531 19.046875 -4.5 C 19.148438 -5.113281 19.296875 -5.691406 19.484375 -6.234375 C 19.671875 -6.785156 20.015625 -7.160156 20.515625 -7.359375 C 20.890625 -6.609375 21.054688 -5.78125 21.015625 -4.875 C 20.972656 -3.96875 20.890625 -3.113281 20.765625 -2.3125 C 20.742188 -2.039062 20.710938 -1.78125 20.671875 -1.53125 C 20.640625 -1.28125 20.625 -1.046875 20.625 -0.828125 Z M 20.625 -0.828125 "/></g></g></g><g fill="#000000" fill-opacity="1"><g transform="translate(511.188527, 459.575719)"><g><path d="M 24.4375 -0.296875 C 23.613281 -0.078125 22.847656 -0.0078125 22.140625 -0.09375 C 21.429688 -0.175781 20.710938 -0.304688 19.984375 -0.484375 C 19.484375 -1.078125 19.054688 -1.800781 18.703125 -2.65625 C 18.359375 -3.519531 18.035156 -4.429688 17.734375 -5.390625 C 17.441406 -6.359375 17.097656 -7.265625 16.703125 -8.109375 C 16.304688 -8.984375 15.828125 -9.707031 15.265625 -10.28125 C 14.703125 -10.851562 13.972656 -11.195312 13.078125 -11.3125 C 12.703125 -11.363281 12.3125 -11.390625 11.90625 -11.390625 C 11.507812 -11.390625 11.128906 -11.378906 10.765625 -11.359375 C 10.460938 -11.328125 10.1875 -11.3125 9.9375 -11.3125 C 9.6875 -11.3125 9.460938 -11.328125 9.265625 -11.359375 C 9.210938 -10.679688 9.191406 -10.003906 9.203125 -9.328125 C 9.222656 -8.660156 9.253906 -7.992188 9.296875 -7.328125 C 9.328125 -6.578125 9.351562 -5.820312 9.375 -5.0625 C 9.40625 -4.300781 9.367188 -3.546875 9.265625 -2.796875 C 9.441406 -2.421875 9.738281 -2.175781 10.15625 -2.0625 C 10.582031 -1.957031 11.015625 -1.847656 11.453125 -1.734375 C 11.890625 -1.617188 12.207031 -1.398438 12.40625 -1.078125 C 12.101562 -0.679688 11.601562 -0.4375 10.90625 -0.34375 C 10.207031 -0.257812 9.460938 -0.21875 8.671875 -0.21875 C 8.472656 -0.21875 8.257812 -0.21875 8.03125 -0.21875 C 7.8125 -0.21875 7.597656 -0.21875 7.390625 -0.21875 C 6.722656 -0.25 6.101562 -0.253906 5.53125 -0.234375 C 4.957031 -0.222656 4.492188 -0.15625 4.140625 -0.03125 C 3.941406 -0.5625 3.941406 -0.957031 4.140625 -1.21875 C 4.347656 -1.476562 4.613281 -1.695312 4.9375 -1.875 C 5.257812 -2.039062 5.585938 -2.195312 5.921875 -2.34375 C 6.253906 -2.5 6.484375 -2.726562 6.609375 -3.03125 C 6.554688 -5.488281 6.507812 -7.835938 6.46875 -10.078125 C 6.4375 -12.328125 6.394531 -14.625 6.34375 -16.96875 L 6.234375 -22.453125 C 6.035156 -22.523438 5.832031 -22.5625 5.625 -22.5625 C 5.414062 -22.5625 5.207031 -22.5625 5 -22.5625 C 4.75 -22.539062 4.503906 -22.535156 4.265625 -22.546875 C 4.035156 -22.554688 3.820312 -22.648438 3.625 -22.828125 C 3.644531 -22.953125 3.632812 -23.050781 3.59375 -23.125 C 3.5625 -23.195312 3.519531 -23.269531 3.46875 -23.34375 C 3.445312 -23.425781 3.421875 -23.507812 3.390625 -23.59375 C 3.367188 -23.675781 3.382812 -23.769531 3.4375 -23.875 C 3.9375 -24.144531 4.503906 -24.296875 5.140625 -24.328125 C 5.773438 -24.367188 6.441406 -24.378906 7.140625 -24.359375 C 7.410156 -24.359375 7.679688 -24.359375 7.953125 -24.359375 C 8.234375 -24.359375 8.507812 -24.367188 8.78125 -24.390625 C 10.195312 -24.492188 11.582031 -24.539062 12.9375 -24.53125 C 14.300781 -24.519531 15.5625 -24.394531 16.71875 -24.15625 C 17.875 -23.914062 18.851562 -23.484375 19.65625 -22.859375 C 20.320312 -22.335938 20.828125 -21.648438 21.171875 -20.796875 C 21.523438 -19.953125 21.640625 -18.875 21.515625 -17.5625 C 21.492188 -17.457031 21.453125 -17.351562 21.390625 -17.25 C 21.328125 -17.15625 21.269531 -17.046875 21.21875 -16.921875 C 21.070312 -16.617188 20.9375 -16.3125 20.8125 -16 C 20.6875 -15.695312 20.585938 -15.367188 20.515625 -15.015625 C 19.941406 -14.796875 19.453125 -14.476562 19.046875 -14.0625 C 18.648438 -13.65625 18.226562 -13.273438 17.78125 -12.921875 C 17.332031 -12.578125 16.734375 -12.367188 15.984375 -12.296875 C 17.035156 -11.671875 17.898438 -10.851562 18.578125 -9.84375 C 19.265625 -8.832031 19.863281 -7.738281 20.375 -6.5625 C 20.882812 -5.394531 21.390625 -4.21875 21.890625 -3.03125 C 22.015625 -2.945312 22.148438 -2.875 22.296875 -2.8125 C 22.453125 -2.757812 22.601562 -2.691406 22.75 -2.609375 C 23.25 -2.410156 23.707031 -2.15625 24.125 -1.84375 C 24.550781 -1.53125 24.65625 -1.015625 24.4375 -0.296875 Z M 18.125 -18.375 C 18.125 -18.945312 18.035156 -19.546875 17.859375 -20.171875 C 17.679688 -20.796875 17.40625 -21.421875 17.03125 -22.046875 C 16.132812 -22.515625 15.191406 -22.773438 14.203125 -22.828125 C 13.222656 -22.878906 12.160156 -22.890625 11.015625 -22.859375 C 10.765625 -22.859375 10.515625 -22.851562 10.265625 -22.84375 C 10.023438 -22.832031 9.765625 -22.828125 9.484375 -22.828125 C 9.265625 -22.597656 9.15625 -22.285156 9.15625 -21.890625 C 9.15625 -21.492188 9.164062 -21.070312 9.1875 -20.625 C 9.21875 -20.445312 9.238281 -20.269531 9.25 -20.09375 C 9.257812 -19.925781 9.265625 -19.753906 9.265625 -19.578125 C 9.265625 -19.179688 9.25 -18.757812 9.21875 -18.3125 C 9.195312 -17.863281 9.175781 -17.414062 9.15625 -16.96875 C 9.125 -16.3125 9.109375 -15.640625 9.109375 -14.953125 C 9.109375 -14.273438 9.160156 -13.597656 9.265625 -12.921875 C 10.460938 -12.722656 11.695312 -12.722656 12.96875 -12.921875 C 14.238281 -13.117188 15.269531 -13.53125 16.0625 -14.15625 C 17.007812 -14.90625 17.632812 -15.828125 17.9375 -16.921875 C 18.0625 -17.421875 18.125 -17.90625 18.125 -18.375 Z M 18.125 -18.375 "/></g></g></g><g fill="#000000" fill-opacity="1"><g transform="translate(537.336043, 459.575719)"><g><path d="M 23.6875 -23.234375 C 23.414062 -22.890625 23.265625 -22.46875 23.234375 -21.96875 C 23.210938 -21.46875 23.226562 -20.957031 23.28125 -20.4375 C 23.28125 -20.382812 23.289062 -20.296875 23.3125 -20.171875 C 23.363281 -19.597656 23.378906 -19.03125 23.359375 -18.46875 C 23.347656 -17.914062 23.171875 -17.453125 22.828125 -17.078125 C 22.347656 -17.117188 22.003906 -17.300781 21.796875 -17.625 C 21.585938 -17.957031 21.429688 -18.347656 21.328125 -18.796875 C 21.234375 -19.316406 21.15625 -19.867188 21.09375 -20.453125 C 21.03125 -21.035156 20.898438 -21.53125 20.703125 -21.9375 C 19.878906 -22.15625 18.875 -22.296875 17.6875 -22.359375 C 16.507812 -22.421875 15.46875 -22.414062 14.5625 -22.34375 C 14.5625 -21.46875 14.5625 -20.582031 14.5625 -19.6875 C 14.5625 -18.789062 14.550781 -17.882812 14.53125 -16.96875 C 14.53125 -16.488281 14.523438 -16.019531 14.515625 -15.5625 C 14.503906 -15.101562 14.5 -14.632812 14.5 -14.15625 C 14.46875 -12.21875 14.453125 -10.269531 14.453125 -8.3125 C 14.453125 -6.351562 14.488281 -4.429688 14.5625 -2.546875 C 14.84375 -2.316406 15.1875 -2.15625 15.59375 -2.0625 C 16.007812 -1.976562 16.398438 -1.867188 16.765625 -1.734375 C 17.140625 -1.597656 17.390625 -1.332031 17.515625 -0.9375 C 17.390625 -0.613281 17.082031 -0.394531 16.59375 -0.28125 C 16.113281 -0.164062 15.550781 -0.109375 14.90625 -0.109375 C 14.257812 -0.109375 13.613281 -0.132812 12.96875 -0.1875 C 12.644531 -0.1875 12.332031 -0.191406 12.03125 -0.203125 C 11.726562 -0.210938 11.453125 -0.21875 11.203125 -0.21875 C 11.078125 -0.21875 10.953125 -0.210938 10.828125 -0.203125 C 10.703125 -0.191406 10.566406 -0.1875 10.421875 -0.1875 C 9.953125 -0.132812 9.503906 -0.132812 9.078125 -0.1875 C 8.648438 -0.238281 8.425781 -0.523438 8.40625 -1.046875 C 8.40625 -1.242188 8.476562 -1.429688 8.625 -1.609375 C 8.78125 -1.785156 8.90625 -1.957031 9 -2.125 C 9.425781 -1.957031 9.910156 -2.019531 10.453125 -2.3125 C 11.003906 -2.613281 11.394531 -2.988281 11.625 -3.4375 C 11.59375 -4.757812 11.578125 -6.066406 11.578125 -7.359375 C 11.578125 -8.648438 11.578125 -9.929688 11.578125 -11.203125 C 11.578125 -12.179688 11.578125 -13.140625 11.578125 -14.078125 C 11.578125 -15.023438 11.578125 -15.988281 11.578125 -16.96875 C 11.578125 -18.726562 11.539062 -20.519531 11.46875 -22.34375 C 10.519531 -22.519531 9.53125 -22.546875 8.5 -22.421875 C 7.46875 -22.296875 6.550781 -22.171875 5.75 -22.046875 C 5.625 -22.015625 5.507812 -21.992188 5.40625 -21.984375 C 5.3125 -21.972656 5.21875 -21.957031 5.125 -21.9375 C 5.070312 -21.65625 5.023438 -21.363281 4.984375 -21.0625 C 4.953125 -20.769531 4.9375 -20.472656 4.9375 -20.171875 C 4.882812 -19.523438 4.804688 -18.914062 4.703125 -18.34375 C 4.609375 -17.769531 4.347656 -17.347656 3.921875 -17.078125 C 3.671875 -17.046875 3.484375 -17.070312 3.359375 -17.15625 C 3.234375 -17.25 3.109375 -17.359375 2.984375 -17.484375 C 2.929688 -17.535156 2.875 -17.582031 2.8125 -17.625 C 2.757812 -17.675781 2.691406 -17.726562 2.609375 -17.78125 C 2.765625 -18.800781 2.84375 -19.878906 2.84375 -21.015625 C 2.84375 -22.148438 3.003906 -23.128906 3.328125 -23.953125 C 4.523438 -24.171875 5.867188 -24.285156 7.359375 -24.296875 C 8.847656 -24.316406 10.304688 -24.3125 11.734375 -24.28125 C 12.179688 -24.257812 12.613281 -24.25 13.03125 -24.25 C 13.457031 -24.25 13.867188 -24.25 14.265625 -24.25 C 14.691406 -24.25 15.125 -24.257812 15.5625 -24.28125 C 16 -24.3125 16.425781 -24.335938 16.84375 -24.359375 C 18.1875 -24.429688 19.46875 -24.441406 20.6875 -24.390625 C 21.914062 -24.347656 22.914062 -23.960938 23.6875 -23.234375 Z M 23.6875 -23.234375 "/></g></g></g><g fill="#000000" fill-opacity="1"><g transform="translate(563.11003, 459.575719)"><g><path d="M 26.828125 -1.375 C 26.722656 -0.925781 26.472656 -0.617188 26.078125 -0.453125 C 25.679688 -0.296875 25.195312 -0.207031 24.625 -0.1875 C 24.34375 -0.1875 24.066406 -0.191406 23.796875 -0.203125 C 23.523438 -0.210938 23.25 -0.21875 22.96875 -0.21875 C 22.394531 -0.269531 21.878906 -0.289062 21.421875 -0.28125 C 20.960938 -0.269531 20.644531 -0.175781 20.46875 0 C 20.269531 0.0195312 20.003906 -0.0351562 19.671875 -0.171875 C 19.335938 -0.304688 19.085938 -0.535156 18.921875 -0.859375 C 18.765625 -1.179688 18.820312 -1.582031 19.09375 -2.0625 C 19.414062 -2.207031 19.785156 -2.3125 20.203125 -2.375 C 20.628906 -2.4375 21.003906 -2.53125 21.328125 -2.65625 C 21.328125 -3.394531 21.320312 -4.164062 21.3125 -4.96875 C 21.300781 -5.769531 21.296875 -6.554688 21.296875 -7.328125 C 21.265625 -8.171875 21.242188 -8.972656 21.234375 -9.734375 C 21.222656 -10.492188 21.226562 -11.1875 21.25 -11.8125 C 19.707031 -12.007812 18.15625 -12.09375 16.59375 -12.0625 C 15.039062 -12.039062 13.546875 -12.003906 12.109375 -11.953125 C 11.554688 -11.953125 11.023438 -11.9375 10.515625 -11.90625 C 10.003906 -11.882812 9.5 -11.875 9 -11.875 C 9 -11.15625 9.003906 -10.472656 9.015625 -9.828125 C 9.035156 -9.179688 9.046875 -8.554688 9.046875 -7.953125 C 9.066406 -7.160156 9.082031 -6.359375 9.09375 -5.546875 C 9.101562 -4.734375 9.097656 -3.84375 9.078125 -2.875 C 9.273438 -2.601562 9.546875 -2.390625 9.890625 -2.234375 C 10.242188 -2.085938 10.59375 -1.9375 10.9375 -1.78125 C 11.289062 -1.632812 11.554688 -1.414062 11.734375 -1.125 C 11.628906 -0.71875 11.429688 -0.453125 11.140625 -0.328125 C 10.859375 -0.210938 10.507812 -0.164062 10.09375 -0.1875 C 9.9375 -0.1875 9.769531 -0.191406 9.59375 -0.203125 C 9.425781 -0.210938 9.253906 -0.234375 9.078125 -0.265625 C 8.773438 -0.285156 8.457031 -0.304688 8.125 -0.328125 C 7.789062 -0.359375 7.445312 -0.375 7.09375 -0.375 C 6.925781 -0.375 6.757812 -0.351562 6.59375 -0.3125 C 6.425781 -0.28125 6.269531 -0.238281 6.125 -0.1875 C 5.976562 -0.132812 5.832031 -0.09375 5.6875 -0.0625 C 5.550781 -0.0390625 5.4375 -0.046875 5.34375 -0.078125 C 4.945312 -0.148438 4.601562 -0.375 4.3125 -0.75 C 4.03125 -1.125 3.960938 -1.472656 4.109375 -1.796875 C 4.234375 -2.066406 4.429688 -2.234375 4.703125 -2.296875 C 4.984375 -2.359375 5.285156 -2.414062 5.609375 -2.46875 C 5.929688 -2.519531 6.21875 -2.644531 6.46875 -2.84375 C 6.46875 -5.257812 6.46875 -7.679688 6.46875 -10.109375 C 6.46875 -12.535156 6.441406 -14.820312 6.390625 -16.96875 C 6.359375 -17.988281 6.332031 -18.957031 6.3125 -19.875 C 6.289062 -20.789062 6.253906 -21.648438 6.203125 -22.453125 C 6.003906 -22.554688 5.789062 -22.617188 5.5625 -22.640625 C 5.34375 -22.660156 5.109375 -22.660156 4.859375 -22.640625 C 4.585938 -22.640625 4.3125 -22.648438 4.03125 -22.671875 C 3.757812 -22.703125 3.5 -22.800781 3.25 -22.96875 C 3.226562 -23.175781 3.25 -23.332031 3.3125 -23.4375 C 3.375 -23.550781 3.441406 -23.660156 3.515625 -23.765625 C 3.585938 -23.835938 3.65625 -23.921875 3.71875 -24.015625 C 3.78125 -24.117188 3.8125 -24.257812 3.8125 -24.4375 C 4.332031 -24.382812 4.863281 -24.367188 5.40625 -24.390625 C 5.957031 -24.421875 6.507812 -24.460938 7.0625 -24.515625 C 7.332031 -24.515625 7.601562 -24.523438 7.875 -24.546875 C 8.15625 -24.566406 8.429688 -24.578125 8.703125 -24.578125 C 9.421875 -24.609375 10.070312 -24.539062 10.65625 -24.375 C 11.25 -24.21875 11.695312 -23.875 12 -23.34375 C 11.75 -23.050781 11.375 -22.875 10.875 -22.8125 C 10.375 -22.75 9.828125 -22.726562 9.234375 -22.75 C 9.054688 -22.125 8.957031 -21.273438 8.9375 -20.203125 C 8.925781 -19.140625 8.9375 -18.0625 8.96875 -16.96875 L 8.96875 -16.890625 C 8.988281 -16.390625 9.003906 -15.894531 9.015625 -15.40625 C 9.035156 -14.925781 9.03125 -14.472656 9 -14.046875 C 10.375 -13.921875 11.78125 -13.867188 13.21875 -13.890625 C 14.664062 -13.921875 16.085938 -13.960938 17.484375 -14.015625 C 18.109375 -14.035156 18.722656 -14.054688 19.328125 -14.078125 C 19.941406 -14.109375 20.535156 -14.125 21.109375 -14.125 C 21.203125 -14.539062 21.253906 -14.976562 21.265625 -15.4375 C 21.285156 -15.90625 21.269531 -16.398438 21.21875 -16.921875 C 21.195312 -17.222656 21.171875 -17.535156 21.140625 -17.859375 C 21.117188 -18.179688 21.082031 -18.503906 21.03125 -18.828125 C 20.976562 -19.453125 20.925781 -20.066406 20.875 -20.671875 C 20.832031 -21.285156 20.820312 -21.878906 20.84375 -22.453125 C 20.5 -22.453125 20.082031 -22.484375 19.59375 -22.546875 C 19.101562 -22.609375 18.648438 -22.710938 18.234375 -22.859375 C 18.078125 -23.109375 18.035156 -23.332031 18.109375 -23.53125 C 18.191406 -23.726562 18.28125 -23.914062 18.375 -24.09375 C 18.425781 -24.164062 18.476562 -24.242188 18.53125 -24.328125 C 18.582031 -24.421875 18.617188 -24.519531 18.640625 -24.625 C 19.085938 -24.59375 19.539062 -24.582031 20 -24.59375 C 20.46875 -24.613281 20.910156 -24.632812 21.328125 -24.65625 C 22.378906 -24.707031 23.363281 -24.707031 24.28125 -24.65625 C 25.207031 -24.601562 25.992188 -24.367188 26.640625 -23.953125 C 26.484375 -23.472656 26.148438 -23.175781 25.640625 -23.0625 C 25.128906 -22.957031 24.550781 -22.914062 23.90625 -22.9375 C 23.832031 -22.0625 23.78125 -21.113281 23.75 -20.09375 C 23.726562 -19.070312 23.734375 -18.015625 23.765625 -16.921875 C 23.765625 -16.253906 23.773438 -15.582031 23.796875 -14.90625 C 23.816406 -14.226562 23.84375 -13.546875 23.875 -12.859375 C 23.925781 -11.035156 23.957031 -9.25 23.96875 -7.5 C 23.976562 -5.757812 23.921875 -4.207031 23.796875 -2.84375 C 24.148438 -2.4375 24.617188 -2.191406 25.203125 -2.109375 C 25.785156 -2.023438 26.328125 -1.78125 26.828125 -1.375 Z M 26.828125 -1.375 "/></g></g></g><g fill="#000000" fill-opacity="1"><g transform="translate(592.992909, 459.575719)"><g><path d="M 13.640625 -23.421875 C 13.515625 -23.046875 13.21875 -22.832031 12.75 -22.78125 C 12.289062 -22.738281 11.8125 -22.726562 11.3125 -22.75 C 11.164062 -22.75 11.015625 -22.75 10.859375 -22.75 C 10.710938 -22.75 10.566406 -22.75 10.421875 -22.75 C 10.328125 -22.675781 10.351562 -22.488281 10.5 -22.1875 C 10.550781 -22.09375 10.59375 -21.988281 10.625 -21.875 C 10.664062 -21.757812 10.6875 -21.65625 10.6875 -21.5625 C 10.582031 -21.457031 10.503906 -21.335938 10.453125 -21.203125 C 10.410156 -21.066406 10.363281 -20.898438 10.3125 -20.703125 C 10.289062 -20.078125 10.28125 -19.457031 10.28125 -18.84375 C 10.28125 -18.238281 10.265625 -17.613281 10.234375 -16.96875 C 10.210938 -14.570312 10.191406 -12.148438 10.171875 -9.703125 C 10.160156 -7.265625 10.15625 -4.835938 10.15625 -2.421875 C 10.726562 -2.398438 11.347656 -2.265625 12.015625 -2.015625 C 12.691406 -1.765625 13.179688 -1.378906 13.484375 -0.859375 C 12.859375 -0.484375 12.140625 -0.28125 11.328125 -0.25 C 10.523438 -0.226562 9.6875 -0.242188 8.8125 -0.296875 C 8.289062 -0.328125 7.773438 -0.347656 7.265625 -0.359375 C 6.753906 -0.367188 6.265625 -0.335938 5.796875 -0.265625 C 5.640625 -0.234375 5.523438 -0.175781 5.453125 -0.09375 C 5.378906 -0.0078125 5.304688 0.0820312 5.234375 0.1875 C 5.160156 0.332031 5.0625 0.460938 4.9375 0.578125 C 4.8125 0.691406 4.609375 0.710938 4.328125 0.640625 C 4.078125 0.285156 3.984375 -0.0625 4.046875 -0.40625 C 4.109375 -0.757812 4.242188 -1.09375 4.453125 -1.40625 C 4.671875 -1.71875 4.867188 -1.972656 5.046875 -2.171875 C 5.171875 -2.171875 5.300781 -2.171875 5.4375 -2.171875 C 5.570312 -2.171875 5.710938 -2.171875 5.859375 -2.171875 C 6.160156 -2.171875 6.457031 -2.171875 6.75 -2.171875 C 7.050781 -2.171875 7.316406 -2.21875 7.546875 -2.3125 C 7.523438 -4.550781 7.515625 -6.9375 7.515625 -9.46875 C 7.515625 -12 7.488281 -14.5 7.4375 -16.96875 C 7.40625 -18.90625 7.328125 -20.769531 7.203125 -22.5625 C 7.035156 -22.613281 6.847656 -22.644531 6.640625 -22.65625 C 6.441406 -22.664062 6.234375 -22.671875 6.015625 -22.671875 C 5.660156 -22.671875 5.320312 -22.679688 5 -22.703125 C 4.675781 -22.734375 4.390625 -22.847656 4.140625 -23.046875 C 4.097656 -23.242188 4.109375 -23.394531 4.171875 -23.5 C 4.234375 -23.601562 4.300781 -23.703125 4.375 -23.796875 C 4.445312 -23.867188 4.503906 -23.945312 4.546875 -24.03125 C 4.597656 -24.125 4.625 -24.234375 4.625 -24.359375 C 5.40625 -24.359375 6.234375 -24.394531 7.109375 -24.46875 C 7.992188 -24.539062 8.863281 -24.578125 9.71875 -24.578125 C 10.5625 -24.578125 11.332031 -24.503906 12.03125 -24.359375 C 12.726562 -24.210938 13.265625 -23.898438 13.640625 -23.421875 Z M 13.640625 -23.421875 "/></g></g></g><g fill="#000000" fill-opacity="1"><g transform="translate(610.54911, 459.575719)"><g><path d="M 27.640625 -23.796875 C 27.617188 -23.273438 27.363281 -22.960938 26.875 -22.859375 C 26.394531 -22.765625 25.867188 -22.71875 25.296875 -22.71875 C 25.097656 -22.664062 24.96875 -22.546875 24.90625 -22.359375 C 24.84375 -22.171875 24.785156 -21.96875 24.734375 -21.75 C 24.679688 -21.539062 24.53125 -21.363281 24.28125 -21.21875 C 24.351562 -20.550781 24.410156 -19.851562 24.453125 -19.125 C 24.492188 -18.40625 24.523438 -17.671875 24.546875 -16.921875 C 24.566406 -16.078125 24.578125 -15.210938 24.578125 -14.328125 C 24.578125 -13.441406 24.578125 -12.550781 24.578125 -11.65625 C 24.609375 -9.738281 24.640625 -7.851562 24.671875 -6 C 24.710938 -4.144531 24.84375 -2.441406 25.0625 -0.890625 C 24.789062 -0.492188 24.367188 -0.269531 23.796875 -0.21875 C 23.222656 -0.175781 22.828125 -0.289062 22.609375 -0.5625 C 22.003906 -1.28125 21.429688 -2.085938 20.890625 -2.984375 C 20.359375 -3.878906 19.734375 -4.753906 19.015625 -5.609375 C 17.671875 -7.203125 16.375 -9.019531 15.125 -11.0625 C 13.882812 -13.101562 12.640625 -15.070312 11.390625 -16.96875 C 10.921875 -17.738281 10.4375 -18.472656 9.9375 -19.171875 C 9.4375 -19.867188 8.9375 -20.523438 8.4375 -21.140625 C 8.414062 -20.398438 8.390625 -19.691406 8.359375 -19.015625 C 8.335938 -18.335938 8.328125 -17.65625 8.328125 -16.96875 C 8.328125 -16.039062 8.335938 -15.082031 8.359375 -14.09375 C 8.390625 -13.113281 8.414062 -12.023438 8.4375 -10.828125 C 8.4375 -10.378906 8.429688 -9.910156 8.421875 -9.421875 C 8.410156 -8.941406 8.394531 -8.46875 8.375 -8 C 8.320312 -7 8.285156 -6.054688 8.265625 -5.171875 C 8.253906 -4.285156 8.363281 -3.554688 8.59375 -2.984375 C 8.71875 -2.640625 8.941406 -2.378906 9.265625 -2.203125 C 9.585938 -2.023438 9.921875 -1.867188 10.265625 -1.734375 C 10.617188 -1.597656 10.882812 -1.40625 11.0625 -1.15625 C 10.957031 -0.851562 10.75 -0.648438 10.4375 -0.546875 C 10.125 -0.453125 9.894531 -0.296875 9.75 -0.078125 C 9.300781 -0.253906 8.832031 -0.332031 8.34375 -0.3125 C 7.863281 -0.300781 7.382812 -0.257812 6.90625 -0.1875 C 6.382812 -0.132812 5.882812 -0.109375 5.40625 -0.109375 C 4.9375 -0.109375 4.503906 -0.222656 4.109375 -0.453125 C 3.960938 -0.648438 3.90625 -0.816406 3.9375 -0.953125 C 3.976562 -1.085938 4.035156 -1.21875 4.109375 -1.34375 C 4.160156 -1.445312 4.207031 -1.539062 4.25 -1.625 C 4.300781 -1.707031 4.328125 -1.8125 4.328125 -1.9375 C 4.648438 -2.0625 4.984375 -2.164062 5.328125 -2.25 C 5.679688 -2.34375 6.035156 -2.441406 6.390625 -2.546875 C 6.609375 -4.460938 6.695312 -6.460938 6.65625 -8.546875 C 6.625 -10.640625 6.546875 -12.796875 6.421875 -15.015625 C 6.421875 -15.335938 6.414062 -15.660156 6.40625 -15.984375 C 6.394531 -16.304688 6.375 -16.632812 6.34375 -16.96875 C 6.320312 -17.90625 6.289062 -18.84375 6.25 -19.78125 C 6.21875 -20.71875 6.191406 -21.660156 6.171875 -22.609375 C 5.867188 -22.503906 5.554688 -22.460938 5.234375 -22.484375 C 4.910156 -22.515625 4.632812 -22.59375 4.40625 -22.71875 C 4.15625 -22.882812 4.003906 -23.117188 3.953125 -23.421875 C 3.910156 -23.722656 4.0625 -24.070312 4.40625 -24.46875 C 4.726562 -24.445312 5.050781 -24.4375 5.375 -24.4375 C 5.695312 -24.4375 6.019531 -24.445312 6.34375 -24.46875 C 7.195312 -24.46875 8.023438 -24.441406 8.828125 -24.390625 C 9.640625 -24.347656 10.410156 -24.160156 11.140625 -23.828125 C 11.140625 -23.710938 11.109375 -23.628906 11.046875 -23.578125 C 10.984375 -23.523438 10.910156 -23.472656 10.828125 -23.421875 C 10.628906 -23.347656 10.53125 -23.25 10.53125 -23.125 C 11.226562 -22.101562 11.929688 -21.078125 12.640625 -20.046875 C 13.347656 -19.015625 14.050781 -17.988281 14.75 -16.96875 C 16.101562 -15.039062 17.457031 -13.117188 18.8125 -11.203125 C 20.164062 -9.285156 21.503906 -7.394531 22.828125 -5.53125 C 22.773438 -7.445312 22.75 -9.347656 22.75 -11.234375 C 22.75 -13.128906 22.722656 -15.023438 22.671875 -16.921875 C 22.628906 -18.785156 22.519531 -20.65625 22.34375 -22.53125 C 22.164062 -22.601562 21.988281 -22.648438 21.8125 -22.671875 C 21.644531 -22.703125 21.472656 -22.71875 21.296875 -22.71875 C 20.972656 -22.769531 20.6875 -22.832031 20.4375 -22.90625 C 20.1875 -22.976562 20.050781 -23.175781 20.03125 -23.5 C 20 -23.925781 20.300781 -24.226562 20.9375 -24.40625 C 21.570312 -24.59375 22.3125 -24.703125 23.15625 -24.734375 C 23.8125 -24.753906 24.460938 -24.726562 25.109375 -24.65625 C 25.753906 -24.582031 26.3125 -24.46875 26.78125 -24.3125 C 27.257812 -24.164062 27.546875 -23.992188 27.640625 -23.796875 Z M 27.640625 -23.796875 "/></g></g></g><g fill="#000000" fill-opacity="1"><g transform="translate(641.17906, 459.575719)"><g><path d="M 26.71875 -10.578125 C 26.613281 -10.253906 26.382812 -10.066406 26.03125 -10.015625 C 25.6875 -9.960938 25.300781 -9.9375 24.875 -9.9375 C 24.707031 -9.9375 24.53125 -9.929688 24.34375 -9.921875 C 24.15625 -9.910156 23.984375 -9.890625 23.828125 -9.859375 C 23.609375 -9.335938 23.476562 -8.707031 23.4375 -7.96875 C 23.40625 -7.238281 23.398438 -6.472656 23.421875 -5.671875 C 23.453125 -4.898438 23.453125 -4.128906 23.421875 -3.359375 C 23.398438 -2.585938 23.273438 -1.90625 23.046875 -1.3125 C 22.722656 -1.082031 22.398438 -0.960938 22.078125 -0.953125 C 21.753906 -0.941406 21.429688 -1.070312 21.109375 -1.34375 C 20.359375 -0.84375 19.445312 -0.445312 18.375 -0.15625 C 17.3125 0.125 16.191406 0.28125 15.015625 0.3125 C 13.847656 0.351562 12.707031 0.234375 11.59375 -0.046875 C 10.488281 -0.335938 9.515625 -0.804688 8.671875 -1.453125 C 8.441406 -1.628906 8.242188 -1.875 8.078125 -2.1875 C 7.921875 -2.5 7.734375 -2.765625 7.515625 -2.984375 C 7.265625 -3.265625 6.992188 -3.488281 6.703125 -3.65625 C 6.421875 -3.832031 6.203125 -4.019531 6.046875 -4.21875 C 5.304688 -5.238281 4.753906 -6.414062 4.390625 -7.75 C 4.023438 -9.082031 3.84375 -10.457031 3.84375 -11.875 C 3.84375 -12.75 3.90625 -13.613281 4.03125 -14.46875 C 4.15625 -15.332031 4.332031 -16.164062 4.5625 -16.96875 C 4.976562 -18.4375 5.578125 -19.765625 6.359375 -20.953125 C 7.148438 -22.148438 8.09375 -23.0625 9.1875 -23.6875 C 9.914062 -24.082031 10.742188 -24.40625 11.671875 -24.65625 C 12.609375 -24.90625 13.585938 -25.039062 14.609375 -25.0625 C 15.398438 -25.09375 16.203125 -25.023438 17.015625 -24.859375 C 17.828125 -24.703125 18.582031 -24.4375 19.28125 -24.0625 C 19.445312 -24.207031 19.628906 -24.257812 19.828125 -24.21875 C 20.035156 -24.1875 20.238281 -24.144531 20.4375 -24.09375 C 20.582031 -24.039062 20.71875 -23.992188 20.84375 -23.953125 C 20.96875 -23.921875 21.09375 -23.921875 21.21875 -23.953125 C 21.363281 -23.972656 21.507812 -24.019531 21.65625 -24.09375 C 21.8125 -24.164062 21.953125 -24.242188 22.078125 -24.328125 C 22.273438 -24.453125 22.46875 -24.550781 22.65625 -24.625 C 22.84375 -24.695312 23.050781 -24.679688 23.28125 -24.578125 C 23.15625 -24.160156 23.101562 -23.703125 23.125 -23.203125 C 23.144531 -22.703125 23.179688 -22.191406 23.234375 -21.671875 C 23.265625 -21.421875 23.289062 -21.171875 23.3125 -20.921875 C 23.332031 -20.671875 23.34375 -20.4375 23.34375 -20.21875 C 23.375 -19.644531 23.328125 -19.117188 23.203125 -18.640625 C 23.078125 -18.171875 22.800781 -17.796875 22.375 -17.515625 C 21.957031 -17.722656 21.71875 -18 21.65625 -18.34375 C 21.59375 -18.6875 21.5625 -19.0625 21.5625 -19.46875 C 21.5625 -19.6875 21.546875 -19.914062 21.515625 -20.15625 C 21.492188 -20.394531 21.445312 -20.625 21.375 -20.84375 C 21.050781 -21.789062 20.304688 -22.472656 19.140625 -22.890625 C 17.984375 -23.316406 16.742188 -23.507812 15.421875 -23.46875 C 14.503906 -23.4375 13.597656 -23.304688 12.703125 -23.078125 C 11.804688 -22.859375 11.070312 -22.535156 10.5 -22.109375 C 9.726562 -21.566406 9.09375 -20.847656 8.59375 -19.953125 C 8.09375 -19.054688 7.71875 -18.0625 7.46875 -16.96875 C 7.34375 -16.34375 7.25 -15.695312 7.1875 -15.03125 C 7.125 -14.375 7.09375 -13.707031 7.09375 -13.03125 C 7.125 -11.519531 7.3125 -10.019531 7.65625 -8.53125 C 8.007812 -7.050781 8.515625 -5.742188 9.171875 -4.609375 C 9.828125 -3.472656 10.617188 -2.644531 11.546875 -2.125 C 12.492188 -1.78125 13.554688 -1.578125 14.734375 -1.515625 C 15.921875 -1.453125 17.039062 -1.554688 18.09375 -1.828125 C 19.15625 -2.097656 19.960938 -2.546875 20.515625 -3.171875 C 20.429688 -3.773438 20.390625 -4.425781 20.390625 -5.125 C 20.390625 -5.820312 20.414062 -6.515625 20.46875 -7.203125 C 20.46875 -7.628906 20.472656 -8.050781 20.484375 -8.46875 C 20.503906 -8.894531 20.515625 -9.3125 20.515625 -9.71875 C 20.285156 -9.9375 19.988281 -10.046875 19.625 -10.046875 C 19.269531 -10.046875 18.929688 -10.019531 18.609375 -9.96875 C 18.328125 -9.925781 18.070312 -9.90625 17.84375 -9.90625 C 17.625 -9.90625 17.453125 -9.953125 17.328125 -10.046875 C 17.203125 -10.972656 17.363281 -11.503906 17.8125 -11.640625 C 18.269531 -11.773438 18.929688 -11.816406 19.796875 -11.765625 C 20.097656 -11.765625 20.410156 -11.757812 20.734375 -11.75 C 21.054688 -11.738281 21.394531 -11.742188 21.75 -11.765625 C 21.894531 -11.765625 22.039062 -11.769531 22.1875 -11.78125 C 22.34375 -11.800781 22.492188 -11.820312 22.640625 -11.84375 C 23.234375 -11.894531 23.828125 -11.921875 24.421875 -11.921875 C 25.023438 -11.921875 25.53125 -11.828125 25.9375 -11.640625 C 26.351562 -11.453125 26.613281 -11.097656 26.71875 -10.578125 Z M 26.71875 -10.578125 "/></g></g></g><g fill="#000000" fill-opacity="1"><g transform="translate(669.829267, 459.575719)"><g/></g></g><g fill="#000000" fill-opacity="1"><g transform="translate(679.16766, 459.575719)"><g><path d="M 31.421875 -1.375 C 31.117188 -1.007812 30.625 -0.71875 29.9375 -0.5 C 29.257812 -0.289062 28.5 -0.160156 27.65625 -0.109375 C 26.820312 -0.0546875 26.03125 -0.0859375 25.28125 -0.203125 C 24.539062 -0.316406 23.972656 -0.5 23.578125 -0.75 C 23.523438 -0.925781 23.53125 -1.0625 23.59375 -1.15625 C 23.65625 -1.257812 23.722656 -1.359375 23.796875 -1.453125 C 23.867188 -1.523438 23.941406 -1.613281 24.015625 -1.71875 C 24.097656 -1.820312 24.140625 -1.957031 24.140625 -2.125 C 24.410156 -2.125 24.722656 -2.179688 25.078125 -2.296875 C 25.441406 -2.410156 25.765625 -2.554688 26.046875 -2.734375 C 26.046875 -5.023438 26.023438 -7.359375 25.984375 -9.734375 C 25.941406 -12.109375 25.910156 -14.503906 25.890625 -16.921875 C 25.867188 -17.867188 25.859375 -18.820312 25.859375 -19.78125 C 25.859375 -20.738281 25.859375 -21.691406 25.859375 -22.640625 C 25.859375 -22.640625 25.753906 -22.332031 25.546875 -21.71875 C 25.347656 -21.113281 25.226562 -20.375 25.1875 -19.5 C 24.8125 -18.675781 24.4375 -17.816406 24.0625 -16.921875 C 23.4375 -15.398438 22.789062 -13.820312 22.125 -12.1875 C 21.46875 -10.5625 20.84375 -8.988281 20.25 -7.46875 C 20.050781 -6.945312 19.828125 -6.347656 19.578125 -5.671875 C 19.328125 -5.003906 19.101562 -4.367188 18.90625 -3.765625 C 18.875 -3.671875 18.847656 -3.570312 18.828125 -3.46875 C 18.804688 -3.375 18.78125 -3.265625 18.75 -3.140625 C 18.65625 -2.765625 18.546875 -2.390625 18.421875 -2.015625 C 18.296875 -1.640625 18.085938 -1.335938 17.796875 -1.109375 C 17.515625 -0.890625 17.113281 -0.84375 16.59375 -0.96875 C 15.394531 -3.53125 14.269531 -6.171875 13.21875 -8.890625 C 12.175781 -11.609375 11.109375 -14.300781 10.015625 -16.96875 C 9.691406 -17.757812 9.375 -18.535156 9.0625 -19.296875 C 8.75 -20.054688 8.414062 -20.8125 8.0625 -21.5625 C 8.0625 -21.5625 8.070312 -21.347656 8.09375 -20.921875 C 8.125 -20.492188 8.148438 -20 8.171875 -19.4375 C 8.203125 -18.882812 8.21875 -18.382812 8.21875 -17.9375 L 8.25 -16.96875 C 8.332031 -15.34375 8.390625 -13.644531 8.421875 -11.875 C 8.460938 -10.113281 8.5 -8.394531 8.53125 -6.71875 C 8.570312 -5.050781 8.601562 -3.535156 8.625 -2.171875 C 8.945312 -1.921875 9.3125 -1.738281 9.71875 -1.625 C 10.132812 -1.507812 10.429688 -1.265625 10.609375 -0.890625 C 10.359375 -0.546875 9.960938 -0.304688 9.421875 -0.171875 C 8.890625 -0.0351562 8.304688 0.0234375 7.671875 0.015625 C 7.035156 0.00390625 6.398438 -0.0351562 5.765625 -0.109375 C 5.128906 -0.179688 4.585938 -0.257812 4.140625 -0.34375 C 3.972656 -0.988281 4.132812 -1.507812 4.625 -1.90625 C 5.125 -2.300781 5.660156 -2.578125 6.234375 -2.734375 C 6.515625 -4.867188 6.625 -7.15625 6.5625 -9.59375 C 6.5 -12.039062 6.40625 -14.5 6.28125 -16.96875 C 6.226562 -17.882812 6.179688 -18.789062 6.140625 -19.6875 C 6.109375 -20.582031 6.066406 -21.46875 6.015625 -22.34375 C 5.742188 -22.394531 5.425781 -22.421875 5.0625 -22.421875 C 4.695312 -22.421875 4.304688 -22.441406 3.890625 -22.484375 C 3.890625 -22.609375 3.863281 -22.71875 3.8125 -22.8125 C 3.757812 -22.914062 3.707031 -23.007812 3.65625 -23.09375 C 3.5625 -23.257812 3.488281 -23.429688 3.4375 -23.609375 C 3.382812 -23.785156 3.472656 -23.984375 3.703125 -24.203125 C 4.117188 -24.203125 4.53125 -24.222656 4.9375 -24.265625 C 5.351562 -24.304688 5.773438 -24.363281 6.203125 -24.4375 C 6.992188 -24.53125 7.753906 -24.585938 8.484375 -24.609375 C 9.222656 -24.640625 9.894531 -24.457031 10.5 -24.0625 C 10.570312 -23.9375 10.609375 -23.816406 10.609375 -23.703125 C 10.609375 -23.585938 10.597656 -23.484375 10.578125 -23.390625 C 10.578125 -23.265625 10.578125 -23.140625 10.578125 -23.015625 C 10.578125 -22.890625 10.613281 -22.753906 10.6875 -22.609375 C 11.101562 -21.679688 11.503906 -20.742188 11.890625 -19.796875 C 12.285156 -18.847656 12.679688 -17.90625 13.078125 -16.96875 C 13.828125 -15.144531 14.566406 -13.3125 15.296875 -11.46875 C 16.035156 -9.625 16.828125 -7.84375 17.671875 -6.125 C 18.492188 -7.820312 19.238281 -9.582031 19.90625 -11.40625 C 20.582031 -13.238281 21.242188 -15.078125 21.890625 -16.921875 C 22.367188 -18.210938 22.847656 -19.488281 23.328125 -20.75 C 23.816406 -22.007812 24.347656 -23.222656 24.921875 -24.390625 C 25.367188 -24.546875 25.925781 -24.644531 26.59375 -24.6875 C 27.269531 -24.738281 27.9375 -24.726562 28.59375 -24.65625 C 29.257812 -24.582031 29.820312 -24.421875 30.28125 -24.171875 C 30.738281 -23.921875 30.992188 -23.5625 31.046875 -23.09375 C 30.941406 -22.894531 30.765625 -22.769531 30.515625 -22.71875 C 30.273438 -22.664062 30.003906 -22.640625 29.703125 -22.640625 C 29.503906 -22.640625 29.300781 -22.625 29.09375 -22.59375 C 28.894531 -22.570312 28.722656 -22.523438 28.578125 -22.453125 C 28.554688 -21.554688 28.535156 -20.644531 28.515625 -19.71875 C 28.503906 -18.800781 28.515625 -17.867188 28.546875 -16.921875 C 28.546875 -16.296875 28.554688 -15.664062 28.578125 -15.03125 C 28.609375 -14.394531 28.625 -13.769531 28.625 -13.15625 C 28.664062 -11.382812 28.695312 -9.625 28.71875 -7.875 C 28.75 -6.132812 28.71875 -4.441406 28.625 -2.796875 C 28.820312 -2.523438 29.097656 -2.335938 29.453125 -2.234375 C 29.816406 -2.140625 30.1875 -2.039062 30.5625 -1.9375 C 30.9375 -1.84375 31.222656 -1.65625 31.421875 -1.375 Z M 31.421875 -1.375 "/></g></g></g><g fill="#000000" fill-opacity="1"><g transform="translate(713.53299, 459.575719)"><g><path d="M 20.625 -0.828125 L 20.359375 -0.5625 C 19.117188 -0.457031 17.851562 -0.398438 16.5625 -0.390625 C 15.28125 -0.378906 13.992188 -0.382812 12.703125 -0.40625 C 11.285156 -0.40625 9.878906 -0.398438 8.484375 -0.390625 C 7.085938 -0.378906 5.726562 -0.300781 4.40625 -0.15625 C 4.007812 -0.425781 3.832031 -0.691406 3.875 -0.953125 C 3.925781 -1.210938 4.003906 -1.457031 4.109375 -1.6875 C 4.234375 -1.90625 4.296875 -2.050781 4.296875 -2.125 C 4.441406 -2.226562 4.617188 -2.28125 4.828125 -2.28125 C 5.046875 -2.28125 5.265625 -2.28125 5.484375 -2.28125 C 5.609375 -2.28125 5.738281 -2.269531 5.875 -2.25 C 6.019531 -2.238281 6.15625 -2.25 6.28125 -2.28125 C 6.40625 -4.09375 6.46875 -6.007812 6.46875 -8.03125 C 6.46875 -10.050781 6.453125 -12.019531 6.421875 -13.9375 C 6.421875 -14.457031 6.414062 -14.96875 6.40625 -15.46875 C 6.394531 -15.96875 6.390625 -16.46875 6.390625 -16.96875 C 6.359375 -17.90625 6.347656 -18.796875 6.359375 -19.640625 C 6.378906 -20.492188 6.398438 -21.296875 6.421875 -22.046875 C 6.253906 -22.085938 6.078125 -22.113281 5.890625 -22.125 C 5.703125 -22.144531 5.519531 -22.15625 5.34375 -22.15625 C 5.019531 -22.15625 4.710938 -22.1875 4.421875 -22.25 C 4.140625 -22.3125 3.898438 -22.476562 3.703125 -22.75 C 3.722656 -22.820312 3.742188 -22.921875 3.765625 -23.046875 C 3.816406 -23.347656 3.898438 -23.640625 4.015625 -23.921875 C 4.128906 -24.210938 4.359375 -24.347656 4.703125 -24.328125 C 5.648438 -24.296875 6.703125 -24.257812 7.859375 -24.21875 C 9.015625 -24.1875 10.164062 -24.171875 11.3125 -24.171875 C 12.457031 -24.171875 13.441406 -24.171875 14.265625 -24.171875 C 14.566406 -24.171875 14.863281 -24.179688 15.15625 -24.203125 C 15.457031 -24.234375 15.757812 -24.257812 16.0625 -24.28125 C 16.90625 -24.351562 17.722656 -24.390625 18.515625 -24.390625 C 19.316406 -24.390625 20.019531 -24.179688 20.625 -23.765625 C 20.59375 -23.515625 20.582031 -23.21875 20.59375 -22.875 C 20.613281 -22.539062 20.625 -22.1875 20.625 -21.8125 C 20.675781 -21.113281 20.691406 -20.40625 20.671875 -19.6875 C 20.660156 -18.96875 20.554688 -18.394531 20.359375 -17.96875 C 19.910156 -17.875 19.578125 -17.929688 19.359375 -18.140625 C 19.148438 -18.347656 19.007812 -18.640625 18.9375 -19.015625 C 18.84375 -19.515625 18.773438 -20.082031 18.734375 -20.71875 C 18.703125 -21.351562 18.570312 -21.832031 18.34375 -22.15625 C 18.039062 -22.15625 17.707031 -22.15625 17.34375 -22.15625 C 16.988281 -22.15625 16.613281 -22.164062 16.21875 -22.1875 C 15.019531 -22.1875 13.753906 -22.1875 12.421875 -22.1875 C 11.085938 -22.1875 10.007812 -22.140625 9.1875 -22.046875 C 9.21875 -21.722656 9.234375 -21.3125 9.234375 -20.8125 C 9.234375 -20.3125 9.21875 -19.75 9.1875 -19.125 C 9.1875 -18.78125 9.1875 -18.425781 9.1875 -18.0625 C 9.1875 -17.695312 9.1875 -17.332031 9.1875 -16.96875 C 9.1875 -16.363281 9.203125 -15.757812 9.234375 -15.15625 C 9.273438 -14.5625 9.320312 -13.992188 9.375 -13.453125 C 10.34375 -13.546875 11.34375 -13.601562 12.375 -13.625 C 13.414062 -13.65625 14.429688 -13.695312 15.421875 -13.75 C 15.753906 -13.894531 15.992188 -14.125 16.140625 -14.4375 C 16.285156 -14.75 16.421875 -15.082031 16.546875 -15.4375 C 16.671875 -15.800781 16.832031 -16.109375 17.03125 -16.359375 C 17.207031 -16.460938 17.359375 -16.492188 17.484375 -16.453125 C 17.609375 -16.421875 17.742188 -16.363281 17.890625 -16.28125 C 17.941406 -16.257812 18.003906 -16.226562 18.078125 -16.1875 C 18.148438 -16.15625 18.238281 -16.128906 18.34375 -16.109375 C 18.195312 -15.554688 18.109375 -14.929688 18.078125 -14.234375 C 18.054688 -13.535156 18.054688 -12.828125 18.078125 -12.109375 C 18.078125 -11.503906 18.0625 -10.914062 18.03125 -10.34375 C 18.007812 -9.769531 17.960938 -9.273438 17.890625 -8.859375 C 17.316406 -8.804688 16.941406 -8.945312 16.765625 -9.28125 C 16.597656 -9.613281 16.460938 -9.992188 16.359375 -10.421875 C 16.304688 -10.597656 16.253906 -10.769531 16.203125 -10.9375 C 16.160156 -11.113281 16.101562 -11.28125 16.03125 -11.4375 C 14.882812 -11.601562 13.6875 -11.695312 12.4375 -11.71875 C 11.195312 -11.75 10.113281 -11.554688 9.1875 -11.140625 C 9.238281 -9.765625 9.273438 -8.359375 9.296875 -6.921875 C 9.328125 -5.492188 9.289062 -3.992188 9.1875 -2.421875 C 10.113281 -2.378906 11.125 -2.34375 12.21875 -2.3125 C 13.3125 -2.289062 14.40625 -2.320312 15.5 -2.40625 C 16.59375 -2.5 17.59375 -2.65625 18.5 -2.875 C 18.769531 -3.351562 18.953125 -3.894531 19.046875 -4.5 C 19.148438 -5.113281 19.296875 -5.691406 19.484375 -6.234375 C 19.671875 -6.785156 20.015625 -7.160156 20.515625 -7.359375 C 20.890625 -6.609375 21.054688 -5.78125 21.015625 -4.875 C 20.972656 -3.96875 20.890625 -3.113281 20.765625 -2.3125 C 20.742188 -2.039062 20.710938 -1.78125 20.671875 -1.53125 C 20.640625 -1.28125 20.625 -1.046875 20.625 -0.828125 Z M 20.625 -0.828125 "/></g></g></g></svg>