<?xml version="1.0" standalone="no"?>
<!DOCTYPE svg PUBLIC "-//W3C//DTD SVG 20010904//EN"
 "http://www.w3.org/TR/2001/REC-SVG-20010904/DTD/svg10.dtd">
<svg version="1.0" xmlns="http://www.w3.org/2000/svg"
 width="300.000000pt" height="300.000000pt" viewBox="0 0 300.000000 300.000000"
 preserveAspectRatio="xMidYMid meet">

<g transform="translate(0.000000,300.000000) scale(0.100000,-0.100000)"
fill="#000000" stroke="none">
<path d="M1080 2292 c0 -19 -7 -30 -22 -37 l-23 -10 -3 -294 c-2 -208 1 -298
9 -307 9 -12 91 -14 449 -14 241 0 445 3 454 6 14 5 16 42 16 311 0 296 -1
305 -20 310 -14 4 -20 14 -20 34 0 16 -1 29 -2 29 -2 0 -96 -13 -210 -29
l-208 -29 -172 23 c-95 13 -190 27 -210 30 -36 5 -38 4 -38 -23z m255 -35
l150 -22 3 -282 c2 -239 0 -283 -12 -283 -27 0 -358 50 -367 56 -10 6 -13 547
-2 557 3 4 22 4 42 1 20 -3 104 -15 186 -27z m563 -251 c2 -216 0 -278 -10
-281 -11 -4 -349 -55 -364 -55 -2 0 -4 126 -4 280 0 218 3 282 13 286 18 6
340 52 352 49 6 -1 11 -104 13 -279z"/>
<path d="M973 1513 c-129 -99 -165 -93 528 -93 l600 0 -3 22 c-2 14 -30 41
-78 75 l-75 53 -450 0 -450 -1 -72 -56z m696 -22 c6 -10 7 -21 4 -25 -8 -8
-338 -8 -346 0 -3 4 -2 15 4 25 9 17 24 19 169 19 145 0 160 -2 169 -19z"/>
<path d="M930 1117 c0 -59 4 -97 12 -105 7 -7 42 -12 88 -12 46 0 81 5 88 12
8 8 12 46 12 105 0 76 -3 93 -15 93 -12 0 -15 -16 -15 -85 l0 -85 -70 0 -70 0
0 85 c0 69 -3 85 -15 85 -12 0 -15 -17 -15 -93z"/>
<path d="M1170 1105 l0 -105 89 0 c65 0 92 4 101 14 15 19 8 160 -10 181 -9
11 -33 15 -96 15 l-84 0 0 -105z m158 43 c-3 -21 -8 -23 -63 -23 -55 0 -60 2
-63 23 -3 21 0 22 63 22 63 0 66 -1 63 -22z m12 -83 c0 -24 -2 -25 -70 -25
-68 0 -70 1 -70 25 0 24 2 25 70 25 68 0 70 -1 70 -25z"/>
<path d="M1410 1105 l0 -105 100 0 c93 0 100 1 100 20 0 18 -7 20 -85 20 l-85
0 0 85 c0 69 -3 85 -15 85 -12 0 -15 -18 -15 -105z"/>
<path d="M1648 1199 c-15 -8 -18 -24 -18 -92 0 -51 5 -88 12 -95 19 -19 163
-16 182 4 22 22 22 156 0 178 -18 19 -147 22 -176 5z m152 -94 l0 -65 -65 0
-65 0 0 65 0 65 65 0 65 0 0 -65z"/>
<path d="M1882 1198 c-7 -7 -12 -43 -12 -93 0 -50 5 -86 12 -93 7 -7 42 -12
88 -12 46 0 81 5 88 12 7 7 12 34 12 60 l0 48 -40 0 c-33 0 -40 -3 -40 -20 0
-15 7 -20 25 -20 18 0 25 -5 25 -20 0 -18 -7 -20 -70 -20 l-70 0 0 65 0 65 70
0 c40 0 70 -4 70 -10 0 -5 7 -10 15 -10 18 0 20 31 3 48 -16 16 -160 16 -176
0z"/>
</g>
</svg>
