<?xml version="1.0" standalone="no"?>
<!DOCTYPE svg PUBLIC "-//W3C//DTD SVG 20010904//EN"
 "http://www.w3.org/TR/2001/REC-SVG-20010904/DTD/svg10.dtd">
<svg version="1.0" xmlns="http://www.w3.org/2000/svg"
 width="1000.000000pt" height="1000.000000pt" viewBox="0 0 1000.000000 1000.000000"
 preserveAspectRatio="xMidYMid meet">

<g transform="translate(0.000000,1000.000000) scale(0.100000,-0.100000)"
fill="#000000" stroke="none">
<path d="M3550 6314 c-300 -26 -539 -99 -621 -191 -72 -80 -73 -133 -13 -408
34 -154 43 -229 74 -630 24 -315 71 -450 179 -513 36 -21 59 -27 107 -27 78 0
112 25 179 129 63 98 87 109 152 70 64 -37 170 -142 178 -177 9 -36 -14 -71
-68 -99 -38 -21 -53 -23 -170 -20 -143 2 -227 -12 -311 -54 -97 -49 -137 -106
-116 -168 13 -40 70 -96 130 -126 40 -20 44 -21 118 -6 42 9 161 27 264 41
507 68 683 114 752 195 31 37 34 89 8 137 -29 54 -129 166 -258 287 -152 144
-214 223 -214 275 0 42 12 60 124 193 302 355 342 618 130 847 -151 163 -406
263 -624 245z m200 -359 c126 -45 160 -152 100 -316 -62 -167 -135 -278 -241
-365 -95 -78 -144 -82 -178 -16 -21 40 -33 111 -56 327 -8 77 -24 173 -35 214
-19 67 -19 76 -5 97 20 31 82 62 147 74 72 12 213 5 268 -15z"/>
<path d="M4843 6259 c-115 -21 -143 -87 -163 -384 -49 -746 -61 -1255 -36
-1539 14 -164 18 -185 46 -242 36 -73 113 -148 168 -164 55 -15 106 3 161 58
91 91 101 149 72 400 -13 105 -13 157 -2 345 7 122 16 362 21 532 5 171 14
370 20 443 16 181 10 366 -14 412 -23 45 -73 97 -109 117 -40 20 -114 30 -164
22z"/>
<path d="M1721 5249 c-57 -41 -86 -106 -111 -253 -26 -155 -29 -414 -6 -500
37 -136 130 -251 243 -304 51 -23 71 -27 158 -27 88 0 107 3 159 27 86 41 149
91 214 171 80 100 133 185 191 308 130 276 139 332 67 429 -61 80 -161 117
-230 85 -64 -30 -100 -88 -196 -313 -60 -140 -100 -192 -147 -192 -17 0 -37 7
-44 17 -20 24 -15 104 15 218 14 54 26 106 26 115 0 43 -33 121 -70 162 -79
91 -191 114 -269 57z"/>
<path d="M7142 5090 c-12 -5 -46 -27 -75 -49 -93 -71 -136 -84 -267 -86 -99
-1 -121 -4 -159 -24 -67 -35 -137 -107 -171 -174 -54 -108 -34 -230 51 -315
90 -91 183 -100 347 -33 56 22 115 41 131 41 56 0 112 -94 147 -249 21 -94 29
-322 15 -406 -32 -181 -124 -396 -222 -515 -74 -91 -89 -120 -89 -173 0 -102
77 -181 179 -182 77 0 129 28 223 120 173 170 289 413 327 687 11 80 6 342 -8
438 -4 30 -31 168 -59 305 -28 138 -55 300 -60 362 -8 97 -12 118 -35 150 -60
86 -193 136 -275 103z"/>
<path d="M5713 4950 c-129 -23 -225 -86 -272 -179 -58 -113 -67 -303 -19 -396
35 -66 90 -118 163 -152 54 -25 70 -28 170 -28 106 0 113 1 185 36 162 77 264
243 246 399 -14 120 -101 246 -204 297 -43 21 -71 27 -136 29 -45 2 -104 -1
-133 -6z"/>
<path d="M8070 4680 c-112 -32 -214 -164 -227 -293 -6 -62 16 -150 48 -191 39
-49 93 -69 178 -64 114 7 209 66 268 165 33 57 32 101 -6 176 -68 138 -184
230 -261 207z"/>
<path d="M5800 3762 c-75 -37 -99 -164 -46 -240 33 -49 72 -67 126 -58 75 12
90 24 90 73 0 29 5 45 15 49 8 4 12 10 9 15 -7 12 -94 11 -94 -1 0 -5 7 -10
16 -10 12 0 14 -10 12 -47 -3 -41 -6 -47 -31 -54 -76 -20 -128 34 -129 135 -1
83 16 109 92 140 l35 14 -30 1 c-16 1 -46 -7 -65 -17z"/>
<path d="M3113 3764 c-8 -4 -5 -12 9 -26 18 -18 20 -30 16 -128 -2 -71 -8
-113 -17 -124 -12 -15 -5 -16 88 -16 99 0 101 0 107 25 3 14 3 33 -1 42 -6 16
-8 14 -21 -9 -10 -19 -24 -28 -54 -33 -56 -9 -72 6 -68 64 3 44 4 46 37 49 18
2 38 -1 44 -7 19 -19 27 -12 27 24 0 33 -12 46 -24 26 -3 -5 -21 -11 -41 -13
-39 -4 -45 4 -45 63 l0 39 58 0 c54 0 59 -2 69 -27 11 -27 11 -27 12 15 l1 42
-92 -1 c-51 0 -98 -3 -105 -5z"/>
<path d="M3417 3764 c-3 -4 2 -14 13 -23 10 -9 34 -67 54 -131 37 -121 56
-158 74 -146 6 3 29 63 52 132 24 70 51 133 61 142 24 21 15 32 -25 32 -40 0
-51 -9 -30 -25 14 -10 12 -21 -16 -108 -18 -53 -38 -97 -45 -97 -6 0 -25 44
-43 98 -26 82 -29 99 -16 108 7 6 11 14 7 17 -8 9 -78 9 -86 1z"/>
<path d="M3785 3760 c-3 -5 1 -13 9 -16 24 -9 23 -229 -1 -256 -15 -17 -12
-18 86 -18 110 0 116 3 108 57 -4 27 -5 27 -12 6 -5 -15 -20 -26 -47 -34 -65
-17 -73 -12 -73 51 l0 55 38 3 c27 2 39 -1 43 -13 9 -22 24 0 24 36 0 33 -10
43 -24 25 -6 -8 -27 -16 -46 -18 l-35 -3 -3 53 -3 52 51 0 c41 0 56 -5 71 -22
l19 -23 -2 35 -3 35 -97 3 c-59 2 -99 -1 -103 -8z"/>
<path d="M4098 3764 c-4 -4 -1 -12 7 -18 11 -8 17 -41 21 -118 6 -91 4 -111
-10 -132 l-16 -26 46 0 c45 0 46 1 31 18 -11 12 -17 36 -17 65 0 37 4 47 20
52 32 10 60 -13 86 -71 25 -56 39 -68 71 -62 16 3 16 5 -4 23 -13 11 -23 25
-23 31 0 6 -12 28 -26 49 l-25 38 27 28 c19 19 27 38 26 60 -1 52 -22 64 -120
67 -48 2 -90 0 -94 -4z m160 -26 c30 -30 8 -90 -38 -107 -48 -16 -60 -6 -60
53 0 29 3 56 7 59 11 12 78 8 91 -5z"/>
<path d="M4417 3763 c-3 -4 -8 -23 -12 -40 -5 -26 -3 -33 9 -33 8 0 16 10 18
22 2 15 13 25 36 32 18 5 35 6 38 3 4 -3 9 -56 12 -117 5 -106 4 -112 -18
-135 l-23 -25 52 0 c52 0 52 0 37 22 -12 17 -16 49 -16 135 0 65 4 114 10 118
22 13 70 -6 76 -31 10 -38 26 -28 22 14 l-3 37 -117 3 c-64 1 -119 -1 -121 -5z"/>
<path d="M4745 3760 c-3 -5 0 -10 8 -10 29 0 38 -214 11 -255 l-16 -25 41 0
c39 0 53 11 31 25 -5 3 -10 29 -10 56 0 44 3 51 26 59 33 13 80 13 105 0 15
-8 19 -21 19 -60 0 -27 -4 -52 -10 -55 -22 -14 -8 -25 31 -25 35 0 40 2 29 15
-16 19 -26 250 -11 260 18 11 2 25 -29 25 -33 0 -48 -15 -24 -24 11 -4 14 -18
12 -53 l-3 -48 -70 0 -70 0 -3 43 c-2 24 2 49 7 56 6 7 8 16 4 19 -10 11 -71
8 -78 -3z"/>
<path d="M5136 3761 c-3 -5 1 -11 9 -15 12 -4 15 -28 15 -125 0 -113 -1 -121
-22 -135 -21 -15 -20 -16 36 -16 57 0 58 1 43 18 -24 26 -25 250 -2 258 26 10
5 24 -35 24 -21 0 -41 -4 -44 -9z"/>
<path d="M5346 3761 c-3 -5 1 -11 9 -15 23 -8 22 -232 -2 -258 -15 -17 -14
-18 26 -18 l42 0 -14 28 c-11 22 -16 158 -8 216 0 5 40 -47 87 -117 48 -70 93
-127 100 -127 11 0 14 27 14 135 0 111 3 137 15 141 23 9 7 24 -25 24 -29 0
-48 -14 -31 -24 12 -8 24 -162 14 -181 -7 -12 -25 7 -79 87 -38 57 -73 106
-79 110 -14 11 -63 10 -69 -1z"/>
<path d="M5910 3760 c-13 -8 -13 -10 0 -10 8 0 24 -12 37 -27 l22 -28 1 31 c0
40 -27 55 -60 34z"/>
<path d="M6200 3760 c0 -6 7 -13 15 -16 23 -9 22 -230 -2 -256 -15 -17 -14
-18 27 -18 33 0 40 3 33 13 -12 14 -23 190 -14 206 4 6 27 -38 51 -97 25 -59
49 -106 55 -106 13 2 18 13 62 127 43 111 50 108 52 -23 1 -54 -4 -82 -15 -98
-15 -22 -14 -22 25 -22 39 0 53 11 31 25 -6 4 -10 57 -10 125 0 68 4 121 10
125 21 13 9 25 -24 25 -35 0 -35 0 -73 -100 -21 -55 -43 -102 -49 -104 -7 -3
-28 34 -49 87 -21 51 -42 98 -48 105 -11 15 -77 16 -77 2z"/>
<path d="M6635 3760 c-3 -6 1 -13 9 -16 23 -9 23 -219 0 -252 l-16 -23 104 3
103 3 3 33 c3 34 -12 45 -21 13 -3 -13 -18 -20 -51 -25 -25 -4 -50 -4 -56 -1
-5 3 -10 31 -10 62 l0 55 38 -4 c20 -3 45 -8 55 -12 14 -7 17 -3 17 29 0 32
-3 36 -17 29 -10 -4 -35 -9 -55 -12 l-38 -4 0 51 0 51 54 0 c50 0 55 -2 64
-27 l10 -28 7 27 c14 53 5 58 -99 58 -53 0 -98 -4 -101 -10z"/>
</g>
</svg>
