<svg xmlns="http://www.w3.org/2000/svg" xmlns:xlink="http://www.w3.org/1999/xlink" width="1920" zoomAndPan="magnify" viewBox="0 0 1440 809.999993" height="1080" preserveAspectRatio="xMidYMid meet" version="1.0"><defs><g/></defs><g fill="#000000" fill-opacity="1"><g transform="translate(325.185693, 503.574452)"><g><path d="M 17.09375 -78.3125 C 18.007812 -83.332031 18.804688 -88.75 19.484375 -94.5625 C 20.171875 -100.375 21.3125 -105.898438 22.90625 -111.140625 C 24.507812 -116.390625 26.847656 -120.664062 29.921875 -123.96875 C 33.003906 -127.269531 37.394531 -128.921875 43.09375 -128.921875 C 49.695312 -128.921875 55.847656 -126.070312 61.546875 -120.375 C 67.253906 -114.675781 70.109375 -107.609375 70.109375 -99.171875 C 69.191406 -94.390625 67.878906 -89.429688 66.171875 -84.296875 C 64.460938 -79.171875 63.609375 -73.984375 63.609375 -68.734375 C 63.609375 -67.140625 64.175781 -65.488281 65.3125 -63.78125 C 66.457031 -62.070312 68.171875 -61.21875 70.453125 -61.21875 C 73.640625 -61.21875 76.546875 -63.210938 79.171875 -67.203125 C 81.796875 -71.191406 84.242188 -76.09375 86.515625 -81.90625 C 88.796875 -87.71875 91.191406 -93.472656 93.703125 -99.171875 C 96.210938 -104.867188 99.175781 -109.710938 102.59375 -113.703125 C 106.007812 -117.691406 110 -119.6875 114.5625 -119.6875 C 117.757812 -119.6875 121.351562 -118.601562 125.34375 -116.4375 C 129.332031 -114.28125 132.75 -111.257812 135.59375 -107.375 C 138.445312 -103.5 139.875 -98.941406 139.875 -93.703125 C 139.875 -91.878906 139.53125 -90.285156 138.84375 -88.921875 C 135.425781 -80.023438 131.4375 -70.675781 126.875 -60.875 C 122.3125 -51.070312 117.007812 -41.835938 110.96875 -33.171875 C 104.925781 -24.503906 98.085938 -17.4375 90.453125 -11.96875 C 82.816406 -6.5 74.210938 -3.765625 64.640625 -3.765625 C 53.460938 -3.765625 44.335938 -6.671875 37.265625 -12.484375 C 30.203125 -18.296875 25.070312 -25.421875 21.875 -33.859375 C 18.6875 -42.296875 17.09375 -50.390625 17.09375 -58.140625 C 17.09375 -61.328125 17.265625 -64.628906 17.609375 -68.046875 C 17.953125 -71.472656 18.238281 -74.894531 18.46875 -78.3125 C 18.46875 -78.3125 18.351562 -78.3125 18.125 -78.3125 C 17.894531 -78.3125 17.550781 -78.3125 17.09375 -78.3125 Z M 17.09375 -78.3125 "/></g></g></g><g fill="#000000" fill-opacity="1"><g transform="translate(465.035672, 503.574452)"><g><path d="M 106.015625 -244.171875 C 114.453125 -243.941406 123.054688 -242.175781 131.828125 -238.875 C 140.609375 -235.570312 148.703125 -231.179688 156.109375 -225.703125 C 163.523438 -220.234375 169.507812 -213.789062 174.0625 -206.375 C 178.625 -198.96875 180.90625 -190.820312 180.90625 -181.9375 C 180.90625 -173.726562 178.96875 -165.460938 175.09375 -157.140625 C 171.21875 -148.816406 166.375 -140.894531 160.5625 -133.375 C 154.75 -125.851562 148.992188 -119.015625 143.296875 -112.859375 C 139.191406 -108.523438 137.140625 -104.421875 137.140625 -100.546875 C 137.140625 -97.578125 139.019531 -93.8125 142.78125 -89.25 C 146.539062 -84.695312 151.15625 -79.796875 156.625 -74.546875 C 162.101562 -69.304688 167.578125 -64.003906 173.046875 -58.640625 C 178.515625 -53.285156 183.128906 -48.210938 186.890625 -43.421875 C 190.648438 -38.640625 192.53125 -34.3125 192.53125 -30.4375 C 192.53125 -25.414062 189.851562 -21.363281 184.5 -18.28125 C 179.144531 -15.207031 172.304688 -12.703125 163.984375 -10.765625 C 155.660156 -8.828125 147.222656 -7.234375 138.671875 -5.984375 C 130.117188 -4.734375 122.539062 -3.535156 115.9375 -2.390625 C 109.550781 -1.253906 103.050781 -0.457031 96.4375 0 C 89.820312 0.457031 83.097656 1.597656 76.265625 3.421875 C 74.671875 3.648438 73.1875 3.929688 71.8125 4.265625 C 70.445312 4.609375 69.082031 4.78125 67.71875 4.78125 C 66.570312 4.78125 64.34375 3.8125 61.03125 1.875 C 57.726562 -0.0625 54.648438 -2.507812 51.796875 -5.46875 C 48.953125 -8.4375 47.53125 -11.398438 47.53125 -14.359375 C 47.53125 -18.234375 49.007812 -21.539062 51.96875 -24.28125 C 54.9375 -27.019531 58.703125 -29.300781 63.265625 -31.125 C 67.828125 -32.945312 72.382812 -34.3125 76.9375 -35.21875 C 81.5 -36.132812 85.265625 -36.59375 88.234375 -36.59375 C 90.515625 -36.59375 92.847656 -36.304688 95.234375 -35.734375 C 97.628906 -35.160156 99.96875 -34.875 102.25 -34.875 C 107.039062 -34.875 111.710938 -36.128906 116.265625 -38.640625 C 120.828125 -41.148438 123.109375 -44 123.109375 -47.1875 C 123.109375 -49.695312 121.910156 -52.316406 119.515625 -55.046875 C 117.128906 -57.785156 114.28125 -60.46875 110.96875 -63.09375 C 107.664062 -65.71875 104.644531 -67.828125 101.90625 -69.421875 C 99.175781 -71.015625 97.351562 -71.8125 96.4375 -71.8125 C 93.925781 -71.8125 91.757812 -70.5 89.9375 -67.875 C 88.113281 -65.257812 86.234375 -62.296875 84.296875 -58.984375 C 82.359375 -55.679688 80.019531 -52.71875 77.28125 -50.09375 C 74.550781 -47.476562 71.019531 -46.171875 66.6875 -46.171875 C 58.25 -46.171875 51.75 -49.019531 47.1875 -54.71875 C 42.632812 -60.414062 39.390625 -67.9375 37.453125 -77.28125 C 35.515625 -86.632812 34.257812 -96.835938 33.6875 -107.890625 C 33.113281 -118.953125 32.484375 -129.953125 31.796875 -140.890625 C 31.117188 -151.835938 29.640625 -161.53125 27.359375 -169.96875 C 25.765625 -176.125 24.222656 -182.960938 22.734375 -190.484375 C 21.253906 -198.003906 20.515625 -203.816406 20.515625 -207.921875 C 20.515625 -214.992188 23.476562 -220.804688 29.40625 -225.359375 C 35.332031 -229.921875 42.796875 -233.515625 51.796875 -236.140625 C 60.804688 -238.765625 70.15625 -240.703125 79.84375 -241.953125 C 89.539062 -243.203125 98.265625 -243.941406 106.015625 -244.171875 Z M 133.375 -178.859375 C 133.375 -179.546875 133.375 -180.226562 133.375 -180.90625 C 133.375 -181.59375 133.375 -182.164062 133.375 -182.625 C 133.375 -191.738281 130.296875 -198.003906 124.140625 -201.421875 C 117.984375 -204.847656 109.890625 -206.5625 99.859375 -206.5625 C 91.878906 -206.5625 85.039062 -205.25 79.34375 -202.625 C 73.644531 -200 70.796875 -196.632812 70.796875 -192.53125 C 73.296875 -187.0625 75 -180.335938 75.90625 -172.359375 C 76.820312 -164.378906 77.625 -156.457031 78.3125 -148.59375 C 79 -140.726562 80.082031 -134.113281 81.5625 -128.75 C 83.039062 -123.394531 85.609375 -120.71875 89.265625 -120.71875 C 91.085938 -120.71875 93.363281 -121.398438 96.09375 -122.765625 C 106.351562 -129.378906 114.273438 -137.585938 119.859375 -147.390625 C 125.453125 -157.191406 129.957031 -167.679688 133.375 -178.859375 Z M 133.375 -178.859375 "/></g></g></g><g fill="#000000" fill-opacity="1"><g transform="translate(664.381667, 503.574452)"><g><path d="M 70.796875 -122.4375 C 70.796875 -109.207031 70.222656 -95.976562 69.078125 -82.75 C 67.941406 -69.53125 67.375 -56.195312 67.375 -42.75 C 67.375 -36.363281 67.941406 -30.035156 69.078125 -23.765625 C 70.222656 -17.492188 70.796875 -11.28125 70.796875 -5.125 C 70.796875 -1.019531 69.539062 3.132812 67.03125 7.34375 C 64.519531 11.5625 61.441406 15.15625 57.796875 18.125 C 54.148438 21.09375 50.503906 22.578125 46.859375 22.578125 C 43.429688 22.578125 39.78125 21.09375 35.90625 18.125 C 32.03125 15.15625 28.609375 11.445312 25.640625 7 C 22.679688 2.5625 20.859375 -2.050781 20.171875 -6.84375 C 18.117188 -25.3125 17.09375 -43.773438 17.09375 -62.234375 C 17.09375 -85.492188 17.773438 -109.429688 19.140625 -134.046875 C 20.515625 -158.671875 22 -182.726562 23.59375 -206.21875 C 24.28125 -218.070312 26.273438 -226.390625 29.578125 -231.171875 C 32.890625 -235.960938 38.421875 -238.359375 46.171875 -238.359375 C 54.609375 -238.359375 61.445312 -235.394531 66.6875 -229.46875 C 71.925781 -223.539062 74.546875 -215.789062 74.546875 -206.21875 C 74.546875 -193.675781 73.863281 -181.363281 72.5 -169.28125 C 71.132812 -157.195312 70.453125 -145.113281 70.453125 -133.03125 C 70.453125 -131.4375 70.453125 -129.726562 70.453125 -127.90625 C 70.453125 -126.082031 70.566406 -124.257812 70.796875 -122.4375 Z M 70.796875 -122.4375 "/></g></g></g><g fill="#000000" fill-opacity="1"><g transform="translate(749.180648, 503.574452)"><g><path d="M 68.734375 -93.015625 C 75.804688 -93.015625 82.132812 -91.019531 87.71875 -87.03125 C 93.300781 -83.039062 97.800781 -77.851562 101.21875 -71.46875 C 104.644531 -65.09375 106.359375 -58.367188 106.359375 -51.296875 C 106.128906 -43.316406 103.789062 -35.960938 99.34375 -29.234375 C 94.894531 -22.515625 89.132812 -17.101562 82.0625 -13 C 75 -8.894531 67.253906 -6.84375 58.828125 -6.84375 C 46.054688 -6.84375 35.90625 -10.316406 28.375 -17.265625 C 20.851562 -24.222656 17.09375 -32.832031 17.09375 -43.09375 C 17.09375 -61.332031 21.367188 -74.210938 29.921875 -81.734375 C 38.472656 -89.253906 51.410156 -93.015625 68.734375 -93.015625 Z M 68.734375 -93.015625 "/></g></g></g><g fill="#000000" fill-opacity="1"><g transform="translate(872.617889, 503.574452)"><g><path d="M 138.84375 31.46875 C 137.25 50.613281 132.972656 68.28125 126.015625 84.46875 C 119.066406 100.65625 108.523438 114.789062 94.390625 126.875 C 91.421875 129.15625 88.285156 130.921875 84.984375 132.171875 C 81.679688 133.429688 78.773438 134.0625 76.265625 134.0625 C 71.472656 134.0625 66.851562 132.125 62.40625 128.25 C 57.96875 124.375 55.75 119.242188 55.75 112.859375 C 55.75 109.660156 56.546875 106.863281 58.140625 104.46875 C 59.734375 102.082031 61.554688 99.75 63.609375 97.46875 C 69.535156 91.3125 74.609375 83.613281 78.828125 74.375 C 83.046875 65.144531 86.347656 55.796875 88.734375 46.328125 C 91.128906 36.867188 92.328125 28.835938 92.328125 22.234375 C 92.328125 17.441406 91.984375 11.679688 91.296875 4.953125 C 90.617188 -1.765625 89.484375 -8.257812 87.890625 -14.53125 C 86.296875 -20.800781 84.242188 -26.046875 81.734375 -30.265625 C 79.222656 -34.484375 76.144531 -36.59375 72.5 -36.59375 C 70.21875 -36.59375 67.3125 -35.738281 63.78125 -34.03125 C 60.25 -32.320312 56.375 -30.609375 52.15625 -28.890625 C 47.9375 -27.179688 43.660156 -26.328125 39.328125 -26.328125 C 34.992188 -26.328125 30.546875 -27.582031 25.984375 -30.09375 C 21.429688 -32.601562 17.671875 -36.191406 14.703125 -40.859375 C 11.742188 -45.535156 10.265625 -51.066406 10.265625 -57.453125 C 10.265625 -62.691406 11.914062 -68.046875 15.21875 -73.515625 C 18.519531 -78.992188 22.847656 -83.613281 28.203125 -87.375 C 33.566406 -91.132812 39.210938 -93.015625 45.140625 -93.015625 C 46.960938 -93.015625 48.785156 -92.84375 50.609375 -92.5 C 52.429688 -92.164062 54.144531 -92 55.75 -92 C 60.988281 -92 65.882812 -93.078125 70.4375 -95.234375 C 75 -97.398438 79.5625 -100.648438 84.125 -104.984375 C 86.863281 -107.492188 90.625 -108.75 95.40625 -108.75 C 99.738281 -108.75 104.015625 -107.722656 108.234375 -105.671875 C 112.453125 -103.617188 115.984375 -100.828125 118.828125 -97.296875 C 121.679688 -93.765625 123.109375 -89.71875 123.109375 -85.15625 C 123.109375 -73.53125 124.363281 -62.242188 126.875 -51.296875 C 129.382812 -40.347656 131.890625 -29.457031 134.390625 -18.625 C 136.898438 -7.800781 138.15625 3.304688 138.15625 14.703125 C 138.15625 17.671875 138.097656 20.578125 137.984375 23.421875 C 137.867188 26.273438 138.15625 28.957031 138.84375 31.46875 Z M 138.84375 31.46875 "/></g></g></g><g fill="#000000" fill-opacity="1"><g transform="translate(1021.699997, 503.574452)"><g><path d="M 17.09375 -28.390625 C 17.78125 -34.316406 19.660156 -39.84375 22.734375 -44.96875 C 25.816406 -50.101562 29.523438 -54.320312 33.859375 -57.625 C 38.191406 -60.925781 42.523438 -62.578125 46.859375 -62.578125 C 49.585938 -62.578125 52.601562 -61.320312 55.90625 -58.8125 C 59.21875 -56.3125 62.410156 -53.125 65.484375 -49.25 C 68.566406 -45.375 71.078125 -41.441406 73.015625 -37.453125 C 74.953125 -33.460938 75.921875 -30.097656 75.921875 -27.359375 C 75.003906 -22.566406 72.78125 -18.0625 69.25 -13.84375 C 65.71875 -9.632812 61.441406 -6.273438 56.421875 -3.765625 C 51.410156 -1.253906 46.28125 0 41.03125 0 C 32.601562 0 26.503906 -2.675781 22.734375 -8.03125 C 18.972656 -13.394531 17.09375 -20.179688 17.09375 -28.390625 Z M 17.09375 -28.390625 "/></g></g></g><g fill="#000000" fill-opacity="1"><g transform="translate(506.174221, 577.627802)"><g><path d="M 28.796875 -1.140625 L 28.4375 -0.78125 C 26.695312 -0.644531 24.929688 -0.566406 23.140625 -0.546875 C 21.347656 -0.523438 19.546875 -0.535156 17.734375 -0.578125 C 15.753906 -0.578125 13.789062 -0.566406 11.84375 -0.546875 C 9.894531 -0.523438 8 -0.410156 6.15625 -0.203125 C 5.601562 -0.585938 5.359375 -0.960938 5.421875 -1.328125 C 5.492188 -1.691406 5.597656 -2.03125 5.734375 -2.34375 C 5.910156 -2.65625 6 -2.863281 6 -2.96875 C 6.207031 -3.113281 6.457031 -3.1875 6.75 -3.1875 C 7.050781 -3.1875 7.359375 -3.1875 7.671875 -3.1875 C 7.847656 -3.1875 8.03125 -3.175781 8.21875 -3.15625 C 8.40625 -3.132812 8.585938 -3.144531 8.765625 -3.1875 C 8.941406 -5.71875 9.03125 -8.390625 9.03125 -11.203125 C 9.03125 -14.023438 9.007812 -16.773438 8.96875 -19.453125 C 8.96875 -20.191406 8.957031 -20.90625 8.9375 -21.59375 C 8.925781 -22.289062 8.921875 -22.988281 8.921875 -23.6875 C 8.890625 -25.007812 8.878906 -26.257812 8.890625 -27.4375 C 8.910156 -28.625 8.9375 -29.738281 8.96875 -30.78125 C 8.726562 -30.851562 8.476562 -30.894531 8.21875 -30.90625 C 7.957031 -30.925781 7.703125 -30.9375 7.453125 -30.9375 C 7.003906 -30.9375 6.578125 -30.976562 6.171875 -31.0625 C 5.773438 -31.15625 5.441406 -31.390625 5.171875 -31.765625 C 5.203125 -31.867188 5.234375 -32.007812 5.265625 -32.1875 C 5.335938 -32.601562 5.453125 -33.007812 5.609375 -33.40625 C 5.765625 -33.8125 6.085938 -34 6.578125 -33.96875 C 7.898438 -33.925781 9.367188 -33.878906 10.984375 -33.828125 C 12.597656 -33.773438 14.203125 -33.75 15.796875 -33.75 C 17.398438 -33.75 18.773438 -33.75 19.921875 -33.75 C 20.347656 -33.75 20.769531 -33.765625 21.1875 -33.796875 C 21.601562 -33.835938 22.019531 -33.875 22.4375 -33.90625 C 23.613281 -34.007812 24.757812 -34.0625 25.875 -34.0625 C 26.988281 -34.0625 27.960938 -33.769531 28.796875 -33.1875 C 28.765625 -32.832031 28.753906 -32.421875 28.765625 -31.953125 C 28.785156 -31.484375 28.796875 -30.988281 28.796875 -30.46875 C 28.867188 -29.488281 28.894531 -28.492188 28.875 -27.484375 C 28.851562 -26.484375 28.707031 -25.6875 28.4375 -25.09375 C 27.8125 -24.957031 27.347656 -25.035156 27.046875 -25.328125 C 26.753906 -25.617188 26.554688 -26.03125 26.453125 -26.5625 C 26.316406 -27.25 26.222656 -28.035156 26.171875 -28.921875 C 26.117188 -29.816406 25.929688 -30.488281 25.609375 -30.9375 C 25.191406 -30.9375 24.734375 -30.9375 24.234375 -30.9375 C 23.734375 -30.9375 23.203125 -30.953125 22.640625 -30.984375 C 20.972656 -30.984375 19.207031 -30.984375 17.34375 -30.984375 C 15.488281 -30.984375 13.984375 -30.914062 12.828125 -30.78125 C 12.867188 -30.332031 12.890625 -29.757812 12.890625 -29.0625 C 12.890625 -28.363281 12.867188 -27.582031 12.828125 -26.71875 C 12.828125 -26.226562 12.828125 -25.726562 12.828125 -25.21875 C 12.828125 -24.71875 12.828125 -24.207031 12.828125 -23.6875 C 12.828125 -22.851562 12.851562 -22.015625 12.90625 -21.171875 C 12.957031 -20.335938 13.019531 -19.539062 13.09375 -18.78125 C 14.445312 -18.914062 15.84375 -19 17.28125 -19.03125 C 18.726562 -19.070312 20.148438 -19.128906 21.546875 -19.203125 C 21.992188 -19.410156 22.320312 -19.726562 22.53125 -20.15625 C 22.738281 -20.59375 22.929688 -21.0625 23.109375 -21.5625 C 23.285156 -22.070312 23.515625 -22.5 23.796875 -22.84375 C 24.035156 -22.988281 24.238281 -23.035156 24.40625 -22.984375 C 24.582031 -22.929688 24.773438 -22.851562 24.984375 -22.75 C 25.054688 -22.707031 25.144531 -22.660156 25.25 -22.609375 C 25.351562 -22.554688 25.472656 -22.515625 25.609375 -22.484375 C 25.398438 -21.722656 25.28125 -20.851562 25.25 -19.875 C 25.21875 -18.90625 25.21875 -17.914062 25.25 -16.90625 C 25.25 -16.070312 25.226562 -15.253906 25.1875 -14.453125 C 25.15625 -13.648438 25.085938 -12.953125 24.984375 -12.359375 C 24.191406 -12.296875 23.671875 -12.5 23.421875 -12.96875 C 23.179688 -13.4375 22.988281 -13.96875 22.84375 -14.5625 C 22.78125 -14.800781 22.710938 -15.039062 22.640625 -15.28125 C 22.566406 -15.53125 22.476562 -15.757812 22.375 -15.96875 C 20.78125 -16.207031 19.113281 -16.34375 17.375 -16.375 C 15.632812 -16.414062 14.117188 -16.140625 12.828125 -15.546875 C 12.898438 -13.628906 12.953125 -11.671875 12.984375 -9.671875 C 13.023438 -7.671875 12.972656 -5.578125 12.828125 -3.390625 C 14.117188 -3.316406 15.53125 -3.265625 17.0625 -3.234375 C 18.59375 -3.203125 20.125 -3.242188 21.65625 -3.359375 C 23.1875 -3.484375 24.578125 -3.703125 25.828125 -4.015625 C 26.210938 -4.679688 26.472656 -5.4375 26.609375 -6.28125 C 26.742188 -7.132812 26.941406 -7.941406 27.203125 -8.703125 C 27.460938 -9.472656 27.941406 -10 28.640625 -10.28125 C 29.160156 -9.238281 29.394531 -8.082031 29.34375 -6.8125 C 29.289062 -5.539062 29.175781 -4.347656 29 -3.234375 C 28.96875 -2.847656 28.925781 -2.484375 28.875 -2.140625 C 28.820312 -1.796875 28.796875 -1.460938 28.796875 -1.140625 Z M 28.796875 -1.140625 "/></g></g></g><g fill="#000000" fill-opacity="1"><g transform="translate(541.128328, 577.627802)"><g><path d="M 36.3125 -32.765625 C 35.539062 -31.992188 34.660156 -31.332031 33.671875 -30.78125 C 32.679688 -30.226562 31.835938 -29.515625 31.140625 -28.640625 C 30.929688 -27.773438 30.722656 -26.921875 30.515625 -26.078125 C 30.304688 -25.242188 30.082031 -24.429688 29.84375 -23.640625 C 28.757812 -19.910156 27.546875 -16.304688 26.203125 -12.828125 C 24.867188 -9.347656 23.664062 -5.664062 22.59375 -1.78125 C 22.238281 -1.425781 21.945312 -1.03125 21.71875 -0.59375 C 21.5 -0.164062 21.234375 0.238281 20.921875 0.625 C 20.535156 0.832031 20.164062 0.898438 19.8125 0.828125 C 19.46875 0.765625 19.140625 0.679688 18.828125 0.578125 C 18.554688 0.503906 18.367188 0.453125 18.265625 0.421875 C 16.765625 -3.304688 15.394531 -7.253906 14.15625 -11.421875 C 12.925781 -15.597656 11.648438 -19.6875 10.328125 -23.6875 C 9.878906 -25.070312 9.410156 -26.425781 8.921875 -27.75 C 8.429688 -29.070312 7.910156 -30.378906 7.359375 -31.671875 C 7.046875 -31.773438 6.738281 -31.804688 6.4375 -31.765625 C 6.144531 -31.734375 5.859375 -31.703125 5.578125 -31.671875 C 5.265625 -31.597656 4.96875 -31.550781 4.6875 -31.53125 C 4.414062 -31.519531 4.140625 -31.566406 3.859375 -31.671875 C 3.617188 -32.054688 3.550781 -32.394531 3.65625 -32.6875 C 3.757812 -32.976562 3.878906 -33.265625 4.015625 -33.546875 C 4.085938 -33.648438 4.148438 -33.742188 4.203125 -33.828125 C 4.253906 -33.921875 4.296875 -34.019531 4.328125 -34.125 C 5.023438 -34.082031 5.71875 -34.078125 6.40625 -34.109375 C 7.101562 -34.148438 7.800781 -34.1875 8.5 -34.21875 C 9.019531 -34.289062 9.550781 -34.332031 10.09375 -34.34375 C 10.632812 -34.363281 11.148438 -34.375 11.640625 -34.375 C 12.578125 -34.34375 13.453125 -34.203125 14.265625 -33.953125 C 15.085938 -33.710938 15.789062 -33.226562 16.375 -32.5 C 15.75 -32.1875 15.046875 -31.890625 14.265625 -31.609375 C 13.484375 -31.335938 12.847656 -31.164062 12.359375 -31.09375 C 12.640625 -29.875 12.941406 -28.644531 13.265625 -27.40625 C 13.597656 -26.175781 13.957031 -24.9375 14.34375 -23.6875 C 15.28125 -20.65625 16.304688 -17.609375 17.421875 -14.546875 C 18.535156 -11.492188 19.476562 -8.421875 20.25 -5.328125 C 21.457031 -8.242188 22.675781 -11.207031 23.90625 -14.21875 C 25.144531 -17.226562 26.253906 -20.367188 27.234375 -23.640625 C 27.929688 -25.960938 28.503906 -28.328125 28.953125 -30.734375 C 28.710938 -31.109375 28.347656 -31.375 27.859375 -31.53125 C 27.367188 -31.6875 26.863281 -31.832031 26.34375 -31.96875 C 25.820312 -32.113281 25.390625 -32.328125 25.046875 -32.609375 C 25.109375 -33.128906 25.4375 -33.519531 26.03125 -33.78125 C 26.625 -34.039062 27.351562 -34.203125 28.21875 -34.265625 C 29.09375 -34.335938 29.988281 -34.359375 30.90625 -34.328125 C 31.832031 -34.296875 32.660156 -34.242188 33.390625 -34.171875 C 34.015625 -34.097656 34.597656 -33.929688 35.140625 -33.671875 C 35.679688 -33.410156 36.070312 -33.109375 36.3125 -32.765625 Z M 36.3125 -32.765625 "/></g></g></g><g fill="#000000" fill-opacity="1"><g transform="translate(581.299469, 577.627802)"><g><path d="M 28.796875 -1.140625 L 28.4375 -0.78125 C 26.695312 -0.644531 24.929688 -0.566406 23.140625 -0.546875 C 21.347656 -0.523438 19.546875 -0.535156 17.734375 -0.578125 C 15.753906 -0.578125 13.789062 -0.566406 11.84375 -0.546875 C 9.894531 -0.523438 8 -0.410156 6.15625 -0.203125 C 5.601562 -0.585938 5.359375 -0.960938 5.421875 -1.328125 C 5.492188 -1.691406 5.597656 -2.03125 5.734375 -2.34375 C 5.910156 -2.65625 6 -2.863281 6 -2.96875 C 6.207031 -3.113281 6.457031 -3.1875 6.75 -3.1875 C 7.050781 -3.1875 7.359375 -3.1875 7.671875 -3.1875 C 7.847656 -3.1875 8.03125 -3.175781 8.21875 -3.15625 C 8.40625 -3.132812 8.585938 -3.144531 8.765625 -3.1875 C 8.941406 -5.71875 9.03125 -8.390625 9.03125 -11.203125 C 9.03125 -14.023438 9.007812 -16.773438 8.96875 -19.453125 C 8.96875 -20.191406 8.957031 -20.90625 8.9375 -21.59375 C 8.925781 -22.289062 8.921875 -22.988281 8.921875 -23.6875 C 8.890625 -25.007812 8.878906 -26.257812 8.890625 -27.4375 C 8.910156 -28.625 8.9375 -29.738281 8.96875 -30.78125 C 8.726562 -30.851562 8.476562 -30.894531 8.21875 -30.90625 C 7.957031 -30.925781 7.703125 -30.9375 7.453125 -30.9375 C 7.003906 -30.9375 6.578125 -30.976562 6.171875 -31.0625 C 5.773438 -31.15625 5.441406 -31.390625 5.171875 -31.765625 C 5.203125 -31.867188 5.234375 -32.007812 5.265625 -32.1875 C 5.335938 -32.601562 5.453125 -33.007812 5.609375 -33.40625 C 5.765625 -33.8125 6.085938 -34 6.578125 -33.96875 C 7.898438 -33.925781 9.367188 -33.878906 10.984375 -33.828125 C 12.597656 -33.773438 14.203125 -33.75 15.796875 -33.75 C 17.398438 -33.75 18.773438 -33.75 19.921875 -33.75 C 20.347656 -33.75 20.769531 -33.765625 21.1875 -33.796875 C 21.601562 -33.835938 22.019531 -33.875 22.4375 -33.90625 C 23.613281 -34.007812 24.757812 -34.0625 25.875 -34.0625 C 26.988281 -34.0625 27.960938 -33.769531 28.796875 -33.1875 C 28.765625 -32.832031 28.753906 -32.421875 28.765625 -31.953125 C 28.785156 -31.484375 28.796875 -30.988281 28.796875 -30.46875 C 28.867188 -29.488281 28.894531 -28.492188 28.875 -27.484375 C 28.851562 -26.484375 28.707031 -25.6875 28.4375 -25.09375 C 27.8125 -24.957031 27.347656 -25.035156 27.046875 -25.328125 C 26.753906 -25.617188 26.554688 -26.03125 26.453125 -26.5625 C 26.316406 -27.25 26.222656 -28.035156 26.171875 -28.921875 C 26.117188 -29.816406 25.929688 -30.488281 25.609375 -30.9375 C 25.191406 -30.9375 24.734375 -30.9375 24.234375 -30.9375 C 23.734375 -30.9375 23.203125 -30.953125 22.640625 -30.984375 C 20.972656 -30.984375 19.207031 -30.984375 17.34375 -30.984375 C 15.488281 -30.984375 13.984375 -30.914062 12.828125 -30.78125 C 12.867188 -30.332031 12.890625 -29.757812 12.890625 -29.0625 C 12.890625 -28.363281 12.867188 -27.582031 12.828125 -26.71875 C 12.828125 -26.226562 12.828125 -25.726562 12.828125 -25.21875 C 12.828125 -24.71875 12.828125 -24.207031 12.828125 -23.6875 C 12.828125 -22.851562 12.851562 -22.015625 12.90625 -21.171875 C 12.957031 -20.335938 13.019531 -19.539062 13.09375 -18.78125 C 14.445312 -18.914062 15.84375 -19 17.28125 -19.03125 C 18.726562 -19.070312 20.148438 -19.128906 21.546875 -19.203125 C 21.992188 -19.410156 22.320312 -19.726562 22.53125 -20.15625 C 22.738281 -20.59375 22.929688 -21.0625 23.109375 -21.5625 C 23.285156 -22.070312 23.515625 -22.5 23.796875 -22.84375 C 24.035156 -22.988281 24.238281 -23.035156 24.40625 -22.984375 C 24.582031 -22.929688 24.773438 -22.851562 24.984375 -22.75 C 25.054688 -22.707031 25.144531 -22.660156 25.25 -22.609375 C 25.351562 -22.554688 25.472656 -22.515625 25.609375 -22.484375 C 25.398438 -21.722656 25.28125 -20.851562 25.25 -19.875 C 25.21875 -18.90625 25.21875 -17.914062 25.25 -16.90625 C 25.25 -16.070312 25.226562 -15.253906 25.1875 -14.453125 C 25.15625 -13.648438 25.085938 -12.953125 24.984375 -12.359375 C 24.191406 -12.296875 23.671875 -12.5 23.421875 -12.96875 C 23.179688 -13.4375 22.988281 -13.96875 22.84375 -14.5625 C 22.78125 -14.800781 22.710938 -15.039062 22.640625 -15.28125 C 22.566406 -15.53125 22.476562 -15.757812 22.375 -15.96875 C 20.78125 -16.207031 19.113281 -16.34375 17.375 -16.375 C 15.632812 -16.414062 14.117188 -16.140625 12.828125 -15.546875 C 12.898438 -13.628906 12.953125 -11.671875 12.984375 -9.671875 C 13.023438 -7.671875 12.972656 -5.578125 12.828125 -3.390625 C 14.117188 -3.316406 15.53125 -3.265625 17.0625 -3.234375 C 18.59375 -3.203125 20.125 -3.242188 21.65625 -3.359375 C 23.1875 -3.484375 24.578125 -3.703125 25.828125 -4.015625 C 26.210938 -4.679688 26.472656 -5.4375 26.609375 -6.28125 C 26.742188 -7.132812 26.941406 -7.941406 27.203125 -8.703125 C 27.460938 -9.472656 27.941406 -10 28.640625 -10.28125 C 29.160156 -9.238281 29.394531 -8.082031 29.34375 -6.8125 C 29.289062 -5.539062 29.175781 -4.347656 29 -3.234375 C 28.96875 -2.847656 28.925781 -2.484375 28.875 -2.140625 C 28.820312 -1.796875 28.796875 -1.460938 28.796875 -1.140625 Z M 28.796875 -1.140625 "/></g></g></g><g fill="#000000" fill-opacity="1"><g transform="translate(616.253576, 577.627802)"><g><path d="M 34.125 -0.421875 C 32.976562 -0.109375 31.90625 -0.0078125 30.90625 -0.125 C 29.914062 -0.25 28.914062 -0.429688 27.90625 -0.671875 C 27.21875 -1.515625 26.628906 -2.535156 26.140625 -3.734375 C 25.648438 -4.929688 25.195312 -6.195312 24.78125 -7.53125 C 24.363281 -8.875 23.878906 -10.140625 23.328125 -11.328125 C 22.765625 -12.535156 22.09375 -13.539062 21.3125 -14.34375 C 20.53125 -15.144531 19.515625 -15.632812 18.265625 -15.8125 C 17.742188 -15.875 17.203125 -15.90625 16.640625 -15.90625 C 16.085938 -15.90625 15.550781 -15.890625 15.03125 -15.859375 C 14.613281 -15.828125 14.226562 -15.8125 13.875 -15.8125 C 13.53125 -15.8125 13.21875 -15.828125 12.9375 -15.859375 C 12.863281 -14.921875 12.835938 -13.984375 12.859375 -13.046875 C 12.878906 -12.109375 12.921875 -11.164062 12.984375 -10.21875 C 13.023438 -9.175781 13.0625 -8.125 13.09375 -7.0625 C 13.125 -6.007812 13.070312 -4.957031 12.9375 -3.90625 C 13.175781 -3.382812 13.59375 -3.046875 14.1875 -2.890625 C 14.78125 -2.734375 15.378906 -2.578125 15.984375 -2.421875 C 16.597656 -2.265625 17.046875 -1.960938 17.328125 -1.515625 C 16.898438 -0.953125 16.195312 -0.609375 15.21875 -0.484375 C 14.25 -0.367188 13.210938 -0.3125 12.109375 -0.3125 C 11.828125 -0.3125 11.53125 -0.3125 11.21875 -0.3125 C 10.90625 -0.3125 10.609375 -0.3125 10.328125 -0.3125 C 9.390625 -0.34375 8.519531 -0.347656 7.71875 -0.328125 C 6.914062 -0.316406 6.273438 -0.222656 5.796875 -0.046875 C 5.515625 -0.773438 5.507812 -1.320312 5.78125 -1.6875 C 6.0625 -2.0625 6.429688 -2.367188 6.890625 -2.609375 C 7.335938 -2.847656 7.796875 -3.070312 8.265625 -3.28125 C 8.734375 -3.488281 9.054688 -3.800781 9.234375 -4.21875 C 9.160156 -7.664062 9.097656 -10.953125 9.046875 -14.078125 C 8.992188 -17.210938 8.9375 -20.414062 8.875 -23.6875 L 8.71875 -31.359375 C 8.4375 -31.460938 8.144531 -31.515625 7.84375 -31.515625 C 7.550781 -31.515625 7.265625 -31.515625 6.984375 -31.515625 C 6.640625 -31.472656 6.300781 -31.460938 5.96875 -31.484375 C 5.644531 -31.503906 5.34375 -31.632812 5.0625 -31.875 C 5.09375 -32.050781 5.082031 -32.191406 5.03125 -32.296875 C 4.976562 -32.398438 4.921875 -32.503906 4.859375 -32.609375 C 4.816406 -32.710938 4.78125 -32.820312 4.75 -32.9375 C 4.71875 -33.0625 4.734375 -33.195312 4.796875 -33.34375 C 5.492188 -33.71875 6.285156 -33.929688 7.171875 -33.984375 C 8.054688 -34.035156 8.988281 -34.046875 9.96875 -34.015625 C 10.34375 -34.015625 10.722656 -34.015625 11.109375 -34.015625 C 11.492188 -34.015625 11.878906 -34.03125 12.265625 -34.0625 C 14.242188 -34.207031 16.179688 -34.269531 18.078125 -34.25 C 19.972656 -34.226562 21.726562 -34.050781 23.34375 -33.71875 C 24.957031 -33.394531 26.320312 -32.796875 27.4375 -31.921875 C 28.375 -31.191406 29.085938 -30.234375 29.578125 -29.046875 C 30.066406 -27.867188 30.222656 -26.359375 30.046875 -24.515625 C 30.015625 -24.378906 29.953125 -24.238281 29.859375 -24.09375 C 29.773438 -23.957031 29.703125 -23.804688 29.640625 -23.640625 C 29.429688 -23.222656 29.238281 -22.796875 29.0625 -22.359375 C 28.882812 -21.921875 28.742188 -21.457031 28.640625 -20.96875 C 27.835938 -20.65625 27.15625 -20.210938 26.59375 -19.640625 C 26.039062 -19.066406 25.453125 -18.535156 24.828125 -18.046875 C 24.203125 -17.566406 23.367188 -17.273438 22.328125 -17.171875 C 23.785156 -16.296875 24.992188 -15.15625 25.953125 -13.75 C 26.910156 -12.34375 27.742188 -10.820312 28.453125 -9.1875 C 29.171875 -7.550781 29.878906 -5.894531 30.578125 -4.21875 C 30.742188 -4.113281 30.929688 -4.019531 31.140625 -3.9375 C 31.347656 -3.851562 31.554688 -3.757812 31.765625 -3.65625 C 32.460938 -3.375 33.109375 -3.015625 33.703125 -2.578125 C 34.296875 -2.148438 34.4375 -1.429688 34.125 -0.421875 Z M 25.296875 -25.671875 C 25.296875 -26.472656 25.175781 -27.304688 24.9375 -28.171875 C 24.695312 -29.046875 24.316406 -29.914062 23.796875 -30.78125 C 22.535156 -31.4375 21.21875 -31.800781 19.84375 -31.875 C 18.476562 -31.945312 16.992188 -31.960938 15.390625 -31.921875 C 15.046875 -31.921875 14.695312 -31.910156 14.34375 -31.890625 C 14 -31.878906 13.632812 -31.875 13.25 -31.875 C 12.9375 -31.5625 12.78125 -31.125 12.78125 -30.5625 C 12.78125 -30.007812 12.796875 -29.421875 12.828125 -28.796875 C 12.867188 -28.554688 12.894531 -28.3125 12.90625 -28.0625 C 12.925781 -27.820312 12.9375 -27.582031 12.9375 -27.34375 C 12.9375 -26.78125 12.914062 -26.1875 12.875 -25.5625 C 12.84375 -24.9375 12.8125 -24.3125 12.78125 -23.6875 C 12.75 -22.78125 12.734375 -21.847656 12.734375 -20.890625 C 12.734375 -19.929688 12.800781 -18.984375 12.9375 -18.046875 C 14.601562 -17.773438 16.320312 -17.773438 18.09375 -18.046875 C 19.875 -18.328125 21.320312 -18.898438 22.4375 -19.765625 C 23.757812 -20.816406 24.628906 -22.109375 25.046875 -23.640625 C 25.210938 -24.328125 25.296875 -25.003906 25.296875 -25.671875 Z M 25.296875 -25.671875 "/></g></g></g><g fill="#000000" fill-opacity="1"><g transform="translate(652.772782, 577.627802)"><g><path d="M 33.078125 -32.453125 C 32.691406 -31.960938 32.484375 -31.367188 32.453125 -30.671875 C 32.421875 -29.984375 32.4375 -29.269531 32.5 -28.53125 C 32.5 -28.46875 32.519531 -28.347656 32.5625 -28.171875 C 32.625 -27.367188 32.644531 -26.578125 32.625 -25.796875 C 32.613281 -25.015625 32.363281 -24.363281 31.875 -23.84375 C 31.21875 -23.914062 30.738281 -24.175781 30.4375 -24.625 C 30.144531 -25.070312 29.929688 -25.613281 29.796875 -26.25 C 29.648438 -26.976562 29.535156 -27.75 29.453125 -28.5625 C 29.367188 -29.382812 29.1875 -30.070312 28.90625 -30.625 C 27.757812 -30.9375 26.359375 -31.132812 24.703125 -31.21875 C 23.046875 -31.3125 21.59375 -31.304688 20.34375 -31.203125 C 20.34375 -29.984375 20.34375 -28.742188 20.34375 -27.484375 C 20.34375 -26.234375 20.328125 -24.96875 20.296875 -23.6875 C 20.296875 -23.019531 20.285156 -22.363281 20.265625 -21.71875 C 20.253906 -21.082031 20.25 -20.429688 20.25 -19.765625 C 20.207031 -17.054688 20.1875 -14.335938 20.1875 -11.609375 C 20.1875 -8.878906 20.238281 -6.191406 20.34375 -3.546875 C 20.726562 -3.234375 21.207031 -3.015625 21.78125 -2.890625 C 22.351562 -2.773438 22.898438 -2.617188 23.421875 -2.421875 C 23.941406 -2.234375 24.289062 -1.859375 24.46875 -1.296875 C 24.289062 -0.847656 23.863281 -0.546875 23.1875 -0.390625 C 22.507812 -0.234375 21.71875 -0.15625 20.8125 -0.15625 C 19.90625 -0.15625 19.003906 -0.191406 18.109375 -0.265625 C 17.648438 -0.265625 17.210938 -0.269531 16.796875 -0.28125 C 16.378906 -0.300781 16 -0.3125 15.65625 -0.3125 C 15.476562 -0.3125 15.300781 -0.300781 15.125 -0.28125 C 14.957031 -0.269531 14.769531 -0.265625 14.5625 -0.265625 C 13.894531 -0.191406 13.265625 -0.1875 12.671875 -0.25 C 12.085938 -0.320312 11.773438 -0.722656 11.734375 -1.453125 C 11.734375 -1.734375 11.835938 -1.992188 12.046875 -2.234375 C 12.253906 -2.484375 12.429688 -2.726562 12.578125 -2.96875 C 13.160156 -2.726562 13.832031 -2.816406 14.59375 -3.234375 C 15.363281 -3.648438 15.90625 -4.171875 16.21875 -4.796875 C 16.1875 -6.640625 16.171875 -8.460938 16.171875 -10.265625 C 16.171875 -12.078125 16.171875 -13.875 16.171875 -15.65625 C 16.171875 -17.007812 16.171875 -18.347656 16.171875 -19.671875 C 16.171875 -20.992188 16.171875 -22.332031 16.171875 -23.6875 C 16.171875 -26.15625 16.117188 -28.660156 16.015625 -31.203125 C 14.691406 -31.441406 13.304688 -31.472656 11.859375 -31.296875 C 10.421875 -31.128906 9.144531 -30.957031 8.03125 -30.78125 C 7.863281 -30.75 7.707031 -30.722656 7.5625 -30.703125 C 7.425781 -30.679688 7.285156 -30.65625 7.140625 -30.625 C 7.078125 -30.238281 7.019531 -29.835938 6.96875 -29.421875 C 6.914062 -29.003906 6.890625 -28.585938 6.890625 -28.171875 C 6.816406 -27.265625 6.707031 -26.410156 6.5625 -25.609375 C 6.425781 -24.816406 6.066406 -24.226562 5.484375 -23.84375 C 5.128906 -23.8125 4.863281 -23.851562 4.6875 -23.96875 C 4.519531 -24.09375 4.347656 -24.242188 4.171875 -24.421875 C 4.097656 -24.484375 4.019531 -24.550781 3.9375 -24.625 C 3.851562 -24.695312 3.757812 -24.765625 3.65625 -24.828125 C 3.863281 -26.253906 3.96875 -27.757812 3.96875 -29.34375 C 3.96875 -30.925781 4.191406 -32.289062 4.640625 -33.4375 C 6.304688 -33.75 8.179688 -33.914062 10.265625 -33.9375 C 12.359375 -33.957031 14.394531 -33.945312 16.375 -33.90625 C 17.007812 -33.875 17.617188 -33.859375 18.203125 -33.859375 C 18.796875 -33.859375 19.367188 -33.859375 19.921875 -33.859375 C 20.515625 -33.859375 21.113281 -33.875 21.71875 -33.90625 C 22.332031 -33.945312 22.9375 -33.984375 23.53125 -34.015625 C 25.40625 -34.117188 27.191406 -34.132812 28.890625 -34.0625 C 30.597656 -34 31.992188 -33.460938 33.078125 -32.453125 Z M 33.078125 -32.453125 "/></g></g></g><g fill="#000000" fill-opacity="1"><g transform="translate(688.770294, 577.627802)"><g><path d="M 37.453125 -1.9375 C 37.316406 -1.300781 36.96875 -0.867188 36.40625 -0.640625 C 35.851562 -0.421875 35.175781 -0.296875 34.375 -0.265625 C 34 -0.265625 33.617188 -0.269531 33.234375 -0.28125 C 32.847656 -0.300781 32.460938 -0.3125 32.078125 -0.3125 C 31.285156 -0.382812 30.566406 -0.410156 29.921875 -0.390625 C 29.273438 -0.367188 28.832031 -0.238281 28.59375 0 C 28.3125 0.03125 27.9375 -0.046875 27.46875 -0.234375 C 27 -0.421875 26.648438 -0.738281 26.421875 -1.1875 C 26.203125 -1.644531 26.28125 -2.207031 26.65625 -2.875 C 27.113281 -3.082031 27.632812 -3.226562 28.21875 -3.3125 C 28.8125 -3.394531 29.335938 -3.523438 29.796875 -3.703125 C 29.796875 -4.742188 29.785156 -5.820312 29.765625 -6.9375 C 29.742188 -8.050781 29.734375 -9.144531 29.734375 -10.21875 C 29.703125 -11.40625 29.675781 -12.53125 29.65625 -13.59375 C 29.644531 -14.65625 29.65625 -15.617188 29.6875 -16.484375 C 27.53125 -16.765625 25.363281 -16.882812 23.1875 -16.84375 C 21.007812 -16.8125 18.914062 -16.757812 16.90625 -16.6875 C 16.132812 -16.6875 15.390625 -16.671875 14.671875 -16.640625 C 13.960938 -16.609375 13.265625 -16.59375 12.578125 -16.59375 C 12.578125 -15.582031 12.582031 -14.625 12.59375 -13.71875 C 12.613281 -12.8125 12.625 -11.941406 12.625 -11.109375 C 12.65625 -9.992188 12.679688 -8.867188 12.703125 -7.734375 C 12.722656 -6.609375 12.710938 -5.367188 12.671875 -4.015625 C 12.953125 -3.628906 13.335938 -3.332031 13.828125 -3.125 C 14.316406 -2.914062 14.800781 -2.707031 15.28125 -2.5 C 15.769531 -2.289062 16.132812 -1.976562 16.375 -1.5625 C 16.238281 -1.007812 15.96875 -0.644531 15.5625 -0.46875 C 15.164062 -0.289062 14.675781 -0.222656 14.09375 -0.265625 C 13.875 -0.265625 13.644531 -0.269531 13.40625 -0.28125 C 13.164062 -0.300781 12.921875 -0.328125 12.671875 -0.359375 C 12.253906 -0.398438 11.8125 -0.4375 11.34375 -0.46875 C 10.875 -0.5 10.394531 -0.515625 9.90625 -0.515625 C 9.664062 -0.515625 9.429688 -0.488281 9.203125 -0.4375 C 8.984375 -0.382812 8.769531 -0.328125 8.5625 -0.265625 C 8.351562 -0.191406 8.148438 -0.132812 7.953125 -0.09375 C 7.765625 -0.0625 7.597656 -0.0664062 7.453125 -0.109375 C 6.898438 -0.210938 6.421875 -0.523438 6.015625 -1.046875 C 5.617188 -1.566406 5.523438 -2.050781 5.734375 -2.5 C 5.910156 -2.882812 6.1875 -3.117188 6.5625 -3.203125 C 6.945312 -3.296875 7.363281 -3.375 7.8125 -3.4375 C 8.269531 -3.507812 8.675781 -3.6875 9.03125 -3.96875 C 9.03125 -7.34375 9.03125 -10.722656 9.03125 -14.109375 C 9.03125 -17.503906 8.992188 -20.695312 8.921875 -23.6875 C 8.890625 -25.113281 8.851562 -26.46875 8.8125 -27.75 C 8.78125 -29.039062 8.726562 -30.242188 8.65625 -31.359375 C 8.382812 -31.492188 8.085938 -31.578125 7.765625 -31.609375 C 7.453125 -31.648438 7.125 -31.648438 6.78125 -31.609375 C 6.394531 -31.609375 6.007812 -31.625 5.625 -31.65625 C 5.25 -31.695312 4.882812 -31.835938 4.53125 -32.078125 C 4.5 -32.359375 4.523438 -32.578125 4.609375 -32.734375 C 4.703125 -32.890625 4.800781 -33.039062 4.90625 -33.1875 C 5.007812 -33.289062 5.101562 -33.410156 5.1875 -33.546875 C 5.28125 -33.679688 5.328125 -33.875 5.328125 -34.125 C 6.054688 -34.050781 6.800781 -34.03125 7.5625 -34.0625 C 8.332031 -34.101562 9.097656 -34.15625 9.859375 -34.21875 C 10.242188 -34.21875 10.625 -34.234375 11 -34.265625 C 11.382812 -34.304688 11.769531 -34.328125 12.15625 -34.328125 C 13.164062 -34.359375 14.078125 -34.257812 14.890625 -34.03125 C 15.710938 -33.8125 16.332031 -33.335938 16.75 -32.609375 C 16.394531 -32.191406 15.867188 -31.9375 15.171875 -31.84375 C 14.484375 -31.757812 13.722656 -31.734375 12.890625 -31.765625 C 12.640625 -30.898438 12.503906 -29.71875 12.484375 -28.21875 C 12.472656 -26.726562 12.484375 -25.21875 12.515625 -23.6875 L 12.515625 -23.578125 C 12.554688 -22.878906 12.582031 -22.191406 12.59375 -21.515625 C 12.613281 -20.835938 12.609375 -20.203125 12.578125 -19.609375 C 14.484375 -19.441406 16.445312 -19.375 18.46875 -19.40625 C 20.488281 -19.4375 22.472656 -19.488281 24.421875 -19.5625 C 25.285156 -19.59375 26.144531 -19.625 27 -19.65625 C 27.851562 -19.695312 28.679688 -19.71875 29.484375 -19.71875 C 29.617188 -20.3125 29.691406 -20.925781 29.703125 -21.5625 C 29.722656 -22.207031 29.703125 -22.898438 29.640625 -23.640625 C 29.597656 -24.054688 29.5625 -24.488281 29.53125 -24.9375 C 29.5 -25.382812 29.445312 -25.835938 29.375 -26.296875 C 29.300781 -27.160156 29.226562 -28.019531 29.15625 -28.875 C 29.09375 -29.726562 29.078125 -30.554688 29.109375 -31.359375 C 28.617188 -31.359375 28.035156 -31.398438 27.359375 -31.484375 C 26.679688 -31.566406 26.046875 -31.710938 25.453125 -31.921875 C 25.242188 -32.273438 25.191406 -32.585938 25.296875 -32.859375 C 25.398438 -33.140625 25.523438 -33.40625 25.671875 -33.65625 C 25.734375 -33.757812 25.800781 -33.867188 25.875 -33.984375 C 25.945312 -34.109375 26 -34.238281 26.03125 -34.375 C 26.65625 -34.34375 27.289062 -34.332031 27.9375 -34.34375 C 28.582031 -34.363281 29.203125 -34.394531 29.796875 -34.4375 C 31.253906 -34.5 32.625 -34.492188 33.90625 -34.421875 C 35.195312 -34.359375 36.296875 -34.03125 37.203125 -33.4375 C 36.992188 -32.78125 36.53125 -32.375 35.8125 -32.21875 C 35.101562 -32.0625 34.296875 -32 33.390625 -32.03125 C 33.285156 -30.8125 33.210938 -29.488281 33.171875 -28.0625 C 33.140625 -26.632812 33.144531 -25.160156 33.1875 -23.640625 C 33.1875 -22.691406 33.203125 -21.75 33.234375 -20.8125 C 33.265625 -19.875 33.300781 -18.921875 33.34375 -17.953125 C 33.40625 -15.410156 33.445312 -12.921875 33.46875 -10.484375 C 33.488281 -8.046875 33.410156 -5.875 33.234375 -3.96875 C 33.722656 -3.40625 34.375 -3.0625 35.1875 -2.9375 C 36.007812 -2.820312 36.765625 -2.488281 37.453125 -1.9375 Z M 37.453125 -1.9375 "/></g></g></g><g fill="#000000" fill-opacity="1"><g transform="translate(730.506535, 577.627802)"><g><path d="M 19.046875 -32.71875 C 18.867188 -32.1875 18.457031 -31.882812 17.8125 -31.8125 C 17.164062 -31.75 16.5 -31.734375 15.8125 -31.765625 C 15.601562 -31.765625 15.394531 -31.765625 15.1875 -31.765625 C 14.976562 -31.765625 14.769531 -31.765625 14.5625 -31.765625 C 14.414062 -31.660156 14.445312 -31.398438 14.65625 -30.984375 C 14.726562 -30.847656 14.789062 -30.703125 14.84375 -30.546875 C 14.894531 -30.390625 14.921875 -30.242188 14.921875 -30.109375 C 14.785156 -29.960938 14.679688 -29.796875 14.609375 -29.609375 C 14.535156 -29.421875 14.46875 -29.1875 14.40625 -28.90625 C 14.363281 -28.03125 14.34375 -27.164062 14.34375 -26.3125 C 14.34375 -25.46875 14.328125 -24.59375 14.296875 -23.6875 C 14.265625 -20.34375 14.238281 -16.96875 14.21875 -13.5625 C 14.195312 -10.15625 14.1875 -6.765625 14.1875 -3.390625 C 14.988281 -3.359375 15.859375 -3.164062 16.796875 -2.8125 C 17.734375 -2.46875 18.410156 -1.929688 18.828125 -1.203125 C 17.960938 -0.679688 16.960938 -0.398438 15.828125 -0.359375 C 14.703125 -0.328125 13.53125 -0.347656 12.3125 -0.421875 C 11.582031 -0.453125 10.859375 -0.472656 10.140625 -0.484375 C 9.429688 -0.503906 8.75 -0.460938 8.09375 -0.359375 C 7.882812 -0.328125 7.722656 -0.25 7.609375 -0.125 C 7.503906 -0.0078125 7.398438 0.117188 7.296875 0.265625 C 7.191406 0.472656 7.050781 0.65625 6.875 0.8125 C 6.707031 0.96875 6.429688 0.992188 6.046875 0.890625 C 5.703125 0.398438 5.570312 -0.0820312 5.65625 -0.5625 C 5.75 -1.050781 5.941406 -1.515625 6.234375 -1.953125 C 6.523438 -2.390625 6.796875 -2.75 7.046875 -3.03125 C 7.210938 -3.03125 7.390625 -3.03125 7.578125 -3.03125 C 7.773438 -3.03125 7.976562 -3.03125 8.1875 -3.03125 C 8.601562 -3.03125 9.019531 -3.03125 9.4375 -3.03125 C 9.851562 -3.03125 10.21875 -3.097656 10.53125 -3.234375 C 10.5 -6.367188 10.484375 -9.695312 10.484375 -13.21875 C 10.484375 -16.75 10.445312 -20.238281 10.375 -23.6875 C 10.34375 -26.394531 10.238281 -29.003906 10.0625 -31.515625 C 9.820312 -31.578125 9.5625 -31.617188 9.28125 -31.640625 C 9.007812 -31.660156 8.71875 -31.671875 8.40625 -31.671875 C 7.914062 -31.671875 7.441406 -31.6875 6.984375 -31.71875 C 6.535156 -31.75 6.140625 -31.90625 5.796875 -32.1875 C 5.722656 -32.46875 5.726562 -32.675781 5.8125 -32.8125 C 5.90625 -32.957031 6.003906 -33.097656 6.109375 -33.234375 C 6.210938 -33.335938 6.296875 -33.445312 6.359375 -33.5625 C 6.429688 -33.6875 6.46875 -33.835938 6.46875 -34.015625 C 7.550781 -34.015625 8.707031 -34.066406 9.9375 -34.171875 C 11.175781 -34.273438 12.382812 -34.328125 13.5625 -34.328125 C 14.75 -34.328125 15.828125 -34.222656 16.796875 -34.015625 C 17.773438 -33.804688 18.523438 -33.375 19.046875 -32.71875 Z M 19.046875 -32.71875 "/></g></g></g><g fill="#000000" fill-opacity="1"><g transform="translate(755.02659, 577.627802)"><g><path d="M 38.609375 -33.234375 C 38.578125 -32.503906 38.21875 -32.066406 37.53125 -31.921875 C 36.851562 -31.785156 36.117188 -31.71875 35.328125 -31.71875 C 35.046875 -31.644531 34.859375 -31.476562 34.765625 -31.21875 C 34.679688 -30.957031 34.601562 -30.679688 34.53125 -30.390625 C 34.46875 -30.097656 34.257812 -29.847656 33.90625 -29.640625 C 34.007812 -28.691406 34.085938 -27.710938 34.140625 -26.703125 C 34.191406 -25.703125 34.238281 -24.679688 34.28125 -23.640625 C 34.3125 -22.453125 34.328125 -21.238281 34.328125 -20 C 34.328125 -18.769531 34.328125 -17.53125 34.328125 -16.28125 C 34.359375 -13.601562 34.398438 -10.96875 34.453125 -8.375 C 34.503906 -5.78125 34.6875 -3.40625 35 -1.25 C 34.625 -0.695312 34.035156 -0.382812 33.234375 -0.3125 C 32.429688 -0.238281 31.875 -0.394531 31.5625 -0.78125 C 30.726562 -1.789062 29.9375 -2.921875 29.1875 -4.171875 C 28.4375 -5.421875 27.5625 -6.640625 26.5625 -7.828125 C 24.675781 -10.054688 22.863281 -12.59375 21.125 -15.4375 C 19.382812 -18.289062 17.644531 -21.039062 15.90625 -23.6875 C 15.25 -24.757812 14.570312 -25.78125 13.875 -26.75 C 13.175781 -27.726562 12.484375 -28.65625 11.796875 -29.53125 C 11.753906 -28.488281 11.71875 -27.492188 11.6875 -26.546875 C 11.65625 -25.609375 11.640625 -24.65625 11.640625 -23.6875 C 11.640625 -22.394531 11.65625 -21.0625 11.6875 -19.6875 C 11.71875 -18.320312 11.753906 -16.800781 11.796875 -15.125 C 11.796875 -14.5 11.785156 -13.847656 11.765625 -13.171875 C 11.742188 -12.492188 11.71875 -11.828125 11.6875 -11.171875 C 11.613281 -9.773438 11.566406 -8.457031 11.546875 -7.21875 C 11.535156 -5.988281 11.6875 -4.972656 12 -4.171875 C 12.175781 -3.679688 12.488281 -3.316406 12.9375 -3.078125 C 13.382812 -2.835938 13.851562 -2.617188 14.34375 -2.421875 C 14.832031 -2.234375 15.195312 -1.96875 15.4375 -1.625 C 15.300781 -1.195312 15.015625 -0.914062 14.578125 -0.78125 C 14.148438 -0.644531 13.828125 -0.421875 13.609375 -0.109375 C 12.984375 -0.347656 12.332031 -0.457031 11.65625 -0.4375 C 10.976562 -0.425781 10.3125 -0.367188 9.65625 -0.265625 C 8.925781 -0.191406 8.226562 -0.15625 7.5625 -0.15625 C 6.90625 -0.15625 6.296875 -0.3125 5.734375 -0.625 C 5.523438 -0.90625 5.445312 -1.140625 5.5 -1.328125 C 5.550781 -1.523438 5.628906 -1.707031 5.734375 -1.875 C 5.804688 -2.019531 5.875 -2.148438 5.9375 -2.265625 C 6.007812 -2.390625 6.046875 -2.539062 6.046875 -2.71875 C 6.503906 -2.882812 6.972656 -3.03125 7.453125 -3.15625 C 7.941406 -3.28125 8.429688 -3.410156 8.921875 -3.546875 C 9.234375 -6.222656 9.363281 -9.019531 9.3125 -11.9375 C 9.257812 -14.863281 9.144531 -17.875 8.96875 -20.96875 C 8.96875 -21.425781 8.957031 -21.878906 8.9375 -22.328125 C 8.925781 -22.785156 8.90625 -23.238281 8.875 -23.6875 C 8.832031 -25.007812 8.785156 -26.320312 8.734375 -27.625 C 8.679688 -28.925781 8.640625 -30.238281 8.609375 -31.5625 C 8.191406 -31.425781 7.753906 -31.375 7.296875 -31.40625 C 6.847656 -31.4375 6.46875 -31.539062 6.15625 -31.71875 C 5.8125 -31.957031 5.601562 -32.285156 5.53125 -32.703125 C 5.457031 -33.128906 5.664062 -33.617188 6.15625 -34.171875 C 6.601562 -34.140625 7.050781 -34.125 7.5 -34.125 C 7.957031 -34.125 8.414062 -34.140625 8.875 -34.171875 C 10.050781 -34.171875 11.203125 -34.132812 12.328125 -34.0625 C 13.460938 -34 14.535156 -33.738281 15.546875 -33.28125 C 15.546875 -33.113281 15.5 -32.992188 15.40625 -32.921875 C 15.320312 -32.847656 15.226562 -32.78125 15.125 -32.71875 C 14.851562 -32.613281 14.71875 -32.472656 14.71875 -32.296875 C 15.6875 -30.867188 16.664062 -29.429688 17.65625 -27.984375 C 18.644531 -26.546875 19.628906 -25.113281 20.609375 -23.6875 C 22.484375 -21.007812 24.367188 -18.332031 26.265625 -15.65625 C 28.160156 -12.976562 30.03125 -10.332031 31.875 -7.71875 C 31.800781 -10.394531 31.765625 -13.054688 31.765625 -15.703125 C 31.765625 -18.347656 31.734375 -20.992188 31.671875 -23.640625 C 31.597656 -26.242188 31.441406 -28.847656 31.203125 -31.453125 C 30.953125 -31.554688 30.707031 -31.625 30.46875 -31.65625 C 30.226562 -31.695312 29.984375 -31.71875 29.734375 -31.71875 C 29.285156 -31.789062 28.882812 -31.878906 28.53125 -31.984375 C 28.1875 -32.085938 28 -32.363281 27.96875 -32.8125 C 27.925781 -33.40625 28.347656 -33.832031 29.234375 -34.09375 C 30.128906 -34.351562 31.164062 -34.5 32.34375 -34.53125 C 33.25 -34.570312 34.15625 -34.539062 35.0625 -34.4375 C 35.96875 -34.332031 36.75 -34.175781 37.40625 -33.96875 C 38.070312 -33.757812 38.472656 -33.515625 38.609375 -33.234375 Z M 38.609375 -33.234375 "/></g></g></g><g fill="#000000" fill-opacity="1"><g transform="translate(797.806236, 577.627802)"><g><path d="M 37.296875 -14.765625 C 37.160156 -14.316406 36.847656 -14.054688 36.359375 -13.984375 C 35.878906 -13.910156 35.34375 -13.875 34.75 -13.875 C 34.5 -13.875 34.242188 -13.863281 33.984375 -13.84375 C 33.722656 -13.832031 33.488281 -13.804688 33.28125 -13.765625 C 32.96875 -13.035156 32.785156 -12.15625 32.734375 -11.125 C 32.679688 -10.101562 32.675781 -9.039062 32.71875 -7.9375 C 32.75 -6.851562 32.742188 -5.769531 32.703125 -4.6875 C 32.671875 -3.613281 32.5 -2.660156 32.1875 -1.828125 C 31.738281 -1.515625 31.285156 -1.347656 30.828125 -1.328125 C 30.378906 -1.304688 29.929688 -1.488281 29.484375 -1.875 C 28.429688 -1.175781 27.15625 -0.628906 25.65625 -0.234375 C 24.164062 0.160156 22.601562 0.382812 20.96875 0.4375 C 19.332031 0.488281 17.738281 0.316406 16.1875 -0.078125 C 14.644531 -0.472656 13.285156 -1.125 12.109375 -2.03125 C 11.796875 -2.28125 11.523438 -2.617188 11.296875 -3.046875 C 11.066406 -3.484375 10.796875 -3.859375 10.484375 -4.171875 C 10.140625 -4.554688 9.765625 -4.867188 9.359375 -5.109375 C 8.960938 -5.359375 8.660156 -5.617188 8.453125 -5.890625 C 7.410156 -7.316406 6.632812 -8.957031 6.125 -10.8125 C 5.625 -12.675781 5.375 -14.601562 5.375 -16.59375 C 5.375 -17.8125 5.457031 -19.019531 5.625 -20.21875 C 5.800781 -21.414062 6.046875 -22.570312 6.359375 -23.6875 C 6.953125 -25.738281 7.796875 -27.597656 8.890625 -29.265625 C 9.984375 -30.929688 11.296875 -32.203125 12.828125 -33.078125 C 13.835938 -33.628906 14.992188 -34.078125 16.296875 -34.421875 C 17.609375 -34.773438 18.976562 -34.96875 20.40625 -35 C 21.507812 -35.039062 22.625 -34.945312 23.75 -34.71875 C 24.882812 -34.488281 25.941406 -34.113281 26.921875 -33.59375 C 27.160156 -33.800781 27.421875 -33.878906 27.703125 -33.828125 C 27.984375 -33.773438 28.257812 -33.71875 28.53125 -33.65625 C 28.738281 -33.582031 28.929688 -33.519531 29.109375 -33.46875 C 29.285156 -33.414062 29.460938 -33.40625 29.640625 -33.4375 C 29.847656 -33.476562 30.054688 -33.550781 30.265625 -33.65625 C 30.472656 -33.757812 30.660156 -33.863281 30.828125 -33.96875 C 31.109375 -34.132812 31.378906 -34.269531 31.640625 -34.375 C 31.898438 -34.476562 32.1875 -34.460938 32.5 -34.328125 C 32.332031 -33.734375 32.265625 -33.085938 32.296875 -32.390625 C 32.328125 -31.703125 32.378906 -30.992188 32.453125 -30.265625 C 32.484375 -29.910156 32.515625 -29.554688 32.546875 -29.203125 C 32.585938 -28.859375 32.609375 -28.53125 32.609375 -28.21875 C 32.640625 -27.425781 32.566406 -26.695312 32.390625 -26.03125 C 32.222656 -25.375 31.84375 -24.851562 31.25 -24.46875 C 30.65625 -24.75 30.316406 -25.128906 30.234375 -25.609375 C 30.148438 -26.097656 30.109375 -26.625 30.109375 -27.1875 C 30.109375 -27.5 30.085938 -27.816406 30.046875 -28.140625 C 30.015625 -28.472656 29.945312 -28.796875 29.84375 -29.109375 C 29.394531 -30.429688 28.359375 -31.390625 26.734375 -31.984375 C 25.117188 -32.578125 23.390625 -32.835938 21.546875 -32.765625 C 20.253906 -32.734375 18.984375 -32.554688 17.734375 -32.234375 C 16.484375 -31.921875 15.457031 -31.472656 14.65625 -30.890625 C 13.582031 -30.117188 12.695312 -29.109375 12 -27.859375 C 11.300781 -26.609375 10.78125 -25.21875 10.4375 -23.6875 C 10.257812 -22.8125 10.125 -21.910156 10.03125 -20.984375 C 9.945312 -20.066406 9.90625 -19.140625 9.90625 -18.203125 C 9.945312 -16.085938 10.207031 -13.992188 10.6875 -11.921875 C 11.175781 -9.847656 11.878906 -8.019531 12.796875 -6.4375 C 13.722656 -4.851562 14.832031 -3.695312 16.125 -2.96875 C 17.445312 -2.488281 18.929688 -2.203125 20.578125 -2.109375 C 22.234375 -2.023438 23.800781 -2.171875 25.28125 -2.546875 C 26.757812 -2.929688 27.878906 -3.5625 28.640625 -4.4375 C 28.535156 -5.269531 28.484375 -6.171875 28.484375 -7.140625 C 28.484375 -8.117188 28.519531 -9.09375 28.59375 -10.0625 C 28.59375 -10.65625 28.597656 -11.25 28.609375 -11.84375 C 28.628906 -12.4375 28.640625 -13.007812 28.640625 -13.5625 C 28.328125 -13.875 27.914062 -14.03125 27.40625 -14.03125 C 26.90625 -14.03125 26.429688 -14 25.984375 -13.9375 C 25.597656 -13.863281 25.25 -13.828125 24.9375 -13.828125 C 24.625 -13.828125 24.378906 -13.894531 24.203125 -14.03125 C 24.035156 -15.320312 24.265625 -16.0625 24.890625 -16.25 C 25.515625 -16.4375 26.4375 -16.5 27.65625 -16.4375 C 28.070312 -16.4375 28.503906 -16.425781 28.953125 -16.40625 C 29.410156 -16.382812 29.878906 -16.394531 30.359375 -16.4375 C 30.566406 -16.4375 30.773438 -16.441406 30.984375 -16.453125 C 31.191406 -16.472656 31.398438 -16.5 31.609375 -16.53125 C 32.453125 -16.601562 33.289062 -16.640625 34.125 -16.640625 C 34.957031 -16.640625 35.660156 -16.507812 36.234375 -16.25 C 36.804688 -15.988281 37.160156 -15.492188 37.296875 -14.765625 Z M 37.296875 -14.765625 "/></g></g></g><g fill="#000000" fill-opacity="1"><g transform="translate(837.820851, 577.627802)"><g/></g></g><g fill="#000000" fill-opacity="1"><g transform="translate(850.863417, 577.627802)"><g><path d="M 43.875 -1.9375 C 43.457031 -1.40625 42.769531 -0.992188 41.8125 -0.703125 C 40.851562 -0.410156 39.789062 -0.226562 38.625 -0.15625 C 37.46875 -0.0820312 36.363281 -0.125 35.3125 -0.28125 C 34.269531 -0.4375 33.472656 -0.691406 32.921875 -1.046875 C 32.847656 -1.285156 32.851562 -1.472656 32.9375 -1.609375 C 33.03125 -1.753906 33.128906 -1.894531 33.234375 -2.03125 C 33.335938 -2.132812 33.441406 -2.253906 33.546875 -2.390625 C 33.648438 -2.535156 33.703125 -2.726562 33.703125 -2.96875 C 34.085938 -2.96875 34.53125 -3.046875 35.03125 -3.203125 C 35.539062 -3.359375 35.984375 -3.5625 36.359375 -3.8125 C 36.359375 -7.007812 36.332031 -10.269531 36.28125 -13.59375 C 36.226562 -16.914062 36.1875 -20.265625 36.15625 -23.640625 C 36.125 -24.953125 36.109375 -26.28125 36.109375 -27.625 C 36.109375 -28.96875 36.109375 -30.296875 36.109375 -31.609375 C 36.109375 -31.609375 35.96875 -31.179688 35.6875 -30.328125 C 35.40625 -29.484375 35.226562 -28.453125 35.15625 -27.234375 C 34.632812 -26.085938 34.113281 -24.890625 33.59375 -23.640625 C 32.726562 -21.515625 31.832031 -19.3125 30.90625 -17.03125 C 29.988281 -14.75 29.113281 -12.550781 28.28125 -10.4375 C 28 -9.707031 27.679688 -8.867188 27.328125 -7.921875 C 26.984375 -6.984375 26.675781 -6.097656 26.40625 -5.265625 C 26.363281 -5.128906 26.328125 -4.988281 26.296875 -4.84375 C 26.265625 -4.707031 26.226562 -4.550781 26.1875 -4.375 C 26.050781 -3.851562 25.894531 -3.332031 25.71875 -2.8125 C 25.539062 -2.289062 25.253906 -1.875 24.859375 -1.5625 C 24.460938 -1.25 23.898438 -1.179688 23.171875 -1.359375 C 21.492188 -4.941406 19.925781 -8.628906 18.46875 -12.421875 C 17.007812 -16.210938 15.515625 -19.96875 13.984375 -23.6875 C 13.523438 -24.800781 13.078125 -25.882812 12.640625 -26.9375 C 12.210938 -28 11.753906 -29.054688 11.265625 -30.109375 C 11.265625 -30.109375 11.28125 -29.8125 11.3125 -29.21875 C 11.351562 -28.625 11.390625 -27.9375 11.421875 -27.15625 C 11.460938 -26.375 11.484375 -25.671875 11.484375 -25.046875 L 11.53125 -23.6875 C 11.632812 -21.425781 11.710938 -19.0625 11.765625 -16.59375 C 11.816406 -14.125 11.867188 -11.722656 11.921875 -9.390625 C 11.972656 -7.054688 12.015625 -4.9375 12.046875 -3.03125 C 12.503906 -2.675781 13.019531 -2.421875 13.59375 -2.265625 C 14.164062 -2.109375 14.570312 -1.769531 14.8125 -1.25 C 14.46875 -0.757812 13.921875 -0.421875 13.171875 -0.234375 C 12.421875 -0.046875 11.601562 0.0351562 10.71875 0.015625 C 9.832031 0.00390625 8.945312 -0.0507812 8.0625 -0.15625 C 7.175781 -0.257812 6.421875 -0.363281 5.796875 -0.46875 C 5.546875 -1.375 5.769531 -2.101562 6.46875 -2.65625 C 7.164062 -3.21875 7.914062 -3.601562 8.71875 -3.8125 C 9.09375 -6.800781 9.238281 -10 9.15625 -13.40625 C 9.070312 -16.8125 8.941406 -20.238281 8.765625 -23.6875 C 8.691406 -24.96875 8.628906 -26.234375 8.578125 -27.484375 C 8.523438 -28.742188 8.46875 -29.984375 8.40625 -31.203125 C 8.019531 -31.265625 7.570312 -31.296875 7.0625 -31.296875 C 6.5625 -31.296875 6.015625 -31.332031 5.421875 -31.40625 C 5.421875 -31.582031 5.382812 -31.738281 5.3125 -31.875 C 5.25 -32.007812 5.179688 -32.132812 5.109375 -32.25 C 4.972656 -32.488281 4.867188 -32.726562 4.796875 -32.96875 C 4.734375 -33.21875 4.859375 -33.5 5.171875 -33.8125 C 5.753906 -33.8125 6.332031 -33.835938 6.90625 -33.890625 C 7.488281 -33.941406 8.070312 -34.019531 8.65625 -34.125 C 9.769531 -34.257812 10.835938 -34.34375 11.859375 -34.375 C 12.890625 -34.414062 13.820312 -34.15625 14.65625 -33.59375 C 14.757812 -33.425781 14.8125 -33.265625 14.8125 -33.109375 C 14.8125 -32.953125 14.796875 -32.800781 14.765625 -32.65625 C 14.765625 -32.488281 14.765625 -32.316406 14.765625 -32.140625 C 14.765625 -31.960938 14.816406 -31.769531 14.921875 -31.5625 C 15.515625 -30.28125 16.078125 -28.976562 16.609375 -27.65625 C 17.148438 -26.332031 17.703125 -25.007812 18.265625 -23.6875 C 19.304688 -21.144531 20.335938 -18.585938 21.359375 -16.015625 C 22.390625 -13.441406 23.492188 -10.957031 24.671875 -8.5625 C 25.828125 -10.925781 26.875 -13.382812 27.8125 -15.9375 C 28.75 -18.488281 29.671875 -21.054688 30.578125 -23.640625 C 31.234375 -25.441406 31.898438 -27.21875 32.578125 -28.96875 C 33.253906 -30.726562 33.992188 -32.425781 34.796875 -34.0625 C 35.421875 -34.269531 36.203125 -34.410156 37.140625 -34.484375 C 38.085938 -34.554688 39.019531 -34.539062 39.9375 -34.4375 C 40.851562 -34.332031 41.632812 -34.101562 42.28125 -33.75 C 42.925781 -33.40625 43.285156 -32.90625 43.359375 -32.25 C 43.210938 -31.96875 42.96875 -31.789062 42.625 -31.71875 C 42.28125 -31.644531 41.898438 -31.609375 41.484375 -31.609375 C 41.203125 -31.609375 40.921875 -31.59375 40.640625 -31.5625 C 40.359375 -31.53125 40.113281 -31.460938 39.90625 -31.359375 C 39.875 -30.109375 39.847656 -28.835938 39.828125 -27.546875 C 39.816406 -26.253906 39.828125 -24.953125 39.859375 -23.640625 C 39.859375 -22.765625 39.875 -21.882812 39.90625 -21 C 39.945312 -20.113281 39.96875 -19.234375 39.96875 -18.359375 C 40.03125 -15.890625 40.078125 -13.4375 40.109375 -11 C 40.148438 -8.570312 40.101562 -6.207031 39.96875 -3.90625 C 40.238281 -3.53125 40.625 -3.269531 41.125 -3.125 C 41.632812 -2.988281 42.148438 -2.847656 42.671875 -2.703125 C 43.191406 -2.566406 43.59375 -2.3125 43.875 -1.9375 Z M 43.875 -1.9375 "/></g></g></g><g fill="#000000" fill-opacity="1"><g transform="translate(898.860121, 577.627802)"><g><path d="M 28.796875 -1.140625 L 28.4375 -0.78125 C 26.695312 -0.644531 24.929688 -0.566406 23.140625 -0.546875 C 21.347656 -0.523438 19.546875 -0.535156 17.734375 -0.578125 C 15.753906 -0.578125 13.789062 -0.566406 11.84375 -0.546875 C 9.894531 -0.523438 8 -0.410156 6.15625 -0.203125 C 5.601562 -0.585938 5.359375 -0.960938 5.421875 -1.328125 C 5.492188 -1.691406 5.597656 -2.03125 5.734375 -2.34375 C 5.910156 -2.65625 6 -2.863281 6 -2.96875 C 6.207031 -3.113281 6.457031 -3.1875 6.75 -3.1875 C 7.050781 -3.1875 7.359375 -3.1875 7.671875 -3.1875 C 7.847656 -3.1875 8.03125 -3.175781 8.21875 -3.15625 C 8.40625 -3.132812 8.585938 -3.144531 8.765625 -3.1875 C 8.941406 -5.71875 9.03125 -8.390625 9.03125 -11.203125 C 9.03125 -14.023438 9.007812 -16.773438 8.96875 -19.453125 C 8.96875 -20.191406 8.957031 -20.90625 8.9375 -21.59375 C 8.925781 -22.289062 8.921875 -22.988281 8.921875 -23.6875 C 8.890625 -25.007812 8.878906 -26.257812 8.890625 -27.4375 C 8.910156 -28.625 8.9375 -29.738281 8.96875 -30.78125 C 8.726562 -30.851562 8.476562 -30.894531 8.21875 -30.90625 C 7.957031 -30.925781 7.703125 -30.9375 7.453125 -30.9375 C 7.003906 -30.9375 6.578125 -30.976562 6.171875 -31.0625 C 5.773438 -31.15625 5.441406 -31.390625 5.171875 -31.765625 C 5.203125 -31.867188 5.234375 -32.007812 5.265625 -32.1875 C 5.335938 -32.601562 5.453125 -33.007812 5.609375 -33.40625 C 5.765625 -33.8125 6.085938 -34 6.578125 -33.96875 C 7.898438 -33.925781 9.367188 -33.878906 10.984375 -33.828125 C 12.597656 -33.773438 14.203125 -33.75 15.796875 -33.75 C 17.398438 -33.75 18.773438 -33.75 19.921875 -33.75 C 20.347656 -33.75 20.769531 -33.765625 21.1875 -33.796875 C 21.601562 -33.835938 22.019531 -33.875 22.4375 -33.90625 C 23.613281 -34.007812 24.757812 -34.0625 25.875 -34.0625 C 26.988281 -34.0625 27.960938 -33.769531 28.796875 -33.1875 C 28.765625 -32.832031 28.753906 -32.421875 28.765625 -31.953125 C 28.785156 -31.484375 28.796875 -30.988281 28.796875 -30.46875 C 28.867188 -29.488281 28.894531 -28.492188 28.875 -27.484375 C 28.851562 -26.484375 28.707031 -25.6875 28.4375 -25.09375 C 27.8125 -24.957031 27.347656 -25.035156 27.046875 -25.328125 C 26.753906 -25.617188 26.554688 -26.03125 26.453125 -26.5625 C 26.316406 -27.25 26.222656 -28.035156 26.171875 -28.921875 C 26.117188 -29.816406 25.929688 -30.488281 25.609375 -30.9375 C 25.191406 -30.9375 24.734375 -30.9375 24.234375 -30.9375 C 23.734375 -30.9375 23.203125 -30.953125 22.640625 -30.984375 C 20.972656 -30.984375 19.207031 -30.984375 17.34375 -30.984375 C 15.488281 -30.984375 13.984375 -30.914062 12.828125 -30.78125 C 12.867188 -30.332031 12.890625 -29.757812 12.890625 -29.0625 C 12.890625 -28.363281 12.867188 -27.582031 12.828125 -26.71875 C 12.828125 -26.226562 12.828125 -25.726562 12.828125 -25.21875 C 12.828125 -24.71875 12.828125 -24.207031 12.828125 -23.6875 C 12.828125 -22.851562 12.851562 -22.015625 12.90625 -21.171875 C 12.957031 -20.335938 13.019531 -19.539062 13.09375 -18.78125 C 14.445312 -18.914062 15.84375 -19 17.28125 -19.03125 C 18.726562 -19.070312 20.148438 -19.128906 21.546875 -19.203125 C 21.992188 -19.410156 22.320312 -19.726562 22.53125 -20.15625 C 22.738281 -20.59375 22.929688 -21.0625 23.109375 -21.5625 C 23.285156 -22.070312 23.515625 -22.5 23.796875 -22.84375 C 24.035156 -22.988281 24.238281 -23.035156 24.40625 -22.984375 C 24.582031 -22.929688 24.773438 -22.851562 24.984375 -22.75 C 25.054688 -22.707031 25.144531 -22.660156 25.25 -22.609375 C 25.351562 -22.554688 25.472656 -22.515625 25.609375 -22.484375 C 25.398438 -21.722656 25.28125 -20.851562 25.25 -19.875 C 25.21875 -18.90625 25.21875 -17.914062 25.25 -16.90625 C 25.25 -16.070312 25.226562 -15.253906 25.1875 -14.453125 C 25.15625 -13.648438 25.085938 -12.953125 24.984375 -12.359375 C 24.191406 -12.296875 23.671875 -12.5 23.421875 -12.96875 C 23.179688 -13.4375 22.988281 -13.96875 22.84375 -14.5625 C 22.78125 -14.800781 22.710938 -15.039062 22.640625 -15.28125 C 22.566406 -15.53125 22.476562 -15.757812 22.375 -15.96875 C 20.78125 -16.207031 19.113281 -16.34375 17.375 -16.375 C 15.632812 -16.414062 14.117188 -16.140625 12.828125 -15.546875 C 12.898438 -13.628906 12.953125 -11.671875 12.984375 -9.671875 C 13.023438 -7.671875 12.972656 -5.578125 12.828125 -3.390625 C 14.117188 -3.316406 15.53125 -3.265625 17.0625 -3.234375 C 18.59375 -3.203125 20.125 -3.242188 21.65625 -3.359375 C 23.1875 -3.484375 24.578125 -3.703125 25.828125 -4.015625 C 26.210938 -4.679688 26.472656 -5.4375 26.609375 -6.28125 C 26.742188 -7.132812 26.941406 -7.941406 27.203125 -8.703125 C 27.460938 -9.472656 27.941406 -10 28.640625 -10.28125 C 29.160156 -9.238281 29.394531 -8.082031 29.34375 -6.8125 C 29.289062 -5.539062 29.175781 -4.347656 29 -3.234375 C 28.96875 -2.847656 28.925781 -2.484375 28.875 -2.140625 C 28.820312 -1.796875 28.796875 -1.460938 28.796875 -1.140625 Z M 28.796875 -1.140625 "/></g></g></g></svg>