<svg xmlns="http://www.w3.org/2000/svg" xmlns:xlink="http://www.w3.org/1999/xlink" width="500" zoomAndPan="magnify" viewBox="0 0 375 374.999991" height="500" preserveAspectRatio="xMidYMid meet" version="1.0"><defs><g/></defs><g fill="#000000" fill-opacity="1"><g transform="translate(41.988463, 202.233352)"><g><path d="M 6.296875 -28.859375 C 6.640625 -30.710938 6.9375 -32.707031 7.1875 -34.84375 C 7.4375 -36.988281 7.851562 -39.023438 8.4375 -40.953125 C 9.03125 -42.890625 9.894531 -44.46875 11.03125 -45.6875 C 12.164062 -46.90625 13.78125 -47.515625 15.875 -47.515625 C 18.3125 -47.515625 20.582031 -46.460938 22.6875 -44.359375 C 24.789062 -42.265625 25.84375 -39.660156 25.84375 -36.546875 C 25.5 -34.785156 25.007812 -32.957031 24.375 -31.0625 C 23.75 -29.175781 23.4375 -27.265625 23.4375 -25.328125 C 23.4375 -24.742188 23.644531 -24.132812 24.0625 -23.5 C 24.488281 -22.875 25.125 -22.5625 25.96875 -22.5625 C 27.144531 -22.5625 28.210938 -23.296875 29.171875 -24.765625 C 30.140625 -26.234375 31.046875 -28.039062 31.890625 -30.1875 C 32.734375 -32.332031 33.613281 -34.453125 34.53125 -36.546875 C 35.457031 -38.648438 36.550781 -40.4375 37.8125 -41.90625 C 39.070312 -43.375 40.539062 -44.109375 42.21875 -44.109375 C 43.394531 -44.109375 44.71875 -43.707031 46.1875 -42.90625 C 47.664062 -42.113281 48.925781 -41.003906 49.96875 -39.578125 C 51.019531 -38.148438 51.546875 -36.46875 51.546875 -34.53125 C 51.546875 -33.863281 51.421875 -33.273438 51.171875 -32.765625 C 49.910156 -29.492188 48.441406 -26.050781 46.765625 -22.4375 C 45.085938 -18.820312 43.132812 -15.414062 40.90625 -12.21875 C 38.675781 -9.03125 36.148438 -6.425781 33.328125 -4.40625 C 30.515625 -2.394531 27.347656 -1.390625 23.828125 -1.390625 C 19.703125 -1.390625 16.335938 -2.457031 13.734375 -4.59375 C 11.128906 -6.738281 9.238281 -9.363281 8.0625 -12.46875 C 6.882812 -15.582031 6.296875 -18.566406 6.296875 -21.421875 C 6.296875 -22.597656 6.359375 -23.816406 6.484375 -25.078125 C 6.617188 -26.335938 6.726562 -27.597656 6.8125 -28.859375 C 6.8125 -28.859375 6.765625 -28.859375 6.671875 -28.859375 C 6.585938 -28.859375 6.460938 -28.859375 6.296875 -28.859375 Z M 6.296875 -28.859375 "/></g></g></g><g fill="#000000" fill-opacity="1"><g transform="translate(93.531135, 202.233352)"><g><path d="M 39.078125 -90 C 42.179688 -89.914062 45.347656 -89.265625 48.578125 -88.046875 C 51.816406 -86.828125 54.800781 -85.207031 57.53125 -83.1875 C 60.269531 -81.175781 62.476562 -78.800781 64.15625 -76.0625 C 65.832031 -73.332031 66.671875 -70.332031 66.671875 -67.0625 C 66.671875 -64.03125 65.957031 -60.976562 64.53125 -57.90625 C 63.101562 -54.84375 61.316406 -51.925781 59.171875 -49.15625 C 57.035156 -46.382812 54.914062 -43.863281 52.8125 -41.59375 C 51.300781 -40 50.546875 -38.488281 50.546875 -37.0625 C 50.546875 -35.96875 51.238281 -34.578125 52.625 -32.890625 C 54.007812 -31.210938 55.707031 -29.40625 57.71875 -27.46875 C 59.738281 -25.539062 61.757812 -23.585938 63.78125 -21.609375 C 65.800781 -19.640625 67.503906 -17.769531 68.890625 -16 C 70.273438 -14.238281 70.96875 -12.644531 70.96875 -11.21875 C 70.96875 -9.363281 69.976562 -7.867188 68 -6.734375 C 66.03125 -5.609375 63.507812 -4.6875 60.4375 -3.96875 C 57.375 -3.257812 54.265625 -2.671875 51.109375 -2.203125 C 47.960938 -1.742188 45.171875 -1.300781 42.734375 -0.875 C 40.378906 -0.457031 37.984375 -0.164062 35.546875 0 C 33.109375 0.164062 30.628906 0.585938 28.109375 1.265625 C 27.515625 1.347656 26.96875 1.453125 26.46875 1.578125 C 25.96875 1.703125 25.460938 1.765625 24.953125 1.765625 C 24.535156 1.765625 23.71875 1.40625 22.5 0.6875 C 21.28125 -0.0195312 20.144531 -0.921875 19.09375 -2.015625 C 18.039062 -3.109375 17.515625 -4.203125 17.515625 -5.296875 C 17.515625 -6.722656 18.0625 -7.941406 19.15625 -8.953125 C 20.25 -9.960938 21.632812 -10.800781 23.3125 -11.46875 C 25 -12.144531 26.679688 -12.648438 28.359375 -12.984375 C 30.035156 -13.316406 31.421875 -13.484375 32.515625 -13.484375 C 33.359375 -13.484375 34.21875 -13.378906 35.09375 -13.171875 C 35.976562 -12.960938 36.84375 -12.859375 37.6875 -12.859375 C 39.445312 -12.859375 41.164062 -13.316406 42.84375 -14.234375 C 44.53125 -15.160156 45.375 -16.210938 45.375 -17.390625 C 45.375 -18.316406 44.929688 -19.285156 44.046875 -20.296875 C 43.171875 -21.304688 42.125 -22.289062 40.90625 -23.25 C 39.6875 -24.21875 38.570312 -24.992188 37.5625 -25.578125 C 36.550781 -26.171875 35.878906 -26.46875 35.546875 -26.46875 C 34.617188 -26.46875 33.816406 -25.984375 33.140625 -25.015625 C 32.472656 -24.054688 31.78125 -22.96875 31.0625 -21.75 C 30.351562 -20.53125 29.492188 -19.4375 28.484375 -18.46875 C 27.472656 -17.5 26.171875 -17.015625 24.578125 -17.015625 C 21.472656 -17.015625 19.078125 -18.0625 17.390625 -20.15625 C 15.710938 -22.257812 14.515625 -25.035156 13.796875 -28.484375 C 13.085938 -31.929688 12.625 -35.691406 12.40625 -39.765625 C 12.195312 -43.835938 11.96875 -47.890625 11.71875 -51.921875 C 11.46875 -55.960938 10.921875 -59.535156 10.078125 -62.640625 C 9.492188 -64.910156 8.925781 -67.429688 8.375 -70.203125 C 7.832031 -72.984375 7.5625 -75.128906 7.5625 -76.640625 C 7.5625 -79.242188 8.65625 -81.382812 10.84375 -83.0625 C 13.03125 -84.738281 15.78125 -86.0625 19.09375 -87.03125 C 22.414062 -88 25.859375 -88.710938 29.421875 -89.171875 C 32.992188 -89.640625 36.210938 -89.914062 39.078125 -90 Z M 49.15625 -65.921875 C 49.15625 -66.171875 49.15625 -66.421875 49.15625 -66.671875 C 49.15625 -66.929688 49.15625 -67.144531 49.15625 -67.3125 C 49.15625 -70.664062 48.019531 -72.972656 45.75 -74.234375 C 43.488281 -75.492188 40.507812 -76.125 36.8125 -76.125 C 33.863281 -76.125 31.335938 -75.640625 29.234375 -74.671875 C 27.140625 -73.710938 26.09375 -72.476562 26.09375 -70.96875 C 27.019531 -68.945312 27.648438 -66.460938 27.984375 -63.515625 C 28.316406 -60.578125 28.609375 -57.660156 28.859375 -54.765625 C 29.117188 -51.867188 29.519531 -49.429688 30.0625 -47.453125 C 30.601562 -45.484375 31.546875 -44.5 32.890625 -44.5 C 33.566406 -44.5 34.410156 -44.75 35.421875 -45.25 C 39.203125 -47.6875 42.117188 -50.710938 44.171875 -54.328125 C 46.234375 -57.941406 47.894531 -61.804688 49.15625 -65.921875 Z M 49.15625 -65.921875 "/></g></g></g><g fill="#000000" fill-opacity="1"><g transform="translate(167.001474, 202.233352)"><g><path d="M 26.09375 -45.125 C 26.09375 -40.25 25.878906 -35.375 25.453125 -30.5 C 25.035156 -25.625 24.828125 -20.707031 24.828125 -15.75 C 24.828125 -13.394531 25.035156 -11.0625 25.453125 -8.75 C 25.878906 -6.445312 26.09375 -4.160156 26.09375 -1.890625 C 26.09375 -0.378906 25.628906 1.148438 24.703125 2.703125 C 23.773438 4.265625 22.640625 5.585938 21.296875 6.671875 C 19.953125 7.765625 18.609375 8.3125 17.265625 8.3125 C 16.003906 8.3125 14.660156 7.765625 13.234375 6.671875 C 11.804688 5.585938 10.546875 4.222656 9.453125 2.578125 C 8.359375 0.941406 7.6875 -0.753906 7.4375 -2.515625 C 6.675781 -9.328125 6.296875 -16.132812 6.296875 -22.9375 C 6.296875 -31.507812 6.546875 -40.332031 7.046875 -49.40625 C 7.554688 -58.488281 8.109375 -67.351562 8.703125 -76 C 8.953125 -80.375 9.6875 -83.441406 10.90625 -85.203125 C 12.125 -86.972656 14.160156 -87.859375 17.015625 -87.859375 C 20.128906 -87.859375 22.648438 -86.765625 24.578125 -84.578125 C 26.515625 -82.390625 27.484375 -79.53125 27.484375 -76 C 27.484375 -71.382812 27.226562 -66.847656 26.71875 -62.390625 C 26.21875 -57.941406 25.96875 -53.488281 25.96875 -49.03125 C 25.96875 -48.445312 25.96875 -47.816406 25.96875 -47.140625 C 25.96875 -46.472656 26.007812 -45.800781 26.09375 -45.125 Z M 26.09375 -45.125 "/></g></g></g><g fill="#000000" fill-opacity="1"><g transform="translate(198.254723, 202.233352)"><g><path d="M 25.328125 -34.28125 C 27.941406 -34.28125 30.273438 -33.546875 32.328125 -32.078125 C 34.390625 -30.609375 36.050781 -28.695312 37.3125 -26.34375 C 38.570312 -23.988281 39.203125 -21.507812 39.203125 -18.90625 C 39.117188 -15.96875 38.253906 -13.257812 36.609375 -10.78125 C 34.972656 -8.300781 32.851562 -6.300781 30.25 -4.78125 C 27.644531 -3.269531 24.789062 -2.515625 21.6875 -2.515625 C 16.976562 -2.515625 13.234375 -3.796875 10.453125 -6.359375 C 7.679688 -8.921875 6.296875 -12.09375 6.296875 -15.875 C 6.296875 -22.601562 7.867188 -27.351562 11.015625 -30.125 C 14.171875 -32.894531 18.941406 -34.28125 25.328125 -34.28125 Z M 25.328125 -34.28125 "/></g></g></g><g fill="#000000" fill-opacity="1"><g transform="translate(243.748368, 202.233352)"><g><path d="M 51.171875 11.59375 C 50.585938 18.65625 49.015625 25.164062 46.453125 31.125 C 43.890625 37.09375 40 42.304688 34.78125 46.765625 C 33.695312 47.609375 32.546875 48.257812 31.328125 48.71875 C 30.109375 49.175781 29.035156 49.40625 28.109375 49.40625 C 26.347656 49.40625 24.644531 48.691406 23 47.265625 C 21.363281 45.835938 20.546875 43.945312 20.546875 41.59375 C 20.546875 40.414062 20.835938 39.382812 21.421875 38.5 C 22.015625 37.625 22.6875 36.765625 23.4375 35.921875 C 25.625 33.648438 27.492188 30.8125 29.046875 27.40625 C 30.609375 24.007812 31.828125 20.566406 32.703125 17.078125 C 33.585938 13.585938 34.03125 10.625 34.03125 8.1875 C 34.03125 6.425781 33.90625 4.304688 33.65625 1.828125 C 33.40625 -0.648438 32.984375 -3.046875 32.390625 -5.359375 C 31.804688 -7.671875 31.050781 -9.601562 30.125 -11.15625 C 29.195312 -12.707031 28.0625 -13.484375 26.71875 -13.484375 C 25.882812 -13.484375 24.8125 -13.164062 23.5 -12.53125 C 22.195312 -11.90625 20.769531 -11.273438 19.21875 -10.640625 C 17.664062 -10.015625 16.09375 -9.703125 14.5 -9.703125 C 12.894531 -9.703125 11.253906 -10.164062 9.578125 -11.09375 C 7.898438 -12.019531 6.515625 -13.34375 5.421875 -15.0625 C 4.328125 -16.78125 3.78125 -18.816406 3.78125 -21.171875 C 3.78125 -23.109375 4.390625 -25.082031 5.609375 -27.09375 C 6.828125 -29.113281 8.421875 -30.816406 10.390625 -32.203125 C 12.367188 -33.585938 14.453125 -34.28125 16.640625 -34.28125 C 17.304688 -34.28125 17.972656 -34.21875 18.640625 -34.09375 C 19.316406 -33.96875 19.953125 -33.90625 20.546875 -33.90625 C 22.472656 -33.90625 24.273438 -34.300781 25.953125 -35.09375 C 27.640625 -35.894531 29.320312 -37.097656 31 -38.703125 C 32.007812 -39.617188 33.398438 -40.078125 35.171875 -40.078125 C 36.765625 -40.078125 38.335938 -39.695312 39.890625 -38.9375 C 41.441406 -38.1875 42.742188 -37.160156 43.796875 -35.859375 C 44.847656 -34.554688 45.375 -33.066406 45.375 -31.390625 C 45.375 -27.097656 45.835938 -22.9375 46.765625 -18.90625 C 47.691406 -14.875 48.613281 -10.859375 49.53125 -6.859375 C 50.457031 -2.867188 50.921875 1.222656 50.921875 5.421875 C 50.921875 6.515625 50.898438 7.582031 50.859375 8.625 C 50.816406 9.675781 50.921875 10.664062 51.171875 11.59375 Z M 51.171875 11.59375 "/></g></g></g><g fill="#000000" fill-opacity="1"><g transform="translate(298.693605, 202.233352)"><g><path d="M 6.296875 -10.46875 C 6.554688 -12.644531 7.25 -14.675781 8.375 -16.5625 C 9.507812 -18.457031 10.875 -20.015625 12.46875 -21.234375 C 14.070312 -22.453125 15.671875 -23.0625 17.265625 -23.0625 C 18.273438 -23.0625 19.390625 -22.597656 20.609375 -21.671875 C 21.828125 -20.753906 23.003906 -19.582031 24.140625 -18.15625 C 25.273438 -16.726562 26.195312 -15.273438 26.90625 -13.796875 C 27.625 -12.328125 27.984375 -11.085938 27.984375 -10.078125 C 27.648438 -8.316406 26.832031 -6.65625 25.53125 -5.09375 C 24.226562 -3.539062 22.648438 -2.300781 20.796875 -1.375 C 18.953125 -0.457031 17.0625 0 15.125 0 C 12.019531 0 9.769531 -0.984375 8.375 -2.953125 C 6.988281 -4.929688 6.296875 -7.4375 6.296875 -10.46875 Z M 6.296875 -10.46875 "/></g></g></g><g fill="#000000" fill-opacity="1"><g transform="translate(108.693033, 229.52623)"><g><path d="M 10.625 -0.421875 L 10.484375 -0.28125 C 9.835938 -0.238281 9.1875 -0.210938 8.53125 -0.203125 C 7.875 -0.191406 7.210938 -0.195312 6.546875 -0.21875 C 5.804688 -0.21875 5.078125 -0.210938 4.359375 -0.203125 C 3.648438 -0.191406 2.953125 -0.148438 2.265625 -0.078125 C 2.066406 -0.210938 1.976562 -0.347656 2 -0.484375 C 2.019531 -0.617188 2.054688 -0.742188 2.109375 -0.859375 C 2.179688 -0.972656 2.21875 -1.050781 2.21875 -1.09375 C 2.289062 -1.144531 2.378906 -1.171875 2.484375 -1.171875 C 2.597656 -1.171875 2.710938 -1.171875 2.828125 -1.171875 C 2.890625 -1.171875 2.957031 -1.164062 3.03125 -1.15625 C 3.101562 -1.15625 3.171875 -1.160156 3.234375 -1.171875 C 3.296875 -2.109375 3.328125 -3.09375 3.328125 -4.125 C 3.328125 -5.164062 3.320312 -6.179688 3.3125 -7.171875 C 3.3125 -7.441406 3.304688 -7.703125 3.296875 -7.953125 C 3.296875 -8.210938 3.296875 -8.472656 3.296875 -8.734375 C 3.273438 -9.222656 3.269531 -9.679688 3.28125 -10.109375 C 3.289062 -10.546875 3.300781 -10.957031 3.3125 -11.34375 C 3.21875 -11.375 3.125 -11.390625 3.03125 -11.390625 C 2.9375 -11.398438 2.84375 -11.40625 2.75 -11.40625 C 2.582031 -11.40625 2.425781 -11.421875 2.28125 -11.453125 C 2.132812 -11.484375 2.007812 -11.570312 1.90625 -11.71875 C 1.914062 -11.75 1.925781 -11.800781 1.9375 -11.875 C 1.96875 -12.019531 2.007812 -12.164062 2.0625 -12.3125 C 2.125 -12.46875 2.242188 -12.535156 2.421875 -12.515625 C 2.910156 -12.503906 3.453125 -12.488281 4.046875 -12.46875 C 4.640625 -12.445312 5.234375 -12.4375 5.828125 -12.4375 C 6.421875 -12.4375 6.925781 -12.4375 7.34375 -12.4375 C 7.5 -12.4375 7.65625 -12.441406 7.8125 -12.453125 C 7.96875 -12.472656 8.117188 -12.488281 8.265625 -12.5 C 8.703125 -12.539062 9.125 -12.5625 9.53125 -12.5625 C 9.945312 -12.5625 10.3125 -12.453125 10.625 -12.234375 C 10.601562 -12.109375 10.597656 -11.957031 10.609375 -11.78125 C 10.617188 -11.601562 10.625 -11.421875 10.625 -11.234375 C 10.644531 -10.867188 10.648438 -10.5 10.640625 -10.125 C 10.640625 -9.757812 10.585938 -9.46875 10.484375 -9.25 C 10.253906 -9.195312 10.082031 -9.222656 9.96875 -9.328125 C 9.863281 -9.441406 9.789062 -9.597656 9.75 -9.796875 C 9.695312 -10.046875 9.660156 -10.332031 9.640625 -10.65625 C 9.628906 -10.988281 9.5625 -11.238281 9.4375 -11.40625 C 9.289062 -11.40625 9.125 -11.40625 8.9375 -11.40625 C 8.75 -11.40625 8.550781 -11.410156 8.34375 -11.421875 C 7.726562 -11.421875 7.078125 -11.421875 6.390625 -11.421875 C 5.703125 -11.421875 5.148438 -11.394531 4.734375 -11.34375 C 4.742188 -11.175781 4.75 -10.960938 4.75 -10.703125 C 4.75 -10.453125 4.742188 -10.164062 4.734375 -9.84375 C 4.734375 -9.664062 4.734375 -9.484375 4.734375 -9.296875 C 4.734375 -9.109375 4.734375 -8.921875 4.734375 -8.734375 C 4.734375 -8.421875 4.742188 -8.109375 4.765625 -7.796875 C 4.785156 -7.492188 4.804688 -7.203125 4.828125 -6.921875 C 5.328125 -6.972656 5.84375 -7.003906 6.375 -7.015625 C 6.90625 -7.035156 7.425781 -7.054688 7.9375 -7.078125 C 8.101562 -7.148438 8.222656 -7.265625 8.296875 -7.421875 C 8.378906 -7.585938 8.453125 -7.765625 8.515625 -7.953125 C 8.578125 -8.140625 8.660156 -8.296875 8.765625 -8.421875 C 8.859375 -8.472656 8.9375 -8.488281 9 -8.46875 C 9.0625 -8.445312 9.132812 -8.421875 9.21875 -8.390625 C 9.238281 -8.367188 9.265625 -8.347656 9.296875 -8.328125 C 9.335938 -8.316406 9.382812 -8.304688 9.4375 -8.296875 C 9.363281 -8.003906 9.320312 -7.679688 9.3125 -7.328125 C 9.300781 -6.972656 9.300781 -6.609375 9.3125 -6.234375 C 9.3125 -5.921875 9.300781 -5.617188 9.28125 -5.328125 C 9.269531 -5.035156 9.25 -4.78125 9.21875 -4.5625 C 8.914062 -4.53125 8.71875 -4.601562 8.625 -4.78125 C 8.539062 -4.957031 8.472656 -5.148438 8.421875 -5.359375 C 8.398438 -5.453125 8.375 -5.539062 8.34375 -5.625 C 8.320312 -5.71875 8.289062 -5.804688 8.25 -5.890625 C 7.65625 -5.972656 7.035156 -6.019531 6.390625 -6.03125 C 5.753906 -6.050781 5.203125 -5.953125 4.734375 -5.734375 C 4.753906 -5.023438 4.769531 -4.300781 4.78125 -3.5625 C 4.800781 -2.832031 4.785156 -2.0625 4.734375 -1.25 C 5.203125 -1.226562 5.71875 -1.207031 6.28125 -1.1875 C 6.851562 -1.175781 7.421875 -1.191406 7.984375 -1.234375 C 8.546875 -1.285156 9.054688 -1.367188 9.515625 -1.484375 C 9.660156 -1.722656 9.757812 -2 9.8125 -2.3125 C 9.863281 -2.625 9.9375 -2.921875 10.03125 -3.203125 C 10.125 -3.492188 10.300781 -3.691406 10.5625 -3.796875 C 10.75 -3.410156 10.832031 -2.984375 10.8125 -2.515625 C 10.800781 -2.046875 10.757812 -1.601562 10.6875 -1.1875 C 10.675781 -1.050781 10.660156 -0.914062 10.640625 -0.78125 C 10.628906 -0.65625 10.625 -0.535156 10.625 -0.421875 Z M 10.625 -0.421875 "/></g></g></g><g fill="#000000" fill-opacity="1"><g transform="translate(121.575608, 229.52623)"><g><path d="M 13.390625 -12.078125 C 13.109375 -11.796875 12.785156 -11.550781 12.421875 -11.34375 C 12.054688 -11.144531 11.742188 -10.882812 11.484375 -10.5625 C 11.410156 -10.238281 11.332031 -9.921875 11.25 -9.609375 C 11.175781 -9.304688 11.09375 -9.007812 11 -8.71875 C 10.601562 -7.34375 10.15625 -6.015625 9.65625 -4.734375 C 9.164062 -3.453125 8.722656 -2.09375 8.328125 -0.65625 C 8.203125 -0.53125 8.097656 -0.382812 8.015625 -0.21875 C 7.929688 -0.0625 7.832031 0.0859375 7.71875 0.234375 C 7.570312 0.304688 7.429688 0.328125 7.296875 0.296875 C 7.171875 0.273438 7.050781 0.25 6.9375 0.21875 C 6.84375 0.1875 6.773438 0.164062 6.734375 0.15625 C 6.179688 -1.21875 5.675781 -2.671875 5.21875 -4.203125 C 4.769531 -5.742188 4.300781 -7.253906 3.8125 -8.734375 C 3.644531 -9.242188 3.46875 -9.742188 3.28125 -10.234375 C 3.101562 -10.722656 2.914062 -11.203125 2.71875 -11.671875 C 2.59375 -11.710938 2.476562 -11.722656 2.375 -11.703125 C 2.269531 -11.691406 2.164062 -11.679688 2.0625 -11.671875 C 1.945312 -11.648438 1.835938 -11.632812 1.734375 -11.625 C 1.628906 -11.625 1.523438 -11.640625 1.421875 -11.671875 C 1.328125 -11.816406 1.300781 -11.941406 1.34375 -12.046875 C 1.382812 -12.160156 1.429688 -12.269531 1.484375 -12.375 C 1.503906 -12.40625 1.523438 -12.4375 1.546875 -12.46875 C 1.566406 -12.5 1.582031 -12.535156 1.59375 -12.578125 C 1.851562 -12.566406 2.109375 -12.566406 2.359375 -12.578125 C 2.617188 -12.585938 2.878906 -12.601562 3.140625 -12.625 C 3.328125 -12.644531 3.519531 -12.65625 3.71875 -12.65625 C 3.914062 -12.664062 4.109375 -12.671875 4.296875 -12.671875 C 4.640625 -12.660156 4.960938 -12.609375 5.265625 -12.515625 C 5.566406 -12.429688 5.828125 -12.253906 6.046875 -11.984375 C 5.804688 -11.867188 5.539062 -11.757812 5.25 -11.65625 C 4.96875 -11.550781 4.738281 -11.488281 4.5625 -11.46875 C 4.664062 -11.019531 4.773438 -10.566406 4.890625 -10.109375 C 5.015625 -9.648438 5.148438 -9.191406 5.296875 -8.734375 C 5.640625 -7.617188 6.015625 -6.492188 6.421875 -5.359375 C 6.835938 -4.234375 7.1875 -3.101562 7.46875 -1.96875 C 7.914062 -3.039062 8.363281 -4.128906 8.8125 -5.234375 C 9.269531 -6.347656 9.679688 -7.507812 10.046875 -8.71875 C 10.296875 -9.570312 10.503906 -10.441406 10.671875 -11.328125 C 10.585938 -11.472656 10.453125 -11.570312 10.265625 -11.625 C 10.085938 -11.6875 9.898438 -11.742188 9.703125 -11.796875 C 9.515625 -11.847656 9.359375 -11.921875 9.234375 -12.015625 C 9.253906 -12.210938 9.375 -12.359375 9.59375 -12.453125 C 9.8125 -12.546875 10.082031 -12.601562 10.40625 -12.625 C 10.726562 -12.65625 11.054688 -12.664062 11.390625 -12.65625 C 11.734375 -12.644531 12.039062 -12.625 12.3125 -12.59375 C 12.539062 -12.570312 12.753906 -12.507812 12.953125 -12.40625 C 13.148438 -12.3125 13.296875 -12.203125 13.390625 -12.078125 Z M 13.390625 -12.078125 "/></g></g></g><g fill="#000000" fill-opacity="1"><g transform="translate(136.380957, 229.52623)"><g><path d="M 10.625 -0.421875 L 10.484375 -0.28125 C 9.835938 -0.238281 9.1875 -0.210938 8.53125 -0.203125 C 7.875 -0.191406 7.210938 -0.195312 6.546875 -0.21875 C 5.804688 -0.21875 5.078125 -0.210938 4.359375 -0.203125 C 3.648438 -0.191406 2.953125 -0.148438 2.265625 -0.078125 C 2.066406 -0.210938 1.976562 -0.347656 2 -0.484375 C 2.019531 -0.617188 2.054688 -0.742188 2.109375 -0.859375 C 2.179688 -0.972656 2.21875 -1.050781 2.21875 -1.09375 C 2.289062 -1.144531 2.378906 -1.171875 2.484375 -1.171875 C 2.597656 -1.171875 2.710938 -1.171875 2.828125 -1.171875 C 2.890625 -1.171875 2.957031 -1.164062 3.03125 -1.15625 C 3.101562 -1.15625 3.171875 -1.160156 3.234375 -1.171875 C 3.296875 -2.109375 3.328125 -3.09375 3.328125 -4.125 C 3.328125 -5.164062 3.320312 -6.179688 3.3125 -7.171875 C 3.3125 -7.441406 3.304688 -7.703125 3.296875 -7.953125 C 3.296875 -8.210938 3.296875 -8.472656 3.296875 -8.734375 C 3.273438 -9.222656 3.269531 -9.679688 3.28125 -10.109375 C 3.289062 -10.546875 3.300781 -10.957031 3.3125 -11.34375 C 3.21875 -11.375 3.125 -11.390625 3.03125 -11.390625 C 2.9375 -11.398438 2.84375 -11.40625 2.75 -11.40625 C 2.582031 -11.40625 2.425781 -11.421875 2.28125 -11.453125 C 2.132812 -11.484375 2.007812 -11.570312 1.90625 -11.71875 C 1.914062 -11.75 1.925781 -11.800781 1.9375 -11.875 C 1.96875 -12.019531 2.007812 -12.164062 2.0625 -12.3125 C 2.125 -12.46875 2.242188 -12.535156 2.421875 -12.515625 C 2.910156 -12.503906 3.453125 -12.488281 4.046875 -12.46875 C 4.640625 -12.445312 5.234375 -12.4375 5.828125 -12.4375 C 6.421875 -12.4375 6.925781 -12.4375 7.34375 -12.4375 C 7.5 -12.4375 7.65625 -12.441406 7.8125 -12.453125 C 7.96875 -12.472656 8.117188 -12.488281 8.265625 -12.5 C 8.703125 -12.539062 9.125 -12.5625 9.53125 -12.5625 C 9.945312 -12.5625 10.3125 -12.453125 10.625 -12.234375 C 10.601562 -12.109375 10.597656 -11.957031 10.609375 -11.78125 C 10.617188 -11.601562 10.625 -11.421875 10.625 -11.234375 C 10.644531 -10.867188 10.648438 -10.5 10.640625 -10.125 C 10.640625 -9.757812 10.585938 -9.46875 10.484375 -9.25 C 10.253906 -9.195312 10.082031 -9.222656 9.96875 -9.328125 C 9.863281 -9.441406 9.789062 -9.597656 9.75 -9.796875 C 9.695312 -10.046875 9.660156 -10.332031 9.640625 -10.65625 C 9.628906 -10.988281 9.5625 -11.238281 9.4375 -11.40625 C 9.289062 -11.40625 9.125 -11.40625 8.9375 -11.40625 C 8.75 -11.40625 8.550781 -11.410156 8.34375 -11.421875 C 7.726562 -11.421875 7.078125 -11.421875 6.390625 -11.421875 C 5.703125 -11.421875 5.148438 -11.394531 4.734375 -11.34375 C 4.742188 -11.175781 4.75 -10.960938 4.75 -10.703125 C 4.75 -10.453125 4.742188 -10.164062 4.734375 -9.84375 C 4.734375 -9.664062 4.734375 -9.484375 4.734375 -9.296875 C 4.734375 -9.109375 4.734375 -8.921875 4.734375 -8.734375 C 4.734375 -8.421875 4.742188 -8.109375 4.765625 -7.796875 C 4.785156 -7.492188 4.804688 -7.203125 4.828125 -6.921875 C 5.328125 -6.972656 5.84375 -7.003906 6.375 -7.015625 C 6.90625 -7.035156 7.425781 -7.054688 7.9375 -7.078125 C 8.101562 -7.148438 8.222656 -7.265625 8.296875 -7.421875 C 8.378906 -7.585938 8.453125 -7.765625 8.515625 -7.953125 C 8.578125 -8.140625 8.660156 -8.296875 8.765625 -8.421875 C 8.859375 -8.472656 8.9375 -8.488281 9 -8.46875 C 9.0625 -8.445312 9.132812 -8.421875 9.21875 -8.390625 C 9.238281 -8.367188 9.265625 -8.347656 9.296875 -8.328125 C 9.335938 -8.316406 9.382812 -8.304688 9.4375 -8.296875 C 9.363281 -8.003906 9.320312 -7.679688 9.3125 -7.328125 C 9.300781 -6.972656 9.300781 -6.609375 9.3125 -6.234375 C 9.3125 -5.921875 9.300781 -5.617188 9.28125 -5.328125 C 9.269531 -5.035156 9.25 -4.78125 9.21875 -4.5625 C 8.914062 -4.53125 8.71875 -4.601562 8.625 -4.78125 C 8.539062 -4.957031 8.472656 -5.148438 8.421875 -5.359375 C 8.398438 -5.453125 8.375 -5.539062 8.34375 -5.625 C 8.320312 -5.71875 8.289062 -5.804688 8.25 -5.890625 C 7.65625 -5.972656 7.035156 -6.019531 6.390625 -6.03125 C 5.753906 -6.050781 5.203125 -5.953125 4.734375 -5.734375 C 4.753906 -5.023438 4.769531 -4.300781 4.78125 -3.5625 C 4.800781 -2.832031 4.785156 -2.0625 4.734375 -1.25 C 5.203125 -1.226562 5.71875 -1.207031 6.28125 -1.1875 C 6.851562 -1.175781 7.421875 -1.191406 7.984375 -1.234375 C 8.546875 -1.285156 9.054688 -1.367188 9.515625 -1.484375 C 9.660156 -1.722656 9.757812 -2 9.8125 -2.3125 C 9.863281 -2.625 9.9375 -2.921875 10.03125 -3.203125 C 10.125 -3.492188 10.300781 -3.691406 10.5625 -3.796875 C 10.75 -3.410156 10.832031 -2.984375 10.8125 -2.515625 C 10.800781 -2.046875 10.757812 -1.601562 10.6875 -1.1875 C 10.675781 -1.050781 10.660156 -0.914062 10.640625 -0.78125 C 10.628906 -0.65625 10.625 -0.535156 10.625 -0.421875 Z M 10.625 -0.421875 "/></g></g></g><g fill="#000000" fill-opacity="1"><g transform="translate(149.263533, 229.52623)"><g><path d="M 12.578125 -0.15625 C 12.148438 -0.0390625 11.753906 -0.00390625 11.390625 -0.046875 C 11.023438 -0.0859375 10.660156 -0.15625 10.296875 -0.25 C 10.035156 -0.5625 9.8125 -0.9375 9.625 -1.375 C 9.445312 -1.8125 9.28125 -2.273438 9.125 -2.765625 C 8.976562 -3.265625 8.800781 -3.734375 8.59375 -4.171875 C 8.394531 -4.617188 8.148438 -4.988281 7.859375 -5.28125 C 7.566406 -5.582031 7.191406 -5.765625 6.734375 -5.828125 C 6.535156 -5.847656 6.332031 -5.859375 6.125 -5.859375 C 5.925781 -5.859375 5.734375 -5.851562 5.546875 -5.84375 C 5.390625 -5.832031 5.242188 -5.828125 5.109375 -5.828125 C 4.984375 -5.828125 4.867188 -5.832031 4.765625 -5.84375 C 4.742188 -5.5 4.734375 -5.15625 4.734375 -4.8125 C 4.742188 -4.46875 4.765625 -4.117188 4.796875 -3.765625 C 4.804688 -3.378906 4.816406 -2.988281 4.828125 -2.59375 C 4.835938 -2.207031 4.816406 -1.820312 4.765625 -1.4375 C 4.859375 -1.25 5.015625 -1.125 5.234375 -1.0625 C 5.453125 -1.007812 5.671875 -0.953125 5.890625 -0.890625 C 6.117188 -0.835938 6.285156 -0.726562 6.390625 -0.5625 C 6.234375 -0.351562 5.972656 -0.222656 5.609375 -0.171875 C 5.253906 -0.128906 4.875 -0.109375 4.46875 -0.109375 C 4.363281 -0.109375 4.253906 -0.109375 4.140625 -0.109375 C 4.023438 -0.109375 3.914062 -0.109375 3.8125 -0.109375 C 3.46875 -0.128906 3.144531 -0.132812 2.84375 -0.125 C 2.550781 -0.113281 2.316406 -0.078125 2.140625 -0.015625 C 2.035156 -0.285156 2.03125 -0.488281 2.125 -0.625 C 2.226562 -0.757812 2.363281 -0.875 2.53125 -0.96875 C 2.695312 -1.050781 2.867188 -1.128906 3.046875 -1.203125 C 3.222656 -1.285156 3.34375 -1.40625 3.40625 -1.5625 C 3.375 -2.832031 3.347656 -4.039062 3.328125 -5.1875 C 3.316406 -6.34375 3.296875 -7.523438 3.265625 -8.734375 L 3.21875 -11.5625 C 3.113281 -11.601562 3.003906 -11.625 2.890625 -11.625 C 2.785156 -11.625 2.679688 -11.625 2.578125 -11.625 C 2.453125 -11.601562 2.328125 -11.597656 2.203125 -11.609375 C 2.078125 -11.617188 1.960938 -11.664062 1.859375 -11.75 C 1.878906 -11.8125 1.878906 -11.863281 1.859375 -11.90625 C 1.835938 -11.945312 1.8125 -11.984375 1.78125 -12.015625 C 1.769531 -12.054688 1.757812 -12.097656 1.75 -12.140625 C 1.738281 -12.191406 1.742188 -12.242188 1.765625 -12.296875 C 2.023438 -12.429688 2.316406 -12.507812 2.640625 -12.53125 C 2.972656 -12.550781 3.316406 -12.554688 3.671875 -12.546875 C 3.816406 -12.546875 3.957031 -12.546875 4.09375 -12.546875 C 4.238281 -12.546875 4.378906 -12.550781 4.515625 -12.5625 C 5.242188 -12.613281 5.957031 -12.632812 6.65625 -12.625 C 7.363281 -12.625 8.015625 -12.5625 8.609375 -12.4375 C 9.203125 -12.3125 9.707031 -12.085938 10.125 -11.765625 C 10.46875 -11.503906 10.726562 -11.15625 10.90625 -10.71875 C 11.082031 -10.28125 11.140625 -9.722656 11.078125 -9.046875 C 11.066406 -8.992188 11.046875 -8.941406 11.015625 -8.890625 C 10.984375 -8.835938 10.953125 -8.78125 10.921875 -8.71875 C 10.847656 -8.5625 10.78125 -8.398438 10.71875 -8.234375 C 10.65625 -8.078125 10.601562 -7.910156 10.5625 -7.734375 C 10.269531 -7.617188 10.019531 -7.453125 9.8125 -7.234375 C 9.601562 -7.023438 9.382812 -6.832031 9.15625 -6.65625 C 8.925781 -6.476562 8.617188 -6.367188 8.234375 -6.328125 C 8.773438 -6.003906 9.21875 -5.582031 9.5625 -5.0625 C 9.914062 -4.550781 10.222656 -3.992188 10.484375 -3.390625 C 10.753906 -2.785156 11.015625 -2.175781 11.265625 -1.5625 C 11.335938 -1.519531 11.410156 -1.484375 11.484375 -1.453125 C 11.554688 -1.421875 11.632812 -1.382812 11.71875 -1.34375 C 11.96875 -1.238281 12.203125 -1.109375 12.421875 -0.953125 C 12.640625 -0.796875 12.691406 -0.53125 12.578125 -0.15625 Z M 9.328125 -9.46875 C 9.328125 -9.757812 9.28125 -10.066406 9.1875 -10.390625 C 9.101562 -10.710938 8.960938 -11.03125 8.765625 -11.34375 C 8.304688 -11.59375 7.820312 -11.726562 7.3125 -11.75 C 6.8125 -11.78125 6.265625 -11.785156 5.671875 -11.765625 C 5.546875 -11.765625 5.414062 -11.757812 5.28125 -11.75 C 5.15625 -11.75 5.023438 -11.75 4.890625 -11.75 C 4.773438 -11.632812 4.71875 -11.472656 4.71875 -11.265625 C 4.71875 -11.066406 4.722656 -10.851562 4.734375 -10.625 C 4.742188 -10.53125 4.75 -10.4375 4.75 -10.34375 C 4.757812 -10.257812 4.765625 -10.171875 4.765625 -10.078125 C 4.765625 -9.867188 4.757812 -9.648438 4.75 -9.421875 C 4.738281 -9.191406 4.726562 -8.960938 4.71875 -8.734375 C 4.695312 -8.398438 4.6875 -8.054688 4.6875 -7.703125 C 4.6875 -7.347656 4.710938 -7 4.765625 -6.65625 C 5.378906 -6.550781 6.015625 -6.550781 6.671875 -6.65625 C 7.328125 -6.757812 7.859375 -6.972656 8.265625 -7.296875 C 8.753906 -7.671875 9.078125 -8.144531 9.234375 -8.71875 C 9.296875 -8.96875 9.328125 -9.21875 9.328125 -9.46875 Z M 9.328125 -9.46875 "/></g></g></g><g fill="#000000" fill-opacity="1"><g transform="translate(162.722937, 229.52623)"><g><path d="M 12.1875 -11.96875 C 12.050781 -11.78125 11.972656 -11.554688 11.953125 -11.296875 C 11.941406 -11.046875 11.953125 -10.785156 11.984375 -10.515625 C 11.984375 -10.492188 11.988281 -10.453125 12 -10.390625 C 12.03125 -10.085938 12.039062 -9.789062 12.03125 -9.5 C 12.019531 -9.21875 11.925781 -8.984375 11.75 -8.796875 C 11.507812 -8.816406 11.332031 -8.910156 11.21875 -9.078125 C 11.113281 -9.242188 11.035156 -9.441406 10.984375 -9.671875 C 10.929688 -9.941406 10.890625 -10.226562 10.859375 -10.53125 C 10.828125 -10.832031 10.757812 -11.085938 10.65625 -11.296875 C 10.226562 -11.410156 9.707031 -11.484375 9.09375 -11.515625 C 8.488281 -11.546875 7.957031 -11.539062 7.5 -11.5 C 7.5 -11.050781 7.5 -10.59375 7.5 -10.125 C 7.5 -9.664062 7.492188 -9.203125 7.484375 -8.734375 C 7.484375 -8.484375 7.476562 -8.238281 7.46875 -8 C 7.46875 -7.769531 7.46875 -7.535156 7.46875 -7.296875 C 7.445312 -6.296875 7.4375 -5.289062 7.4375 -4.28125 C 7.4375 -3.269531 7.457031 -2.28125 7.5 -1.3125 C 7.644531 -1.195312 7.820312 -1.113281 8.03125 -1.0625 C 8.238281 -1.019531 8.4375 -0.960938 8.625 -0.890625 C 8.820312 -0.816406 8.953125 -0.679688 9.015625 -0.484375 C 8.953125 -0.316406 8.796875 -0.203125 8.546875 -0.140625 C 8.296875 -0.0859375 8.003906 -0.0625 7.671875 -0.0625 C 7.335938 -0.0625 7.003906 -0.0703125 6.671875 -0.09375 C 6.503906 -0.09375 6.34375 -0.09375 6.1875 -0.09375 C 6.039062 -0.101562 5.898438 -0.109375 5.765625 -0.109375 C 5.703125 -0.109375 5.640625 -0.101562 5.578125 -0.09375 C 5.515625 -0.09375 5.441406 -0.09375 5.359375 -0.09375 C 5.117188 -0.0703125 4.890625 -0.0703125 4.671875 -0.09375 C 4.453125 -0.125 4.335938 -0.269531 4.328125 -0.53125 C 4.328125 -0.632812 4.363281 -0.734375 4.4375 -0.828125 C 4.519531 -0.921875 4.585938 -1.007812 4.640625 -1.09375 C 4.859375 -1.007812 5.109375 -1.039062 5.390625 -1.1875 C 5.671875 -1.34375 5.867188 -1.535156 5.984375 -1.765625 C 5.972656 -2.441406 5.96875 -3.113281 5.96875 -3.78125 C 5.96875 -4.457031 5.96875 -5.117188 5.96875 -5.765625 C 5.96875 -6.265625 5.96875 -6.757812 5.96875 -7.25 C 5.96875 -7.738281 5.96875 -8.234375 5.96875 -8.734375 C 5.96875 -9.640625 5.945312 -10.5625 5.90625 -11.5 C 5.414062 -11.59375 4.90625 -11.601562 4.375 -11.53125 C 3.84375 -11.46875 3.375 -11.40625 2.96875 -11.34375 C 2.894531 -11.332031 2.832031 -11.320312 2.78125 -11.3125 C 2.738281 -11.3125 2.691406 -11.304688 2.640625 -11.296875 C 2.609375 -11.148438 2.582031 -11 2.5625 -10.84375 C 2.539062 -10.695312 2.53125 -10.546875 2.53125 -10.390625 C 2.507812 -10.054688 2.472656 -9.738281 2.421875 -9.4375 C 2.367188 -9.144531 2.234375 -8.929688 2.015625 -8.796875 C 1.890625 -8.773438 1.796875 -8.785156 1.734375 -8.828125 C 1.671875 -8.878906 1.601562 -8.9375 1.53125 -9 C 1.507812 -9.03125 1.484375 -9.054688 1.453125 -9.078125 C 1.421875 -9.097656 1.382812 -9.125 1.34375 -9.15625 C 1.425781 -9.675781 1.46875 -10.226562 1.46875 -10.8125 C 1.46875 -11.394531 1.550781 -11.898438 1.71875 -12.328125 C 2.332031 -12.441406 3.019531 -12.5 3.78125 -12.5 C 4.550781 -12.507812 5.304688 -12.507812 6.046875 -12.5 C 6.273438 -12.488281 6.5 -12.484375 6.71875 -12.484375 C 6.9375 -12.484375 7.144531 -12.484375 7.34375 -12.484375 C 7.5625 -12.484375 7.78125 -12.488281 8 -12.5 C 8.226562 -12.507812 8.453125 -12.523438 8.671875 -12.546875 C 9.367188 -12.578125 10.03125 -12.578125 10.65625 -12.546875 C 11.28125 -12.523438 11.789062 -12.332031 12.1875 -11.96875 Z M 12.1875 -11.96875 "/></g></g></g><g fill="#000000" fill-opacity="1"><g transform="translate(175.990066, 229.52623)"><g><path d="M 13.8125 -0.71875 C 13.757812 -0.476562 13.628906 -0.316406 13.421875 -0.234375 C 13.222656 -0.148438 12.972656 -0.101562 12.671875 -0.09375 C 12.535156 -0.09375 12.394531 -0.09375 12.25 -0.09375 C 12.113281 -0.101562 11.972656 -0.109375 11.828125 -0.109375 C 11.535156 -0.140625 11.269531 -0.148438 11.03125 -0.140625 C 10.789062 -0.140625 10.628906 -0.09375 10.546875 0 C 10.441406 0.0078125 10.300781 -0.015625 10.125 -0.078125 C 9.957031 -0.148438 9.832031 -0.269531 9.75 -0.4375 C 9.664062 -0.601562 9.691406 -0.8125 9.828125 -1.0625 C 9.992188 -1.132812 10.1875 -1.1875 10.40625 -1.21875 C 10.625 -1.25 10.816406 -1.296875 10.984375 -1.359375 C 10.984375 -1.742188 10.976562 -2.140625 10.96875 -2.546875 C 10.96875 -2.960938 10.96875 -3.367188 10.96875 -3.765625 C 10.945312 -4.203125 10.929688 -4.613281 10.921875 -5 C 10.921875 -5.394531 10.925781 -5.753906 10.9375 -6.078125 C 10.144531 -6.179688 9.347656 -6.222656 8.546875 -6.203125 C 7.742188 -6.191406 6.972656 -6.175781 6.234375 -6.15625 C 5.953125 -6.15625 5.675781 -6.144531 5.40625 -6.125 C 5.144531 -6.113281 4.890625 -6.109375 4.640625 -6.109375 C 4.640625 -5.742188 4.640625 -5.394531 4.640625 -5.0625 C 4.648438 -4.726562 4.65625 -4.40625 4.65625 -4.09375 C 4.664062 -3.6875 4.671875 -3.273438 4.671875 -2.859375 C 4.679688 -2.441406 4.679688 -1.984375 4.671875 -1.484375 C 4.773438 -1.335938 4.914062 -1.222656 5.09375 -1.140625 C 5.269531 -1.066406 5.445312 -0.992188 5.625 -0.921875 C 5.8125 -0.847656 5.953125 -0.734375 6.046875 -0.578125 C 5.992188 -0.367188 5.890625 -0.234375 5.734375 -0.171875 C 5.585938 -0.109375 5.40625 -0.0820312 5.1875 -0.09375 C 5.113281 -0.09375 5.03125 -0.09375 4.9375 -0.09375 C 4.851562 -0.101562 4.765625 -0.117188 4.671875 -0.140625 C 4.515625 -0.148438 4.347656 -0.160156 4.171875 -0.171875 C 4.003906 -0.179688 3.832031 -0.1875 3.65625 -0.1875 C 3.5625 -0.1875 3.472656 -0.175781 3.390625 -0.15625 C 3.304688 -0.144531 3.226562 -0.125 3.15625 -0.09375 C 3.070312 -0.0703125 2.992188 -0.0507812 2.921875 -0.03125 C 2.859375 -0.0195312 2.800781 -0.0195312 2.75 -0.03125 C 2.539062 -0.0703125 2.363281 -0.1875 2.21875 -0.375 C 2.070312 -0.570312 2.035156 -0.753906 2.109375 -0.921875 C 2.179688 -1.066406 2.285156 -1.15625 2.421875 -1.1875 C 2.566406 -1.21875 2.722656 -1.242188 2.890625 -1.265625 C 3.054688 -1.296875 3.203125 -1.363281 3.328125 -1.46875 C 3.328125 -2.707031 3.328125 -3.953125 3.328125 -5.203125 C 3.328125 -6.453125 3.316406 -7.628906 3.296875 -8.734375 C 3.273438 -9.253906 3.257812 -9.75 3.25 -10.21875 C 3.238281 -10.695312 3.21875 -11.144531 3.1875 -11.5625 C 3.082031 -11.613281 2.972656 -11.644531 2.859375 -11.65625 C 2.742188 -11.664062 2.625 -11.664062 2.5 -11.65625 C 2.351562 -11.65625 2.207031 -11.660156 2.0625 -11.671875 C 1.925781 -11.679688 1.796875 -11.734375 1.671875 -11.828125 C 1.660156 -11.929688 1.671875 -12.007812 1.703125 -12.0625 C 1.734375 -12.125 1.769531 -12.179688 1.8125 -12.234375 C 1.84375 -12.273438 1.875 -12.316406 1.90625 -12.359375 C 1.945312 -12.410156 1.96875 -12.484375 1.96875 -12.578125 C 2.226562 -12.554688 2.5 -12.550781 2.78125 -12.5625 C 3.070312 -12.570312 3.359375 -12.59375 3.640625 -12.625 C 3.773438 -12.625 3.910156 -12.628906 4.046875 -12.640625 C 4.191406 -12.648438 4.335938 -12.65625 4.484375 -12.65625 C 4.859375 -12.664062 5.191406 -12.628906 5.484375 -12.546875 C 5.785156 -12.460938 6.015625 -12.285156 6.171875 -12.015625 C 6.046875 -11.867188 5.851562 -11.773438 5.59375 -11.734375 C 5.34375 -11.703125 5.0625 -11.695312 4.75 -11.71875 C 4.65625 -11.394531 4.601562 -10.957031 4.59375 -10.40625 C 4.59375 -9.851562 4.597656 -9.296875 4.609375 -8.734375 L 4.609375 -8.6875 C 4.628906 -8.4375 4.640625 -8.1875 4.640625 -7.9375 C 4.648438 -7.6875 4.648438 -7.453125 4.640625 -7.234375 C 5.335938 -7.171875 6.054688 -7.144531 6.796875 -7.15625 C 7.546875 -7.164062 8.28125 -7.1875 9 -7.21875 C 9.320312 -7.226562 9.640625 -7.238281 9.953125 -7.25 C 10.265625 -7.257812 10.570312 -7.265625 10.875 -7.265625 C 10.914062 -7.484375 10.941406 -7.710938 10.953125 -7.953125 C 10.960938 -8.191406 10.953125 -8.445312 10.921875 -8.71875 C 10.910156 -8.863281 10.898438 -9.019531 10.890625 -9.1875 C 10.878906 -9.351562 10.859375 -9.519531 10.828125 -9.6875 C 10.804688 -10.007812 10.78125 -10.328125 10.75 -10.640625 C 10.726562 -10.960938 10.722656 -11.269531 10.734375 -11.5625 C 10.554688 -11.5625 10.34375 -11.578125 10.09375 -11.609375 C 9.84375 -11.640625 9.609375 -11.691406 9.390625 -11.765625 C 9.304688 -11.898438 9.285156 -12.015625 9.328125 -12.109375 C 9.367188 -12.210938 9.414062 -12.3125 9.46875 -12.40625 C 9.488281 -12.445312 9.507812 -12.488281 9.53125 -12.53125 C 9.5625 -12.570312 9.582031 -12.617188 9.59375 -12.671875 C 9.820312 -12.660156 10.054688 -12.65625 10.296875 -12.65625 C 10.535156 -12.664062 10.765625 -12.675781 10.984375 -12.6875 C 11.523438 -12.71875 12.03125 -12.71875 12.5 -12.6875 C 12.976562 -12.664062 13.382812 -12.546875 13.71875 -12.328125 C 13.632812 -12.085938 13.460938 -11.9375 13.203125 -11.875 C 12.941406 -11.820312 12.644531 -11.800781 12.3125 -11.8125 C 12.269531 -11.363281 12.242188 -10.875 12.234375 -10.34375 C 12.222656 -9.820312 12.222656 -9.28125 12.234375 -8.71875 C 12.234375 -8.363281 12.238281 -8.015625 12.25 -7.671875 C 12.257812 -7.328125 12.273438 -6.972656 12.296875 -6.609375 C 12.316406 -5.679688 12.328125 -4.765625 12.328125 -3.859375 C 12.335938 -2.960938 12.3125 -2.164062 12.25 -1.46875 C 12.425781 -1.257812 12.664062 -1.128906 12.96875 -1.078125 C 13.269531 -1.035156 13.550781 -0.914062 13.8125 -0.71875 Z M 13.8125 -0.71875 "/></g></g></g><g fill="#000000" fill-opacity="1"><g transform="translate(191.372244, 229.52623)"><g><path d="M 7.015625 -12.0625 C 6.953125 -11.863281 6.800781 -11.75 6.5625 -11.71875 C 6.332031 -11.695312 6.085938 -11.695312 5.828125 -11.71875 C 5.753906 -11.71875 5.675781 -11.71875 5.59375 -11.71875 C 5.519531 -11.71875 5.441406 -11.71875 5.359375 -11.71875 C 5.316406 -11.675781 5.332031 -11.578125 5.40625 -11.421875 C 5.425781 -11.367188 5.445312 -11.3125 5.46875 -11.25 C 5.488281 -11.195312 5.5 -11.144531 5.5 -11.09375 C 5.445312 -11.039062 5.40625 -10.976562 5.375 -10.90625 C 5.351562 -10.84375 5.332031 -10.757812 5.3125 -10.65625 C 5.300781 -10.332031 5.296875 -10.015625 5.296875 -9.703125 C 5.296875 -9.390625 5.285156 -9.066406 5.265625 -8.734375 C 5.253906 -7.503906 5.242188 -6.257812 5.234375 -5 C 5.234375 -3.738281 5.234375 -2.488281 5.234375 -1.25 C 5.523438 -1.238281 5.84375 -1.164062 6.1875 -1.03125 C 6.539062 -0.90625 6.789062 -0.707031 6.9375 -0.4375 C 6.625 -0.25 6.257812 -0.144531 5.84375 -0.125 C 5.425781 -0.113281 4.992188 -0.125 4.546875 -0.15625 C 4.273438 -0.164062 4.003906 -0.171875 3.734375 -0.171875 C 3.472656 -0.179688 3.222656 -0.171875 2.984375 -0.140625 C 2.898438 -0.117188 2.835938 -0.0859375 2.796875 -0.046875 C 2.765625 -0.00390625 2.726562 0.0390625 2.6875 0.09375 C 2.65625 0.175781 2.601562 0.242188 2.53125 0.296875 C 2.46875 0.359375 2.367188 0.367188 2.234375 0.328125 C 2.097656 0.148438 2.046875 -0.0234375 2.078125 -0.203125 C 2.117188 -0.390625 2.191406 -0.5625 2.296875 -0.71875 C 2.410156 -0.882812 2.507812 -1.015625 2.59375 -1.109375 C 2.65625 -1.109375 2.722656 -1.109375 2.796875 -1.109375 C 2.867188 -1.109375 2.941406 -1.109375 3.015625 -1.109375 C 3.171875 -1.109375 3.328125 -1.109375 3.484375 -1.109375 C 3.640625 -1.109375 3.773438 -1.132812 3.890625 -1.1875 C 3.867188 -2.34375 3.859375 -3.570312 3.859375 -4.875 C 3.859375 -6.175781 3.847656 -7.460938 3.828125 -8.734375 C 3.816406 -9.734375 3.78125 -10.695312 3.71875 -11.625 C 3.625 -11.644531 3.523438 -11.65625 3.421875 -11.65625 C 3.316406 -11.664062 3.207031 -11.671875 3.09375 -11.671875 C 2.914062 -11.671875 2.742188 -11.675781 2.578125 -11.6875 C 2.410156 -11.707031 2.265625 -11.769531 2.140625 -11.875 C 2.109375 -11.96875 2.109375 -12.039062 2.140625 -12.09375 C 2.171875 -12.144531 2.207031 -12.195312 2.25 -12.25 C 2.289062 -12.289062 2.320312 -12.332031 2.34375 -12.375 C 2.375 -12.414062 2.390625 -12.472656 2.390625 -12.546875 C 2.785156 -12.546875 3.207031 -12.5625 3.65625 -12.59375 C 4.113281 -12.632812 4.5625 -12.65625 5 -12.65625 C 5.4375 -12.65625 5.832031 -12.613281 6.1875 -12.53125 C 6.550781 -12.457031 6.828125 -12.300781 7.015625 -12.0625 Z M 7.015625 -12.0625 "/></g></g></g><g fill="#000000" fill-opacity="1"><g transform="translate(200.409278, 229.52623)"><g><path d="M 14.234375 -12.25 C 14.222656 -11.976562 14.09375 -11.816406 13.84375 -11.765625 C 13.59375 -11.710938 13.316406 -11.6875 13.015625 -11.6875 C 12.921875 -11.664062 12.851562 -11.609375 12.8125 -11.515625 C 12.78125 -11.421875 12.75 -11.316406 12.71875 -11.203125 C 12.695312 -11.097656 12.625 -11.003906 12.5 -10.921875 C 12.539062 -10.578125 12.570312 -10.21875 12.59375 -9.84375 C 12.613281 -9.476562 12.628906 -9.101562 12.640625 -8.71875 C 12.648438 -8.28125 12.65625 -7.832031 12.65625 -7.375 C 12.65625 -6.914062 12.65625 -6.457031 12.65625 -6 C 12.664062 -5.007812 12.679688 -4.035156 12.703125 -3.078125 C 12.722656 -2.128906 12.789062 -1.257812 12.90625 -0.46875 C 12.757812 -0.257812 12.539062 -0.140625 12.25 -0.109375 C 11.957031 -0.0859375 11.753906 -0.144531 11.640625 -0.28125 C 11.328125 -0.65625 11.03125 -1.070312 10.75 -1.53125 C 10.476562 -2 10.160156 -2.453125 9.796875 -2.890625 C 9.097656 -3.703125 8.425781 -4.632812 7.78125 -5.6875 C 7.144531 -6.738281 6.503906 -7.753906 5.859375 -8.734375 C 5.617188 -9.128906 5.367188 -9.503906 5.109375 -9.859375 C 4.859375 -10.222656 4.601562 -10.566406 4.34375 -10.890625 C 4.332031 -10.503906 4.320312 -10.132812 4.3125 -9.78125 C 4.300781 -9.4375 4.296875 -9.085938 4.296875 -8.734375 C 4.296875 -8.253906 4.300781 -7.757812 4.3125 -7.25 C 4.320312 -6.75 4.332031 -6.191406 4.34375 -5.578125 C 4.34375 -5.347656 4.335938 -5.109375 4.328125 -4.859375 C 4.328125 -4.609375 4.320312 -4.359375 4.3125 -4.109375 C 4.28125 -3.597656 4.257812 -3.113281 4.25 -2.65625 C 4.25 -2.207031 4.304688 -1.832031 4.421875 -1.53125 C 4.484375 -1.351562 4.597656 -1.21875 4.765625 -1.125 C 4.929688 -1.039062 5.101562 -0.960938 5.28125 -0.890625 C 5.46875 -0.816406 5.601562 -0.71875 5.6875 -0.59375 C 5.632812 -0.4375 5.53125 -0.332031 5.375 -0.28125 C 5.21875 -0.238281 5.097656 -0.15625 5.015625 -0.03125 C 4.785156 -0.125 4.546875 -0.164062 4.296875 -0.15625 C 4.046875 -0.15625 3.800781 -0.132812 3.5625 -0.09375 C 3.289062 -0.0703125 3.03125 -0.0625 2.78125 -0.0625 C 2.539062 -0.0625 2.316406 -0.117188 2.109375 -0.234375 C 2.035156 -0.335938 2.007812 -0.421875 2.03125 -0.484375 C 2.050781 -0.554688 2.078125 -0.625 2.109375 -0.6875 C 2.140625 -0.738281 2.164062 -0.785156 2.1875 -0.828125 C 2.21875 -0.878906 2.234375 -0.9375 2.234375 -1 C 2.398438 -1.0625 2.570312 -1.113281 2.75 -1.15625 C 2.925781 -1.207031 3.109375 -1.257812 3.296875 -1.3125 C 3.410156 -2.289062 3.457031 -3.316406 3.4375 -4.390625 C 3.414062 -5.472656 3.375 -6.585938 3.3125 -7.734375 C 3.3125 -7.898438 3.304688 -8.066406 3.296875 -8.234375 C 3.296875 -8.398438 3.285156 -8.566406 3.265625 -8.734375 C 3.253906 -9.222656 3.238281 -9.707031 3.21875 -10.1875 C 3.195312 -10.664062 3.179688 -11.148438 3.171875 -11.640625 C 3.015625 -11.585938 2.851562 -11.566406 2.6875 -11.578125 C 2.519531 -11.585938 2.378906 -11.625 2.265625 -11.6875 C 2.140625 -11.78125 2.0625 -11.90625 2.03125 -12.0625 C 2.007812 -12.21875 2.085938 -12.394531 2.265625 -12.59375 C 2.429688 -12.582031 2.597656 -12.578125 2.765625 -12.578125 C 2.929688 -12.578125 3.097656 -12.582031 3.265625 -12.59375 C 3.703125 -12.59375 4.128906 -12.578125 4.546875 -12.546875 C 4.960938 -12.523438 5.359375 -12.429688 5.734375 -12.265625 C 5.734375 -12.203125 5.71875 -12.15625 5.6875 -12.125 C 5.65625 -12.101562 5.617188 -12.082031 5.578125 -12.0625 C 5.472656 -12.019531 5.421875 -11.96875 5.421875 -11.90625 C 5.785156 -11.382812 6.148438 -10.851562 6.515625 -10.3125 C 6.878906 -9.78125 7.238281 -9.253906 7.59375 -8.734375 C 8.289062 -7.742188 8.988281 -6.753906 9.6875 -5.765625 C 10.382812 -4.785156 11.070312 -3.8125 11.75 -2.84375 C 11.726562 -3.832031 11.71875 -4.8125 11.71875 -5.78125 C 11.71875 -6.757812 11.703125 -7.738281 11.671875 -8.71875 C 11.648438 -9.675781 11.59375 -10.632812 11.5 -11.59375 C 11.414062 -11.632812 11.328125 -11.660156 11.234375 -11.671875 C 11.140625 -11.679688 11.050781 -11.6875 10.96875 -11.6875 C 10.800781 -11.71875 10.648438 -11.75 10.515625 -11.78125 C 10.390625 -11.820312 10.320312 -11.925781 10.3125 -12.09375 C 10.300781 -12.3125 10.457031 -12.46875 10.78125 -12.5625 C 11.101562 -12.664062 11.484375 -12.722656 11.921875 -12.734375 C 12.253906 -12.742188 12.585938 -12.726562 12.921875 -12.6875 C 13.253906 -12.65625 13.539062 -12.597656 13.78125 -12.515625 C 14.03125 -12.441406 14.179688 -12.351562 14.234375 -12.25 Z M 14.234375 -12.25 "/></g></g></g><g fill="#000000" fill-opacity="1"><g transform="translate(216.176009, 229.52623)"><g><path d="M 13.75 -5.4375 C 13.695312 -5.269531 13.582031 -5.171875 13.40625 -5.140625 C 13.226562 -5.117188 13.03125 -5.109375 12.8125 -5.109375 C 12.71875 -5.109375 12.625 -5.101562 12.53125 -5.09375 C 12.4375 -5.09375 12.347656 -5.085938 12.265625 -5.078125 C 12.148438 -4.804688 12.082031 -4.484375 12.0625 -4.109375 C 12.050781 -3.734375 12.050781 -3.335938 12.0625 -2.921875 C 12.070312 -2.523438 12.070312 -2.128906 12.0625 -1.734375 C 12.050781 -1.335938 11.988281 -0.984375 11.875 -0.671875 C 11.707031 -0.554688 11.539062 -0.492188 11.375 -0.484375 C 11.207031 -0.484375 11.039062 -0.550781 10.875 -0.6875 C 10.488281 -0.4375 10.019531 -0.234375 9.46875 -0.078125 C 8.914062 0.0664062 8.335938 0.144531 7.734375 0.15625 C 7.128906 0.175781 6.539062 0.113281 5.96875 -0.03125 C 5.394531 -0.175781 4.894531 -0.414062 4.46875 -0.75 C 4.351562 -0.84375 4.253906 -0.96875 4.171875 -1.125 C 4.085938 -1.28125 3.984375 -1.414062 3.859375 -1.53125 C 3.734375 -1.675781 3.597656 -1.789062 3.453125 -1.875 C 3.304688 -1.96875 3.191406 -2.066406 3.109375 -2.171875 C 2.722656 -2.703125 2.4375 -3.304688 2.25 -3.984375 C 2.070312 -4.671875 1.984375 -5.378906 1.984375 -6.109375 C 1.984375 -6.566406 2.015625 -7.015625 2.078125 -7.453125 C 2.140625 -7.890625 2.226562 -8.316406 2.34375 -8.734375 C 2.5625 -9.492188 2.875 -10.179688 3.28125 -10.796875 C 3.6875 -11.410156 4.171875 -11.875 4.734375 -12.1875 C 5.109375 -12.394531 5.535156 -12.5625 6.015625 -12.6875 C 6.492188 -12.820312 6.992188 -12.894531 7.515625 -12.90625 C 7.929688 -12.914062 8.347656 -12.878906 8.765625 -12.796875 C 9.179688 -12.710938 9.566406 -12.578125 9.921875 -12.390625 C 10.015625 -12.460938 10.113281 -12.488281 10.21875 -12.46875 C 10.320312 -12.445312 10.421875 -12.425781 10.515625 -12.40625 C 10.597656 -12.382812 10.671875 -12.363281 10.734375 -12.34375 C 10.796875 -12.320312 10.859375 -12.316406 10.921875 -12.328125 C 11.003906 -12.335938 11.082031 -12.363281 11.15625 -12.40625 C 11.226562 -12.445312 11.300781 -12.484375 11.375 -12.515625 C 11.46875 -12.585938 11.5625 -12.640625 11.65625 -12.671875 C 11.757812 -12.710938 11.867188 -12.707031 11.984375 -12.65625 C 11.921875 -12.4375 11.894531 -12.195312 11.90625 -11.9375 C 11.914062 -11.6875 11.9375 -11.425781 11.96875 -11.15625 C 11.976562 -11.03125 11.988281 -10.898438 12 -10.765625 C 12.007812 -10.640625 12.015625 -10.519531 12.015625 -10.40625 C 12.035156 -10.113281 12.007812 -9.84375 11.9375 -9.59375 C 11.875 -9.351562 11.734375 -9.160156 11.515625 -9.015625 C 11.296875 -9.117188 11.171875 -9.257812 11.140625 -9.4375 C 11.109375 -9.625 11.09375 -9.816406 11.09375 -10.015625 C 11.09375 -10.128906 11.085938 -10.25 11.078125 -10.375 C 11.066406 -10.5 11.039062 -10.617188 11 -10.734375 C 10.832031 -11.222656 10.453125 -11.578125 9.859375 -11.796875 C 9.265625 -12.015625 8.625 -12.109375 7.9375 -12.078125 C 7.46875 -12.066406 7 -12.003906 6.53125 -11.890625 C 6.070312 -11.773438 5.695312 -11.609375 5.40625 -11.390625 C 5.007812 -11.109375 4.679688 -10.734375 4.421875 -10.265625 C 4.171875 -9.804688 3.976562 -9.296875 3.84375 -8.734375 C 3.78125 -8.410156 3.734375 -8.078125 3.703125 -7.734375 C 3.671875 -7.398438 3.65625 -7.0625 3.65625 -6.71875 C 3.664062 -5.9375 3.757812 -5.160156 3.9375 -4.390625 C 4.125 -3.628906 4.382812 -2.957031 4.71875 -2.375 C 5.0625 -1.789062 5.46875 -1.363281 5.9375 -1.09375 C 6.425781 -0.914062 6.972656 -0.8125 7.578125 -0.78125 C 8.191406 -0.75 8.769531 -0.800781 9.3125 -0.9375 C 9.863281 -1.082031 10.28125 -1.316406 10.5625 -1.640625 C 10.519531 -1.941406 10.5 -2.269531 10.5 -2.625 C 10.5 -2.988281 10.515625 -3.351562 10.546875 -3.71875 C 10.546875 -3.9375 10.546875 -4.148438 10.546875 -4.359375 C 10.554688 -4.578125 10.5625 -4.789062 10.5625 -5 C 10.445312 -5.113281 10.296875 -5.171875 10.109375 -5.171875 C 9.921875 -5.171875 9.742188 -5.160156 9.578125 -5.140625 C 9.429688 -5.109375 9.300781 -5.09375 9.1875 -5.09375 C 9.070312 -5.09375 8.984375 -5.117188 8.921875 -5.171875 C 8.859375 -5.648438 8.941406 -5.921875 9.171875 -5.984375 C 9.398438 -6.054688 9.738281 -6.082031 10.1875 -6.0625 C 10.34375 -6.0625 10.503906 -6.054688 10.671875 -6.046875 C 10.835938 -6.046875 11.007812 -6.050781 11.1875 -6.0625 C 11.269531 -6.0625 11.347656 -6.0625 11.421875 -6.0625 C 11.503906 -6.070312 11.582031 -6.082031 11.65625 -6.09375 C 11.96875 -6.125 12.273438 -6.140625 12.578125 -6.140625 C 12.890625 -6.140625 13.148438 -6.085938 13.359375 -5.984375 C 13.566406 -5.890625 13.695312 -5.707031 13.75 -5.4375 Z M 13.75 -5.4375 "/></g></g></g><g fill="#000000" fill-opacity="1"><g transform="translate(230.92367, 229.52623)"><g/></g></g><g fill="#000000" fill-opacity="1"><g transform="translate(235.730597, 229.52623)"><g><path d="M 16.171875 -0.71875 C 16.023438 -0.519531 15.773438 -0.363281 15.421875 -0.25 C 15.066406 -0.144531 14.671875 -0.078125 14.234375 -0.046875 C 13.804688 -0.0234375 13.398438 -0.0390625 13.015625 -0.09375 C 12.628906 -0.15625 12.335938 -0.253906 12.140625 -0.390625 C 12.109375 -0.472656 12.109375 -0.539062 12.140625 -0.59375 C 12.171875 -0.644531 12.207031 -0.695312 12.25 -0.75 C 12.289062 -0.789062 12.328125 -0.835938 12.359375 -0.890625 C 12.398438 -0.941406 12.421875 -1.007812 12.421875 -1.09375 C 12.566406 -1.09375 12.726562 -1.117188 12.90625 -1.171875 C 13.09375 -1.234375 13.257812 -1.3125 13.40625 -1.40625 C 13.40625 -2.582031 13.394531 -3.78125 13.375 -5 C 13.351562 -6.226562 13.335938 -7.46875 13.328125 -8.71875 C 13.316406 -9.195312 13.3125 -9.679688 13.3125 -10.171875 C 13.3125 -10.671875 13.3125 -11.164062 13.3125 -11.65625 C 13.3125 -11.65625 13.257812 -11.5 13.15625 -11.1875 C 13.050781 -10.875 12.988281 -10.492188 12.96875 -10.046875 C 12.769531 -9.617188 12.578125 -9.175781 12.390625 -8.71875 C 12.066406 -7.9375 11.734375 -7.125 11.390625 -6.28125 C 11.054688 -5.4375 10.734375 -4.625 10.421875 -3.84375 C 10.316406 -3.570312 10.203125 -3.265625 10.078125 -2.921875 C 9.953125 -2.578125 9.835938 -2.25 9.734375 -1.9375 C 9.722656 -1.882812 9.707031 -1.832031 9.6875 -1.78125 C 9.675781 -1.738281 9.664062 -1.679688 9.65625 -1.609375 C 9.601562 -1.421875 9.546875 -1.226562 9.484375 -1.03125 C 9.421875 -0.84375 9.3125 -0.691406 9.15625 -0.578125 C 9.007812 -0.460938 8.804688 -0.4375 8.546875 -0.5 C 7.921875 -1.820312 7.335938 -3.179688 6.796875 -4.578125 C 6.265625 -5.972656 5.71875 -7.359375 5.15625 -8.734375 C 4.988281 -9.140625 4.820312 -9.535156 4.65625 -9.921875 C 4.5 -10.316406 4.332031 -10.707031 4.15625 -11.09375 C 4.15625 -11.09375 4.160156 -10.984375 4.171875 -10.765625 C 4.179688 -10.546875 4.191406 -10.289062 4.203125 -10 C 4.222656 -9.71875 4.234375 -9.460938 4.234375 -9.234375 L 4.25 -8.734375 C 4.289062 -7.898438 4.316406 -7.023438 4.328125 -6.109375 C 4.347656 -5.203125 4.367188 -4.316406 4.390625 -3.453125 C 4.410156 -2.597656 4.425781 -1.816406 4.4375 -1.109375 C 4.601562 -0.984375 4.789062 -0.890625 5 -0.828125 C 5.21875 -0.773438 5.375 -0.65625 5.46875 -0.46875 C 5.332031 -0.28125 5.125 -0.148438 4.84375 -0.078125 C 4.570312 -0.015625 4.273438 0.0078125 3.953125 0 C 3.628906 0 3.300781 -0.015625 2.96875 -0.046875 C 2.644531 -0.0859375 2.367188 -0.128906 2.140625 -0.171875 C 2.046875 -0.503906 2.125 -0.769531 2.375 -0.96875 C 2.632812 -1.175781 2.914062 -1.320312 3.21875 -1.40625 C 3.351562 -2.507812 3.40625 -3.6875 3.375 -4.9375 C 3.34375 -6.195312 3.296875 -7.460938 3.234375 -8.734375 C 3.203125 -9.203125 3.175781 -9.664062 3.15625 -10.125 C 3.144531 -10.59375 3.125 -11.050781 3.09375 -11.5 C 2.957031 -11.53125 2.796875 -11.546875 2.609375 -11.546875 C 2.421875 -11.546875 2.21875 -11.554688 2 -11.578125 C 2 -11.640625 1.984375 -11.695312 1.953125 -11.75 C 1.929688 -11.800781 1.910156 -11.847656 1.890625 -11.890625 C 1.835938 -11.972656 1.796875 -12.0625 1.765625 -12.15625 C 1.742188 -12.25 1.789062 -12.351562 1.90625 -12.46875 C 2.125 -12.46875 2.335938 -12.472656 2.546875 -12.484375 C 2.753906 -12.503906 2.96875 -12.535156 3.1875 -12.578125 C 3.601562 -12.628906 4 -12.660156 4.375 -12.671875 C 4.75 -12.679688 5.09375 -12.585938 5.40625 -12.390625 C 5.445312 -12.328125 5.46875 -12.265625 5.46875 -12.203125 C 5.46875 -12.148438 5.457031 -12.097656 5.4375 -12.046875 C 5.4375 -11.972656 5.4375 -11.90625 5.4375 -11.84375 C 5.4375 -11.78125 5.457031 -11.710938 5.5 -11.640625 C 5.71875 -11.160156 5.925781 -10.675781 6.125 -10.1875 C 6.320312 -9.707031 6.523438 -9.222656 6.734375 -8.734375 C 7.117188 -7.796875 7.5 -6.851562 7.875 -5.90625 C 8.25 -4.957031 8.65625 -4.039062 9.09375 -3.15625 C 9.519531 -4.03125 9.90625 -4.9375 10.25 -5.875 C 10.59375 -6.820312 10.929688 -7.769531 11.265625 -8.71875 C 11.515625 -9.382812 11.765625 -10.039062 12.015625 -10.6875 C 12.265625 -11.332031 12.535156 -11.957031 12.828125 -12.5625 C 13.054688 -12.632812 13.34375 -12.679688 13.6875 -12.703125 C 14.039062 -12.734375 14.382812 -12.726562 14.71875 -12.6875 C 15.0625 -12.65625 15.351562 -12.570312 15.59375 -12.4375 C 15.832031 -12.3125 15.960938 -12.128906 15.984375 -11.890625 C 15.929688 -11.785156 15.835938 -11.71875 15.703125 -11.6875 C 15.578125 -11.664062 15.441406 -11.65625 15.296875 -11.65625 C 15.191406 -11.65625 15.085938 -11.648438 14.984375 -11.640625 C 14.878906 -11.628906 14.789062 -11.601562 14.71875 -11.5625 C 14.695312 -11.101562 14.679688 -10.632812 14.671875 -10.15625 C 14.671875 -9.675781 14.675781 -9.195312 14.6875 -8.71875 C 14.6875 -8.394531 14.691406 -8.066406 14.703125 -7.734375 C 14.722656 -7.410156 14.734375 -7.085938 14.734375 -6.765625 C 14.753906 -5.859375 14.769531 -4.957031 14.78125 -4.0625 C 14.800781 -3.164062 14.785156 -2.289062 14.734375 -1.4375 C 14.835938 -1.300781 14.976562 -1.207031 15.15625 -1.15625 C 15.34375 -1.101562 15.53125 -1.050781 15.71875 -1 C 15.914062 -0.945312 16.066406 -0.851562 16.171875 -0.71875 Z M 16.171875 -0.71875 "/></g></g></g><g fill="#000000" fill-opacity="1"><g transform="translate(253.420111, 229.52623)"><g><path d="M 10.625 -0.421875 L 10.484375 -0.28125 C 9.835938 -0.238281 9.1875 -0.210938 8.53125 -0.203125 C 7.875 -0.191406 7.210938 -0.195312 6.546875 -0.21875 C 5.804688 -0.21875 5.078125 -0.210938 4.359375 -0.203125 C 3.648438 -0.191406 2.953125 -0.148438 2.265625 -0.078125 C 2.066406 -0.210938 1.976562 -0.347656 2 -0.484375 C 2.019531 -0.617188 2.054688 -0.742188 2.109375 -0.859375 C 2.179688 -0.972656 2.21875 -1.050781 2.21875 -1.09375 C 2.289062 -1.144531 2.378906 -1.171875 2.484375 -1.171875 C 2.597656 -1.171875 2.710938 -1.171875 2.828125 -1.171875 C 2.890625 -1.171875 2.957031 -1.164062 3.03125 -1.15625 C 3.101562 -1.15625 3.171875 -1.160156 3.234375 -1.171875 C 3.296875 -2.109375 3.328125 -3.09375 3.328125 -4.125 C 3.328125 -5.164062 3.320312 -6.179688 3.3125 -7.171875 C 3.3125 -7.441406 3.304688 -7.703125 3.296875 -7.953125 C 3.296875 -8.210938 3.296875 -8.472656 3.296875 -8.734375 C 3.273438 -9.222656 3.269531 -9.679688 3.28125 -10.109375 C 3.289062 -10.546875 3.300781 -10.957031 3.3125 -11.34375 C 3.21875 -11.375 3.125 -11.390625 3.03125 -11.390625 C 2.9375 -11.398438 2.84375 -11.40625 2.75 -11.40625 C 2.582031 -11.40625 2.425781 -11.421875 2.28125 -11.453125 C 2.132812 -11.484375 2.007812 -11.570312 1.90625 -11.71875 C 1.914062 -11.75 1.925781 -11.800781 1.9375 -11.875 C 1.96875 -12.019531 2.007812 -12.164062 2.0625 -12.3125 C 2.125 -12.46875 2.242188 -12.535156 2.421875 -12.515625 C 2.910156 -12.503906 3.453125 -12.488281 4.046875 -12.46875 C 4.640625 -12.445312 5.234375 -12.4375 5.828125 -12.4375 C 6.421875 -12.4375 6.925781 -12.4375 7.34375 -12.4375 C 7.5 -12.4375 7.65625 -12.441406 7.8125 -12.453125 C 7.96875 -12.472656 8.117188 -12.488281 8.265625 -12.5 C 8.703125 -12.539062 9.125 -12.5625 9.53125 -12.5625 C 9.945312 -12.5625 10.3125 -12.453125 10.625 -12.234375 C 10.601562 -12.109375 10.597656 -11.957031 10.609375 -11.78125 C 10.617188 -11.601562 10.625 -11.421875 10.625 -11.234375 C 10.644531 -10.867188 10.648438 -10.5 10.640625 -10.125 C 10.640625 -9.757812 10.585938 -9.46875 10.484375 -9.25 C 10.253906 -9.195312 10.082031 -9.222656 9.96875 -9.328125 C 9.863281 -9.441406 9.789062 -9.597656 9.75 -9.796875 C 9.695312 -10.046875 9.660156 -10.332031 9.640625 -10.65625 C 9.628906 -10.988281 9.5625 -11.238281 9.4375 -11.40625 C 9.289062 -11.40625 9.125 -11.40625 8.9375 -11.40625 C 8.75 -11.40625 8.550781 -11.410156 8.34375 -11.421875 C 7.726562 -11.421875 7.078125 -11.421875 6.390625 -11.421875 C 5.703125 -11.421875 5.148438 -11.394531 4.734375 -11.34375 C 4.742188 -11.175781 4.75 -10.960938 4.75 -10.703125 C 4.75 -10.453125 4.742188 -10.164062 4.734375 -9.84375 C 4.734375 -9.664062 4.734375 -9.484375 4.734375 -9.296875 C 4.734375 -9.109375 4.734375 -8.921875 4.734375 -8.734375 C 4.734375 -8.421875 4.742188 -8.109375 4.765625 -7.796875 C 4.785156 -7.492188 4.804688 -7.203125 4.828125 -6.921875 C 5.328125 -6.972656 5.84375 -7.003906 6.375 -7.015625 C 6.90625 -7.035156 7.425781 -7.054688 7.9375 -7.078125 C 8.101562 -7.148438 8.222656 -7.265625 8.296875 -7.421875 C 8.378906 -7.585938 8.453125 -7.765625 8.515625 -7.953125 C 8.578125 -8.140625 8.660156 -8.296875 8.765625 -8.421875 C 8.859375 -8.472656 8.9375 -8.488281 9 -8.46875 C 9.0625 -8.445312 9.132812 -8.421875 9.21875 -8.390625 C 9.238281 -8.367188 9.265625 -8.347656 9.296875 -8.328125 C 9.335938 -8.316406 9.382812 -8.304688 9.4375 -8.296875 C 9.363281 -8.003906 9.320312 -7.679688 9.3125 -7.328125 C 9.300781 -6.972656 9.300781 -6.609375 9.3125 -6.234375 C 9.3125 -5.921875 9.300781 -5.617188 9.28125 -5.328125 C 9.269531 -5.035156 9.25 -4.78125 9.21875 -4.5625 C 8.914062 -4.53125 8.71875 -4.601562 8.625 -4.78125 C 8.539062 -4.957031 8.472656 -5.148438 8.421875 -5.359375 C 8.398438 -5.453125 8.375 -5.539062 8.34375 -5.625 C 8.320312 -5.71875 8.289062 -5.804688 8.25 -5.890625 C 7.65625 -5.972656 7.035156 -6.019531 6.390625 -6.03125 C 5.753906 -6.050781 5.203125 -5.953125 4.734375 -5.734375 C 4.753906 -5.023438 4.769531 -4.300781 4.78125 -3.5625 C 4.800781 -2.832031 4.785156 -2.0625 4.734375 -1.25 C 5.203125 -1.226562 5.71875 -1.207031 6.28125 -1.1875 C 6.851562 -1.175781 7.421875 -1.191406 7.984375 -1.234375 C 8.546875 -1.285156 9.054688 -1.367188 9.515625 -1.484375 C 9.660156 -1.722656 9.757812 -2 9.8125 -2.3125 C 9.863281 -2.625 9.9375 -2.921875 10.03125 -3.203125 C 10.125 -3.492188 10.300781 -3.691406 10.5625 -3.796875 C 10.75 -3.410156 10.832031 -2.984375 10.8125 -2.515625 C 10.800781 -2.046875 10.757812 -1.601562 10.6875 -1.1875 C 10.675781 -1.050781 10.660156 -0.914062 10.640625 -0.78125 C 10.628906 -0.65625 10.625 -0.535156 10.625 -0.421875 Z M 10.625 -0.421875 "/></g></g></g></svg>