<svg width="1313" height="610" viewBox="0 0 1313 610" fill="none" xmlns="http://www.w3.org/2000/svg">
<path d="M9 171.146C9.95021 166.104 10.777 160.674 11.4681 154.856C12.1591 149.038 13.3068 143.511 14.9234 138.275C16.5646 133.015 18.9463 128.724 22.0808 125.428C25.2399 122.107 29.7071 120.434 35.5071 120.434C42.245 120.434 48.5386 123.295 54.3632 129.015C60.1879 134.712 63.1002 141.79 63.1002 150.25C62.1376 155.038 60.7925 159.995 59.0526 165.134C57.3002 170.273 56.4364 175.485 56.4364 180.745C56.4364 182.333 57.0041 183.981 58.164 185.69C59.3487 187.411 61.1011 188.26 63.4457 188.26C66.7036 188.26 69.6653 186.272 72.3308 182.296C74.9963 178.297 77.4767 173.376 79.7844 167.558C82.1167 161.74 84.5724 155.971 87.1392 150.25C89.706 144.529 92.7294 139.681 96.2218 135.706C99.7017 131.706 103.774 129.694 108.414 129.694C111.672 129.694 115.325 130.785 119.372 132.942C123.445 135.112 126.937 138.13 129.837 142.008C132.762 145.887 134.23 150.468 134.23 155.729C134.23 157.547 133.885 159.147 133.194 160.528C129.701 169.425 125.617 178.782 120.952 188.599C116.312 198.429 110.907 207.689 104.761 216.379C98.6034 225.045 91.6311 232.123 83.832 237.614C76.0329 243.08 67.2466 245.807 57.473 245.807C46.0828 245.807 36.7905 242.898 29.5837 237.08C22.377 231.263 17.1446 224.136 13.8868 215.7C10.6289 207.24 9 199.119 9 191.362C9 188.163 9.16042 184.854 9.49361 181.424C9.85148 178.006 10.16 174.576 10.4315 171.146C10.4315 171.146 10.2957 171.146 10.0366 171.146C9.80212 171.146 9.45659 171.146 9 171.146Z" fill="black"/>
<path d="M271.28 5C279.894 5.23029 288.68 7.01198 297.639 10.333C306.586 13.6297 314.829 18.0294 322.369 23.5199C329.934 28.9862 336.042 35.4342 340.682 42.864C345.347 50.2695 347.692 58.4265 347.692 67.3471C347.692 75.5647 345.717 83.8307 341.768 92.1695C337.819 100.508 332.859 108.447 326.911 115.974C320.987 123.513 315.126 130.361 309.338 136.53C305.117 140.869 303.02 144.99 303.02 148.893C303.02 151.838 304.945 155.607 308.795 160.189C312.645 164.746 317.347 169.667 322.912 174.927C328.503 180.163 334.08 185.472 339.646 190.829C345.236 196.198 349.938 201.289 353.763 206.101C357.613 210.888 359.539 215.215 359.539 219.094C359.539 224.136 356.799 228.196 351.345 231.263C345.878 234.341 338.905 236.838 330.415 238.777C321.925 240.716 313.312 242.316 304.599 243.577C295.875 244.837 288.137 246.049 281.399 247.213C274.908 248.352 268.294 249.14 261.556 249.589C254.806 250.037 247.945 251.188 240.972 253.031C239.319 253.249 237.788 253.528 236.382 253.855C234.999 254.206 233.617 254.388 232.235 254.388C231.075 254.388 228.805 253.419 225.423 251.479C222.067 249.54 218.92 247.092 215.995 244.11C213.095 241.141 211.652 238.171 211.652 235.19C211.652 231.311 213.157 228.014 216.193 225.299C219.216 222.56 223.054 220.257 227.694 218.415C232.359 216.573 237.023 215.203 241.663 214.294C246.303 213.397 250.129 212.937 253.165 212.937C255.497 212.937 257.879 213.228 260.322 213.809C262.753 214.367 265.135 214.634 267.479 214.634C272.341 214.634 277.105 213.397 281.745 210.9C286.409 208.379 288.754 205.519 288.754 202.319C288.754 199.798 287.52 197.18 285.052 194.465C282.609 191.726 279.696 189.035 276.315 186.417C272.958 183.775 269.873 181.654 267.084 180.066C264.32 178.454 262.469 177.642 261.556 177.642C258.989 177.642 256.768 178.975 254.892 181.618C253.041 184.236 251.141 187.217 249.166 190.538C247.192 193.835 244.798 196.792 242.009 199.41C239.208 202.028 235.604 203.337 231.199 203.337C222.573 203.337 215.946 200.501 211.306 194.805C206.666 189.084 203.359 181.545 201.384 172.164C199.41 162.795 198.126 152.577 197.534 141.524C196.942 130.446 196.3 119.416 195.609 108.459C194.918 97.5025 193.4 87.7941 191.068 79.322C189.451 73.1527 187.884 66.3047 186.378 58.7659C184.861 51.2391 184.108 45.4214 184.108 41.3126C184.108 34.2343 187.119 28.4165 193.141 23.8593C199.188 19.2778 206.814 15.6659 215.995 13.0479C225.201 10.4299 234.753 8.49066 244.625 7.23014C254.497 5.96963 263.382 5.23029 271.28 5ZM299.219 70.4014C299.219 69.7227 299.219 69.0439 299.219 68.3652C299.219 67.6864 299.219 67.1289 299.219 66.6683C299.219 57.5296 296.072 51.2391 289.791 47.8091C283.497 44.3911 275.241 42.67 265.011 42.67C256.879 42.67 249.907 44.0033 244.082 46.6455C238.282 49.2635 235.394 52.633 235.394 56.7296C237.924 62.1959 239.652 68.9348 240.577 76.9464C241.528 84.9337 242.354 92.8725 243.045 100.751C243.736 108.641 244.835 115.271 246.353 120.628C247.858 125.997 250.474 128.676 254.201 128.676C256.077 128.676 258.409 127.985 261.21 126.591C271.675 119.974 279.746 111.756 285.447 101.963C291.136 92.1453 295.726 81.6248 299.219 70.4014Z" fill="black"/>
<path d="M467.685 126.931C467.685 140.19 467.093 153.438 465.908 166.685C464.748 179.945 464.181 193.302 464.181 206.78C464.181 213.179 464.748 219.518 465.908 225.784C467.093 232.063 467.685 238.28 467.685 244.45C467.685 248.558 466.402 252.716 463.835 256.958C461.268 261.188 458.122 264.775 454.407 267.721C450.68 270.69 446.966 272.181 443.251 272.181C439.759 272.181 436.045 270.69 432.096 267.721C428.147 264.775 424.655 261.079 421.631 256.618C418.595 252.158 416.744 247.54 416.053 242.753C413.943 224.233 412.894 205.737 412.894 187.242C412.894 163.946 413.585 139.96 414.967 115.295C416.374 90.6424 417.904 66.5471 419.558 43.0094C420.249 31.1557 422.273 22.829 425.629 18.0415C429.011 13.2297 434.663 10.8178 442.56 10.8178C451.149 10.8178 458.109 13.7994 463.44 19.7384C468.796 25.6531 471.486 33.4101 471.486 43.0094C471.486 55.5903 470.795 67.9288 469.413 80.0492C468.031 92.1453 467.34 104.229 467.34 116.313C467.34 117.937 467.34 119.658 467.34 121.501C467.34 123.319 467.451 125.125 467.685 126.931Z" fill="black"/>
<path d="M581.012 156.407C588.219 156.407 594.661 158.419 600.362 162.419C606.088 166.395 610.691 171.582 614.183 177.982C617.663 184.381 619.416 191.12 619.416 198.198C619.144 206.186 616.75 213.555 612.209 220.306C607.692 227.033 601.843 232.463 594.636 236.596C587.429 240.704 579.507 242.753 570.893 242.753C557.886 242.753 547.545 239.286 539.845 232.329C532.169 225.348 528.344 216.718 528.344 206.44C528.344 188.151 532.7 175.242 541.424 167.704C550.137 160.177 563.341 156.407 581.012 156.407Z" fill="black"/>
<path d="M807.399 281.101C805.745 300.3 801.377 317.996 794.269 334.189C787.185 350.406 776.449 364.562 762.036 376.658C759 378.949 755.791 380.731 752.41 381.991C749.053 383.252 746.104 383.882 743.574 383.882C738.663 383.882 733.949 381.943 729.408 378.064C724.891 374.186 722.645 369.047 722.645 362.647C722.645 359.447 723.447 356.635 725.064 354.211C726.705 351.812 728.568 349.484 730.642 347.23C736.688 341.049 741.859 333.34 746.141 324.104C750.448 314.857 753.817 305.488 756.26 295.985C758.728 286.507 759.962 278.459 759.962 271.842C759.962 267.054 759.592 261.285 758.876 254.534C758.185 247.819 757.013 241.322 755.372 235.044C753.755 228.742 751.67 223.493 749.103 219.288C746.561 215.058 743.439 212.937 739.724 212.937C737.379 212.937 734.405 213.797 730.79 215.506C727.199 217.227 723.25 218.936 718.943 220.645C714.661 222.366 710.317 223.215 705.911 223.215C701.469 223.215 696.928 221.954 692.288 219.433C687.648 216.912 683.81 213.324 680.786 208.67C677.751 203.992 676.245 198.441 676.245 192.041C676.245 186.781 677.924 181.412 681.28 175.945C684.661 170.455 689.092 165.837 694.558 162.08C700.013 158.298 705.776 156.407 711.835 156.407C713.674 156.407 715.512 156.589 717.363 156.941C719.239 157.268 720.991 157.425 722.645 157.425C727.976 157.425 732.962 156.347 737.602 154.177C742.266 152.02 746.931 148.772 751.571 144.432C754.36 141.911 758.198 140.651 763.072 140.651C767.515 140.651 771.871 141.693 776.153 143.754C780.46 145.79 784.063 148.59 786.963 152.141C789.888 155.668 791.356 159.728 791.356 164.31C791.356 175.945 792.615 187.241 795.157 198.198C797.724 209.155 800.291 220.063 802.857 230.923C805.424 241.783 806.708 252.91 806.708 264.327C806.708 267.296 806.634 270.205 806.51 273.054C806.411 275.89 806.708 278.58 807.399 281.101Z" fill="black"/>
<path d="M864.225 221.179C864.916 215.24 866.817 209.688 869.951 204.549C873.11 199.41 876.887 195.192 881.304 191.896C885.747 188.575 890.165 186.902 894.583 186.902C897.372 186.902 900.457 188.163 903.813 190.684C907.195 193.18 910.452 196.38 913.587 200.283C916.746 204.162 919.313 208.113 921.287 212.112C923.262 216.088 924.249 219.457 924.249 222.197C923.286 226.984 921.003 231.493 917.388 235.723C913.797 239.965 909.441 243.334 904.307 245.856C899.198 248.352 893.99 249.589 888.659 249.589C880.033 249.589 873.802 246.91 869.951 241.541C866.126 236.183 864.225 229.396 864.225 221.179Z" fill="black"/>
<path d="M150.543 340.804L150.049 341.289C147.68 341.458 145.274 341.555 142.843 341.579C140.436 341.616 138.018 341.604 135.587 341.531C132.884 341.531 130.218 341.555 127.59 341.579C124.949 341.616 122.407 341.761 119.939 342.016C119.174 341.531 118.828 341.046 118.902 340.561C119.001 340.077 119.149 339.628 119.347 339.204C119.569 338.792 119.692 338.513 119.692 338.38C119.988 338.186 120.334 338.089 120.729 338.089C121.124 338.089 121.531 338.089 121.963 338.089C122.185 338.089 122.432 338.113 122.703 338.137C122.962 338.137 123.209 338.125 123.444 338.089C123.666 334.731 123.789 331.18 123.789 327.423C123.789 323.678 123.764 320.029 123.74 316.466C123.74 315.496 123.715 314.563 123.69 313.654C123.653 312.721 123.641 311.788 123.641 310.842C123.604 309.097 123.592 307.449 123.592 305.897C123.616 304.321 123.666 302.831 123.74 301.437C123.407 301.34 123.061 301.291 122.703 301.291C122.333 301.267 121.987 301.243 121.667 301.243C121.074 301.243 120.494 301.182 119.939 301.049C119.408 300.928 118.952 300.613 118.557 300.128C118.619 299.97 118.668 299.776 118.705 299.546C118.804 299.001 118.952 298.467 119.149 297.946C119.371 297.401 119.816 297.158 120.482 297.219C122.259 297.255 124.233 297.304 126.405 297.364C128.602 297.437 130.798 297.461 132.97 297.461C135.142 297.461 136.993 297.461 138.548 297.461C139.104 297.461 139.659 297.449 140.227 297.413C140.782 297.389 141.337 297.34 141.905 297.267C143.509 297.146 145.076 297.074 146.594 297.074C148.1 297.074 149.42 297.461 150.543 298.237C150.469 298.698 150.457 299.243 150.494 299.885C150.518 300.504 150.543 301.146 150.543 301.825C150.642 303.122 150.666 304.443 150.642 305.8C150.605 307.133 150.407 308.2 150.049 309C149.186 309.17 148.569 309.048 148.174 308.661C147.779 308.273 147.507 307.739 147.384 307.061C147.186 306.127 147.051 305.073 146.989 303.909C146.915 302.722 146.668 301.825 146.249 301.243C145.656 301.243 145.015 301.243 144.324 301.243C143.657 301.243 142.954 301.219 142.201 301.146C139.955 301.146 137.573 301.146 135.044 301.146C132.538 301.146 130.515 301.243 128.972 301.437C128.997 302.019 129.021 302.782 129.021 303.715C129.021 304.661 128.997 305.691 128.972 306.818C128.972 307.473 128.972 308.127 128.972 308.806C128.972 309.485 128.972 310.163 128.972 310.842C128.972 311.982 128.997 313.097 129.071 314.187C129.133 315.29 129.219 316.357 129.318 317.387C131.119 317.193 132.995 317.084 134.945 317.048C136.919 316.987 138.844 316.902 140.72 316.805C141.337 316.551 141.781 316.127 142.053 315.545C142.349 314.963 142.608 314.333 142.843 313.654C143.065 312.975 143.386 312.418 143.781 311.957C144.101 311.763 144.385 311.715 144.62 311.812C144.842 311.885 145.089 311.982 145.36 312.103C145.459 312.139 145.57 312.2 145.706 312.297C145.866 312.369 146.051 312.418 146.249 312.442C145.952 313.484 145.767 314.648 145.706 315.933C145.669 317.23 145.681 318.539 145.755 319.86C145.755 320.963 145.718 322.041 145.656 323.108C145.619 324.175 145.521 325.096 145.36 325.871C144.299 325.968 143.608 325.714 143.287 325.096C142.954 324.49 142.695 323.775 142.497 322.963C142.398 322.647 142.3 322.32 142.201 321.993C142.102 321.678 141.979 321.387 141.855 321.12C139.684 320.805 137.413 320.623 135.044 320.587C132.699 320.526 130.675 320.878 128.972 321.654C129.034 324.211 129.083 326.817 129.12 329.459C129.182 332.113 129.133 334.889 128.972 337.798C130.675 337.895 132.575 337.98 134.649 338.04C136.722 338.077 138.795 338.016 140.868 337.846C142.941 337.689 144.817 337.398 146.495 336.974C147.014 336.101 147.384 335.107 147.581 333.968C147.779 332.841 148.038 331.774 148.371 330.768C148.729 329.738 149.383 329.023 150.346 328.635C151.037 330.029 151.345 331.58 151.283 333.289C151.209 334.974 151.061 336.537 150.839 337.992C150.765 338.513 150.703 339.01 150.642 339.495C150.568 339.955 150.543 340.392 150.543 340.804Z" fill="black"/>
<path d="M207.966 298.819C206.905 299.825 205.708 300.698 204.363 301.437C203.042 302.188 201.907 303.122 200.957 304.249C200.685 305.412 200.414 306.564 200.118 307.691C199.822 308.794 199.501 309.873 199.18 310.939C197.724 315.884 196.095 320.672 194.293 325.29C192.479 329.883 190.85 334.768 189.406 339.931C188.913 340.416 188.518 340.949 188.222 341.531C187.925 342.089 187.555 342.61 187.136 343.131C186.605 343.422 186.111 343.519 185.655 343.422C185.186 343.325 184.742 343.204 184.322 343.082C183.927 342.985 183.656 342.901 183.532 342.84C181.521 337.931 179.682 332.707 178.004 327.18C176.326 321.629 174.598 316.175 172.821 310.842C172.191 309 171.55 307.206 170.896 305.461C170.229 303.691 169.526 301.958 168.773 300.273C168.378 300.116 167.959 300.067 167.539 300.128C167.144 300.164 166.762 300.213 166.404 300.273C165.972 300.346 165.565 300.395 165.17 300.419C164.8 300.455 164.442 300.407 164.084 300.273C163.751 299.764 163.652 299.304 163.788 298.916C163.911 298.528 164.084 298.14 164.281 297.752C164.38 297.631 164.454 297.51 164.528 297.413C164.59 297.292 164.652 297.146 164.726 296.977C165.639 297.049 166.564 297.061 167.49 297.025C168.44 296.964 169.39 296.916 170.353 296.88C171.044 296.783 171.747 296.722 172.475 296.686C173.228 296.661 173.931 296.637 174.598 296.637C175.844 296.71 177.017 296.904 178.103 297.219C179.213 297.546 180.188 298.189 181.015 299.158C180.151 299.582 179.201 299.97 178.152 300.322C177.091 300.685 176.239 300.904 175.585 301.001C175.943 302.625 176.338 304.249 176.77 305.897C177.226 307.546 177.72 309.194 178.251 310.842C179.534 314.89 180.916 318.939 182.397 323.011C183.903 327.059 185.174 331.132 186.198 335.228C187.839 331.35 189.505 327.423 191.183 323.447C192.862 319.448 194.355 315.278 195.675 310.939C196.625 307.836 197.403 304.685 197.995 301.485C197.662 301.001 197.168 300.661 196.514 300.467C195.848 300.249 195.157 300.031 194.441 299.837C193.75 299.643 193.17 299.376 192.714 299.013C192.812 298.31 193.257 297.789 194.046 297.461C194.836 297.11 195.823 296.88 197.008 296.783C198.193 296.686 199.402 296.674 200.661 296.734C201.907 296.771 203.03 296.831 204.017 296.928C204.832 297.025 205.609 297.255 206.337 297.607C207.09 297.934 207.633 298.334 207.966 298.819Z" fill="black"/>
<path d="M252.105 340.804L251.612 341.289C249.243 341.458 246.836 341.555 244.405 341.579C241.999 341.616 239.58 341.604 237.149 341.531C234.446 341.531 231.781 341.555 229.152 341.579C226.512 341.616 223.969 341.761 221.501 342.016C220.736 341.531 220.391 341.046 220.465 340.561C220.563 340.077 220.712 339.628 220.909 339.204C221.131 338.792 221.255 338.513 221.255 338.38C221.551 338.186 221.896 338.089 222.291 338.089C222.686 338.089 223.093 338.089 223.525 338.089C223.747 338.089 223.994 338.113 224.266 338.137C224.525 338.137 224.772 338.125 225.006 338.089C225.228 334.731 225.352 331.18 225.352 327.423C225.352 323.678 225.327 320.029 225.302 316.466C225.302 315.496 225.278 314.563 225.253 313.654C225.216 312.721 225.203 311.788 225.203 310.842C225.166 309.097 225.154 307.449 225.154 305.897C225.179 304.321 225.228 302.831 225.302 301.437C224.969 301.34 224.623 301.291 224.266 301.291C223.895 301.267 223.55 301.243 223.229 301.243C222.637 301.243 222.057 301.182 221.501 301.049C220.971 300.928 220.514 300.613 220.119 300.128C220.181 299.97 220.23 299.776 220.267 299.546C220.366 299.001 220.514 298.467 220.712 297.946C220.934 297.401 221.378 297.158 222.044 297.219C223.821 297.255 225.796 297.304 227.968 297.364C230.164 297.437 232.361 297.461 234.533 297.461C236.705 297.461 238.556 297.461 240.111 297.461C240.666 297.461 241.221 297.449 241.789 297.413C242.344 297.389 242.9 297.34 243.467 297.267C245.071 297.146 246.639 297.074 248.157 297.074C249.662 297.074 250.983 297.461 252.105 298.237C252.031 298.698 252.019 299.243 252.056 299.885C252.081 300.504 252.105 301.146 252.105 301.825C252.204 303.122 252.229 304.443 252.204 305.8C252.167 307.133 251.97 308.2 251.612 309C250.748 309.17 250.131 309.048 249.736 308.661C249.341 308.273 249.07 307.739 248.946 307.061C248.749 306.127 248.613 305.073 248.551 303.909C248.477 302.722 248.231 301.825 247.811 301.243C247.219 301.243 246.577 301.243 245.886 301.243C245.22 301.243 244.516 301.219 243.763 301.146C241.517 301.146 239.136 301.146 236.606 301.146C234.101 301.146 232.077 301.243 230.535 301.437C230.559 302.019 230.584 302.782 230.584 303.715C230.584 304.661 230.559 305.691 230.535 306.818C230.535 307.473 230.535 308.127 230.535 308.806C230.535 309.485 230.535 310.163 230.535 310.842C230.535 311.982 230.559 313.097 230.633 314.187C230.695 315.29 230.781 316.357 230.88 317.387C232.682 317.193 234.557 317.084 236.507 317.048C238.482 316.987 240.407 316.902 242.283 316.805C242.9 316.551 243.344 316.127 243.615 315.545C243.911 314.963 244.171 314.333 244.405 313.654C244.627 312.975 244.948 312.418 245.343 311.957C245.664 311.763 245.948 311.715 246.182 311.812C246.404 311.885 246.651 311.982 246.923 312.103C247.021 312.139 247.132 312.2 247.268 312.297C247.428 312.369 247.614 312.418 247.811 312.442C247.515 313.484 247.33 314.648 247.268 315.933C247.231 317.23 247.243 318.539 247.317 319.86C247.317 320.963 247.28 322.041 247.219 323.108C247.182 324.175 247.083 325.096 246.923 325.871C245.861 325.968 245.17 325.714 244.849 325.096C244.516 324.49 244.257 323.775 244.06 322.963C243.961 322.647 243.862 322.32 243.763 321.993C243.665 321.678 243.541 321.387 243.418 321.12C241.246 320.805 238.975 320.623 236.606 320.587C234.261 320.526 232.237 320.878 230.535 321.654C230.596 324.211 230.646 326.817 230.683 329.459C230.744 332.113 230.695 334.889 230.535 337.798C232.237 337.895 234.138 337.98 236.211 338.04C238.284 338.077 240.357 338.016 242.431 337.846C244.504 337.689 246.38 337.398 248.058 336.974C248.576 336.101 248.946 335.107 249.144 333.968C249.341 332.841 249.6 331.774 249.934 330.768C250.291 329.738 250.945 329.023 251.908 328.635C252.599 330.029 252.908 331.58 252.846 333.289C252.772 334.974 252.624 336.537 252.402 337.992C252.328 338.513 252.266 339.01 252.204 339.495C252.13 339.955 252.105 340.392 252.105 340.804Z" fill="black"/>
<path d="M306.567 341.773C304.987 342.161 303.519 342.282 302.174 342.113C300.853 341.955 299.521 341.713 298.175 341.385C297.213 340.295 296.411 338.949 295.757 337.362C295.09 335.786 294.486 334.101 293.93 332.319C293.363 330.514 292.709 328.829 291.956 327.277C291.191 325.665 290.29 324.32 289.241 323.253C288.18 322.187 286.798 321.544 285.095 321.314C284.404 321.217 283.676 321.169 282.923 321.169C282.158 321.169 281.442 321.205 280.751 321.266C280.159 321.302 279.628 321.314 279.171 321.314C278.702 321.314 278.283 321.302 277.888 321.266C277.814 322.502 277.789 323.738 277.789 324.999C277.814 326.235 277.888 327.471 277.987 328.732C278.011 330.126 278.048 331.532 278.085 332.95C278.147 334.344 278.085 335.737 277.888 337.119C278.209 337.798 278.776 338.258 279.566 338.477C280.381 338.671 281.207 338.889 282.034 339.107C282.849 339.301 283.441 339.713 283.811 340.319C283.244 341.034 282.306 341.47 280.998 341.628C279.677 341.798 278.283 341.87 276.802 341.87C276.407 341.87 275.988 341.87 275.568 341.87C275.136 341.87 274.741 341.87 274.383 341.87C273.1 341.846 271.915 341.846 270.829 341.87C269.768 341.87 268.916 342.004 268.262 342.258C267.868 341.289 267.843 340.561 268.213 340.076C268.608 339.592 269.114 339.192 269.743 338.864C270.336 338.549 270.94 338.234 271.57 337.943C272.224 337.652 272.668 337.24 272.902 336.683C272.804 332.126 272.717 327.786 272.656 323.641C272.582 319.472 272.508 315.206 272.409 310.842L272.211 300.661C271.816 300.54 271.422 300.467 271.027 300.467C270.632 300.467 270.237 300.467 269.842 300.467C269.373 300.504 268.916 300.516 268.46 300.516C268.028 300.491 267.633 300.31 267.275 299.982C267.3 299.764 267.288 299.582 267.226 299.449C267.152 299.292 267.078 299.146 266.979 299.013C266.905 298.892 266.856 298.746 266.831 298.576C266.794 298.419 266.806 298.237 266.88 298.043C267.831 297.534 268.904 297.243 270.089 297.17C271.298 297.11 272.569 297.098 273.89 297.122C274.408 297.122 274.926 297.122 275.42 297.122C275.938 297.122 276.469 297.11 276.999 297.074C279.665 296.88 282.281 296.807 284.848 296.831C287.415 296.867 289.784 297.11 291.956 297.558C294.153 297.983 296.016 298.758 297.534 299.885C298.78 300.855 299.73 302.14 300.397 303.715C301.051 305.303 301.261 307.303 301.038 309.727C301.001 309.921 300.915 310.115 300.792 310.309C300.693 310.503 300.594 310.721 300.495 310.939C300.199 311.497 299.928 312.054 299.706 312.636C299.471 313.218 299.286 313.836 299.163 314.478C298.077 314.866 297.151 315.448 296.398 316.224C295.633 316.999 294.831 317.714 293.98 318.357C293.116 319.011 292.005 319.399 290.623 319.52C292.598 320.684 294.227 322.211 295.51 324.078C296.793 325.92 297.904 327.944 298.867 330.138C299.854 332.307 300.804 334.489 301.73 336.683C301.989 336.852 302.248 336.998 302.519 337.119C302.815 337.216 303.087 337.337 303.358 337.458C304.309 337.822 305.185 338.283 305.975 338.864C306.764 339.446 306.962 340.416 306.567 341.773ZM294.621 308.224C294.621 307.158 294.449 306.067 294.128 304.927C293.795 303.764 293.289 302.6 292.598 301.437C290.882 300.564 289.093 300.079 287.217 299.982C285.366 299.885 283.379 299.861 281.244 299.885C280.751 299.885 280.27 299.91 279.813 299.934C279.344 299.97 278.85 299.982 278.332 299.982C277.9 300.407 277.69 300.988 277.69 301.728C277.69 302.443 277.715 303.219 277.789 304.055C277.814 304.382 277.839 304.709 277.839 305.024C277.863 305.352 277.888 305.679 277.888 305.994C277.888 306.746 277.863 307.533 277.839 308.37C277.802 309.218 277.752 310.042 277.69 310.842C277.653 312.042 277.641 313.291 277.641 314.575C277.641 315.836 277.715 317.096 277.888 318.357C280.159 318.72 282.491 318.72 284.897 318.357C287.291 317.969 289.241 317.193 290.722 316.03C292.524 314.672 293.708 312.975 294.276 310.939C294.498 310.006 294.621 309.097 294.621 308.224Z" fill="black"/>
<path d="M354.506 299.207C353.975 299.861 353.679 300.649 353.617 301.582C353.58 302.491 353.617 303.424 353.716 304.394C353.716 304.491 353.741 304.661 353.815 304.879C353.914 305.946 353.938 307.012 353.914 308.079C353.877 309.121 353.531 309.969 352.877 310.648C351.989 310.551 351.347 310.212 350.952 309.63C350.557 309.024 350.261 308.297 350.063 307.448C349.866 306.479 349.693 305.461 349.57 304.394C349.471 303.303 349.237 302.382 348.879 301.631C347.324 301.219 345.436 300.952 343.202 300.855C340.956 300.734 338.982 300.734 337.279 300.855C337.279 302.479 337.279 304.127 337.279 305.8C337.279 307.448 337.254 309.133 337.229 310.842C337.229 311.715 337.205 312.587 337.18 313.46C337.143 314.309 337.131 315.157 337.131 316.03C337.094 319.654 337.081 323.278 337.081 326.889C337.081 330.513 337.143 334.089 337.279 337.604C337.797 338.028 338.439 338.319 339.204 338.477C339.994 338.646 340.734 338.852 341.425 339.107C342.141 339.337 342.622 339.822 342.857 340.561C342.622 341.179 342.042 341.604 341.129 341.822C340.204 342.016 339.13 342.113 337.921 342.113C336.699 342.113 335.477 342.064 334.268 341.967C333.638 341.967 333.046 341.955 332.491 341.919C331.923 341.894 331.417 341.87 330.961 341.87C330.726 341.87 330.479 341.894 330.22 341.919C329.986 341.955 329.739 341.967 329.48 341.967C328.591 342.064 327.727 342.064 326.913 341.967C326.123 341.87 325.704 341.337 325.679 340.367C325.679 340.016 325.802 339.676 326.074 339.349C326.37 339.034 326.592 338.707 326.765 338.38C327.579 338.707 328.505 338.598 329.529 338.04C330.578 337.458 331.306 336.768 331.701 335.955C331.664 333.507 331.652 331.083 331.652 328.683C331.652 326.259 331.652 323.871 331.652 321.508C331.652 319.738 331.652 317.969 331.652 316.224C331.652 314.454 331.652 312.66 331.652 310.842C331.652 307.582 331.578 304.249 331.454 300.855C329.64 300.54 327.764 300.503 325.827 300.758C323.877 300.988 322.15 301.219 320.644 301.437C320.41 301.473 320.2 301.509 320.002 301.534C319.805 301.57 319.62 301.606 319.459 301.631C319.361 302.152 319.274 302.685 319.213 303.231C319.138 303.788 319.114 304.333 319.114 304.879C319.015 306.079 318.867 307.206 318.67 308.273C318.472 309.339 317.979 310.139 317.189 310.648C316.72 310.685 316.362 310.624 316.103 310.454C315.868 310.297 315.634 310.103 315.412 309.872C315.313 309.776 315.19 309.703 315.066 309.63C314.967 309.533 314.844 309.436 314.721 309.339C315.017 307.436 315.165 305.436 315.165 303.328C315.165 301.231 315.461 299.425 316.053 297.898C318.324 297.486 320.854 297.267 323.655 297.267C326.481 297.243 329.245 297.243 331.948 297.267C332.762 297.34 333.577 297.364 334.367 297.364C335.181 297.364 335.971 297.364 336.736 297.364C337.526 297.364 338.328 297.352 339.155 297.316C339.969 297.255 340.784 297.195 341.573 297.122C344.14 297.001 346.571 296.976 348.879 297.073C351.174 297.17 353.05 297.885 354.506 299.207Z" fill="black"/>
<path d="M409.095 339.737C408.897 340.586 408.416 341.143 407.663 341.434C406.935 341.725 406.034 341.907 404.948 341.967C404.418 341.967 403.887 341.955 403.369 341.919C402.875 341.895 402.357 341.87 401.839 341.87C400.753 341.81 399.765 341.798 398.877 341.822C398.013 341.822 397.421 341.992 397.1 342.307C396.73 342.331 396.224 342.246 395.57 342.016C394.94 341.761 394.484 341.337 394.188 340.755C393.891 340.149 393.99 339.386 394.484 338.477C395.101 338.222 395.817 338.04 396.606 337.943C397.396 337.822 398.1 337.64 398.729 337.41C398.729 336.028 398.704 334.586 398.68 333.095C398.68 331.617 398.68 330.162 398.68 328.732C398.605 327.156 398.556 325.665 398.531 324.272C398.531 322.854 398.544 321.557 398.581 320.393C395.681 320.042 392.756 319.896 389.794 319.957C386.857 319.993 384.031 320.054 381.304 320.151C380.28 320.151 379.28 320.187 378.293 320.248C377.331 320.284 376.38 320.296 375.43 320.296C375.43 321.629 375.443 322.89 375.48 324.078C375.504 325.278 375.529 326.441 375.529 327.568C375.554 329.023 375.591 330.514 375.628 332.029C375.652 333.519 375.64 335.168 375.578 336.974C375.973 337.495 376.492 337.895 377.158 338.186C377.812 338.452 378.466 338.719 379.132 339.01C379.786 339.277 380.28 339.677 380.613 340.222C380.416 340.973 380.033 341.458 379.478 341.676C378.947 341.907 378.293 342.004 377.503 341.967C377.207 341.967 376.886 341.955 376.566 341.919C376.232 341.895 375.899 341.858 375.578 341.822C375.011 341.798 374.418 341.761 373.801 341.725C373.172 341.664 372.53 341.628 371.876 341.628C371.543 341.628 371.21 341.664 370.889 341.725C370.593 341.798 370.297 341.87 370 341.967C369.729 342.064 369.47 342.149 369.211 342.21C368.939 342.246 368.717 342.234 368.52 342.161C367.755 342.04 367.113 341.628 366.595 340.949C366.064 340.246 365.928 339.58 366.2 338.961C366.422 338.477 366.804 338.186 367.335 338.089C367.853 337.968 368.421 337.846 369.013 337.749C369.63 337.652 370.173 337.41 370.642 337.022C370.642 332.562 370.642 328.089 370.642 323.593C370.642 319.072 370.593 314.818 370.494 310.842C370.457 308.976 370.408 307.182 370.346 305.461C370.309 303.752 370.247 302.152 370.149 300.661C369.778 300.467 369.383 300.358 368.964 300.322C368.532 300.298 368.088 300.298 367.631 300.322C367.1 300.322 366.57 300.31 366.052 300.273C365.558 300.213 365.064 300.019 364.571 299.692C364.534 299.34 364.571 299.061 364.669 298.867C364.793 298.649 364.929 298.431 365.064 298.237C365.225 298.116 365.361 297.946 365.459 297.752C365.583 297.558 365.657 297.304 365.657 296.977C366.644 297.074 367.643 297.11 368.668 297.074C369.717 297.013 370.753 296.952 371.778 296.88C372.296 296.88 372.814 296.867 373.308 296.831C373.826 296.771 374.357 296.734 374.887 296.734C376.232 296.674 377.466 296.807 378.589 297.122C379.7 297.413 380.539 298.043 381.107 299.013C380.613 299.57 379.885 299.91 378.935 300.031C378.009 300.128 376.985 300.164 375.875 300.128C375.541 301.267 375.356 302.831 375.332 304.831C375.332 306.806 375.344 308.806 375.381 310.842V310.988C375.406 311.933 375.443 312.854 375.48 313.751C375.504 314.624 375.492 315.472 375.43 316.272C378.022 316.502 380.687 316.599 383.427 316.563C386.154 316.502 388.832 316.418 391.473 316.321C392.62 316.296 393.768 316.26 394.928 316.224C396.113 316.163 397.223 316.127 398.285 316.127C398.482 315.351 398.593 314.551 398.63 313.703C398.655 312.83 398.63 311.909 398.531 310.939C398.457 310.394 398.396 309.812 398.334 309.194C398.297 308.588 398.248 307.982 398.186 307.4C398.087 306.237 397.988 305.097 397.89 303.958C397.791 302.831 397.754 301.728 397.791 300.661C397.125 300.661 396.335 300.613 395.422 300.516C394.533 300.395 393.669 300.176 392.855 299.885C392.583 299.437 392.522 299.037 392.657 298.673C392.781 298.286 392.954 297.934 393.151 297.607C393.25 297.486 393.348 297.34 393.447 297.17C393.546 297.013 393.608 296.831 393.645 296.637C394.496 296.71 395.348 296.722 396.211 296.686C397.1 296.661 397.939 296.625 398.729 296.589C400.703 296.492 402.554 296.492 404.307 296.589C406.047 296.686 407.528 297.122 408.749 297.898C408.453 298.77 407.824 299.328 406.874 299.546C405.911 299.74 404.825 299.825 403.616 299.788C403.443 301.413 403.332 303.17 403.27 305.073C403.233 306.952 403.245 308.903 403.319 310.939C403.319 312.175 403.332 313.412 403.369 314.672C403.431 315.909 403.48 317.169 403.517 318.454C403.616 321.848 403.665 325.168 403.665 328.392C403.69 331.629 403.591 334.501 403.369 337.022C404.023 337.774 404.899 338.222 405.985 338.38C407.096 338.549 408.132 338.998 409.095 339.737Z" fill="black"/>
<path d="M440.64 298.867C440.369 299.546 439.813 299.934 438.962 300.031C438.098 300.128 437.197 300.164 436.247 300.128C435.951 300.128 435.655 300.128 435.358 300.128C435.087 300.128 434.828 300.128 434.569 300.128C434.371 300.261 434.421 300.601 434.717 301.146C434.778 301.34 434.84 301.558 434.914 301.776C435.013 301.97 435.062 302.152 435.062 302.31C434.865 302.503 434.717 302.734 434.618 302.988C434.519 303.255 434.421 303.558 434.322 303.909C434.285 305.073 434.272 306.224 434.272 307.352C434.272 308.491 434.248 309.654 434.223 310.842C434.149 315.278 434.1 319.763 434.075 324.32C434.075 328.853 434.075 333.338 434.075 337.798C435.161 337.871 436.321 338.125 437.58 338.574C438.863 339.034 439.776 339.737 440.344 340.707C439.159 341.422 437.789 341.798 436.247 341.822C434.729 341.858 433.149 341.846 431.508 341.773C430.521 341.713 429.546 341.676 428.596 341.676C427.633 341.652 426.695 341.701 425.782 341.822C425.511 341.858 425.301 341.955 425.141 342.113C425.005 342.282 424.869 342.452 424.746 342.646C424.61 342.937 424.412 343.179 424.153 343.373C423.919 343.591 423.561 343.628 423.067 343.47C422.574 342.816 422.389 342.185 422.524 341.531C422.648 340.889 422.919 340.295 423.314 339.737C423.709 339.155 424.067 338.671 424.4 338.283C424.622 338.283 424.869 338.283 425.141 338.283C425.4 338.283 425.659 338.283 425.93 338.283C426.523 338.283 427.09 338.283 427.658 338.283C428.213 338.283 428.707 338.186 429.139 337.992C429.065 333.859 429.04 329.447 429.04 324.756C429.04 320.078 428.991 315.436 428.892 310.842C428.855 307.255 428.719 303.8 428.497 300.467C428.164 300.37 427.806 300.322 427.411 300.322C427.041 300.298 426.646 300.273 426.227 300.273C425.56 300.273 424.918 300.261 424.301 300.225C423.709 300.164 423.178 299.934 422.722 299.546C422.623 299.195 422.623 298.916 422.722 298.722C422.845 298.528 422.981 298.358 423.117 298.189C423.24 298.031 423.364 297.873 423.462 297.704C423.561 297.546 423.61 297.352 423.61 297.122C425.054 297.122 426.621 297.061 428.3 296.928C429.978 296.807 431.619 296.734 433.236 296.734C434.815 296.734 436.259 296.88 437.58 297.17C438.888 297.437 439.912 297.995 440.64 298.867Z" fill="black"/>
<path d="M500.197 298.189C500.16 299.158 499.679 299.74 498.766 299.934C497.84 300.104 496.841 300.176 495.755 300.176C495.385 300.273 495.138 300.504 495.014 300.855C494.916 301.182 494.817 301.558 494.718 301.97C494.619 302.358 494.336 302.685 493.879 302.94C494.002 304.2 494.101 305.509 494.175 306.867C494.237 308.2 494.299 309.557 494.373 310.939C494.397 312.491 494.422 314.091 494.422 315.739C494.422 317.387 494.422 319.036 494.422 320.684C494.484 324.247 494.545 327.75 494.619 331.204C494.681 334.634 494.928 337.786 495.36 340.658C494.829 341.41 494.027 341.822 492.941 341.919C491.855 341.992 491.115 341.773 490.72 341.289C489.56 339.931 488.474 338.428 487.462 336.78C486.475 335.107 485.29 333.483 483.908 331.932C481.366 328.962 478.923 325.581 476.553 321.799C474.209 318.018 471.876 314.369 469.544 310.842C468.655 309.424 467.73 308.067 466.78 306.77C465.854 305.485 464.916 304.249 463.966 303.085C463.929 304.479 463.88 305.8 463.818 307.061C463.781 308.297 463.769 309.557 463.769 310.842C463.769 312.563 463.781 314.333 463.818 316.175C463.88 317.993 463.929 320.005 463.966 322.235C463.966 323.047 463.941 323.908 463.917 324.805C463.917 325.714 463.88 326.599 463.818 327.471C463.719 329.314 463.645 331.059 463.62 332.707C463.62 334.356 463.83 335.713 464.262 336.78C464.484 337.434 464.904 337.919 465.496 338.234C466.113 338.561 466.755 338.852 467.421 339.107C468.075 339.337 468.569 339.689 468.902 340.173C468.705 340.731 468.31 341.095 467.717 341.289C467.15 341.458 466.73 341.749 466.434 342.161C465.57 341.846 464.682 341.701 463.769 341.725C462.88 341.761 461.967 341.846 461.054 341.967C460.066 342.064 459.129 342.113 458.24 342.113C457.352 342.113 456.525 341.907 455.772 341.482C455.501 341.095 455.402 340.792 455.476 340.561C455.538 340.307 455.636 340.064 455.772 339.834C455.871 339.64 455.969 339.471 456.068 339.301C456.167 339.143 456.216 338.949 456.216 338.719C456.809 338.501 457.426 338.307 458.092 338.137C458.746 337.98 459.4 337.798 460.066 337.604C460.486 334.053 460.671 330.332 460.609 326.453C460.535 322.575 460.387 318.587 460.165 314.478C460.165 313.872 460.14 313.266 460.116 312.685C460.079 312.079 460.042 311.46 460.017 310.842C459.98 309.097 459.918 307.376 459.82 305.655C459.746 303.909 459.696 302.152 459.672 300.37C459.104 300.564 458.512 300.649 457.895 300.613C457.265 300.552 456.759 300.407 456.364 300.176C455.871 299.861 455.575 299.425 455.476 298.867C455.402 298.322 455.698 297.68 456.364 296.928C456.957 296.964 457.549 296.977 458.141 296.977C458.758 296.977 459.388 296.964 460.017 296.928C461.621 296.928 463.189 296.977 464.706 297.074C466.212 297.171 467.668 297.51 469.05 298.092C469.05 298.322 468.976 298.48 468.853 298.576C468.754 298.673 468.618 298.77 468.458 298.867C468.088 299.001 467.915 299.182 467.915 299.401C469.223 301.316 470.543 303.231 471.864 305.17C473.209 307.085 474.542 308.976 475.862 310.842C478.429 314.406 480.971 317.957 483.513 321.508C486.08 325.072 488.61 328.586 491.115 332.077C491.016 328.489 490.967 324.95 490.967 321.46C490.967 317.945 490.917 314.43 490.819 310.939C490.745 307.449 490.547 303.982 490.226 300.516C489.893 300.395 489.56 300.31 489.239 300.273C488.906 300.213 488.573 300.176 488.252 300.176C487.622 300.079 487.067 299.97 486.574 299.837C486.105 299.716 485.858 299.34 485.833 298.722C485.796 297.946 486.376 297.389 487.561 297.025C488.745 296.674 490.14 296.48 491.757 296.443C492.966 296.419 494.188 296.468 495.409 296.589C496.619 296.722 497.68 296.928 498.568 297.219C499.482 297.486 500.025 297.801 500.197 298.189Z" fill="black"/>
<path d="M556.304 322.72C556.106 323.302 555.674 323.641 555.02 323.738C554.354 323.835 553.638 323.884 552.848 323.884C552.515 323.884 552.17 323.908 551.812 323.932C551.442 323.932 551.133 323.969 550.874 324.029C550.442 324.999 550.195 326.162 550.134 327.52C550.06 328.877 550.047 330.307 550.084 331.786C550.109 333.216 550.109 334.647 550.084 336.101C550.047 337.531 549.813 338.792 549.393 339.883C548.764 340.307 548.134 340.537 547.517 340.561C546.925 340.561 546.308 340.319 545.691 339.834C544.309 340.743 542.594 341.47 540.557 342.016C538.546 342.525 536.423 342.816 534.19 342.888C531.981 342.949 529.821 342.719 527.723 342.21C525.65 341.664 523.824 340.792 522.244 339.592C521.812 339.277 521.43 338.84 521.109 338.283C520.813 337.701 520.443 337.204 520.023 336.78C519.554 336.271 519.048 335.846 518.493 335.519C517.962 335.204 517.555 334.865 517.259 334.501C515.877 332.598 514.84 330.417 514.149 327.956C513.458 325.471 513.112 322.914 513.112 320.296C513.112 318.684 513.223 317.084 513.458 315.496C513.68 313.884 514.013 312.333 514.445 310.842C515.26 308.127 516.42 305.679 517.9 303.473C519.381 301.243 521.158 299.546 523.232 298.382C524.577 297.643 526.119 297.049 527.872 296.589C529.649 296.14 531.5 295.886 533.449 295.813C534.93 295.789 536.423 295.91 537.941 296.201C539.484 296.492 540.915 297.001 542.236 297.704C542.557 297.413 542.902 297.304 543.272 297.364C543.667 297.437 544.062 297.51 544.457 297.607C544.716 297.704 544.963 297.789 545.197 297.849C545.457 297.922 545.703 297.934 545.938 297.898C546.197 297.873 546.456 297.789 546.728 297.655C547.024 297.498 547.295 297.352 547.567 297.219C547.925 297.001 548.27 296.819 548.603 296.686C548.961 296.528 549.356 296.54 549.788 296.734C549.554 297.51 549.455 298.37 549.492 299.304C549.554 300.213 549.64 301.146 549.739 302.116C549.763 302.576 549.8 303.037 549.837 303.521C549.899 303.982 549.936 304.418 549.936 304.83C549.998 305.897 549.899 306.867 549.64 307.739C549.405 308.612 548.9 309.315 548.11 309.824C547.32 309.436 546.851 308.927 546.728 308.273C546.629 307.63 546.58 306.939 546.58 306.188C546.58 305.8 546.542 305.388 546.481 304.927C546.444 304.479 546.345 304.055 546.185 303.667C545.592 301.897 544.185 300.613 541.989 299.837C539.817 299.061 537.472 298.722 534.98 298.819C533.227 298.855 531.5 299.085 529.797 299.498C528.118 299.922 526.749 300.516 525.7 301.291C524.219 302.297 522.997 303.643 522.047 305.315C521.121 306.964 520.43 308.806 519.974 310.842C519.739 312.006 519.554 313.206 519.431 314.43C519.332 315.666 519.283 316.89 519.283 318.114C519.307 320.926 519.653 323.714 520.319 326.453C520.973 329.205 521.923 331.641 523.182 333.774C524.429 335.883 525.922 337.41 527.674 338.38C529.451 339.034 531.45 339.422 533.696 339.543C535.93 339.64 538.04 339.434 540.014 338.913C542.014 338.404 543.544 337.58 544.605 336.44C544.432 335.313 544.358 334.101 544.358 332.804C544.358 331.519 544.408 330.223 544.506 328.926C544.506 328.15 544.519 327.374 544.556 326.599C544.58 325.799 544.605 325.023 544.605 324.272C544.173 323.884 543.618 323.69 542.927 323.69C542.236 323.69 541.594 323.726 541.002 323.787C540.471 323.884 539.99 323.932 539.57 323.932C539.138 323.932 538.805 323.859 538.583 323.69C538.348 321.981 538.645 320.999 539.471 320.732C540.323 320.478 541.569 320.393 543.223 320.49C543.815 320.49 544.408 320.514 545 320.538C545.617 320.538 546.259 320.526 546.925 320.49C547.184 320.49 547.443 320.478 547.715 320.441C548.011 320.417 548.307 320.381 548.603 320.345C549.714 320.248 550.837 320.199 551.96 320.199C553.108 320.199 554.058 320.381 554.823 320.732C555.613 321.096 556.106 321.75 556.304 322.72Z" fill="black"/>
<path d="M636.917 339.737C636.35 340.452 635.412 340.998 634.104 341.386C632.82 341.773 631.389 342.016 629.809 342.113C628.23 342.21 626.724 342.161 625.317 341.967C623.935 341.749 622.862 341.386 622.109 340.901C622.01 340.586 622.01 340.343 622.109 340.173C622.232 339.98 622.368 339.786 622.504 339.592C622.664 339.471 622.812 339.325 622.948 339.155C623.071 338.961 623.145 338.707 623.145 338.38C623.664 338.38 624.256 338.283 624.922 338.089C625.613 337.871 626.218 337.592 626.749 337.265C626.749 332.998 626.712 328.671 626.65 324.272C626.576 319.848 626.514 315.399 626.453 310.939C626.416 309.17 626.403 307.388 626.403 305.606C626.403 303.837 626.403 302.067 626.403 300.322C626.403 300.322 626.206 300.891 625.811 302.019C625.441 303.158 625.219 304.528 625.12 306.14C624.429 307.667 623.713 309.267 622.997 310.939C621.837 313.751 620.64 316.684 619.394 319.714C618.135 322.72 616.95 325.629 615.84 328.441C615.445 329.411 615.013 330.526 614.556 331.786C614.088 333.022 613.668 334.198 613.273 335.325C613.236 335.495 613.187 335.665 613.125 335.859C613.088 336.053 613.039 336.271 612.977 336.489C612.804 337.168 612.594 337.871 612.335 338.574C612.101 339.252 611.706 339.81 611.151 340.222C610.62 340.646 609.867 340.743 608.88 340.513C606.634 335.762 604.536 330.865 602.562 325.823C600.587 320.781 598.563 315.787 596.49 310.842C595.861 309.388 595.256 307.958 594.664 306.527C594.096 305.109 593.491 303.703 592.837 302.31C592.837 302.31 592.85 302.722 592.887 303.522C592.948 304.297 592.998 305.206 593.035 306.237C593.06 307.279 593.084 308.212 593.084 309.048L593.183 310.842C593.306 313.848 593.405 316.999 593.479 320.296C593.541 323.569 593.602 326.744 593.677 329.847C593.775 332.95 593.837 335.762 593.874 338.283C594.491 338.743 595.182 339.083 595.947 339.301C596.737 339.495 597.292 339.955 597.625 340.658C597.157 341.313 596.416 341.761 595.404 342.016C594.38 342.246 593.257 342.331 592.048 342.307C590.863 342.307 589.654 342.246 588.444 342.113C587.26 341.955 586.248 341.81 585.433 341.676C585.1 340.489 585.396 339.519 586.322 338.768C587.272 338.028 588.296 337.531 589.382 337.265C589.876 333.289 590.048 329.047 589.925 324.514C589.826 319.993 589.654 315.436 589.431 310.842C589.333 309.133 589.246 307.449 589.185 305.8C589.111 304.128 589.037 302.479 588.938 300.855C588.407 300.794 587.803 300.758 587.111 300.758C586.445 300.758 585.729 300.71 584.94 300.613C584.94 300.395 584.89 300.176 584.791 299.982C584.693 299.788 584.594 299.631 584.495 299.498C584.298 299.182 584.15 298.855 584.051 298.528C583.977 298.213 584.15 297.837 584.545 297.413C585.359 297.413 586.149 297.389 586.914 297.316C587.704 297.255 588.494 297.146 589.283 296.977C590.789 296.819 592.245 296.722 593.627 296.686C595.009 296.625 596.268 296.964 597.428 297.704C597.551 297.934 597.625 298.164 597.625 298.383C597.625 298.576 597.588 298.758 597.527 298.916C597.527 299.182 597.527 299.425 597.527 299.643C597.527 299.873 597.601 300.116 597.774 300.37C598.563 302.091 599.316 303.837 600.044 305.606C600.76 307.352 601.5 309.097 602.265 310.842C603.672 314.236 605.079 317.654 606.461 321.072C607.843 324.466 609.336 327.762 610.953 330.962C612.496 327.799 613.89 324.514 615.149 321.12C616.432 317.727 617.679 314.333 618.9 310.939C619.813 308.515 620.727 306.14 621.615 303.812C622.528 301.485 623.54 299.243 624.626 297.074C625.478 296.783 626.527 296.613 627.785 296.54C629.069 296.443 630.327 296.468 631.586 296.589C632.833 296.722 633.881 297.025 634.745 297.51C635.634 297.97 636.103 298.625 636.177 299.498C636.004 299.861 635.683 300.079 635.19 300.176C634.721 300.273 634.215 300.322 633.659 300.322C633.289 300.322 632.919 300.358 632.524 300.419C632.154 300.455 631.833 300.54 631.537 300.661C631.5 302.346 631.463 304.043 631.438 305.752C631.401 307.436 631.413 309.17 631.487 310.939C631.487 312.079 631.5 313.242 631.537 314.43C631.598 315.593 631.636 316.757 631.636 317.921C631.697 321.193 631.747 324.453 631.784 327.714C631.845 330.95 631.796 334.089 631.636 337.119C631.993 337.64 632.499 337.992 633.166 338.186C633.857 338.355 634.548 338.525 635.239 338.719C635.955 338.889 636.522 339.228 636.917 339.737Z" fill="black"/>
<path d="M681.418 340.804L680.924 341.289C678.555 341.458 676.148 341.555 673.717 341.579C671.311 341.616 668.892 341.604 666.461 341.531C663.759 341.531 661.093 341.555 658.465 341.579C655.824 341.616 653.282 341.761 650.814 342.016C650.049 341.531 649.703 341.046 649.777 340.561C649.876 340.077 650.024 339.628 650.221 339.204C650.443 338.792 650.567 338.513 650.567 338.38C650.863 338.186 651.209 338.089 651.603 338.089C651.998 338.089 652.406 338.089 652.838 338.089C653.06 338.089 653.306 338.113 653.578 338.137C653.837 338.137 654.084 338.125 654.318 338.089C654.54 334.731 654.664 331.18 654.664 327.423C654.664 323.678 654.639 320.029 654.615 316.466C654.615 315.496 654.59 314.563 654.565 313.654C654.528 312.721 654.516 311.788 654.516 310.842C654.479 309.097 654.466 307.449 654.466 305.897C654.491 304.321 654.54 302.831 654.615 301.437C654.281 301.34 653.936 301.291 653.578 301.291C653.208 301.267 652.862 301.243 652.541 301.243C651.949 301.243 651.369 301.182 650.814 301.049C650.283 300.928 649.826 300.613 649.432 300.128C649.493 299.97 649.543 299.776 649.58 299.546C649.678 299.001 649.826 298.467 650.024 297.946C650.246 297.401 650.69 297.158 651.357 297.219C653.134 297.255 655.108 297.304 657.28 297.364C659.477 297.437 661.673 297.461 663.845 297.461C666.017 297.461 667.868 297.461 669.423 297.461C669.978 297.461 670.534 297.449 671.101 297.413C671.657 297.389 672.212 297.34 672.78 297.267C674.384 297.146 675.951 297.074 677.469 297.074C678.974 297.074 680.295 297.461 681.418 298.237C681.344 298.698 681.331 299.243 681.368 299.885C681.393 300.504 681.418 301.146 681.418 301.825C681.517 303.122 681.541 304.443 681.517 305.8C681.48 307.133 681.282 308.2 680.924 309C680.06 309.17 679.443 309.048 679.048 308.661C678.654 308.273 678.382 307.739 678.259 307.061C678.061 306.127 677.925 305.073 677.864 303.909C677.79 302.722 677.543 301.825 677.123 301.243C676.531 301.243 675.889 301.243 675.198 301.243C674.532 301.243 673.828 301.219 673.076 301.146C670.83 301.146 668.448 301.146 665.918 301.146C663.413 301.146 661.389 301.243 659.847 301.437C659.872 302.019 659.896 302.782 659.896 303.715C659.896 304.661 659.872 305.691 659.847 306.818C659.847 307.473 659.847 308.127 659.847 308.806C659.847 309.485 659.847 310.163 659.847 310.842C659.847 311.982 659.872 313.097 659.946 314.187C660.007 315.29 660.094 316.357 660.192 317.387C661.994 317.193 663.87 317.084 665.82 317.048C667.794 316.987 669.719 316.902 671.595 316.805C672.212 316.551 672.656 316.127 672.928 315.545C673.224 314.963 673.483 314.333 673.717 313.654C673.94 312.975 674.26 312.418 674.655 311.957C674.976 311.763 675.26 311.715 675.494 311.812C675.717 311.885 675.963 311.982 676.235 312.103C676.334 312.139 676.445 312.2 676.58 312.297C676.741 312.369 676.926 312.418 677.123 312.442C676.827 313.484 676.642 314.648 676.58 315.933C676.543 317.23 676.556 318.539 676.63 319.86C676.63 320.963 676.593 322.041 676.531 323.108C676.494 324.175 676.395 325.096 676.235 325.871C675.174 325.968 674.483 325.714 674.162 325.096C673.828 324.49 673.569 323.775 673.372 322.963C673.273 322.647 673.174 322.32 673.076 321.993C672.977 321.678 672.854 321.387 672.73 321.12C670.558 320.805 668.288 320.623 665.918 320.587C663.574 320.526 661.55 320.878 659.847 321.654C659.909 324.211 659.958 326.817 659.995 329.459C660.057 332.113 660.007 334.889 659.847 337.798C661.55 337.895 663.45 337.98 665.523 338.04C667.597 338.077 669.67 338.016 671.743 337.846C673.816 337.689 675.692 337.398 677.37 336.974C677.888 336.101 678.259 335.107 678.456 333.968C678.654 332.841 678.913 331.774 679.246 330.768C679.604 329.738 680.258 329.023 681.22 328.635C681.911 330.029 682.22 331.58 682.158 333.289C682.084 334.974 681.936 336.537 681.714 337.992C681.64 338.513 681.578 339.01 681.517 339.495C681.443 339.955 681.418 340.392 681.418 340.804Z" fill="black"/>
</svg>
