<svg width="1045" height="493" viewBox="0 0 1045 493" fill="none" xmlns="http://www.w3.org/2000/svg">
<path d="M209.635 288C210.391 283.925 211.049 279.537 211.599 274.835C212.149 270.133 213.062 265.666 214.349 261.434C215.655 257.183 217.551 253.715 220.045 251.051C222.56 248.367 226.115 247.015 230.731 247.015C236.094 247.015 241.103 249.327 245.739 253.951C250.374 258.555 252.692 264.275 252.692 271.112C251.926 274.982 250.856 278.988 249.471 283.142C248.076 287.295 247.389 291.507 247.389 295.758C247.389 297.042 247.84 298.374 248.764 299.755C249.707 301.146 251.101 301.832 252.967 301.832C255.56 301.832 257.917 300.225 260.039 297.012C262.16 293.78 264.134 289.803 265.971 285.101C267.827 280.399 269.782 275.736 271.825 271.112C273.868 266.489 276.274 262.571 279.053 259.358C281.823 256.125 285.064 254.499 288.757 254.499C291.35 254.499 294.257 255.381 297.479 257.124C300.72 258.878 303.499 261.317 305.807 264.451C308.135 267.586 309.304 271.289 309.304 275.54C309.304 277.009 309.029 278.302 308.479 279.419C305.699 286.609 302.448 294.171 298.736 302.106C295.043 310.05 290.741 317.534 285.85 324.557C280.949 331.561 275.4 337.282 269.192 341.719C262.985 346.137 255.992 348.341 248.214 348.341C239.148 348.341 231.753 345.99 226.017 341.288C220.281 336.586 216.117 330.827 213.524 324.009C210.931 317.172 209.635 310.608 209.635 304.339C209.635 301.753 209.762 299.079 210.028 296.307C210.312 293.544 210.558 290.772 210.774 288C210.774 288 210.666 288 210.46 288C210.273 288 209.998 288 209.635 288Z" fill="black"/>
<path d="M418.38 153.722C425.236 153.908 432.228 155.348 439.359 158.032C446.48 160.696 453.04 164.252 459.041 168.689C465.062 173.107 469.924 178.319 473.616 184.323C477.329 190.308 479.195 196.901 479.195 204.11C479.195 210.752 477.624 217.432 474.481 224.172C471.338 230.911 467.39 237.327 462.656 243.41C457.941 249.503 453.276 255.038 448.67 260.024C445.311 263.531 443.641 266.861 443.641 270.015C443.641 272.396 445.173 275.442 448.238 279.145C451.302 282.828 455.044 286.805 459.473 291.056C463.923 295.288 468.362 299.579 472.791 303.908C477.241 308.248 480.983 312.362 484.027 316.251C487.092 320.12 488.624 323.617 488.624 326.752C488.624 330.827 486.443 334.108 482.102 336.586C477.751 339.075 472.202 341.092 465.445 342.66C458.688 344.227 451.832 345.52 444.898 346.539C437.954 347.558 431.796 348.537 426.434 349.477C421.268 350.398 416.003 351.035 410.641 351.397C405.268 351.76 399.808 352.69 394.258 354.179C392.942 354.356 391.724 354.581 390.605 354.845C389.505 355.13 388.405 355.276 387.305 355.276C386.382 355.276 384.574 354.493 381.883 352.926C379.212 351.358 376.707 349.38 374.38 346.97C372.072 344.57 370.922 342.17 370.922 339.76C370.922 336.626 372.121 333.961 374.537 331.767C376.943 329.553 379.998 327.692 383.69 326.203C387.403 324.714 391.115 323.607 394.808 322.873C398.501 322.148 401.546 321.775 403.962 321.775C405.818 321.775 407.714 322.011 409.659 322.481C411.593 322.931 413.489 323.147 415.355 323.147C419.225 323.147 423.016 322.148 426.709 320.13C430.421 318.092 432.287 315.781 432.287 313.194C432.287 311.157 431.305 309.041 429.341 306.847C427.396 304.633 425.078 302.458 422.387 300.343C419.716 298.207 417.26 296.493 415.041 295.21C412.841 293.907 411.368 293.251 410.641 293.251C408.598 293.251 406.83 294.328 405.337 296.464C403.864 298.579 402.351 300.989 400.78 303.673C399.208 306.338 397.303 308.728 395.083 310.844C392.854 312.959 389.986 314.017 386.48 314.017C379.614 314.017 374.34 311.725 370.647 307.121C366.954 302.498 364.322 296.405 362.751 288.823C361.179 281.251 360.158 272.993 359.687 264.06C359.215 255.106 358.704 246.192 358.154 237.337C357.604 228.482 356.396 220.636 354.54 213.789C353.253 208.803 352.006 203.268 350.808 197.175C349.6 191.092 349.001 186.39 349.001 183.069C349.001 177.349 351.397 172.647 356.19 168.964C361.003 165.261 367.072 162.342 374.38 160.226C381.706 158.11 389.308 156.543 397.166 155.524C405.023 154.505 412.094 153.908 418.38 153.722ZM440.616 206.579C440.616 206.03 440.616 205.482 440.616 204.933C440.616 204.385 440.616 203.934 440.616 203.562C440.616 196.176 438.112 191.092 433.112 188.32C428.103 185.558 421.533 184.167 413.391 184.167C406.918 184.167 401.369 185.244 396.733 187.38C392.117 189.495 389.819 192.219 389.819 195.529C391.832 199.947 393.207 205.394 393.944 211.869C394.7 218.324 395.358 224.74 395.908 231.107C396.458 237.484 397.333 242.842 398.541 247.172C399.739 251.511 401.821 253.676 404.787 253.676C406.28 253.676 408.136 253.118 410.366 251.991C418.694 246.643 425.118 240.002 429.655 232.087C434.183 224.152 437.837 215.65 440.616 206.579Z" fill="black"/>
<path d="M574.697 252.266C574.697 262.982 574.225 273.689 573.282 284.395C572.359 295.112 571.907 305.907 571.907 316.799C571.907 321.971 572.359 327.094 573.282 332.159C574.225 337.233 574.697 342.258 574.697 347.244C574.697 350.565 573.675 353.925 571.632 357.353C569.589 360.772 567.085 363.671 564.129 366.052C561.162 368.452 558.206 369.656 555.25 369.656C552.47 369.656 549.514 368.452 546.371 366.052C543.228 363.671 540.449 360.684 538.043 357.079C535.626 353.474 534.153 349.742 533.603 345.873C531.924 330.905 531.089 315.957 531.089 301.009C531.089 282.182 531.639 262.796 532.739 242.862C533.859 222.938 535.076 203.464 536.393 184.441C536.943 174.861 538.553 168.131 541.225 164.262C543.916 160.373 548.414 158.424 554.7 158.424C561.536 158.424 567.075 160.833 571.318 165.633C575.58 170.413 577.722 176.683 577.722 184.441C577.722 194.609 577.172 204.581 576.072 214.376C574.972 224.152 574.422 233.919 574.422 243.685C574.422 244.997 574.422 246.388 574.422 247.877C574.422 249.347 574.51 250.806 574.697 252.266Z" fill="black"/>
<path d="M664.892 276.089C670.628 276.089 675.755 277.715 680.292 280.947C684.849 284.16 688.513 288.353 691.292 293.525C694.062 298.697 695.457 304.143 695.457 309.864C695.241 316.319 693.335 322.275 689.721 327.731C686.126 333.168 681.471 337.556 675.735 340.897C669.999 344.217 663.694 345.873 656.838 345.873C646.486 345.873 638.256 343.071 632.127 337.448C626.018 331.806 622.974 324.832 622.974 316.525C622.974 301.743 626.441 291.311 633.384 285.218C640.318 279.135 650.827 276.089 664.892 276.089Z" fill="black"/>
<path d="M845.07 376.866C843.754 392.382 840.277 406.684 834.62 419.771C828.982 432.877 820.438 444.319 808.966 454.095C806.55 455.946 803.996 457.386 801.305 458.405C798.634 459.424 796.286 459.933 794.273 459.933C790.364 459.933 786.612 458.366 782.998 455.231C779.403 452.096 777.616 447.943 777.616 442.771C777.616 440.185 778.254 437.912 779.541 435.953C780.847 434.014 782.33 432.133 783.98 430.311C788.793 425.315 792.908 419.085 796.316 411.621C799.744 404.147 802.425 396.575 804.37 388.895C806.334 381.235 807.316 374.731 807.316 369.382C807.316 365.513 807.021 360.85 806.452 355.394C805.902 349.967 804.969 344.717 803.662 339.643C802.376 334.549 800.716 330.307 798.673 326.908C796.65 323.49 794.165 321.775 791.209 321.775C789.343 321.775 786.976 322.471 784.098 323.852C781.24 325.243 778.097 326.624 774.669 328.005C771.261 329.396 767.804 330.082 764.298 330.082C760.762 330.082 757.148 329.063 753.455 327.026C749.762 324.988 746.707 322.089 744.301 318.327C741.885 314.546 740.687 310.06 740.687 304.888C740.687 300.636 742.022 296.297 744.694 291.879C747.385 287.442 750.911 283.71 755.262 280.673C759.603 277.617 764.19 276.089 769.012 276.089C770.475 276.089 771.939 276.236 773.412 276.52C774.905 276.784 776.3 276.911 777.616 276.911C781.859 276.911 785.826 276.04 789.519 274.286C793.232 272.543 796.944 269.917 800.637 266.411C802.857 264.373 805.912 263.354 809.791 263.354C813.327 263.354 816.794 264.197 820.202 265.862C823.63 267.508 826.497 269.77 828.806 272.641C831.133 275.491 832.302 278.773 832.302 282.475C832.302 291.879 833.304 301.009 835.327 309.864C837.37 318.719 839.413 327.535 841.456 336.312C843.499 345.089 844.52 354.081 844.52 363.309C844.52 365.709 844.461 368.06 844.363 370.362C844.284 372.654 844.52 374.829 845.07 376.866Z" fill="black"/>
<path d="M890.298 328.436C890.848 323.637 892.36 319.15 894.855 314.997C897.369 310.844 900.375 307.435 903.891 304.77C907.426 302.086 910.943 300.734 914.459 300.734C916.678 300.734 919.134 301.753 921.805 303.791C924.496 305.809 927.089 308.395 929.584 311.549C932.098 314.683 934.141 317.877 935.712 321.109C937.284 324.322 938.07 327.046 938.07 329.259C937.304 333.129 935.487 336.773 932.609 340.191C929.751 343.62 926.284 346.343 922.198 348.38C918.132 350.398 913.987 351.397 909.744 351.397C902.879 351.397 897.919 349.233 894.855 344.893C891.81 340.563 890.298 335.078 890.298 328.436Z" fill="black"/>
<path d="M322.287 425.117L321.894 425.509C320.008 425.646 318.093 425.725 316.158 425.744C314.243 425.774 312.318 425.764 310.383 425.705C308.232 425.705 306.111 425.725 304.019 425.744C301.917 425.774 299.894 425.891 297.93 426.097C297.321 425.705 297.046 425.313 297.105 424.921C297.183 424.529 297.301 424.167 297.458 423.824C297.635 423.491 297.733 423.266 297.733 423.158C297.969 423.001 298.244 422.923 298.558 422.923C298.872 422.923 299.197 422.923 299.54 422.923C299.717 422.923 299.913 422.943 300.13 422.962C300.336 422.962 300.532 422.952 300.719 422.923C300.896 420.21 300.994 417.339 300.994 414.303C300.994 411.276 300.974 408.328 300.955 405.448C300.955 404.664 300.935 403.91 300.915 403.175C300.886 402.421 300.876 401.666 300.876 400.902C300.847 399.492 300.837 398.16 300.837 396.906C300.856 395.632 300.896 394.428 300.955 393.301C300.689 393.223 300.414 393.183 300.13 393.183C299.835 393.164 299.56 393.144 299.305 393.144C298.833 393.144 298.372 393.095 297.93 392.988C297.507 392.89 297.144 392.635 296.83 392.243C296.879 392.116 296.918 391.959 296.947 391.773C297.026 391.332 297.144 390.901 297.301 390.48C297.478 390.039 297.831 389.843 298.362 389.892C299.776 389.922 301.347 389.961 303.076 390.01C304.824 390.068 306.573 390.088 308.301 390.088C310.03 390.088 311.503 390.088 312.74 390.088C313.182 390.088 313.624 390.078 314.076 390.049C314.518 390.029 314.96 389.99 315.412 389.931C316.689 389.833 317.936 389.775 319.144 389.775C320.342 389.775 321.393 390.088 322.287 390.715C322.228 391.087 322.218 391.528 322.248 392.047C322.267 392.547 322.287 393.066 322.287 393.614C322.366 394.663 322.385 395.73 322.366 396.827C322.336 397.905 322.179 398.767 321.894 399.413C321.207 399.551 320.716 399.453 320.401 399.139C320.087 398.826 319.871 398.395 319.773 397.846C319.616 397.092 319.507 396.24 319.458 395.299C319.399 394.339 319.203 393.614 318.869 393.144C318.398 393.144 317.887 393.144 317.337 393.144C316.807 393.144 316.247 393.125 315.648 393.066C313.86 393.066 311.965 393.066 309.951 393.066C307.957 393.066 306.347 393.144 305.119 393.301C305.139 393.771 305.158 394.388 305.158 395.143C305.158 395.907 305.139 396.739 305.119 397.65C305.119 398.179 305.119 398.708 305.119 399.257C305.119 399.805 305.119 400.354 305.119 400.902C305.119 401.823 305.139 402.724 305.197 403.606C305.247 404.497 305.315 405.359 305.394 406.192C306.828 406.035 308.321 405.947 309.873 405.918C311.444 405.869 312.976 405.8 314.469 405.722C314.96 405.516 315.314 405.173 315.53 404.703C315.765 404.233 315.972 403.724 316.158 403.175C316.335 402.626 316.59 402.176 316.905 401.804C317.16 401.647 317.386 401.608 317.573 401.686C317.749 401.745 317.946 401.823 318.162 401.921C318.24 401.951 318.329 402 318.437 402.078C318.565 402.137 318.712 402.176 318.869 402.195C318.633 403.038 318.486 403.978 318.437 405.017C318.407 406.065 318.417 407.123 318.476 408.19C318.476 409.082 318.447 409.954 318.398 410.816C318.368 411.678 318.29 412.422 318.162 413.049C317.317 413.127 316.767 412.922 316.512 412.422C316.247 411.932 316.04 411.354 315.883 410.698C315.805 410.443 315.726 410.179 315.648 409.914C315.569 409.66 315.471 409.425 315.373 409.209C313.644 408.954 311.837 408.807 309.951 408.778C308.085 408.729 306.474 409.013 305.119 409.64C305.168 411.707 305.207 413.813 305.237 415.949C305.286 418.094 305.247 420.337 305.119 422.688C306.474 422.766 307.987 422.835 309.637 422.884C311.287 422.913 312.937 422.864 314.587 422.727C316.237 422.6 317.73 422.365 319.066 422.022C319.478 421.317 319.773 420.513 319.93 419.592C320.087 418.681 320.293 417.819 320.558 417.006C320.843 416.174 321.364 415.596 322.13 415.282C322.68 416.409 322.925 417.663 322.876 419.044C322.817 420.406 322.699 421.669 322.523 422.845C322.464 423.266 322.415 423.667 322.366 424.059C322.307 424.432 322.287 424.784 322.287 425.117Z" fill="black"/>
<path d="M367.989 391.185C367.145 391.998 366.192 392.704 365.121 393.301C364.071 393.908 363.167 394.663 362.411 395.574C362.195 396.514 361.979 397.445 361.743 398.356C361.507 399.247 361.252 400.119 360.996 400.981C359.837 404.977 358.541 408.847 357.107 412.579C355.663 416.291 354.367 420.239 353.218 424.412C352.825 424.804 352.511 425.235 352.275 425.705C352.039 426.156 351.744 426.577 351.411 426.998C350.988 427.233 350.595 427.311 350.232 427.233C349.859 427.155 349.505 427.057 349.171 426.959C348.857 426.88 348.641 426.812 348.543 426.763C346.942 422.796 345.478 418.574 344.143 414.107C342.807 409.621 341.432 405.213 340.018 400.902C339.517 399.414 339.006 397.964 338.485 396.553C337.955 395.123 337.395 393.722 336.796 392.361C336.482 392.233 336.148 392.194 335.814 392.243C335.5 392.272 335.195 392.312 334.91 392.361C334.567 392.419 334.242 392.459 333.928 392.478C333.634 392.508 333.349 392.468 333.064 392.361C332.799 391.949 332.72 391.577 332.828 391.264C332.926 390.95 333.064 390.637 333.221 390.323C333.3 390.225 333.359 390.127 333.417 390.049C333.467 389.951 333.516 389.833 333.575 389.696C334.301 389.755 335.038 389.765 335.775 389.735C336.531 389.686 337.287 389.647 338.053 389.618C338.603 389.54 339.163 389.491 339.743 389.461C340.342 389.442 340.902 389.422 341.432 389.422C342.424 389.481 343.357 389.637 344.221 389.892C345.105 390.157 345.881 390.676 346.539 391.459C345.852 391.802 345.095 392.116 344.26 392.4C343.416 392.694 342.738 392.87 342.218 392.948C342.502 394.261 342.817 395.574 343.16 396.906C343.524 398.238 343.917 399.57 344.339 400.902C345.36 404.174 346.46 407.446 347.639 410.737C348.837 414.009 349.849 417.3 350.664 420.611C351.97 417.477 353.296 414.303 354.632 411.09C355.968 407.857 357.156 404.488 358.207 400.981C358.963 398.473 359.582 395.926 360.054 393.34C359.788 392.948 359.395 392.674 358.875 392.517C358.345 392.341 357.795 392.165 357.225 392.008C356.675 391.851 356.213 391.636 355.85 391.342C355.928 390.774 356.282 390.353 356.911 390.088C357.539 389.804 358.325 389.618 359.268 389.54C360.211 389.461 361.173 389.451 362.175 389.5C363.167 389.53 364.061 389.579 364.846 389.657C365.495 389.735 366.113 389.922 366.693 390.206C367.292 390.47 367.724 390.793 367.989 391.185Z" fill="black"/>
<path d="M403.119 425.117L402.726 425.509C400.841 425.646 398.925 425.725 396.991 425.744C395.075 425.774 393.15 425.764 391.215 425.705C389.065 425.705 386.943 425.725 384.851 425.744C382.749 425.774 380.726 425.891 378.762 426.097C378.153 425.705 377.878 425.313 377.937 424.921C378.015 424.529 378.133 424.167 378.29 423.824C378.467 423.491 378.565 423.266 378.565 423.158C378.801 423.001 379.076 422.923 379.39 422.923C379.705 422.923 380.029 422.923 380.372 422.923C380.549 422.923 380.746 422.943 380.962 422.962C381.168 422.962 381.364 422.952 381.551 422.923C381.728 420.21 381.826 417.339 381.826 414.303C381.826 411.276 381.806 408.328 381.787 405.448C381.787 404.664 381.767 403.91 381.748 403.175C381.718 402.421 381.708 401.666 381.708 400.902C381.679 399.492 381.669 398.16 381.669 396.906C381.689 395.632 381.728 394.428 381.787 393.301C381.522 393.223 381.247 393.183 380.962 393.183C380.667 393.164 380.392 393.144 380.137 393.144C379.665 393.144 379.204 393.095 378.762 392.988C378.339 392.89 377.976 392.635 377.662 392.243C377.711 392.116 377.75 391.959 377.78 391.773C377.858 391.332 377.976 390.901 378.133 390.48C378.31 390.039 378.664 389.843 379.194 389.892C380.608 389.922 382.18 389.961 383.908 390.01C385.656 390.068 387.405 390.088 389.133 390.088C390.862 390.088 392.335 390.088 393.573 390.088C394.015 390.088 394.457 390.078 394.908 390.049C395.35 390.029 395.792 389.99 396.244 389.931C397.521 389.833 398.768 389.775 399.976 389.775C401.175 389.775 402.225 390.088 403.119 390.715C403.06 391.087 403.05 391.528 403.08 392.047C403.1 392.547 403.119 393.066 403.119 393.614C403.198 394.663 403.217 395.73 403.198 396.827C403.168 397.905 403.011 398.767 402.726 399.413C402.039 399.551 401.548 399.453 401.233 399.139C400.919 398.826 400.703 398.395 400.605 397.846C400.448 397.092 400.34 396.24 400.291 395.299C400.232 394.339 400.035 393.614 399.701 393.144C399.23 393.144 398.719 393.144 398.169 393.144C397.639 393.144 397.079 393.125 396.48 393.066C394.692 393.066 392.797 393.066 390.783 393.066C388.79 393.066 387.179 393.144 385.951 393.301C385.971 393.771 385.99 394.388 385.99 395.143C385.99 395.907 385.971 396.739 385.951 397.65C385.951 398.179 385.951 398.708 385.951 399.257C385.951 399.805 385.951 400.354 385.951 400.902C385.951 401.823 385.971 402.724 386.03 403.606C386.079 404.497 386.148 405.359 386.226 406.192C387.66 406.035 389.153 405.947 390.705 405.918C392.276 405.869 393.808 405.8 395.301 405.722C395.792 405.516 396.146 405.173 396.362 404.703C396.598 404.233 396.804 403.724 396.991 403.175C397.167 402.626 397.423 402.176 397.737 401.804C397.992 401.647 398.218 401.608 398.405 401.686C398.582 401.745 398.778 401.823 398.994 401.921C399.073 401.951 399.161 402 399.269 402.078C399.397 402.137 399.544 402.176 399.701 402.195C399.466 403.038 399.318 403.978 399.269 405.017C399.24 406.065 399.249 407.123 399.308 408.19C399.308 409.082 399.279 409.954 399.23 410.816C399.2 411.678 399.122 412.422 398.994 413.049C398.149 413.127 397.599 412.922 397.344 412.422C397.079 411.932 396.873 411.354 396.716 410.698C396.637 410.443 396.558 410.179 396.48 409.914C396.401 409.66 396.303 409.425 396.205 409.209C394.476 408.954 392.669 408.807 390.783 408.778C388.917 408.729 387.306 409.013 385.951 409.64C386 411.707 386.04 413.813 386.069 415.949C386.118 418.094 386.079 420.337 385.951 422.688C387.306 422.766 388.819 422.835 390.469 422.884C392.119 422.913 393.769 422.864 395.419 422.727C397.069 422.6 398.562 422.365 399.898 422.022C400.31 421.317 400.605 420.513 400.762 419.592C400.919 418.681 401.125 417.819 401.391 417.006C401.675 416.174 402.196 415.596 402.962 415.282C403.512 416.409 403.758 417.663 403.708 419.044C403.65 420.406 403.532 421.669 403.355 422.845C403.296 423.266 403.247 423.667 403.198 424.059C403.139 424.432 403.119 424.784 403.119 425.117Z" fill="black"/>
<path d="M446.464 425.901C445.207 426.214 444.038 426.312 442.968 426.175C441.917 426.048 440.856 425.852 439.786 425.587C439.02 424.706 438.381 423.618 437.861 422.335C437.33 421.062 436.849 419.7 436.407 418.26C435.955 416.801 435.435 415.439 434.836 414.185C434.227 412.882 433.51 411.795 432.675 410.933C431.83 410.071 430.73 409.552 429.375 409.366C428.825 409.287 428.245 409.248 427.646 409.248C427.037 409.248 426.468 409.278 425.918 409.327C425.446 409.356 425.024 409.366 424.661 409.366C424.287 409.366 423.953 409.356 423.639 409.327C423.58 410.326 423.561 411.325 423.561 412.344C423.58 413.343 423.639 414.342 423.718 415.361C423.737 416.487 423.767 417.624 423.796 418.77C423.845 419.896 423.796 421.023 423.639 422.139C423.894 422.688 424.346 423.06 424.975 423.236C425.623 423.393 426.281 423.569 426.939 423.746C427.587 423.903 428.059 424.236 428.353 424.725C427.902 425.303 427.155 425.656 426.114 425.783C425.063 425.92 423.953 425.979 422.775 425.979C422.461 425.979 422.127 425.979 421.793 425.979C421.449 425.979 421.135 425.979 420.85 425.979C419.828 425.96 418.886 425.96 418.021 425.979C417.177 425.979 416.499 426.087 415.978 426.293C415.664 425.509 415.644 424.921 415.939 424.529C416.253 424.138 416.656 423.814 417.157 423.55C417.628 423.295 418.11 423.041 418.61 422.805C419.131 422.57 419.485 422.237 419.671 421.787C419.593 418.104 419.524 414.597 419.475 411.247C419.416 407.877 419.357 404.429 419.278 400.902L419.121 392.674C418.807 392.576 418.493 392.517 418.178 392.517C417.864 392.517 417.55 392.517 417.235 392.517C416.862 392.547 416.499 392.557 416.135 392.557C415.792 392.537 415.477 392.39 415.193 392.126C415.212 391.949 415.202 391.802 415.153 391.695C415.094 391.567 415.035 391.45 414.957 391.342C414.898 391.244 414.859 391.126 414.839 390.989C414.81 390.862 414.819 390.715 414.878 390.558C415.635 390.147 416.489 389.912 417.432 389.853C418.394 389.804 419.406 389.794 420.457 389.814C420.869 389.814 421.282 389.814 421.675 389.814C422.087 389.814 422.51 389.804 422.932 389.775C425.053 389.618 427.136 389.559 429.178 389.579C431.221 389.608 433.107 389.804 434.836 390.166C436.584 390.509 438.067 391.136 439.275 392.047C440.267 392.831 441.023 393.869 441.554 395.143C442.074 396.426 442.241 398.042 442.064 400.001C442.035 400.158 441.966 400.315 441.868 400.471C441.789 400.628 441.711 400.804 441.632 400.981C441.396 401.431 441.18 401.882 441.004 402.352C440.817 402.822 440.67 403.322 440.571 403.841C439.707 404.155 438.971 404.625 438.371 405.252C437.763 405.879 437.124 406.457 436.446 406.976C435.759 407.505 434.875 407.818 433.775 407.916C435.346 408.856 436.643 410.091 437.664 411.599C438.686 413.088 439.57 414.724 440.336 416.497C441.121 418.25 441.878 420.014 442.614 421.787C442.821 421.924 443.027 422.041 443.243 422.139C443.479 422.218 443.695 422.316 443.911 422.414C444.667 422.707 445.364 423.08 445.993 423.55C446.622 424.02 446.779 424.804 446.464 425.901ZM436.957 398.787C436.957 397.925 436.82 397.043 436.564 396.122C436.299 395.182 435.896 394.241 435.346 393.301C433.981 392.596 432.557 392.204 431.064 392.126C429.591 392.047 428.01 392.028 426.311 392.047C425.918 392.047 425.535 392.067 425.171 392.086C424.798 392.116 424.405 392.126 423.993 392.126C423.649 392.468 423.482 392.939 423.482 393.536C423.482 394.114 423.502 394.741 423.561 395.417C423.58 395.681 423.6 395.946 423.6 396.201C423.619 396.465 423.639 396.729 423.639 396.984C423.639 397.591 423.619 398.228 423.6 398.904C423.57 399.59 423.531 400.256 423.482 400.902C423.453 401.872 423.443 402.881 423.443 403.919C423.443 404.938 423.502 405.957 423.639 406.976C425.446 407.27 427.303 407.27 429.218 406.976C431.123 406.662 432.675 406.035 433.854 405.095C435.287 403.998 436.23 402.626 436.682 400.981C436.859 400.227 436.957 399.492 436.957 398.787Z" fill="black"/>
<path d="M484.618 391.499C484.196 392.028 483.96 392.664 483.911 393.418C483.882 394.153 483.911 394.907 483.99 395.691C483.99 395.769 484.01 395.907 484.068 396.083C484.147 396.945 484.167 397.807 484.147 398.669C484.118 399.511 483.843 400.197 483.322 400.746C482.615 400.667 482.104 400.393 481.79 399.923C481.476 399.433 481.24 398.845 481.083 398.16C480.926 397.376 480.788 396.553 480.69 395.691C480.611 394.809 480.425 394.065 480.14 393.458C478.902 393.125 477.4 392.909 475.622 392.831C473.834 392.733 472.263 392.733 470.908 392.831C470.908 394.143 470.908 395.476 470.908 396.827C470.908 398.16 470.888 399.521 470.868 400.902C470.868 401.608 470.849 402.313 470.829 403.018C470.8 403.704 470.79 404.39 470.79 405.095C470.76 408.024 470.75 410.953 470.75 413.872C470.75 416.801 470.8 419.69 470.908 422.531C471.32 422.874 471.831 423.109 472.44 423.236C473.068 423.374 473.658 423.54 474.208 423.746C474.777 423.932 475.16 424.324 475.347 424.921C475.16 425.421 474.699 425.764 473.972 425.94C473.235 426.097 472.381 426.175 471.418 426.175C470.446 426.175 469.474 426.136 468.511 426.058C468.01 426.058 467.539 426.048 467.097 426.018C466.645 425.999 466.242 425.979 465.879 425.979C465.692 425.979 465.496 425.999 465.29 426.018C465.103 426.048 464.907 426.058 464.7 426.058C463.993 426.136 463.306 426.136 462.658 426.058C462.029 425.979 461.695 425.548 461.675 424.764C461.675 424.48 461.774 424.206 461.99 423.942C462.225 423.687 462.402 423.422 462.54 423.158C463.188 423.422 463.924 423.334 464.74 422.884C465.575 422.414 466.154 421.855 466.468 421.199C466.439 419.22 466.429 417.261 466.429 415.322C466.429 413.362 466.429 411.433 466.429 409.522C466.429 408.092 466.429 406.662 466.429 405.252C466.429 403.821 466.429 402.372 466.429 400.902C466.429 398.267 466.37 395.574 466.272 392.831C464.828 392.576 463.335 392.547 461.793 392.752C460.241 392.939 458.866 393.125 457.668 393.301C457.482 393.33 457.315 393.36 457.157 393.379C457 393.409 456.853 393.438 456.725 393.458C456.647 393.879 456.578 394.31 456.529 394.751C456.47 395.201 456.45 395.642 456.45 396.083C456.372 397.053 456.254 397.964 456.097 398.826C455.94 399.688 455.547 400.334 454.918 400.746C454.545 400.775 454.26 400.726 454.054 400.589C453.867 400.462 453.681 400.305 453.504 400.119C453.425 400.04 453.327 399.982 453.229 399.923C453.15 399.844 453.052 399.766 452.954 399.688C453.19 398.15 453.307 396.534 453.307 394.829C453.307 393.134 453.543 391.675 454.015 390.441C455.822 390.108 457.835 389.931 460.065 389.931C462.314 389.912 464.514 389.912 466.665 389.931C467.313 389.99 467.961 390.01 468.59 390.01C469.238 390.01 469.867 390.01 470.475 390.01C471.104 390.01 471.742 390 472.4 389.97C473.049 389.921 473.697 389.872 474.326 389.814C476.368 389.716 478.303 389.696 480.14 389.775C481.967 389.853 483.46 390.431 484.618 391.499Z" fill="black"/>
<path d="M528.065 424.255C527.908 424.941 527.525 425.391 526.926 425.627C526.346 425.862 525.629 426.009 524.765 426.058C524.343 426.058 523.92 426.048 523.508 426.018C523.115 425.999 522.702 425.979 522.29 425.979C521.426 425.93 520.64 425.92 519.933 425.94C519.245 425.94 518.774 426.077 518.518 426.332C518.224 426.351 517.821 426.283 517.301 426.097C516.8 425.891 516.436 425.548 516.201 425.078C515.965 424.588 516.043 423.971 516.436 423.236C516.927 423.031 517.497 422.884 518.126 422.805C518.754 422.707 519.314 422.561 519.815 422.374C519.815 421.258 519.795 420.092 519.776 418.887C519.776 417.692 519.776 416.517 519.776 415.361C519.717 414.087 519.677 412.882 519.658 411.756C519.658 410.61 519.668 409.562 519.697 408.621C517.389 408.337 515.061 408.22 512.704 408.269C510.367 408.298 508.117 408.347 505.947 408.425C505.132 408.425 504.336 408.455 503.55 408.504C502.784 408.533 502.028 408.543 501.272 408.543C501.272 409.621 501.282 410.639 501.311 411.599C501.331 412.569 501.35 413.509 501.35 414.42C501.37 415.596 501.399 416.801 501.429 418.025C501.449 419.23 501.439 420.562 501.39 422.022C501.704 422.443 502.116 422.766 502.647 423.001C503.167 423.217 503.688 423.432 504.218 423.667C504.739 423.883 505.132 424.206 505.397 424.647C505.24 425.254 504.935 425.646 504.493 425.822C504.071 426.009 503.55 426.087 502.922 426.058C502.686 426.058 502.431 426.048 502.175 426.018C501.91 425.999 501.645 425.969 501.39 425.94C500.938 425.92 500.466 425.891 499.975 425.862C499.474 425.813 498.964 425.783 498.443 425.783C498.178 425.783 497.913 425.813 497.657 425.862C497.422 425.92 497.186 425.979 496.95 426.058C496.734 426.136 496.528 426.205 496.322 426.254C496.106 426.283 495.929 426.273 495.772 426.214C495.163 426.116 494.652 425.783 494.24 425.235C493.817 424.667 493.709 424.128 493.925 423.628C494.102 423.236 494.407 423.001 494.829 422.923C495.241 422.825 495.693 422.727 496.165 422.649C496.656 422.57 497.088 422.374 497.461 422.061C497.461 418.456 497.461 414.842 497.461 411.207C497.461 407.554 497.422 404.115 497.343 400.902C497.314 399.394 497.274 397.944 497.225 396.553C497.196 395.172 497.147 393.879 497.068 392.674C496.774 392.517 496.459 392.429 496.125 392.4C495.782 392.38 495.428 392.38 495.065 392.4C494.642 392.4 494.22 392.39 493.807 392.361C493.415 392.312 493.022 392.155 492.629 391.89C492.599 391.606 492.629 391.381 492.707 391.224C492.806 391.048 492.914 390.872 493.022 390.715C493.149 390.617 493.257 390.48 493.336 390.323C493.434 390.166 493.493 389.961 493.493 389.696C494.279 389.775 495.074 389.804 495.89 389.775C496.724 389.726 497.549 389.677 498.365 389.618C498.777 389.618 499.19 389.608 499.583 389.579C499.995 389.53 500.417 389.5 500.84 389.5C501.91 389.451 502.892 389.559 503.786 389.814C504.67 390.049 505.338 390.558 505.79 391.342C505.397 391.793 504.817 392.067 504.061 392.165C503.325 392.243 502.509 392.272 501.625 392.243C501.36 393.164 501.213 394.428 501.193 396.044C501.193 397.64 501.203 399.257 501.233 400.902V401.02C501.252 401.784 501.282 402.529 501.311 403.253C501.331 403.959 501.321 404.644 501.272 405.291C503.334 405.477 505.456 405.555 507.636 405.526C509.807 405.477 511.938 405.408 514.04 405.33C514.953 405.31 515.867 405.281 516.79 405.252C517.733 405.203 518.617 405.173 519.461 405.173C519.618 404.546 519.707 403.9 519.736 403.214C519.756 402.509 519.736 401.764 519.658 400.981C519.599 400.54 519.55 400.07 519.501 399.57C519.471 399.08 519.432 398.591 519.383 398.12C519.304 397.18 519.226 396.259 519.147 395.339C519.068 394.428 519.039 393.536 519.068 392.674C518.538 392.674 517.91 392.635 517.183 392.557C516.476 392.459 515.788 392.282 515.14 392.047C514.924 391.685 514.875 391.361 514.983 391.068C515.081 390.754 515.218 390.47 515.376 390.206C515.454 390.108 515.533 389.99 515.611 389.853C515.69 389.726 515.739 389.579 515.768 389.422C516.446 389.481 517.124 389.491 517.811 389.461C518.518 389.442 519.186 389.412 519.815 389.383C521.386 389.304 522.86 389.304 524.254 389.383C525.639 389.461 526.818 389.814 527.79 390.441C527.554 391.146 527.053 391.597 526.297 391.773C525.531 391.93 524.667 391.998 523.704 391.969C523.567 393.281 523.478 394.702 523.429 396.24C523.4 397.758 523.41 399.335 523.469 400.981C523.469 401.98 523.478 402.979 523.508 403.998C523.557 404.997 523.596 406.016 523.626 407.054C523.704 409.797 523.744 412.481 523.744 415.086C523.763 417.702 523.685 420.023 523.508 422.061C524.028 422.668 524.726 423.031 525.59 423.158C526.474 423.295 527.299 423.658 528.065 424.255Z" fill="black"/>
<path d="M553.171 391.224C552.955 391.773 552.513 392.086 551.836 392.165C551.148 392.243 550.431 392.272 549.675 392.243C549.439 392.243 549.204 392.243 548.968 392.243C548.752 392.243 548.546 392.243 548.339 392.243C548.182 392.351 548.221 392.625 548.457 393.066C548.506 393.223 548.555 393.399 548.614 393.575C548.693 393.732 548.732 393.879 548.732 394.006C548.575 394.163 548.457 394.349 548.379 394.555C548.3 394.77 548.221 395.015 548.143 395.299C548.113 396.24 548.104 397.17 548.104 398.081C548.104 399.002 548.084 399.942 548.064 400.902C548.005 404.488 547.966 408.112 547.946 411.795C547.946 415.459 547.946 419.083 547.946 422.688C548.811 422.747 549.734 422.952 550.736 423.315C551.757 423.687 552.484 424.255 552.936 425.039C551.993 425.617 550.903 425.92 549.675 425.94C548.467 425.969 547.21 425.96 545.904 425.901C545.118 425.852 544.342 425.823 543.586 425.823C542.82 425.803 542.073 425.842 541.346 425.94C541.13 425.969 540.963 426.048 540.836 426.175C540.728 426.312 540.62 426.449 540.521 426.606C540.413 426.841 540.256 427.037 540.05 427.194C539.863 427.37 539.578 427.4 539.186 427.272C538.793 426.743 538.645 426.234 538.753 425.705C538.852 425.186 539.068 424.706 539.382 424.255C539.696 423.785 539.981 423.393 540.246 423.08C540.423 423.08 540.62 423.08 540.836 423.08C541.042 423.08 541.248 423.08 541.464 423.08C541.936 423.08 542.387 423.08 542.839 423.08C543.281 423.08 543.674 423.001 544.018 422.845C543.959 419.504 543.939 415.939 543.939 412.148C543.939 408.367 543.9 404.615 543.821 400.902C543.792 398.003 543.684 395.211 543.507 392.517C543.242 392.439 542.957 392.4 542.643 392.4C542.348 392.38 542.034 392.361 541.7 392.361C541.17 392.361 540.659 392.351 540.168 392.321C539.696 392.272 539.274 392.086 538.911 391.773C538.832 391.489 538.832 391.264 538.911 391.107C539.009 390.95 539.117 390.813 539.225 390.676C539.323 390.548 539.421 390.421 539.5 390.284C539.578 390.157 539.618 390 539.618 389.814C540.767 389.814 542.014 389.765 543.35 389.657C544.686 389.559 545.992 389.5 547.279 389.5C548.536 389.5 549.685 389.618 550.736 389.853C551.777 390.068 552.592 390.519 553.171 391.224Z" fill="black"/>
<path d="M600.572 390.676C600.543 391.459 600.16 391.93 599.433 392.086C598.696 392.224 597.901 392.282 597.037 392.282C596.742 392.361 596.546 392.547 596.447 392.831C596.369 393.095 596.29 393.399 596.212 393.732C596.133 394.046 595.907 394.31 595.544 394.516C595.642 395.534 595.721 396.592 595.779 397.689C595.829 398.767 595.878 399.864 595.937 400.981C595.956 402.235 595.976 403.528 595.976 404.86C595.976 406.192 595.976 407.524 595.976 408.856C596.025 411.736 596.074 414.567 596.133 417.359C596.182 420.131 596.379 422.678 596.722 425C596.3 425.607 595.662 425.94 594.797 426.018C593.933 426.077 593.344 425.901 593.029 425.509C592.106 424.412 591.242 423.197 590.437 421.865C589.651 420.513 588.708 419.201 587.608 417.947C585.585 415.547 583.64 412.814 581.754 409.758C579.888 406.701 578.032 403.753 576.176 400.902C575.468 399.756 574.732 398.659 573.976 397.611C573.239 396.573 572.493 395.574 571.736 394.633C571.707 395.76 571.668 396.827 571.618 397.846C571.589 398.845 571.579 399.864 571.579 400.902C571.579 402.293 571.589 403.724 571.618 405.213C571.668 406.682 571.707 408.308 571.736 410.11C571.736 410.767 571.717 411.462 571.697 412.187C571.697 412.922 571.668 413.637 571.618 414.342C571.54 415.831 571.481 417.242 571.461 418.574C571.461 419.906 571.628 421.003 571.972 421.865C572.149 422.394 572.483 422.786 572.954 423.041C573.445 423.305 573.956 423.54 574.486 423.746C575.007 423.932 575.4 424.216 575.665 424.608C575.508 425.058 575.193 425.352 574.722 425.509C574.27 425.646 573.936 425.881 573.701 426.214C573.013 425.96 572.306 425.842 571.579 425.862C570.872 425.891 570.145 425.96 569.418 426.058C568.633 426.136 567.886 426.175 567.179 426.175C566.472 426.175 565.814 426.009 565.215 425.666C564.999 425.352 564.92 425.107 564.979 424.921C565.028 424.716 565.107 424.52 565.215 424.334C565.293 424.177 565.372 424.04 565.451 423.903C565.529 423.775 565.568 423.618 565.568 423.432C566.04 423.256 566.531 423.099 567.061 422.962C567.582 422.835 568.102 422.688 568.633 422.531C568.967 419.661 569.114 416.654 569.065 413.519C569.006 410.385 568.888 407.162 568.711 403.841C568.711 403.351 568.692 402.862 568.672 402.391C568.643 401.902 568.613 401.402 568.593 400.902C568.564 399.492 568.515 398.101 568.436 396.71C568.377 395.299 568.338 393.879 568.318 392.439C567.867 392.596 567.395 392.664 566.904 392.635C566.403 392.586 566.001 392.468 565.686 392.282C565.293 392.028 565.058 391.675 564.979 391.224C564.92 390.784 565.156 390.264 565.686 389.657C566.158 389.686 566.629 389.696 567.101 389.696C567.592 389.696 568.093 389.686 568.593 389.657C569.87 389.657 571.118 389.696 572.326 389.775C573.524 389.853 574.683 390.127 575.783 390.597C575.783 390.784 575.724 390.911 575.626 390.989C575.547 391.068 575.439 391.146 575.311 391.224C575.017 391.332 574.879 391.479 574.879 391.655C575.92 393.203 576.971 394.751 578.022 396.318C579.093 397.866 580.153 399.394 581.204 400.902C583.247 403.782 585.27 406.652 587.294 409.523C589.337 412.403 591.35 415.243 593.344 418.064C593.265 415.165 593.226 412.305 593.226 409.483C593.226 406.643 593.187 403.802 593.108 400.981C593.049 398.16 592.892 395.358 592.637 392.557C592.371 392.459 592.106 392.39 591.851 392.361C591.586 392.312 591.32 392.282 591.065 392.282C590.564 392.204 590.122 392.116 589.729 392.008C589.356 391.91 589.16 391.606 589.14 391.107C589.111 390.48 589.572 390.029 590.515 389.735C591.458 389.451 592.568 389.295 593.854 389.265C594.817 389.246 595.789 389.285 596.762 389.383C597.724 389.491 598.569 389.657 599.276 389.892C600.003 390.108 600.435 390.362 600.572 390.676Z" fill="black"/>
<path d="M645.227 410.502C645.07 410.972 644.726 411.247 644.205 411.325C643.675 411.403 643.105 411.442 642.477 411.442C642.212 411.442 641.937 411.462 641.652 411.482C641.357 411.482 641.111 411.511 640.905 411.56C640.561 412.344 640.365 413.284 640.316 414.381C640.257 415.478 640.247 416.634 640.277 417.829C640.296 418.985 640.296 420.141 640.277 421.316C640.247 422.472 640.061 423.491 639.727 424.373C639.226 424.716 638.725 424.902 638.234 424.921C637.762 424.921 637.271 424.725 636.78 424.334C635.68 425.068 634.315 425.656 632.694 426.097C631.094 426.508 629.404 426.743 627.627 426.802C625.868 426.851 624.15 426.665 622.48 426.253C620.83 425.813 619.376 425.107 618.119 424.138C617.776 423.883 617.471 423.53 617.216 423.08C616.98 422.61 616.685 422.208 616.351 421.865C615.978 421.454 615.575 421.111 615.134 420.846C614.711 420.592 614.387 420.317 614.151 420.023C613.051 418.486 612.226 416.722 611.676 414.734C611.126 412.726 610.851 410.659 610.851 408.543C610.851 407.24 610.94 405.947 611.126 404.664C611.303 403.361 611.568 402.107 611.912 400.902C612.56 398.708 613.483 396.729 614.662 394.947C615.841 393.144 617.255 391.773 618.905 390.832C619.976 390.235 621.203 389.755 622.598 389.383C624.012 389.02 625.485 388.815 627.037 388.756C628.216 388.736 629.404 388.834 630.612 389.069C631.84 389.304 632.979 389.716 634.03 390.284C634.286 390.049 634.561 389.961 634.855 390.01C635.169 390.068 635.484 390.127 635.798 390.206C636.004 390.284 636.201 390.353 636.387 390.401C636.594 390.46 636.79 390.47 636.977 390.441C637.183 390.421 637.389 390.353 637.605 390.245C637.841 390.117 638.057 390 638.273 389.892C638.558 389.716 638.833 389.569 639.098 389.461C639.383 389.334 639.697 389.344 640.041 389.5C639.854 390.127 639.776 390.823 639.805 391.577C639.854 392.312 639.923 393.066 640.002 393.85C640.021 394.222 640.051 394.594 640.08 394.986C640.129 395.358 640.159 395.711 640.159 396.044C640.208 396.906 640.129 397.689 639.923 398.395C639.736 399.1 639.334 399.668 638.705 400.08C638.077 399.766 637.703 399.355 637.605 398.826C637.527 398.307 637.487 397.748 637.487 397.141C637.487 396.827 637.458 396.494 637.409 396.122C637.379 395.76 637.301 395.417 637.173 395.103C636.702 393.673 635.582 392.635 633.834 392.008C632.105 391.381 630.239 391.107 628.255 391.185C626.86 391.215 625.485 391.401 624.13 391.734C622.794 392.077 621.704 392.557 620.869 393.183C619.691 393.996 618.718 395.084 617.962 396.436C617.226 397.768 616.675 399.257 616.312 400.902C616.125 401.843 615.978 402.813 615.88 403.802C615.801 404.801 615.762 405.79 615.762 406.78C615.782 409.052 616.057 411.305 616.587 413.519C617.108 415.743 617.864 417.712 618.866 419.436C619.858 421.14 621.046 422.374 622.441 423.158C623.855 423.687 625.446 424 627.234 424.098C629.011 424.177 630.691 424.01 632.262 423.589C633.853 423.178 635.071 422.512 635.916 421.591C635.778 420.68 635.719 419.7 635.719 418.652C635.719 417.614 635.759 416.566 635.837 415.517C635.837 414.891 635.847 414.264 635.877 413.637C635.896 412.99 635.916 412.363 635.916 411.756C635.572 411.442 635.13 411.286 634.58 411.286C634.03 411.286 633.519 411.315 633.048 411.364C632.626 411.442 632.243 411.482 631.909 411.482C631.565 411.482 631.3 411.423 631.123 411.286C630.936 409.905 631.172 409.111 631.83 408.896C632.508 408.69 633.5 408.621 634.816 408.7C635.287 408.7 635.759 408.719 636.23 408.739C636.721 408.739 637.232 408.729 637.762 408.7C637.969 408.7 638.175 408.69 638.391 408.661C638.627 408.641 638.862 408.612 639.098 408.582C639.982 408.504 640.876 408.465 641.77 408.465C642.683 408.465 643.439 408.612 644.048 408.896C644.677 409.189 645.07 409.718 645.227 410.502Z" fill="black"/>
<path d="M709.386 424.255C708.934 424.833 708.188 425.274 707.147 425.587C706.125 425.901 704.986 426.097 703.729 426.175C702.472 426.254 701.273 426.214 700.154 426.058C699.054 425.881 698.199 425.587 697.6 425.196C697.522 424.941 697.522 424.745 697.6 424.608C697.698 424.451 697.806 424.294 697.914 424.138C698.042 424.04 698.16 423.922 698.268 423.785C698.366 423.628 698.425 423.423 698.425 423.158C698.838 423.158 699.309 423.08 699.839 422.923C700.389 422.747 700.871 422.521 701.293 422.257C701.293 418.809 701.264 415.312 701.214 411.756C701.155 408.181 701.106 404.586 701.057 400.981C701.028 399.551 701.018 398.111 701.018 396.671C701.018 395.241 701.018 393.81 701.018 392.4C701.018 392.4 700.861 392.86 700.547 393.771C700.252 394.692 700.075 395.799 699.997 397.102C699.447 398.336 698.877 399.629 698.307 400.981C697.384 403.253 696.431 405.624 695.439 408.073C694.438 410.502 693.495 412.853 692.611 415.126C692.296 415.909 691.953 416.811 691.589 417.829C691.216 418.828 690.882 419.779 690.568 420.69C690.538 420.827 690.499 420.964 690.45 421.121C690.421 421.277 690.381 421.454 690.332 421.63C690.195 422.179 690.028 422.747 689.821 423.315C689.635 423.863 689.321 424.314 688.879 424.647C688.456 424.99 687.857 425.068 687.071 424.882C685.284 421.042 683.614 417.085 682.043 413.01C680.471 408.935 678.861 404.899 677.211 400.902C676.71 399.727 676.228 398.571 675.757 397.415C675.305 396.269 674.824 395.133 674.303 394.006C674.303 394.006 674.313 394.339 674.343 394.986C674.392 395.613 674.431 396.347 674.461 397.18C674.48 398.023 674.5 398.777 674.5 399.453L674.578 400.902C674.677 403.332 674.755 405.879 674.814 408.543C674.863 411.188 674.912 413.754 674.971 416.262C675.05 418.77 675.099 421.042 675.128 423.08C675.619 423.452 676.169 423.726 676.778 423.903C677.407 424.059 677.849 424.432 678.114 425C677.741 425.529 677.152 425.891 676.346 426.097C675.531 426.283 674.637 426.351 673.675 426.332C672.732 426.332 671.769 426.283 670.807 426.175C669.864 426.048 669.059 425.93 668.41 425.823C668.145 424.863 668.381 424.079 669.118 423.472C669.874 422.874 670.689 422.472 671.553 422.257C671.946 419.044 672.084 415.615 671.986 411.952C671.907 408.298 671.769 404.615 671.593 400.902C671.514 399.521 671.445 398.16 671.396 396.827C671.337 395.476 671.278 394.143 671.2 392.831C670.777 392.782 670.296 392.752 669.746 392.752C669.216 392.752 668.646 392.713 668.018 392.635C668.018 392.459 667.978 392.282 667.9 392.126C667.821 391.969 667.743 391.841 667.664 391.734C667.507 391.479 667.389 391.215 667.31 390.95C667.252 390.695 667.389 390.392 667.703 390.049C668.352 390.049 668.98 390.029 669.589 389.971C670.218 389.922 670.846 389.833 671.475 389.696C672.673 389.569 673.832 389.491 674.932 389.461C676.032 389.412 677.034 389.686 677.957 390.284C678.055 390.47 678.114 390.656 678.114 390.833C678.114 390.989 678.085 391.136 678.036 391.264C678.036 391.479 678.036 391.675 678.036 391.851C678.036 392.037 678.095 392.233 678.232 392.439C678.861 393.83 679.46 395.241 680.039 396.671C680.609 398.081 681.198 399.492 681.807 400.902C682.927 403.645 684.046 406.408 685.146 409.17C686.246 411.913 687.435 414.577 688.721 417.163C689.949 414.607 691.059 411.952 692.061 409.209C693.082 406.466 694.074 403.724 695.046 400.981C695.773 399.022 696.5 397.102 697.207 395.221C697.934 393.34 698.739 391.528 699.604 389.775C700.281 389.54 701.116 389.402 702.118 389.344C703.139 389.265 704.141 389.285 705.143 389.383C706.135 389.491 706.97 389.735 707.657 390.127C708.365 390.499 708.738 391.028 708.797 391.734C708.659 392.028 708.404 392.204 708.011 392.282C707.638 392.361 707.235 392.4 706.793 392.4C706.498 392.4 706.204 392.429 705.889 392.478C705.595 392.508 705.339 392.576 705.104 392.674C705.074 394.036 705.045 395.407 705.025 396.788C704.996 398.15 705.006 399.551 705.064 400.981C705.064 401.902 705.074 402.842 705.104 403.802C705.153 404.742 705.182 405.683 705.182 406.623C705.231 409.268 705.271 411.903 705.3 414.538C705.349 417.153 705.31 419.69 705.182 422.139C705.467 422.561 705.87 422.845 706.4 423.001C706.95 423.139 707.5 423.276 708.05 423.432C708.62 423.57 709.072 423.844 709.386 424.255Z" fill="black"/>
<path d="M744.803 425.117L744.411 425.509C742.525 425.646 740.61 425.725 738.675 425.744C736.76 425.774 734.835 425.764 732.9 425.705C730.749 425.705 728.627 425.725 726.535 425.744C724.434 425.774 722.41 425.891 720.446 426.097C719.837 425.705 719.562 425.313 719.621 424.921C719.7 424.529 719.817 424.167 719.975 423.824C720.151 423.491 720.25 423.266 720.25 423.158C720.485 423.001 720.76 422.923 721.075 422.923C721.389 422.923 721.713 422.923 722.057 422.923C722.234 422.923 722.43 422.943 722.646 422.962C722.852 422.962 723.049 422.952 723.235 422.923C723.412 420.21 723.51 417.339 723.51 414.303C723.51 411.276 723.491 408.328 723.471 405.448C723.471 404.664 723.451 403.91 723.432 403.175C723.402 402.421 723.392 401.666 723.392 400.902C723.363 399.492 723.353 398.16 723.353 396.906C723.373 395.632 723.412 394.428 723.471 393.301C723.206 393.223 722.931 393.183 722.646 393.183C722.351 393.164 722.076 393.144 721.821 393.144C721.35 393.144 720.888 393.095 720.446 392.988C720.024 392.89 719.66 392.635 719.346 392.243C719.395 392.116 719.434 391.959 719.464 391.773C719.542 391.332 719.66 390.901 719.817 390.48C719.994 390.039 720.348 389.843 720.878 389.892C722.292 389.922 723.864 389.961 725.593 390.01C727.341 390.068 729.089 390.088 730.818 390.088C732.546 390.088 734.019 390.088 735.257 390.088C735.699 390.088 736.141 390.078 736.593 390.049C737.035 390.029 737.477 389.99 737.928 389.931C739.205 389.833 740.453 389.775 741.661 389.775C742.859 389.775 743.91 390.088 744.803 390.715C744.745 391.087 744.735 391.528 744.764 392.047C744.784 392.547 744.803 393.066 744.803 393.614C744.882 394.663 744.902 395.73 744.882 396.827C744.853 397.905 744.695 398.767 744.411 399.413C743.723 399.551 743.232 399.453 742.918 399.139C742.603 398.826 742.387 398.395 742.289 397.846C742.132 397.092 742.024 396.24 741.975 395.299C741.916 394.339 741.719 393.614 741.386 393.144C740.914 393.144 740.403 393.144 739.853 393.144C739.323 393.144 738.763 393.125 738.164 393.066C736.377 393.066 734.481 393.066 732.468 393.066C730.474 393.066 728.863 393.144 727.635 393.301C727.655 393.771 727.675 394.388 727.675 395.143C727.675 395.907 727.655 396.739 727.635 397.65C727.635 398.179 727.635 398.708 727.635 399.257C727.635 399.805 727.635 400.354 727.635 400.902C727.635 401.823 727.655 402.724 727.714 403.606C727.763 404.497 727.832 405.359 727.91 406.192C729.344 406.035 730.837 405.947 732.389 405.918C733.96 405.869 735.493 405.8 736.986 405.722C737.477 405.516 737.83 405.173 738.046 404.703C738.282 404.233 738.488 403.724 738.675 403.175C738.852 402.626 739.107 402.176 739.421 401.804C739.677 401.647 739.903 401.608 740.089 401.686C740.266 401.745 740.462 401.823 740.678 401.921C740.757 401.951 740.845 402 740.953 402.078C741.081 402.137 741.228 402.176 741.386 402.195C741.15 403.038 741.003 403.978 740.953 405.017C740.924 406.065 740.934 407.123 740.993 408.19C740.993 409.082 740.963 409.954 740.914 410.816C740.885 411.678 740.806 412.422 740.678 413.049C739.834 413.127 739.284 412.922 739.028 412.422C738.763 411.932 738.557 411.354 738.4 410.698C738.321 410.443 738.243 410.179 738.164 409.914C738.086 409.66 737.987 409.425 737.889 409.209C736.16 408.954 734.353 408.807 732.468 408.778C730.601 408.729 728.991 409.013 727.635 409.64C727.684 411.707 727.724 413.813 727.753 415.949C727.802 418.094 727.763 420.337 727.635 422.688C728.991 422.766 730.503 422.835 732.153 422.884C733.803 422.913 735.453 422.864 737.103 422.727C738.753 422.6 740.246 422.365 741.582 422.022C741.994 421.317 742.289 420.513 742.446 419.592C742.603 418.681 742.81 417.819 743.075 417.006C743.36 416.174 743.88 415.596 744.646 415.282C745.196 416.409 745.442 417.663 745.393 419.044C745.334 420.406 745.216 421.669 745.039 422.845C744.98 423.266 744.931 423.667 744.882 424.059C744.823 424.432 744.803 424.784 744.803 425.117Z" fill="black"/>
</svg>
