<?xml version="1.0" encoding="UTF-8"?>
<svg xmlns="http://www.w3.org/2000/svg" xmlns:xlink="http://www.w3.org/1999/xlink" width="7680px" height="2160px" viewBox="0 0 7680 2160" version="1.1">
<g id="surface1">
<path style=" stroke:none;fill-rule:nonzero;fill:rgb(0%,0%,0%);fill-opacity:1;" d="M 1825.492188 1134.03125 C 1830.367188 1120.648438 1834.617188 1106.195312 1838.242188 1090.695312 C 1841.90625 1075.195312 1847.992188 1060.46875 1856.492188 1046.492188 C 1865.03125 1032.492188 1877.507812 1021.09375 1893.90625 1012.28125 C 1910.34375 1003.476562 1933.757812 999.070312 1964.15625 999.070312 C 1999.367188 999.070312 2032.179688 1006.679688 2062.570312 1021.867188 C 2093.007812 1037.0625 2108.242188 1055.90625 2108.242188 1078.40625 C 2103.34375 1091.15625 2096.34375 1104.382812 2087.242188 1118.070312 C 2078.117188 1131.742188 2073.570312 1145.570312 2073.570312 1159.570312 C 2073.570312 1163.820312 2076.59375 1168.226562 2082.65625 1172.78125 C 2088.757812 1177.34375 2097.90625 1179.617188 2110.070312 1179.617188 C 2127.070312 1179.617188 2142.570312 1174.304688 2156.570312 1163.65625 C 2170.570312 1153.023438 2183.617188 1139.945312 2195.742188 1124.445312 C 2207.90625 1108.945312 2220.679688 1093.601562 2234.070312 1078.40625 C 2247.445312 1063.21875 2263.257812 1050.304688 2281.492188 1039.65625 C 2299.695312 1029.023438 2320.992188 1023.695312 2345.320312 1023.695312 C 2362.367188 1023.695312 2381.53125 1026.59375 2402.820312 1032.367188 C 2424.09375 1038.117188 2442.320312 1046.179688 2457.492188 1056.53125 C 2472.695312 1066.867188 2480.320312 1079.023438 2480.320312 1092.992188 C 2480.320312 1097.851562 2478.492188 1102.101562 2474.820312 1105.742188 C 2456.59375 1129.46875 2435.320312 1154.398438 2410.992188 1180.53125 C 2386.65625 1206.679688 2358.367188 1231.304688 2326.15625 1254.40625 C 2293.929688 1277.523438 2257.445312 1296.367188 2216.742188 1310.945312 C 2176.007812 1325.53125 2130.117188 1332.820312 2079.070312 1332.820312 C 2019.445312 1332.820312 1970.78125 1325.070312 1933.070312 1309.570312 C 1895.40625 1294.070312 1868.03125 1275.070312 1850.992188 1252.570312 C 1833.992188 1230.070312 1825.492188 1208.492188 1825.492188 1187.820312 C 1825.492188 1179.320312 1826.40625 1170.523438 1828.242188 1161.40625 C 1830.070312 1152.273438 1831.59375 1143.148438 1832.820312 1134.03125 C 1832.820312 1134.03125 1832.195312 1134.03125 1830.992188 1134.03125 C 1829.757812 1134.03125 1827.929688 1134.03125 1825.492188 1134.03125 Z M 1825.492188 1134.03125 "/>
<path style=" stroke:none;fill-rule:nonzero;fill:rgb(0%,0%,0%);fill-opacity:1;" d="M 3045.609375 691.742188 C 3090.609375 692.351562 3136.484375 697.0625 3183.273438 705.867188 C 3230.109375 714.679688 3273.273438 726.382812 3312.773438 740.992188 C 3352.3125 755.570312 3384.234375 772.757812 3408.523438 792.53125 C 3432.859375 812.28125 3445.023438 834.007812 3445.023438 857.695312 C 3445.023438 879.59375 3434.6875 901.632812 3414.023438 923.820312 C 3393.359375 946.023438 3367.523438 967.148438 3336.523438 987.195312 C 3305.523438 1007.257812 3274.8125 1025.492188 3244.4375 1041.90625 C 3222.546875 1053.46875 3211.609375 1064.40625 3211.609375 1074.742188 C 3211.609375 1082.65625 3221.625 1092.695312 3241.6875 1104.867188 C 3261.734375 1117.007812 3286.359375 1130.070312 3315.523438 1144.070312 C 3344.734375 1158.054688 3373.9375 1172.1875 3403.109375 1186.492188 C 3432.273438 1200.773438 3456.875 1214.304688 3476.9375 1227.070312 C 3496.984375 1239.820312 3507.023438 1251.367188 3507.023438 1261.695312 C 3507.023438 1275.09375 3492.734375 1285.898438 3464.1875 1294.117188 C 3435.625 1302.3125 3399.148438 1308.992188 3354.773438 1314.15625 C 3310.375 1319.320312 3265.375 1323.570312 3219.773438 1326.90625 C 3174.148438 1330.242188 3133.734375 1333.4375 3098.523438 1336.492188 C 3064.460938 1339.523438 3029.796875 1341.648438 2994.523438 1342.867188 C 2959.234375 1344.085938 2923.375 1347.125 2886.9375 1351.992188 C 2878.4375 1352.59375 2870.523438 1353.34375 2863.1875 1354.242188 C 2855.898438 1355.15625 2848.625 1355.617188 2841.359375 1355.617188 C 2835.234375 1355.617188 2823.359375 1353.03125 2805.6875 1347.867188 C 2788.0625 1342.695312 2771.648438 1336.179688 2756.4375 1328.28125 C 2741.273438 1320.367188 2733.6875 1312.46875 2733.6875 1304.570312 C 2733.6875 1294.242188 2741.5625 1285.429688 2757.359375 1278.117188 C 2773.1875 1270.8125 2793.273438 1264.726562 2817.609375 1259.867188 C 2841.9375 1255.007812 2866.234375 1251.367188 2890.523438 1248.945312 C 2914.859375 1246.507812 2934.9375 1245.28125 2950.773438 1245.28125 C 2962.9375 1245.28125 2975.375 1246.054688 2988.109375 1247.570312 C 3000.875 1249.101562 3013.359375 1249.867188 3025.523438 1249.867188 C 3051.0625 1249.867188 3075.984375 1246.523438 3100.273438 1239.820312 C 3124.609375 1233.132812 3136.773438 1225.53125 3136.773438 1217.03125 C 3136.773438 1210.34375 3130.375 1203.351562 3117.609375 1196.070312 C 3104.875 1188.773438 3089.6875 1181.617188 3072.023438 1174.617188 C 3054.398438 1167.617188 3038.296875 1161.992188 3023.6875 1157.742188 C 3009.125 1153.492188 2999.398438 1151.367188 2994.523438 1151.367188 C 2981.125 1151.367188 2969.5625 1154.867188 2959.859375 1161.867188 C 2950.125 1168.84375 2940.109375 1176.742188 2929.773438 1185.570312 C 2919.4375 1194.382812 2906.960938 1202.28125 2892.359375 1209.28125 C 2877.796875 1216.257812 2858.960938 1219.742188 2835.859375 1219.742188 C 2790.859375 1219.742188 2756.1875 1212.148438 2731.859375 1196.945312 C 2707.5625 1181.757812 2690.273438 1161.695312 2679.9375 1136.78125 C 2669.609375 1111.84375 2662.898438 1084.632812 2659.859375 1055.15625 C 2656.796875 1025.65625 2653.4375 996.320312 2649.773438 967.15625 C 2646.148438 937.96875 2638.273438 912.117188 2626.109375 889.617188 C 2617.609375 873.195312 2609.375 854.96875 2601.4375 834.90625 C 2593.546875 814.851562 2589.609375 799.351562 2589.609375 788.40625 C 2589.609375 769.554688 2605.398438 754.054688 2637.023438 741.90625 C 2668.625 729.742188 2708.4375 720.15625 2756.4375 713.15625 C 2804.484375 706.15625 2854.359375 700.992188 2906.023438 697.65625 C 2957.734375 694.320312 3004.273438 692.351562 3045.609375 691.742188 Z M 3191.523438 865.90625 C 3191.523438 864.070312 3191.523438 862.257812 3191.523438 860.445312 C 3191.523438 858.617188 3191.523438 857.09375 3191.523438 855.867188 C 3191.523438 831.5625 3175.109375 814.851562 3142.273438 805.742188 C 3109.4375 796.601562 3066.273438 792.03125 3012.773438 792.03125 C 2970.210938 792.03125 2933.734375 795.53125 2903.359375 802.53125 C 2872.960938 809.53125 2857.773438 818.507812 2857.773438 829.445312 C 2871.109375 844.03125 2880.1875 861.96875 2885.023438 883.242188 C 2889.898438 904.523438 2894.1875 925.648438 2897.859375 946.617188 C 2901.523438 967.59375 2907.296875 985.226562 2915.1875 999.53125 C 2923.0625 1013.8125 2936.773438 1020.945312 2956.273438 1020.945312 C 2965.984375 1020.945312 2978.125 1019.132812 2992.6875 1015.492188 C 3047.398438 997.851562 3089.648438 975.96875 3119.4375 949.820312 C 3149.273438 923.6875 3173.296875 895.71875 3191.523438 865.90625 Z M 3191.523438 865.90625 "/>
<path style=" stroke:none;fill-rule:nonzero;fill:rgb(0%,0%,0%);fill-opacity:1;" d="M 3920.953125 1016.367188 C 3920.953125 1051.648438 3917.890625 1086.929688 3911.789062 1122.195312 C 3905.726562 1157.445312 3902.703125 1193.007812 3902.703125 1228.867188 C 3902.703125 1245.898438 3905.726562 1262.773438 3911.789062 1279.492188 C 3917.890625 1296.21875 3920.953125 1312.78125 3920.953125 1329.195312 C 3920.953125 1340.148438 3914.242188 1351.21875 3900.867188 1362.445312 C 3887.476562 1373.695312 3871.054688 1383.28125 3851.617188 1391.195312 C 3832.164062 1399.117188 3812.726562 1403.070312 3793.289062 1403.070312 C 3774.992188 1403.070312 3755.539062 1399.117188 3734.867188 1391.195312 C 3714.203125 1383.28125 3695.953125 1373.382812 3680.117188 1361.53125 C 3664.328125 1349.695312 3654.617188 1337.398438 3650.953125 1324.617188 C 3639.992188 1275.367188 3634.539062 1226.132812 3634.539062 1176.90625 C 3634.539062 1114.882812 3638.164062 1051.054688 3645.453125 985.40625 C 3652.789062 919.742188 3660.703125 855.59375 3669.203125 792.945312 C 3672.867188 761.34375 3683.492188 739.15625 3701.117188 726.40625 C 3718.789062 713.632812 3748.289062 707.242188 3789.617188 707.242188 C 3834.617188 707.242188 3871.078125 715.148438 3899.039062 730.945312 C 3926.976562 746.757812 3940.953125 767.429688 3940.953125 792.945312 C 3940.953125 826.398438 3937.304688 859.226562 3930.039062 891.445312 C 3922.742188 923.679688 3919.117188 955.898438 3919.117188 988.117188 C 3919.117188 992.367188 3919.117188 996.929688 3919.117188 1001.78125 C 3919.117188 1006.648438 3919.726562 1011.507812 3920.953125 1016.367188 Z M 3920.953125 1016.367188 "/>
<path style=" stroke:none;fill-rule:nonzero;fill:rgb(0%,0%,0%);fill-opacity:1;" d="M 4362.210938 1094.820312 C 4399.921875 1094.820312 4433.671875 1100.148438 4463.460938 1110.78125 C 4493.234375 1121.429688 4517.234375 1135.257812 4535.460938 1152.28125 C 4553.734375 1169.28125 4562.882812 1187.21875 4562.882812 1206.070312 C 4561.648438 1227.351562 4549.171875 1246.96875 4525.460938 1264.90625 C 4501.734375 1282.820312 4471.007812 1297.257812 4433.296875 1308.195312 C 4395.632812 1319.148438 4354.320312 1324.617188 4309.382812 1324.617188 C 4241.257812 1324.617188 4187.132812 1315.351562 4146.960938 1296.820312 C 4106.835938 1278.273438 4086.796875 1255.3125 4086.796875 1227.945312 C 4086.796875 1179.3125 4109.585938 1144.96875 4155.210938 1124.90625 C 4200.820312 1104.851562 4269.820312 1094.820312 4362.210938 1094.820312 Z M 4362.210938 1094.820312 "/>
<path style=" stroke:none;fill-rule:nonzero;fill:rgb(0%,0%,0%);fill-opacity:1;" d="M 5394.460938 1426.78125 C 5385.960938 1477.835938 5363.148438 1524.945312 5326.046875 1568.117188 C 5288.984375 1611.28125 5232.75 1648.96875 5157.375 1681.195312 C 5141.546875 1687.28125 5124.8125 1691.992188 5107.210938 1695.320312 C 5089.585938 1698.679688 5074.085938 1700.367188 5060.710938 1700.367188 C 5035.148438 1700.367188 5010.5 1695.195312 4986.796875 1684.867188 C 4963.125 1674.53125 4951.296875 1660.84375 4951.296875 1643.820312 C 4951.296875 1635.289062 4955.546875 1627.835938 4964.046875 1621.445312 C 4972.546875 1615.085938 4982.25 1608.867188 4993.210938 1602.78125 C 5024.8125 1586.367188 5051.875 1565.835938 5074.375 1541.195312 C 5096.875 1516.585938 5114.484375 1491.65625 5127.210938 1466.40625 C 5139.984375 1441.179688 5146.375 1419.757812 5146.375 1402.15625 C 5146.375 1389.375 5144.546875 1374.007812 5140.875 1356.070312 C 5137.25 1338.15625 5131.210938 1320.84375 5122.710938 1304.117188 C 5114.210938 1287.398438 5103.25 1273.40625 5089.875 1262.15625 C 5076.484375 1250.90625 5060.0625 1245.28125 5040.625 1245.28125 C 5028.460938 1245.28125 5012.960938 1247.5625 4994.125 1252.117188 C 4975.296875 1256.679688 4954.625 1261.242188 4932.125 1265.820312 C 4909.625 1270.382812 4886.8125 1272.65625 4863.710938 1272.65625 C 4840.585938 1272.65625 4816.875 1269.3125 4792.546875 1262.617188 C 4768.25 1255.929688 4748.210938 1246.351562 4732.375 1233.90625 C 4716.585938 1221.4375 4708.710938 1206.6875 4708.710938 1189.65625 C 4708.710938 1175.6875 4717.5 1161.40625 4735.125 1146.820312 C 4752.734375 1132.21875 4775.8125 1119.898438 4804.375 1109.867188 C 4832.984375 1099.84375 4863.085938 1094.820312 4894.710938 1094.820312 C 4904.421875 1094.820312 4914.148438 1095.28125 4923.875 1096.195312 C 4933.585938 1097.09375 4942.734375 1097.53125 4951.296875 1097.53125 C 4979.234375 1097.53125 5005.335938 1094.65625 5029.625 1088.90625 C 5053.960938 1083.132812 5078.296875 1074.46875 5102.625 1062.90625 C 5117.234375 1056.21875 5137.296875 1052.867188 5162.796875 1052.867188 C 5185.898438 1052.867188 5208.710938 1055.601562 5231.210938 1061.070312 C 5253.710938 1066.554688 5272.546875 1073.992188 5287.710938 1083.40625 C 5302.921875 1092.820312 5310.546875 1103.617188 5310.546875 1115.78125 C 5310.546875 1146.78125 5317.234375 1176.882812 5330.625 1206.070312 C 5344 1235.273438 5357.375 1264.3125 5370.710938 1293.195312 C 5384.085938 1322.0625 5390.796875 1351.679688 5390.796875 1382.070312 C 5390.796875 1389.992188 5390.484375 1397.742188 5389.875 1405.320312 C 5389.25 1412.929688 5390.796875 1420.085938 5394.460938 1426.78125 Z M 5394.460938 1426.78125 "/>
<path style=" stroke:none;fill-rule:nonzero;fill:rgb(0%,0%,0%);fill-opacity:1;" d="M 5540.234375 1267.15625 C 5543.898438 1251.351562 5553.921875 1236.617188 5570.320312 1222.945312 C 5586.757812 1209.257812 5606.523438 1198.007812 5629.648438 1189.195312 C 5652.757812 1180.398438 5675.859375 1175.992188 5698.984375 1175.992188 C 5713.523438 1175.992188 5729.609375 1179.34375 5747.234375 1186.03125 C 5764.898438 1192.695312 5781.921875 1201.195312 5798.320312 1211.53125 C 5814.757812 1221.867188 5828.148438 1232.351562 5838.484375 1242.992188 C 5848.820312 1253.632812 5853.984375 1262.601562 5853.984375 1269.90625 C 5849.085938 1282.6875 5837.234375 1294.695312 5818.398438 1305.945312 C 5799.570312 1317.179688 5776.757812 1326.132812 5749.984375 1332.820312 C 5723.257812 1339.523438 5695.898438 1342.867188 5667.898438 1342.867188 C 5622.945312 1342.867188 5590.421875 1335.726562 5570.320312 1321.445312 C 5550.257812 1307.148438 5540.234375 1289.054688 5540.234375 1267.15625 Z M 5540.234375 1267.15625 "/>
<path style=" stroke:none;fill-rule:nonzero;fill:rgb(0%,0%,0%);fill-opacity:1;" d="M 2853.179688 1537.296875 L 2851.265625 1538.257812 C 2841.96875 1538.625 2832.554688 1538.828125 2823.015625 1538.882812 C 2813.453125 1538.945312 2803.84375 1538.914062 2794.179688 1538.796875 C 2783.617188 1538.796875 2773.140625 1538.828125 2762.765625 1538.882812 C 2752.367188 1538.945312 2742.265625 1539.25 2732.429688 1539.796875 C 2729.46875 1538.78125 2728.179688 1537.78125 2728.515625 1536.796875 C 2728.890625 1535.828125 2729.453125 1534.921875 2730.179688 1534.09375 C 2731.117188 1533.257812 2731.59375 1532.703125 2731.59375 1532.421875 C 2732.703125 1532.039062 2734.03125 1531.84375 2735.59375 1531.84375 C 2737.203125 1531.84375 2738.84375 1531.84375 2740.515625 1531.84375 C 2741.453125 1531.84375 2742.429688 1531.875 2743.429688 1531.921875 C 2744.429688 1531.984375 2745.390625 1531.953125 2746.34375 1531.84375 C 2747.28125 1525.09375 2747.765625 1517.96875 2747.765625 1510.46875 C 2747.765625 1502.945312 2747.640625 1495.609375 2747.429688 1488.46875 C 2747.429688 1486.5 2747.367188 1484.59375 2747.265625 1482.757812 C 2747.203125 1480.90625 2747.179688 1479.039062 2747.179688 1477.171875 C 2747.015625 1473.65625 2746.953125 1470.320312 2747.015625 1467.171875 C 2747.117188 1464.007812 2747.265625 1461.039062 2747.429688 1458.257812 C 2746.140625 1458.070312 2744.804688 1457.953125 2743.429688 1457.921875 C 2742.03125 1457.875 2740.679688 1457.84375 2739.34375 1457.84375 C 2736.953125 1457.84375 2734.679688 1457.734375 2732.515625 1457.507812 C 2730.390625 1457.257812 2728.617188 1456.632812 2727.179688 1455.632812 C 2727.34375 1455.359375 2727.515625 1454.984375 2727.679688 1454.507812 C 2728.054688 1453.40625 2728.679688 1452.320312 2729.515625 1451.257812 C 2730.34375 1450.171875 2732.054688 1449.671875 2734.679688 1449.757812 C 2741.71875 1449.875 2749.554688 1450 2758.179688 1450.132812 C 2766.78125 1450.28125 2775.34375 1450.34375 2783.84375 1450.34375 C 2792.390625 1450.34375 2799.71875 1450.34375 2805.84375 1450.34375 C 2808.117188 1450.34375 2810.367188 1450.296875 2812.59375 1450.21875 C 2814.804688 1450.109375 2817.03125 1450.007812 2819.265625 1449.921875 C 2825.53125 1449.65625 2831.640625 1449.507812 2837.59375 1449.507812 C 2843.53125 1449.507812 2848.71875 1450.289062 2853.179688 1451.84375 C 2853.015625 1452.789062 2852.953125 1453.882812 2853.015625 1455.132812 C 2853.117188 1456.382812 2853.179688 1457.703125 2853.179688 1459.09375 C 2853.554688 1461.703125 2853.703125 1464.359375 2853.59375 1467.046875 C 2853.46875 1469.71875 2852.703125 1471.84375 2851.265625 1473.421875 C 2847.929688 1473.789062 2845.453125 1473.578125 2843.84375 1472.796875 C 2842.28125 1472.03125 2841.21875 1470.921875 2840.679688 1469.507812 C 2839.953125 1467.671875 2839.453125 1465.578125 2839.179688 1463.21875 C 2838.890625 1460.828125 2837.890625 1459.039062 2836.179688 1457.84375 C 2833.953125 1457.84375 2831.515625 1457.84375 2828.84375 1457.84375 C 2826.179688 1457.84375 2823.34375 1457.796875 2820.34375 1457.71875 C 2811.453125 1457.71875 2802.03125 1457.71875 2792.09375 1457.71875 C 2782.203125 1457.71875 2774.179688 1457.90625 2768.015625 1458.257812 C 2768.21875 1459.453125 2768.34375 1460.984375 2768.34375 1462.84375 C 2768.34375 1464.703125 2768.21875 1466.789062 2768.015625 1469.09375 C 2768.015625 1470.40625 2768.015625 1471.734375 2768.015625 1473.09375 C 2768.015625 1474.421875 2768.015625 1475.789062 2768.015625 1477.171875 C 2768.015625 1479.40625 2768.140625 1481.632812 2768.429688 1483.882812 C 2768.703125 1486.109375 2769.03125 1488.234375 2769.429688 1490.257812 C 2776.640625 1489.90625 2784.09375 1489.671875 2791.765625 1489.59375 C 2799.46875 1489.484375 2807.054688 1489.328125 2814.515625 1489.132812 C 2816.890625 1488.578125 2818.640625 1487.734375 2819.765625 1486.59375 C 2820.867188 1485.421875 2821.890625 1484.171875 2822.84375 1482.84375 C 2823.78125 1481.484375 2825.015625 1480.34375 2826.515625 1479.421875 C 2827.78125 1479.039062 2828.867188 1478.914062 2829.765625 1479.046875 C 2830.703125 1479.195312 2831.71875 1479.40625 2832.84375 1479.671875 C 2833.21875 1479.789062 2833.703125 1479.914062 2834.265625 1480.046875 C 2834.804688 1480.195312 2835.453125 1480.296875 2836.179688 1480.382812 C 2835.054688 1482.414062 2834.429688 1484.734375 2834.265625 1487.34375 C 2834.09375 1489.921875 2834.09375 1492.570312 2834.265625 1495.257812 C 2834.265625 1497.484375 2834.140625 1499.664062 2833.929688 1501.796875 C 2833.765625 1503.945312 2833.390625 1505.796875 2832.84375 1507.382812 C 2828.617188 1507.546875 2825.84375 1507.007812 2824.515625 1505.757812 C 2823.21875 1504.507812 2822.203125 1503.09375 2821.429688 1501.507812 C 2821.09375 1500.875 2820.71875 1500.234375 2820.34375 1499.59375 C 2819.953125 1498.921875 2819.46875 1498.320312 2818.929688 1497.757812 C 2810.429688 1497.125 2801.53125 1496.757812 2792.265625 1496.671875 C 2782.96875 1496.570312 2774.890625 1497.296875 2768.015625 1498.882812 C 2768.390625 1504 2768.679688 1509.21875 2768.84375 1514.546875 C 2769.054688 1519.882812 2768.78125 1525.46875 2768.015625 1531.296875 C 2774.890625 1531.5 2782.429688 1531.632812 2790.59375 1531.71875 C 2798.765625 1531.796875 2806.929688 1531.695312 2815.09375 1531.382812 C 2823.265625 1531.046875 2830.679688 1530.46875 2837.34375 1529.632812 C 2839.390625 1527.859375 2840.78125 1525.84375 2841.515625 1523.59375 C 2842.21875 1521.320312 2843.28125 1519.164062 2844.679688 1517.132812 C 2846.054688 1515.078125 2848.617188 1513.671875 2852.34375 1512.921875 C 2855.117188 1515.703125 2856.367188 1518.789062 2856.09375 1522.171875 C 2855.804688 1525.570312 2855.203125 1528.75 2854.265625 1531.71875 C 2854.09375 1532.75 2853.867188 1533.71875 2853.59375 1534.632812 C 2853.304688 1535.546875 2853.179688 1536.445312 2853.179688 1537.296875 Z M 2853.179688 1537.296875 "/>
<path style=" stroke:none;fill-rule:nonzero;fill:rgb(0%,0%,0%);fill-opacity:1;" d="M 3079.6875 1452.96875 C 3075.5625 1455.03125 3070.875 1456.789062 3065.601562 1458.257812 C 3060.3125 1459.734375 3055.8125 1461.632812 3052.101562 1463.96875 C 3050.976562 1466.28125 3049.875 1468.546875 3048.765625 1470.796875 C 3047.640625 1473.03125 3046.453125 1475.195312 3045.1875 1477.296875 C 3039.390625 1487.25 3032.9375 1496.859375 3025.765625 1506.132812 C 3018.640625 1515.414062 3012.226562 1525.234375 3006.515625 1535.59375 C 3004.625 1536.539062 3003.0625 1537.59375 3001.851562 1538.757812 C 3000.6875 1539.90625 2999.265625 1540.976562 2997.601562 1542.007812 C 2995.539062 1542.5625 2993.5625 1542.734375 2991.6875 1542.546875 C 2989.851562 1542.382812 2988.101562 1542.15625 2986.4375 1541.882812 C 2984.976562 1541.6875 2983.976562 1541.546875 2983.4375 1541.46875 C 2975.4375 1531.53125 2968.125 1521 2961.515625 1509.882812 C 2954.953125 1498.75 2948.140625 1487.84375 2941.101562 1477.171875 C 2938.703125 1473.484375 2936.203125 1469.875 2933.601562 1466.34375 C 2930.976562 1462.820312 2928.203125 1459.328125 2925.265625 1455.882812 C 2923.601562 1455.609375 2921.953125 1455.53125 2920.351562 1455.632812 C 2918.789062 1455.71875 2917.265625 1455.796875 2915.765625 1455.882812 C 2914.101562 1456.078125 2912.515625 1456.203125 2911.015625 1456.257812 C 2909.5625 1456.289062 2908.101562 1456.164062 2906.601562 1455.882812 C 2905.3125 1454.859375 2904.953125 1453.953125 2905.515625 1453.171875 C 2906.0625 1452.40625 2906.703125 1451.632812 2907.4375 1450.882812 C 2907.8125 1450.609375 2908.140625 1450.359375 2908.4375 1450.132812 C 2908.703125 1449.882812 2908.9375 1449.625 2909.101562 1449.34375 C 2912.8125 1449.453125 2916.515625 1449.46875 2920.1875 1449.382812 C 2923.890625 1449.28125 2927.625 1449.171875 2931.351562 1449.09375 C 2934.125 1448.90625 2936.953125 1448.789062 2939.851562 1448.757812 C 2942.726562 1448.703125 2945.476562 1448.671875 2948.101562 1448.671875 C 2953.101562 1448.757812 2957.765625 1449.132812 2962.101562 1449.796875 C 2966.476562 1450.445312 2970.226562 1451.734375 2973.351562 1453.671875 C 2970.015625 1454.507812 2966.265625 1455.296875 2962.101562 1456.046875 C 2957.9375 1456.78125 2954.539062 1457.234375 2951.9375 1457.421875 C 2953.4375 1460.671875 2955.039062 1463.953125 2956.765625 1467.257812 C 2958.539062 1470.539062 2960.453125 1473.84375 2962.515625 1477.171875 C 2967.515625 1485.257812 2972.976562 1493.382812 2978.9375 1501.546875 C 2984.875 1509.695312 2989.890625 1517.882812 2994.015625 1526.132812 C 3000.453125 1518.359375 3006.953125 1510.453125 3013.515625 1502.421875 C 3020.125 1494.40625 3026.039062 1486.03125 3031.265625 1477.296875 C 3034.976562 1471.109375 3038.039062 1464.796875 3040.4375 1458.382812 C 3039.140625 1457.382812 3037.203125 1456.671875 3034.601562 1456.257812 C 3031.976562 1455.84375 3029.289062 1455.453125 3026.515625 1455.09375 C 3023.726562 1454.703125 3021.4375 1454.132812 3019.601562 1453.382812 C 3019.9375 1452 3021.6875 1450.953125 3024.851562 1450.257812 C 3028.015625 1449.570312 3031.890625 1449.132812 3036.515625 1448.96875 C 3041.1875 1448.78125 3045.953125 1448.71875 3050.851562 1448.796875 C 3055.789062 1448.882812 3060.203125 1449.03125 3064.101562 1449.21875 C 3067.4375 1449.414062 3070.539062 1449.859375 3073.4375 1450.546875 C 3076.3125 1451.25 3078.390625 1452.046875 3079.6875 1452.96875 Z M 3079.6875 1452.96875 "/>
<path style=" stroke:none;fill-rule:nonzero;fill:rgb(0%,0%,0%);fill-opacity:1;" d="M 3253.84375 1537.296875 L 3251.929688 1538.257812 C 3242.640625 1538.625 3233.21875 1538.828125 3223.679688 1538.882812 C 3214.117188 1538.945312 3204.515625 1538.914062 3194.84375 1538.796875 C 3184.28125 1538.796875 3173.804688 1538.828125 3163.429688 1538.882812 C 3153.03125 1538.945312 3142.929688 1539.25 3133.09375 1539.796875 C 3130.140625 1538.78125 3128.84375 1537.78125 3129.179688 1536.796875 C 3129.554688 1535.828125 3130.117188 1534.921875 3130.84375 1534.09375 C 3131.78125 1533.257812 3132.265625 1532.703125 3132.265625 1532.421875 C 3133.367188 1532.039062 3134.703125 1531.84375 3136.265625 1531.84375 C 3137.867188 1531.84375 3139.515625 1531.84375 3141.179688 1531.84375 C 3142.117188 1531.84375 3143.09375 1531.875 3144.09375 1531.921875 C 3145.09375 1531.984375 3146.054688 1531.953125 3147.015625 1531.84375 C 3147.953125 1525.09375 3148.429688 1517.96875 3148.429688 1510.46875 C 3148.429688 1502.945312 3148.304688 1495.609375 3148.09375 1488.46875 C 3148.09375 1486.5 3148.03125 1484.59375 3147.929688 1482.757812 C 3147.867188 1480.90625 3147.84375 1479.039062 3147.84375 1477.171875 C 3147.679688 1473.65625 3147.617188 1470.320312 3147.679688 1467.171875 C 3147.78125 1464.007812 3147.929688 1461.039062 3148.09375 1458.257812 C 3146.804688 1458.070312 3145.46875 1457.953125 3144.09375 1457.921875 C 3142.703125 1457.875 3141.34375 1457.84375 3140.015625 1457.84375 C 3137.617188 1457.84375 3135.34375 1457.734375 3133.179688 1457.507812 C 3131.054688 1457.257812 3129.28125 1456.632812 3127.84375 1455.632812 C 3128.015625 1455.359375 3128.179688 1454.984375 3128.34375 1454.507812 C 3128.71875 1453.40625 3129.34375 1452.320312 3130.179688 1451.257812 C 3131.015625 1450.171875 3132.71875 1449.671875 3135.34375 1449.757812 C 3142.390625 1449.875 3150.21875 1450 3158.84375 1450.132812 C 3167.453125 1450.28125 3176.015625 1450.34375 3184.515625 1450.34375 C 3193.054688 1450.34375 3200.390625 1450.34375 3206.515625 1450.34375 C 3208.78125 1450.34375 3211.03125 1450.296875 3213.265625 1450.21875 C 3215.46875 1450.109375 3217.703125 1450.007812 3219.929688 1449.921875 C 3226.203125 1449.65625 3232.304688 1449.507812 3238.265625 1449.507812 C 3244.203125 1449.507812 3249.390625 1450.289062 3253.84375 1451.84375 C 3253.679688 1452.789062 3253.617188 1453.882812 3253.679688 1455.132812 C 3253.78125 1456.382812 3253.84375 1457.703125 3253.84375 1459.09375 C 3254.21875 1461.703125 3254.367188 1464.359375 3254.265625 1467.046875 C 3254.140625 1469.71875 3253.367188 1471.84375 3251.929688 1473.421875 C 3248.59375 1473.789062 3246.117188 1473.578125 3244.515625 1472.796875 C 3242.953125 1472.03125 3241.890625 1470.921875 3241.34375 1469.507812 C 3240.617188 1467.671875 3240.117188 1465.578125 3239.84375 1463.21875 C 3239.554688 1460.828125 3238.554688 1459.039062 3236.84375 1457.84375 C 3234.617188 1457.84375 3232.179688 1457.84375 3229.515625 1457.84375 C 3226.84375 1457.84375 3224.015625 1457.796875 3221.015625 1457.71875 C 3212.117188 1457.71875 3202.703125 1457.71875 3192.765625 1457.71875 C 3182.867188 1457.71875 3174.84375 1457.90625 3168.679688 1458.257812 C 3168.890625 1459.453125 3169.015625 1460.984375 3169.015625 1462.84375 C 3169.015625 1464.703125 3168.890625 1466.789062 3168.679688 1469.09375 C 3168.679688 1470.40625 3168.679688 1471.734375 3168.679688 1473.09375 C 3168.679688 1474.421875 3168.679688 1475.789062 3168.679688 1477.171875 C 3168.679688 1479.40625 3168.804688 1481.632812 3169.09375 1483.882812 C 3169.367188 1486.109375 3169.703125 1488.234375 3170.09375 1490.257812 C 3177.304688 1489.90625 3184.765625 1489.671875 3192.429688 1489.59375 C 3200.140625 1489.484375 3207.71875 1489.328125 3215.179688 1489.132812 C 3217.554688 1488.578125 3219.304688 1487.734375 3220.429688 1486.59375 C 3221.53125 1485.421875 3222.554688 1484.171875 3223.515625 1482.84375 C 3224.453125 1481.484375 3225.679688 1480.34375 3227.179688 1479.421875 C 3228.453125 1479.039062 3229.53125 1478.914062 3230.429688 1479.046875 C 3231.367188 1479.195312 3232.390625 1479.40625 3233.515625 1479.671875 C 3233.890625 1479.789062 3234.367188 1479.914062 3234.929688 1480.046875 C 3235.46875 1480.195312 3236.117188 1480.296875 3236.84375 1480.382812 C 3235.71875 1482.414062 3235.09375 1484.734375 3234.929688 1487.34375 C 3234.765625 1489.921875 3234.765625 1492.570312 3234.929688 1495.257812 C 3234.929688 1497.484375 3234.804688 1499.664062 3234.59375 1501.796875 C 3234.429688 1503.945312 3234.054688 1505.796875 3233.515625 1507.382812 C 3229.28125 1507.546875 3226.515625 1507.007812 3225.179688 1505.757812 C 3223.890625 1504.507812 3222.867188 1503.09375 3222.09375 1501.507812 C 3221.765625 1500.875 3221.390625 1500.234375 3221.015625 1499.59375 C 3220.617188 1498.921875 3220.140625 1498.320312 3219.59375 1497.757812 C 3211.09375 1497.125 3202.203125 1496.757812 3192.929688 1496.671875 C 3183.640625 1496.570312 3175.554688 1497.296875 3168.679688 1498.882812 C 3169.054688 1504 3169.34375 1509.21875 3169.515625 1514.546875 C 3169.71875 1519.882812 3169.453125 1525.46875 3168.679688 1531.296875 C 3175.554688 1531.5 3183.09375 1531.632812 3191.265625 1531.71875 C 3199.429688 1531.796875 3207.59375 1531.695312 3215.765625 1531.382812 C 3223.929688 1531.046875 3231.34375 1530.46875 3238.015625 1529.632812 C 3240.054688 1527.859375 3241.453125 1525.84375 3242.179688 1523.59375 C 3242.890625 1521.320312 3243.953125 1519.164062 3245.34375 1517.132812 C 3246.71875 1515.078125 3249.28125 1513.671875 3253.015625 1512.921875 C 3255.78125 1515.703125 3257.03125 1518.789062 3256.765625 1522.171875 C 3256.46875 1525.570312 3255.867188 1528.75 3254.929688 1531.71875 C 3254.765625 1532.75 3254.53125 1533.71875 3254.265625 1534.632812 C 3253.96875 1535.546875 3253.84375 1536.445312 3253.84375 1537.296875 Z M 3253.84375 1537.296875 "/>
<path style=" stroke:none;fill-rule:nonzero;fill:rgb(0%,0%,0%);fill-opacity:1;" d="M 3468.6875 1539.21875 C 3462.5625 1540.046875 3456.851562 1540.320312 3451.515625 1540.007812 C 3446.226562 1539.671875 3440.890625 1539.195312 3435.515625 1538.546875 C 3431.851562 1536.296875 3428.703125 1533.578125 3426.101562 1530.382812 C 3423.476562 1527.195312 3421.0625 1523.820312 3418.851562 1520.257812 C 3416.625 1516.671875 3414.039062 1513.296875 3411.101562 1510.132812 C 3408.101562 1506.914062 3404.515625 1504.234375 3400.351562 1502.09375 C 3396.1875 1499.953125 3390.765625 1498.65625 3384.101562 1498.171875 C 3381.3125 1498.007812 3378.4375 1497.921875 3375.4375 1497.921875 C 3372.476562 1497.921875 3369.625 1497.96875 3366.851562 1498.046875 C 3364.625 1498.132812 3362.5625 1498.171875 3360.6875 1498.171875 C 3358.851562 1498.171875 3357.1875 1498.132812 3355.6875 1498.046875 C 3355.289062 1500.546875 3355.140625 1503.046875 3355.265625 1505.546875 C 3355.375 1508.046875 3355.601562 1510.570312 3355.9375 1513.09375 C 3356.140625 1515.875 3356.351562 1518.671875 3356.515625 1521.507812 C 3356.6875 1524.320312 3356.390625 1527.125 3355.6875 1529.921875 C 3356.953125 1531.320312 3359.1875 1532.21875 3362.351562 1532.632812 C 3365.515625 1533.046875 3368.703125 1533.46875 3371.9375 1533.882812 C 3375.203125 1534.296875 3377.601562 1535.109375 3379.101562 1536.296875 C 3376.8125 1537.796875 3373.0625 1538.71875 3367.851562 1539.046875 C 3362.6875 1539.359375 3357.140625 1539.507812 3351.265625 1539.507812 C 3349.765625 1539.507812 3348.1875 1539.507812 3346.515625 1539.507812 C 3344.851562 1539.507812 3343.265625 1539.507812 3341.765625 1539.507812 C 3336.765625 1539.421875 3332.125 1539.414062 3327.851562 1539.46875 C 3323.5625 1539.5 3320.140625 1539.75 3317.601562 1540.21875 C 3316.101562 1538.28125 3316.0625 1536.820312 3317.515625 1535.84375 C 3319.015625 1534.84375 3320.976562 1534.03125 3323.4375 1533.382812 C 3325.8125 1532.75 3328.265625 1532.15625 3330.765625 1531.59375 C 3333.265625 1531.039062 3334.976562 1530.203125 3335.9375 1529.09375 C 3335.539062 1519.90625 3335.203125 1511.132812 3334.9375 1502.796875 C 3334.640625 1494.445312 3334.351562 1485.90625 3334.015625 1477.171875 L 3333.1875 1456.71875 C 3331.6875 1456.445312 3330.125 1456.296875 3328.515625 1456.296875 C 3326.953125 1456.296875 3325.4375 1456.296875 3323.9375 1456.296875 C 3322.101562 1456.414062 3320.289062 1456.445312 3318.515625 1456.382812 C 3316.789062 1456.328125 3315.1875 1455.984375 3313.6875 1455.34375 C 3313.851562 1454.875 3313.789062 1454.5 3313.515625 1454.21875 C 3313.226562 1453.945312 3312.9375 1453.664062 3312.601562 1453.382812 C 3312.375 1453.109375 3312.1875 1452.820312 3312.015625 1452.507812 C 3311.851562 1452.171875 3311.9375 1451.820312 3312.265625 1451.421875 C 3315.976562 1450.421875 3320.203125 1449.859375 3324.9375 1449.71875 C 3329.640625 1449.578125 3334.625 1449.546875 3339.851562 1449.632812 C 3341.851562 1449.632812 3343.875 1449.632812 3345.9375 1449.632812 C 3347.976562 1449.632812 3350.039062 1449.59375 3352.101562 1449.507812 C 3362.640625 1449.125 3372.976562 1448.953125 3383.101562 1449.007812 C 3393.203125 1449.070312 3402.5625 1449.539062 3411.1875 1450.421875 C 3419.789062 1451.289062 3427.0625 1452.882812 3433.015625 1455.21875 C 3438.015625 1457.164062 3441.8125 1459.71875 3444.4375 1462.882812 C 3447.039062 1466.03125 3447.875 1470.046875 3446.9375 1474.96875 C 3446.765625 1475.328125 3446.4375 1475.703125 3445.9375 1476.09375 C 3445.476562 1476.453125 3445.101562 1476.859375 3444.765625 1477.296875 C 3443.640625 1478.414062 3442.625 1479.546875 3441.6875 1480.71875 C 3440.726562 1481.882812 3439.976562 1483.125 3439.4375 1484.421875 C 3435.140625 1485.257812 3431.515625 1486.445312 3428.515625 1487.96875 C 3425.5625 1489.5 3422.4375 1490.914062 3419.101562 1492.21875 C 3415.765625 1493.5 3411.3125 1494.28125 3405.765625 1494.546875 C 3413.539062 1496.882812 3419.976562 1499.921875 3425.101562 1503.671875 C 3430.203125 1507.421875 3434.640625 1511.484375 3438.4375 1515.84375 C 3442.265625 1520.203125 3446.039062 1524.625 3449.765625 1529.09375 C 3450.640625 1529.375 3451.640625 1529.625 3452.765625 1529.84375 C 3453.875 1530.070312 3454.976562 1530.320312 3456.101562 1530.59375 C 3459.8125 1531.34375 3463.265625 1532.296875 3466.4375 1533.46875 C 3469.601562 1534.609375 3470.351562 1536.53125 3468.6875 1539.21875 Z M 3421.601562 1471.882812 C 3421.601562 1469.75 3420.953125 1467.53125 3419.6875 1465.21875 C 3418.390625 1462.882812 3416.375 1460.570312 3413.601562 1458.257812 C 3406.875 1456.507812 3399.851562 1455.539062 3392.515625 1455.34375 C 3385.226562 1455.15625 3377.3125 1455.109375 3368.765625 1455.21875 C 3366.9375 1455.21875 3365.0625 1455.25 3363.1875 1455.296875 C 3361.351562 1455.328125 3359.390625 1455.34375 3357.351562 1455.34375 C 3355.6875 1456.171875 3354.851562 1457.34375 3354.851562 1458.84375 C 3354.851562 1460.320312 3354.9375 1461.882812 3355.101562 1463.546875 C 3355.3125 1464.195312 3355.453125 1464.84375 3355.515625 1465.507812 C 3355.625 1466.15625 3355.6875 1466.789062 3355.6875 1467.421875 C 3355.6875 1468.921875 3355.5625 1470.507812 3355.351562 1472.171875 C 3355.1875 1473.84375 3355.015625 1475.507812 3354.851562 1477.171875 C 3354.6875 1479.59375 3354.601562 1482.078125 3354.601562 1484.632812 C 3354.601562 1487.195312 3354.953125 1489.71875 3355.6875 1492.21875 C 3364.5625 1492.945312 3373.726562 1492.945312 3383.1875 1492.21875 C 3392.6875 1491.46875 3400.390625 1489.945312 3406.351562 1487.632812 C 3413.390625 1484.828125 3418.039062 1481.382812 3420.265625 1477.296875 C 3421.140625 1475.46875 3421.601562 1473.664062 3421.601562 1471.882812 Z M 3421.601562 1471.882812 "/>
<path style=" stroke:none;fill-rule:nonzero;fill:rgb(0%,0%,0%);fill-opacity:1;" d="M 3657.875 1453.796875 C 3655.8125 1455.109375 3654.703125 1456.695312 3654.539062 1458.546875 C 3654.375 1460.382812 3654.453125 1462.289062 3654.789062 1464.257812 C 3654.789062 1464.421875 3654.890625 1464.75 3655.125 1465.21875 C 3655.453125 1467.359375 3655.5625 1469.46875 3655.453125 1471.546875 C 3655.390625 1473.632812 3654.0625 1475.375 3651.453125 1476.757812 C 3647.953125 1476.570312 3645.390625 1475.875 3643.789062 1474.671875 C 3642.226562 1473.484375 3641.078125 1472.039062 3640.375 1470.34375 C 3639.578125 1468.40625 3638.976562 1466.34375 3638.539062 1464.171875 C 3638.078125 1461.984375 3637.125 1460.15625 3635.625 1458.671875 C 3629.5 1457.84375 3622.039062 1457.320312 3613.203125 1457.09375 C 3604.375 1456.84375 3596.625 1456.859375 3589.953125 1457.132812 C 3589.953125 1460.382812 3589.953125 1463.695312 3589.953125 1467.046875 C 3589.953125 1470.382812 3589.875 1473.757812 3589.703125 1477.171875 C 3589.703125 1478.953125 3589.640625 1480.703125 3589.539062 1482.421875 C 3589.476562 1484.125 3589.453125 1485.859375 3589.453125 1487.632812 C 3589.226562 1494.859375 3589.125 1502.109375 3589.125 1509.382812 C 3589.125 1516.664062 3589.390625 1523.828125 3589.953125 1530.882812 C 3592 1531.71875 3594.5625 1532.296875 3597.625 1532.632812 C 3600.664062 1532.945312 3603.578125 1533.359375 3606.375 1533.882812 C 3609.140625 1534.382812 3611 1535.382812 3611.953125 1536.882812 C 3611 1538.078125 3608.726562 1538.882812 3605.125 1539.296875 C 3601.5 1539.71875 3597.289062 1539.921875 3592.453125 1539.921875 C 3587.625 1539.921875 3582.8125 1539.828125 3578.039062 1539.632812 C 3575.578125 1539.632812 3573.25 1539.625 3571.039062 1539.59375 C 3568.8125 1539.539062 3566.789062 1539.507812 3564.953125 1539.507812 C 3564 1539.507812 3563.0625 1539.539062 3562.125 1539.59375 C 3561.226562 1539.625 3560.226562 1539.632812 3559.125 1539.632812 C 3555.5625 1539.828125 3552.203125 1539.84375 3549.039062 1539.671875 C 3545.914062 1539.484375 3544.25 1538.414062 3544.039062 1536.46875 C 3544.039062 1535.71875 3544.578125 1535.03125 3545.703125 1534.382812 C 3546.8125 1533.71875 3547.75 1533.070312 3548.539062 1532.421875 C 3551.640625 1533.070312 3555.226562 1532.828125 3559.289062 1531.71875 C 3563.390625 1530.609375 3566.289062 1529.21875 3567.953125 1527.546875 C 3567.789062 1522.632812 3567.703125 1517.78125 3567.703125 1512.96875 C 3567.703125 1508.132812 3567.703125 1503.34375 3567.703125 1498.59375 C 3567.703125 1494.984375 3567.703125 1491.414062 3567.703125 1487.882812 C 3567.703125 1484.359375 3567.703125 1480.789062 3567.703125 1477.171875 C 3567.703125 1470.59375 3567.414062 1463.914062 3566.875 1457.132812 C 3559.8125 1456.5 3552.414062 1456.414062 3544.703125 1456.882812 C 3537.039062 1457.328125 3530.226562 1457.789062 3524.289062 1458.257812 C 3523.390625 1458.34375 3522.5625 1458.414062 3521.789062 1458.46875 C 3521.0625 1458.53125 3520.3125 1458.59375 3519.539062 1458.671875 C 3519.203125 1459.703125 3518.890625 1460.78125 3518.625 1461.882812 C 3518.328125 1463 3518.203125 1464.109375 3518.203125 1465.21875 C 3517.8125 1467.632812 3517.226562 1469.914062 3516.453125 1472.046875 C 3515.726562 1474.164062 3513.8125 1475.734375 3510.703125 1476.757812 C 3508.8125 1476.84375 3507.390625 1476.734375 3506.453125 1476.421875 C 3505.5625 1476.09375 3504.640625 1475.695312 3503.703125 1475.21875 C 3503.3125 1475.046875 3502.890625 1474.875 3502.453125 1474.671875 C 3502 1474.484375 3501.5 1474.296875 3500.953125 1474.132812 C 3502.0625 1470.328125 3502.625 1466.320312 3502.625 1462.09375 C 3502.625 1457.875 3503.8125 1454.234375 3506.203125 1451.171875 C 3515.078125 1450.34375 3525.078125 1449.90625 3536.203125 1449.84375 C 3547.375 1449.789062 3558.226562 1449.820312 3568.789062 1449.921875 C 3572.164062 1450.007812 3575.414062 1450.046875 3578.539062 1450.046875 C 3581.703125 1450.046875 3584.75 1450.046875 3587.703125 1450.046875 C 3590.875 1450.046875 3594.0625 1450.007812 3597.289062 1449.921875 C 3600.5625 1449.820312 3603.789062 1449.71875 3606.953125 1449.632812 C 3616.953125 1449.359375 3626.476562 1449.320312 3635.539062 1449.507812 C 3644.640625 1449.671875 3652.078125 1451.109375 3657.875 1453.796875 Z M 3657.875 1453.796875 "/>
<path style=" stroke:none;fill-rule:nonzero;fill:rgb(0%,0%,0%);fill-opacity:1;" d="M 3873.1875 1535.171875 C 3872.460938 1536.875 3870.609375 1538.03125 3867.609375 1538.632812 C 3864.648438 1539.21875 3861.046875 1539.546875 3856.773438 1539.632812 C 3854.773438 1539.632812 3852.734375 1539.625 3850.6875 1539.59375 C 3848.625 1539.539062 3846.570312 1539.507812 3844.523438 1539.507812 C 3840.296875 1539.320312 3836.460938 1539.25 3833.023438 1539.296875 C 3829.570312 1539.359375 3827.210938 1539.703125 3825.9375 1540.34375 C 3824.4375 1540.421875 3822.4375 1540.21875 3819.9375 1539.71875 C 3817.4375 1539.21875 3815.570312 1538.375 3814.359375 1537.171875 C 3813.1875 1535.953125 3813.609375 1534.453125 3815.609375 1532.671875 C 3818.046875 1532.125 3820.8125 1531.734375 3823.9375 1531.507812 C 3827.109375 1531.289062 3829.898438 1530.945312 3832.359375 1530.46875 C 3832.359375 1527.695312 3832.296875 1524.820312 3832.1875 1521.84375 C 3832.070312 1518.875 3832.023438 1515.953125 3832.023438 1513.09375 C 3831.859375 1509.921875 3831.710938 1506.921875 3831.609375 1504.09375 C 3831.546875 1501.257812 3831.609375 1498.695312 3831.773438 1496.382812 C 3820.273438 1495.632812 3808.710938 1495.320312 3797.109375 1495.421875 C 3785.484375 1495.507812 3774.3125 1495.65625 3763.609375 1495.84375 C 3759.484375 1495.84375 3755.523438 1495.882812 3751.6875 1495.96875 C 3747.898438 1496.046875 3744.1875 1496.09375 3740.523438 1496.09375 C 3740.523438 1498.789062 3740.546875 1501.34375 3740.609375 1503.757812 C 3740.710938 1506.171875 3740.773438 1508.5 3740.773438 1510.71875 C 3740.9375 1513.695312 3741.070312 1516.695312 3741.1875 1519.71875 C 3741.296875 1522.71875 3741.234375 1526.03125 3741.023438 1529.632812 C 3742.523438 1530.664062 3744.570312 1531.453125 3747.1875 1532.007812 C 3749.796875 1532.570312 3752.375 1533.125 3754.9375 1533.671875 C 3757.546875 1534.234375 3759.484375 1535.070312 3760.773438 1536.171875 C 3760.046875 1537.65625 3758.609375 1538.625 3756.4375 1539.09375 C 3754.3125 1539.570312 3751.710938 1539.75 3748.609375 1539.632812 C 3747.4375 1539.632812 3746.210938 1539.625 3744.9375 1539.59375 C 3743.648438 1539.539062 3742.359375 1539.46875 3741.023438 1539.382812 C 3738.796875 1539.28125 3736.4375 1539.171875 3733.9375 1539.09375 C 3731.4375 1539.007812 3728.875 1538.96875 3726.273438 1538.96875 C 3724.984375 1538.96875 3723.734375 1539.039062 3722.523438 1539.171875 C 3721.359375 1539.320312 3720.210938 1539.46875 3719.109375 1539.632812 C 3717.984375 1539.828125 3716.898438 1539.984375 3715.859375 1540.09375 C 3714.859375 1540.171875 3713.960938 1540.164062 3713.1875 1540.046875 C 3710.234375 1539.78125 3707.6875 1538.945312 3705.523438 1537.546875 C 3703.398438 1536.164062 3702.898438 1534.875 3704.023438 1533.671875 C 3704.960938 1532.65625 3706.4375 1532.03125 3708.4375 1531.796875 C 3710.484375 1531.546875 3712.710938 1531.34375 3715.109375 1531.171875 C 3717.546875 1530.984375 3719.710938 1530.507812 3721.609375 1529.757812 C 3721.609375 1520.757812 3721.609375 1511.75 3721.609375 1502.71875 C 3721.609375 1493.664062 3721.398438 1485.15625 3721.023438 1477.171875 C 3720.859375 1473.375 3720.648438 1469.757812 3720.4375 1466.34375 C 3720.273438 1462.90625 3719.984375 1459.695312 3719.609375 1456.71875 C 3718.148438 1456.359375 3716.570312 1456.132812 3714.859375 1456.046875 C 3713.1875 1455.945312 3711.4375 1455.945312 3709.609375 1456.046875 C 3707.546875 1456.046875 3705.484375 1456.007812 3703.4375 1455.921875 C 3701.4375 1455.820312 3699.484375 1455.445312 3697.609375 1454.796875 C 3697.4375 1454.046875 3697.570312 1453.46875 3698.023438 1453.046875 C 3698.523438 1452.632812 3699.046875 1452.234375 3699.609375 1451.84375 C 3700.148438 1451.570312 3700.648438 1451.25 3701.109375 1450.882812 C 3701.609375 1450.53125 3701.859375 1450.007812 3701.859375 1449.34375 C 3705.734375 1449.539062 3709.710938 1449.59375 3713.773438 1449.507812 C 3717.875 1449.40625 3721.960938 1449.257812 3726.023438 1449.09375 C 3728.070312 1449.09375 3730.109375 1449.046875 3732.109375 1448.96875 C 3734.148438 1448.859375 3736.210938 1448.796875 3738.273438 1448.796875 C 3743.648438 1448.71875 3748.523438 1448.984375 3752.859375 1449.59375 C 3757.234375 1450.171875 3760.546875 1451.445312 3762.773438 1453.382812 C 3760.875 1454.5 3758.070312 1455.171875 3754.359375 1455.421875 C 3750.6875 1455.65625 3746.625 1455.71875 3742.1875 1455.632812 C 3740.859375 1457.945312 3740.125 1461.09375 3740.023438 1465.09375 C 3739.960938 1469.070312 3740.023438 1473.09375 3740.1875 1477.171875 L 3740.1875 1477.46875 C 3740.398438 1479.328125 3740.546875 1481.164062 3740.609375 1482.96875 C 3740.710938 1484.78125 3740.6875 1486.46875 3740.523438 1488.046875 C 3750.6875 1488.5 3761.148438 1488.671875 3771.9375 1488.59375 C 3782.710938 1488.507812 3793.296875 1488.375 3803.6875 1488.171875 C 3808.296875 1488.09375 3812.875 1488.007812 3817.4375 1487.921875 C 3821.984375 1487.820312 3826.398438 1487.757812 3830.6875 1487.757812 C 3831.398438 1486.171875 3831.796875 1484.539062 3831.859375 1482.84375 C 3831.960938 1481.125 3831.859375 1479.28125 3831.523438 1477.296875 C 3831.296875 1476.195312 3831.109375 1475.039062 3830.9375 1473.84375 C 3830.773438 1472.65625 3830.484375 1471.445312 3830.109375 1470.21875 C 3829.710938 1467.914062 3829.3125 1465.625 3828.9375 1463.34375 C 3828.609375 1461.070312 3828.523438 1458.859375 3828.6875 1456.71875 C 3826.070312 1456.71875 3822.960938 1456.609375 3819.359375 1456.382812 C 3815.734375 1456.164062 3812.359375 1455.78125 3809.1875 1455.21875 C 3808.070312 1454.28125 3807.796875 1453.445312 3808.359375 1452.71875 C 3808.898438 1451.96875 3809.570312 1451.257812 3810.359375 1450.59375 C 3810.6875 1450.320312 3811.046875 1450.03125 3811.4375 1449.71875 C 3811.8125 1449.382812 3812.109375 1449.039062 3812.273438 1448.671875 C 3815.609375 1448.757812 3818.984375 1448.789062 3822.4375 1448.757812 C 3825.875 1448.703125 3829.1875 1448.625 3832.359375 1448.507812 C 3840.125 1448.34375 3847.4375 1448.359375 3854.273438 1448.546875 C 3861.148438 1448.71875 3867.023438 1449.59375 3871.859375 1451.171875 C 3870.734375 1452.921875 3868.273438 1454.007812 3864.4375 1454.421875 C 3860.648438 1454.84375 3856.359375 1455.007812 3851.523438 1454.921875 C 3850.960938 1458.171875 3850.570312 1461.703125 3850.359375 1465.507812 C 3850.1875 1469.320312 3850.210938 1473.25 3850.4375 1477.296875 C 3850.4375 1479.828125 3850.523438 1482.34375 3850.6875 1484.84375 C 3850.859375 1487.34375 3851.046875 1489.882812 3851.273438 1492.46875 C 3851.609375 1499.25 3851.8125 1505.882812 3851.9375 1512.382812 C 3852.046875 1518.882812 3851.625 1524.671875 3850.6875 1529.757812 C 3853.296875 1531.257812 3856.773438 1532.171875 3861.109375 1532.507812 C 3865.484375 1532.820312 3869.523438 1533.703125 3873.1875 1535.171875 Z M 3873.1875 1535.171875 "/>
<path style=" stroke:none;fill-rule:nonzero;fill:rgb(0%,0%,0%);fill-opacity:1;" d="M 3997.617188 1453.09375 C 3996.65625 1454.507812 3994.46875 1455.320312 3991.03125 1455.507812 C 3987.578125 1455.671875 3984.03125 1455.71875 3980.367188 1455.632812 C 3979.242188 1455.632812 3978.140625 1455.632812 3977.03125 1455.632812 C 3975.90625 1455.632812 3974.804688 1455.632812 3973.703125 1455.632812 C 3972.90625 1455.914062 3973.078125 1456.609375 3974.203125 1457.71875 C 3974.578125 1458.078125 3974.90625 1458.46875 3975.203125 1458.882812 C 3975.46875 1459.296875 3975.617188 1459.695312 3975.617188 1460.046875 C 3974.890625 1460.445312 3974.328125 1460.882812 3973.953125 1461.382812 C 3973.554688 1461.882812 3973.203125 1462.507812 3972.867188 1463.257812 C 3972.640625 1465.59375 3972.53125 1467.90625 3972.53125 1470.171875 C 3972.53125 1472.421875 3972.453125 1474.757812 3972.28125 1477.171875 C 3972.117188 1486.09375 3971.96875 1495.09375 3971.867188 1504.171875 C 3971.742188 1513.257812 3971.703125 1522.296875 3971.703125 1531.296875 C 3975.96875 1531.382812 3980.617188 1531.90625 3985.617188 1532.84375 C 3990.617188 1533.757812 3994.21875 1535.195312 3996.453125 1537.132812 C 3991.828125 1538.53125 3986.492188 1539.28125 3980.453125 1539.382812 C 3974.453125 1539.46875 3968.203125 1539.414062 3961.703125 1539.21875 C 3957.804688 1539.132812 3953.953125 1539.078125 3950.117188 1539.046875 C 3946.328125 1539 3942.703125 1539.109375 3939.203125 1539.382812 C 3938.078125 1539.46875 3937.21875 1539.671875 3936.617188 1540.007812 C 3936.054688 1540.320312 3935.492188 1540.65625 3934.953125 1541.046875 C 3934.390625 1541.601562 3933.640625 1542.09375 3932.703125 1542.507812 C 3931.804688 1542.921875 3930.328125 1542.984375 3928.28125 1542.71875 C 3926.453125 1541.40625 3925.742188 1540.125 3926.203125 1538.84375 C 3926.703125 1537.539062 3927.71875 1536.296875 3929.28125 1535.132812 C 3930.828125 1533.96875 3932.28125 1533.007812 3933.617188 1532.257812 C 3934.492188 1532.257812 3935.453125 1532.257812 3936.453125 1532.257812 C 3937.492188 1532.257812 3938.578125 1532.257812 3939.703125 1532.257812 C 3941.90625 1532.257812 3944.140625 1532.257812 3946.367188 1532.257812 C 3948.578125 1532.257812 3950.53125 1532.078125 3952.203125 1531.71875 C 3952.03125 1523.359375 3951.953125 1514.484375 3951.953125 1505.09375 C 3951.953125 1495.671875 3951.742188 1486.375 3951.367188 1477.171875 C 3951.203125 1469.953125 3950.640625 1463 3949.703125 1456.296875 C 3948.40625 1456.132812 3947.03125 1456.03125 3945.53125 1455.96875 C 3944.078125 1455.914062 3942.53125 1455.882812 3940.867188 1455.882812 C 3938.242188 1455.882812 3935.71875 1455.84375 3933.28125 1455.757812 C 3930.890625 1455.671875 3928.78125 1455.257812 3926.953125 1454.507812 C 3926.554688 1453.757812 3926.578125 1453.203125 3927.03125 1452.84375 C 3927.53125 1452.453125 3928.054688 1452.078125 3928.617188 1451.71875 C 3929.15625 1451.445312 3929.617188 1451.15625 3929.953125 1450.84375 C 3930.328125 1450.507812 3930.53125 1450.109375 3930.53125 1449.632812 C 3936.304688 1449.632812 3942.46875 1449.5 3949.03125 1449.21875 C 3955.640625 1448.945312 3962.078125 1448.796875 3968.367188 1448.796875 C 3974.703125 1448.796875 3980.453125 1449.078125 3985.617188 1449.632812 C 3990.828125 1450.195312 3994.828125 1451.34375 3997.617188 1453.09375 Z M 3997.617188 1453.09375 "/>
<path style=" stroke:none;fill-rule:nonzero;fill:rgb(0%,0%,0%);fill-opacity:1;" d="M 4232.726562 1451.71875 C 4232.5625 1453.664062 4230.640625 1454.828125 4226.976562 1455.21875 C 4223.351562 1455.578125 4219.4375 1455.757812 4215.226562 1455.757812 C 4213.726562 1455.953125 4212.726562 1456.40625 4212.226562 1457.09375 C 4211.765625 1457.789062 4211.351562 1458.53125 4210.976562 1459.296875 C 4210.640625 1460.078125 4209.515625 1460.75 4207.640625 1461.296875 C 4208.179688 1463.828125 4208.601562 1466.445312 4208.890625 1469.132812 C 4209.164062 1471.796875 4209.414062 1474.53125 4209.640625 1477.296875 C 4209.8125 1480.46875 4209.890625 1483.703125 4209.890625 1487.007812 C 4209.890625 1490.289062 4209.890625 1493.59375 4209.890625 1496.921875 C 4210.0625 1504.070312 4210.265625 1511.09375 4210.5625 1518.007812 C 4210.828125 1524.921875 4211.8125 1531.257812 4213.476562 1537.007812 C 4211.476562 1538.484375 4208.328125 1539.320312 4204.0625 1539.507812 C 4199.765625 1539.703125 4196.8125 1539.289062 4195.140625 1538.257812 C 4190.679688 1535.570312 4186.476562 1532.546875 4182.476562 1529.21875 C 4178.476562 1525.882812 4173.8125 1522.632812 4168.476562 1519.46875 C 4158.414062 1513.53125 4148.742188 1506.757812 4139.476562 1499.171875 C 4130.179688 1491.570312 4120.914062 1484.234375 4111.640625 1477.171875 C 4108.140625 1474.320312 4104.515625 1471.59375 4100.8125 1469.007812 C 4097.078125 1466.40625 4093.390625 1463.921875 4089.726562 1461.59375 C 4089.492188 1464.375 4089.3125 1467.03125 4089.140625 1469.546875 C 4088.976562 1472.046875 4088.890625 1474.59375 4088.890625 1477.171875 C 4088.890625 1480.625 4088.976562 1484.171875 4089.140625 1487.84375 C 4089.3125 1491.484375 4089.492188 1495.539062 4089.726562 1500.007812 C 4089.726562 1501.671875 4089.664062 1503.414062 4089.5625 1505.21875 C 4089.4375 1507.03125 4089.3125 1508.796875 4089.140625 1510.546875 C 4088.742188 1514.28125 4088.492188 1517.789062 4088.390625 1521.09375 C 4088.328125 1524.375 4089.140625 1527.078125 4090.8125 1529.21875 C 4091.742188 1530.53125 4093.414062 1531.5 4095.8125 1532.132812 C 4098.179688 1532.78125 4100.679688 1533.359375 4103.3125 1533.882812 C 4105.914062 1534.382812 4107.851562 1535.09375 4109.140625 1536.007812 C 4108.414062 1537.15625 4106.890625 1537.90625 4104.5625 1538.257812 C 4102.265625 1538.625 4100.5625 1539.21875 4099.390625 1540.046875 C 4096.0625 1539.414062 4092.578125 1539.125 4088.976562 1539.171875 C 4085.351562 1539.203125 4081.8125 1539.359375 4078.3125 1539.632812 C 4074.414062 1539.828125 4070.679688 1539.921875 4067.140625 1539.921875 C 4063.640625 1539.921875 4060.390625 1539.507812 4057.390625 1538.671875 C 4056.265625 1537.921875 4055.851562 1537.296875 4056.140625 1536.796875 C 4056.414062 1536.28125 4056.828125 1535.789062 4057.390625 1535.34375 C 4057.765625 1534.953125 4058.140625 1534.609375 4058.476562 1534.296875 C 4058.851562 1533.96875 4059.0625 1533.570312 4059.0625 1533.09375 C 4061.492188 1532.65625 4063.992188 1532.257812 4066.5625 1531.921875 C 4069.164062 1531.59375 4071.765625 1531.25 4074.390625 1530.882812 C 4076.0625 1523.75 4076.742188 1516.289062 4076.476562 1508.507812 C 4076.179688 1500.703125 4075.578125 1492.671875 4074.640625 1484.421875 C 4074.640625 1483.203125 4074.578125 1482 4074.476562 1480.796875 C 4074.414062 1479.578125 4074.3125 1478.375 4074.140625 1477.171875 C 4073.914062 1473.65625 4073.664062 1470.15625 4073.390625 1466.671875 C 4073.101562 1463.203125 4072.890625 1459.703125 4072.726562 1456.171875 C 4070.492188 1456.539062 4068.164062 1456.671875 4065.726562 1456.59375 C 4063.328125 1456.507812 4061.3125 1456.234375 4059.640625 1455.757812 C 4057.8125 1455.125 4056.679688 1454.25 4056.3125 1453.132812 C 4055.914062 1452 4057.015625 1450.695312 4059.640625 1449.21875 C 4062.015625 1449.296875 4064.414062 1449.34375 4066.8125 1449.34375 C 4069.242188 1449.34375 4071.679688 1449.296875 4074.140625 1449.21875 C 4080.414062 1449.21875 4086.5625 1449.320312 4092.5625 1449.507812 C 4098.601562 1449.671875 4104.328125 1450.375 4109.726562 1451.59375 C 4109.726562 1452.039062 4109.476562 1452.359375 4108.976562 1452.546875 C 4108.515625 1452.75 4108.015625 1452.921875 4107.476562 1453.09375 C 4106.015625 1453.375 4105.3125 1453.75 4105.3125 1454.21875 C 4110.476562 1458.03125 4115.679688 1461.859375 4120.976562 1465.71875 C 4126.242188 1469.546875 4131.492188 1473.375 4136.726562 1477.171875 C 4146.726562 1484.320312 4156.765625 1491.453125 4166.890625 1498.59375 C 4176.992188 1505.734375 4186.976562 1512.789062 4196.8125 1519.757812 C 4196.414062 1512.625 4196.226562 1505.53125 4196.226562 1498.46875 C 4196.226562 1491.414062 4196.0625 1484.359375 4195.726562 1477.296875 C 4195.328125 1470.359375 4194.492188 1463.414062 4193.226562 1456.46875 C 4191.890625 1456.195312 4190.578125 1456.007812 4189.3125 1455.921875 C 4188.015625 1455.820312 4186.726562 1455.757812 4185.390625 1455.757812 C 4182.992188 1455.570312 4180.851562 1455.328125 4178.976562 1455.046875 C 4177.140625 1454.78125 4176.140625 1454.039062 4175.976562 1452.84375 C 4175.742188 1451.257812 4177.992188 1450.125 4182.726562 1449.421875 C 4187.492188 1448.734375 4193.015625 1448.34375 4199.3125 1448.257812 C 4204.140625 1448.15625 4208.976562 1448.234375 4213.8125 1448.507812 C 4218.640625 1448.789062 4222.8125 1449.203125 4226.3125 1449.757812 C 4229.851562 1450.320312 4231.992188 1450.96875 4232.726562 1451.71875 Z M 4232.726562 1451.71875 "/>
<path style=" stroke:none;fill-rule:nonzero;fill:rgb(0%,0%,0%);fill-opacity:1;" d="M 4453.882812 1500.96875 C 4453.15625 1502.164062 4451.484375 1502.859375 4448.882812 1503.046875 C 4446.320312 1503.25 4443.46875 1503.34375 4440.296875 1503.34375 C 4438.96875 1503.34375 4437.59375 1503.375 4436.21875 1503.421875 C 4434.820312 1503.453125 4433.570312 1503.53125 4432.46875 1503.632812 C 4430.796875 1505.578125 4429.820312 1507.921875 4429.546875 1510.671875 C 4429.257812 1513.40625 4429.234375 1516.234375 4429.46875 1519.171875 C 4429.632812 1522.070312 4429.59375 1524.953125 4429.382812 1527.84375 C 4429.21875 1530.703125 4428.296875 1533.25 4426.632812 1535.46875 C 4424.234375 1536.296875 4421.820312 1536.75 4419.382812 1536.796875 C 4416.984375 1536.859375 4414.59375 1536.375 4412.21875 1535.34375 C 4406.59375 1537.203125 4399.796875 1538.664062 4391.796875 1539.71875 C 4383.84375 1540.765625 4375.507812 1541.359375 4366.796875 1541.507812 C 4358.070312 1541.640625 4349.570312 1541.1875 4341.296875 1540.132812 C 4333.070312 1539.078125 4325.820312 1537.34375 4319.546875 1534.921875 C 4317.882812 1534.257812 4316.421875 1533.359375 4315.21875 1532.21875 C 4313.984375 1531.046875 4312.546875 1530.046875 4310.882812 1529.21875 C 4309.046875 1528.195312 4307.046875 1527.359375 4304.882812 1526.71875 C 4302.757812 1526.046875 4301.15625 1525.359375 4300.046875 1524.632812 C 4294.484375 1520.828125 4290.34375 1516.453125 4287.632812 1511.507812 C 4284.96875 1506.539062 4283.632812 1501.40625 4283.632812 1496.09375 C 4283.632812 1492.84375 4284.070312 1489.625 4284.96875 1486.421875 C 4285.90625 1483.234375 4287.21875 1480.15625 4288.882812 1477.171875 C 4292.046875 1471.703125 4296.546875 1466.75 4302.382812 1462.296875 C 4308.21875 1457.859375 4315.21875 1454.46875 4323.382812 1452.132812 C 4328.757812 1450.664062 4334.921875 1449.46875 4341.882812 1448.546875 C 4348.882812 1447.609375 4356.171875 1447.09375 4363.796875 1447.007812 C 4369.671875 1446.90625 4375.632812 1447.15625 4381.632812 1447.757812 C 4387.671875 1448.375 4393.320312 1449.375 4398.546875 1450.757812 C 4399.820312 1450.203125 4401.21875 1450 4402.71875 1450.132812 C 4404.21875 1450.28125 4405.671875 1450.421875 4407.132812 1450.59375 C 4408.234375 1450.789062 4409.257812 1450.953125 4410.21875 1451.09375 C 4411.15625 1451.234375 4412.09375 1451.257812 4413.046875 1451.171875 C 4414.15625 1451.070312 4415.257812 1450.875 4416.382812 1450.59375 C 4417.484375 1450.320312 4418.484375 1450.039062 4419.382812 1449.757812 C 4420.882812 1449.320312 4422.320312 1448.953125 4423.71875 1448.671875 C 4425.09375 1448.40625 4426.632812 1448.445312 4428.296875 1448.796875 C 4427.40625 1450.382812 4427.046875 1452.109375 4427.21875 1453.96875 C 4427.382812 1455.796875 4427.65625 1457.695312 4428.046875 1459.632812 C 4428.21875 1460.578125 4428.382812 1461.53125 4428.546875 1462.46875 C 4428.757812 1463.382812 4428.882812 1464.257812 4428.882812 1465.09375 C 4429.046875 1467.203125 4428.65625 1469.15625 4427.71875 1470.921875 C 4426.820312 1472.671875 4424.796875 1474.070312 4421.632812 1475.09375 C 4418.46875 1474.34375 4416.65625 1473.328125 4416.21875 1472.046875 C 4415.757812 1470.75 4415.546875 1469.34375 4415.546875 1467.84375 C 4415.546875 1467.007812 4415.421875 1466.164062 4415.21875 1465.296875 C 4415.046875 1464.414062 4414.671875 1463.546875 4414.132812 1462.71875 C 4411.734375 1459.195312 4406.21875 1456.632812 4397.546875 1455.046875 C 4388.921875 1453.46875 4379.71875 1452.78125 4369.882812 1452.96875 C 4362.984375 1453.046875 4356.21875 1453.53125 4349.546875 1454.382812 C 4342.882812 1455.21875 4337.40625 1456.414062 4333.132812 1457.96875 C 4327.40625 1460.03125 4322.671875 1462.71875 4318.96875 1466.046875 C 4315.234375 1469.382812 4312.46875 1473.09375 4310.632812 1477.171875 C 4309.671875 1479.507812 4308.96875 1481.914062 4308.46875 1484.382812 C 4308.007812 1486.828125 4307.796875 1489.296875 4307.796875 1491.796875 C 4308.007812 1497.445312 4309.40625 1503.03125 4311.96875 1508.546875 C 4314.570312 1514.078125 4318.320312 1518.953125 4323.21875 1523.171875 C 4328.15625 1527.40625 4334.070312 1530.484375 4340.96875 1532.421875 C 4348.007812 1533.703125 4355.921875 1534.46875 4364.71875 1534.71875 C 4373.546875 1534.945312 4381.90625 1534.546875 4389.796875 1533.546875 C 4397.671875 1532.53125 4403.65625 1530.84375 4407.71875 1528.507812 C 4407.15625 1526.289062 4406.882812 1523.882812 4406.882812 1521.296875 C 4406.882812 1518.695312 4407.070312 1516.09375 4407.46875 1513.507812 C 4407.46875 1511.921875 4407.484375 1510.34375 4407.546875 1508.757812 C 4407.65625 1507.171875 4407.71875 1505.65625 4407.71875 1504.171875 C 4406.046875 1503.34375 4403.84375 1502.921875 4401.132812 1502.921875 C 4398.46875 1502.921875 4395.921875 1503.007812 4393.546875 1503.171875 C 4391.484375 1503.375 4389.632812 1503.46875 4387.96875 1503.46875 C 4386.296875 1503.46875 4384.984375 1503.289062 4384.046875 1502.921875 C 4383.15625 1499.484375 4384.382812 1497.507812 4387.71875 1497.007812 C 4391.046875 1496.507812 4395.96875 1496.34375 4402.46875 1496.507812 C 4404.671875 1496.507812 4406.984375 1496.539062 4409.382812 1496.59375 C 4411.820312 1496.65625 4414.320312 1496.625 4416.882812 1496.507812 C 4417.984375 1496.507812 4419.09375 1496.5 4420.21875 1496.46875 C 4421.320312 1496.414062 4422.421875 1496.34375 4423.546875 1496.257812 C 4428.046875 1496.070312 4432.507812 1495.96875 4436.96875 1495.96875 C 4441.40625 1495.96875 4445.15625 1496.320312 4448.21875 1497.007812 C 4451.257812 1497.703125 4453.15625 1499.03125 4453.882812 1500.96875 Z M 4453.882812 1500.96875 "/>
<path style=" stroke:none;fill-rule:nonzero;fill:rgb(0%,0%,0%);fill-opacity:1;" d="M 4771.9375 1535.171875 C 4769.710938 1536.59375 4766.039062 1537.695312 4760.9375 1538.46875 C 4755.8125 1539.25 4750.148438 1539.734375 4743.9375 1539.921875 C 4737.773438 1540.125 4731.875 1540.007812 4726.273438 1539.59375 C 4720.710938 1539.171875 4716.460938 1538.5 4713.523438 1537.546875 C 4713.125 1536.914062 4713.148438 1536.414062 4713.601562 1536.046875 C 4714.101562 1535.664062 4714.625 1535.289062 4715.1875 1534.921875 C 4715.726562 1534.65625 4716.289062 1534.328125 4716.851562 1533.96875 C 4717.398438 1533.578125 4717.6875 1533.070312 4717.6875 1532.421875 C 4719.726562 1532.421875 4722.101562 1532.21875 4724.773438 1531.796875 C 4727.476562 1531.382812 4729.851562 1530.84375 4731.851562 1530.171875 C 4731.851562 1521.65625 4731.710938 1512.953125 4731.4375 1504.09375 C 4731.148438 1495.234375 4730.9375 1486.296875 4730.773438 1477.296875 C 4730.601562 1473.796875 4730.523438 1470.257812 4730.523438 1466.671875 C 4730.523438 1463.09375 4730.523438 1459.546875 4730.523438 1456.046875 C 4730.523438 1456.046875 4729.773438 1457.195312 4728.273438 1459.46875 C 4726.773438 1461.71875 4725.8125 1464.46875 4725.4375 1467.71875 C 4722.648438 1470.78125 4719.875 1473.96875 4717.101562 1477.296875 C 4712.476562 1482.96875 4707.710938 1488.84375 4702.773438 1494.921875 C 4697.875 1501.007812 4693.210938 1506.875 4688.773438 1512.507812 C 4687.273438 1514.453125 4685.5625 1516.695312 4683.6875 1519.21875 C 4681.851562 1521.71875 4680.210938 1524.078125 4678.773438 1526.296875 C 4678.539062 1526.664062 4678.351562 1527.039062 4678.1875 1527.421875 C 4678.023438 1527.789062 4677.8125 1528.203125 4677.601562 1528.671875 C 4676.875 1530.070312 4676.039062 1531.453125 4675.101562 1532.84375 C 4674.148438 1534.234375 4672.625 1535.34375 4670.523438 1536.171875 C 4668.398438 1537.007812 4665.398438 1537.195312 4661.523438 1536.71875 C 4652.5625 1527.164062 4644.210938 1517.328125 4636.4375 1507.21875 C 4628.648438 1497.109375 4620.6875 1487.09375 4612.523438 1477.171875 C 4610.0625 1474.203125 4607.6875 1471.320312 4605.351562 1468.507812 C 4603.0625 1465.671875 4600.625 1462.859375 4598.023438 1460.046875 C 4598.023438 1460.046875 4598.101562 1460.84375 4598.273438 1462.421875 C 4598.476562 1464.007812 4598.6875 1465.84375 4598.851562 1467.921875 C 4599.0625 1470.007812 4599.1875 1471.882812 4599.1875 1473.546875 L 4599.4375 1477.171875 C 4599.976562 1483.203125 4600.398438 1489.507812 4600.6875 1496.09375 C 4600.960938 1502.671875 4601.226562 1509.078125 4601.523438 1515.296875 C 4601.789062 1521.53125 4602.023438 1527.171875 4602.1875 1532.257812 C 4604.625 1533.203125 4607.375 1533.882812 4610.4375 1534.296875 C 4613.476562 1534.71875 4615.648438 1535.625 4616.9375 1537.007812 C 4615.101562 1538.320312 4612.1875 1539.21875 4608.1875 1539.71875 C 4604.1875 1540.21875 4599.8125 1540.4375 4595.101562 1540.382812 C 4590.375 1540.351562 4585.648438 1540.203125 4580.9375 1539.921875 C 4576.210938 1539.65625 4572.1875 1539.375 4568.851562 1539.09375 C 4567.523438 1536.671875 4568.710938 1534.734375 4572.4375 1533.257812 C 4576.148438 1531.757812 4580.148438 1530.734375 4584.4375 1530.171875 C 4586.4375 1522.203125 4587.210938 1513.671875 4586.773438 1504.59375 C 4586.3125 1495.507812 4585.625 1486.375 4584.6875 1477.171875 C 4584.289062 1473.757812 4583.960938 1470.382812 4583.6875 1467.046875 C 4583.398438 1463.695312 4583.101562 1460.382812 4582.773438 1457.132812 C 4580.710938 1456.96875 4578.3125 1456.882812 4575.601562 1456.882812 C 4572.9375 1456.882812 4570.023438 1456.789062 4566.851562 1456.59375 C 4566.851562 1456.125 4566.648438 1455.703125 4566.273438 1455.34375 C 4565.9375 1454.984375 4565.5625 1454.65625 4565.1875 1454.34375 C 4564.460938 1453.703125 4563.898438 1453.070312 4563.523438 1452.421875 C 4563.1875 1451.757812 4563.851562 1451.007812 4565.523438 1450.171875 C 4568.625 1450.171875 4571.710938 1450.109375 4574.773438 1449.96875 C 4577.875 1449.828125 4580.976562 1449.625 4584.101562 1449.34375 C 4590.039062 1448.984375 4595.726562 1448.757812 4601.1875 1448.671875 C 4606.6875 1448.570312 4611.648438 1449.257812 4616.101562 1450.757812 C 4616.648438 1451.203125 4616.9375 1451.632812 4616.9375 1452.046875 C 4616.9375 1452.46875 4616.851562 1452.875 4616.6875 1453.257812 C 4616.6875 1453.703125 4616.6875 1454.164062 4616.6875 1454.632812 C 4616.6875 1455.109375 4616.960938 1455.625 4617.523438 1456.171875 C 4620.6875 1459.59375 4623.6875 1463.070312 4626.523438 1466.59375 C 4629.398438 1470.125 4632.351562 1473.65625 4635.351562 1477.171875 C 4640.898438 1483.953125 4646.398438 1490.78125 4651.851562 1497.632812 C 4657.351562 1504.5 4663.226562 1511.125 4669.523438 1517.507812 C 4675.6875 1511.203125 4681.273438 1504.65625 4686.273438 1497.84375 C 4691.273438 1491.039062 4696.1875 1484.195312 4701.023438 1477.296875 C 4704.523438 1472.5 4708.0625 1467.757812 4711.6875 1463.09375 C 4715.289062 1458.40625 4719.226562 1453.875 4723.523438 1449.507812 C 4726.851562 1448.953125 4731.023438 1448.578125 4736.023438 1448.382812 C 4741.0625 1448.195312 4746.039062 1448.234375 4750.9375 1448.507812 C 4755.8125 1448.789062 4759.976562 1449.40625 4763.4375 1450.34375 C 4766.875 1451.257812 4768.789062 1452.59375 4769.1875 1454.34375 C 4768.398438 1455.09375 4767.101562 1455.570312 4765.273438 1455.757812 C 4763.4375 1455.953125 4761.398438 1456.046875 4759.1875 1456.046875 C 4757.6875 1456.046875 4756.1875 1456.09375 4754.6875 1456.171875 C 4753.1875 1456.257812 4751.875 1456.445312 4750.773438 1456.71875 C 4750.601562 1460.046875 4750.460938 1463.445312 4750.351562 1466.882812 C 4750.289062 1470.328125 4750.351562 1473.796875 4750.523438 1477.296875 C 4750.523438 1479.632812 4750.601562 1481.984375 4750.773438 1484.34375 C 4750.976562 1486.703125 4751.101562 1489.046875 4751.101562 1491.382812 C 4751.4375 1497.96875 4751.6875 1504.507812 4751.851562 1511.007812 C 4752.0625 1517.484375 4751.8125 1523.789062 4751.101562 1529.921875 C 4752.539062 1530.921875 4754.601562 1531.625 4757.273438 1532.007812 C 4759.976562 1532.375 4762.726562 1532.75 4765.523438 1533.132812 C 4768.289062 1533.5 4770.4375 1534.171875 4771.9375 1535.171875 Z M 4771.9375 1535.171875 "/>
<path style=" stroke:none;fill-rule:nonzero;fill:rgb(0%,0%,0%);fill-opacity:1;" d="M 4947.5 1537.296875 L 4945.585938 1538.257812 C 4936.296875 1538.625 4926.882812 1538.828125 4917.335938 1538.882812 C 4907.773438 1538.945312 4898.171875 1538.914062 4888.5 1538.796875 C 4877.9375 1538.796875 4867.460938 1538.828125 4857.085938 1538.882812 C 4846.6875 1538.945312 4836.585938 1539.25 4826.75 1539.796875 C 4823.796875 1538.78125 4822.5 1537.78125 4822.835938 1536.796875 C 4823.210938 1535.828125 4823.773438 1534.921875 4824.5 1534.09375 C 4825.4375 1533.257812 4825.921875 1532.703125 4825.921875 1532.421875 C 4827.023438 1532.039062 4828.359375 1531.84375 4829.921875 1531.84375 C 4831.523438 1531.84375 4833.171875 1531.84375 4834.835938 1531.84375 C 4835.773438 1531.84375 4836.75 1531.875 4837.75 1531.921875 C 4838.75 1531.984375 4839.710938 1531.953125 4840.671875 1531.84375 C 4841.609375 1525.09375 4842.085938 1517.96875 4842.085938 1510.46875 C 4842.085938 1502.945312 4841.960938 1495.609375 4841.75 1488.46875 C 4841.75 1486.5 4841.6875 1484.59375 4841.585938 1482.757812 C 4841.523438 1480.90625 4841.5 1479.039062 4841.5 1477.171875 C 4841.335938 1473.65625 4841.273438 1470.320312 4841.335938 1467.171875 C 4841.4375 1464.007812 4841.585938 1461.039062 4841.75 1458.257812 C 4840.460938 1458.070312 4839.125 1457.953125 4837.75 1457.921875 C 4836.359375 1457.875 4835 1457.84375 4833.671875 1457.84375 C 4831.273438 1457.84375 4829 1457.734375 4826.835938 1457.507812 C 4824.710938 1457.257812 4822.9375 1456.632812 4821.5 1455.632812 C 4821.671875 1455.359375 4821.835938 1454.984375 4822 1454.507812 C 4822.382812 1453.40625 4823 1452.320312 4823.835938 1451.257812 C 4824.671875 1450.171875 4826.382812 1449.671875 4829 1449.757812 C 4836.046875 1449.875 4843.882812 1450 4852.5 1450.132812 C 4861.109375 1450.28125 4869.671875 1450.34375 4878.171875 1450.34375 C 4886.710938 1450.34375 4894.046875 1450.34375 4900.171875 1450.34375 C 4902.4375 1450.34375 4904.6875 1450.296875 4906.921875 1450.21875 C 4909.125 1450.109375 4911.359375 1450.007812 4913.585938 1449.921875 C 4919.859375 1449.65625 4925.960938 1449.507812 4931.921875 1449.507812 C 4937.859375 1449.507812 4943.046875 1450.289062 4947.5 1451.84375 C 4947.335938 1452.789062 4947.273438 1453.882812 4947.335938 1455.132812 C 4947.4375 1456.382812 4947.5 1457.703125 4947.5 1459.09375 C 4947.882812 1461.703125 4948.023438 1464.359375 4947.921875 1467.046875 C 4947.796875 1469.71875 4947.023438 1471.84375 4945.585938 1473.421875 C 4942.25 1473.789062 4939.773438 1473.578125 4938.171875 1472.796875 C 4936.609375 1472.03125 4935.546875 1470.921875 4935 1469.507812 C 4934.273438 1467.671875 4933.773438 1465.578125 4933.5 1463.21875 C 4933.210938 1460.828125 4932.210938 1459.039062 4930.5 1457.84375 C 4928.273438 1457.84375 4925.835938 1457.84375 4923.171875 1457.84375 C 4920.5 1457.84375 4917.671875 1457.796875 4914.671875 1457.71875 C 4905.773438 1457.71875 4896.359375 1457.71875 4886.421875 1457.71875 C 4876.523438 1457.71875 4868.5 1457.90625 4862.335938 1458.257812 C 4862.546875 1459.453125 4862.671875 1460.984375 4862.671875 1462.84375 C 4862.671875 1464.703125 4862.546875 1466.789062 4862.335938 1469.09375 C 4862.335938 1470.40625 4862.335938 1471.734375 4862.335938 1473.09375 C 4862.335938 1474.421875 4862.335938 1475.789062 4862.335938 1477.171875 C 4862.335938 1479.40625 4862.460938 1481.632812 4862.75 1483.882812 C 4863.023438 1486.109375 4863.359375 1488.234375 4863.75 1490.257812 C 4870.960938 1489.90625 4878.421875 1489.671875 4886.085938 1489.59375 C 4893.796875 1489.484375 4901.382812 1489.328125 4908.835938 1489.132812 C 4911.210938 1488.578125 4912.960938 1487.734375 4914.085938 1486.59375 C 4915.1875 1485.421875 4916.210938 1484.171875 4917.171875 1482.84375 C 4918.109375 1481.484375 4919.335938 1480.34375 4920.835938 1479.421875 C 4922.109375 1479.039062 4923.1875 1478.914062 4924.085938 1479.046875 C 4925.023438 1479.195312 4926.046875 1479.40625 4927.171875 1479.671875 C 4927.546875 1479.789062 4928.023438 1479.914062 4928.585938 1480.046875 C 4929.125 1480.195312 4929.773438 1480.296875 4930.5 1480.382812 C 4929.382812 1482.414062 4928.75 1484.734375 4928.585938 1487.34375 C 4928.421875 1489.921875 4928.421875 1492.570312 4928.585938 1495.257812 C 4928.585938 1497.484375 4928.460938 1499.664062 4928.25 1501.796875 C 4928.085938 1503.945312 4927.710938 1505.796875 4927.171875 1507.382812 C 4922.9375 1507.546875 4920.171875 1507.007812 4918.835938 1505.757812 C 4917.546875 1504.507812 4916.523438 1503.09375 4915.75 1501.507812 C 4915.421875 1500.875 4915.046875 1500.234375 4914.671875 1499.59375 C 4914.273438 1498.921875 4913.796875 1498.320312 4913.25 1497.757812 C 4904.75 1497.125 4895.859375 1496.757812 4886.585938 1496.671875 C 4877.296875 1496.570312 4869.210938 1497.296875 4862.335938 1498.882812 C 4862.710938 1504 4863 1509.21875 4863.171875 1514.546875 C 4863.382812 1519.882812 4863.109375 1525.46875 4862.335938 1531.296875 C 4869.210938 1531.5 4876.75 1531.632812 4884.921875 1531.71875 C 4893.085938 1531.796875 4901.25 1531.695312 4909.421875 1531.382812 C 4917.585938 1531.046875 4925 1530.46875 4931.671875 1529.632812 C 4933.710938 1527.859375 4935.109375 1525.84375 4935.835938 1523.59375 C 4936.546875 1521.320312 4937.609375 1519.164062 4939 1517.132812 C 4940.382812 1515.078125 4942.9375 1513.671875 4946.671875 1512.921875 C 4949.4375 1515.703125 4950.6875 1518.789062 4950.421875 1522.171875 C 4950.125 1525.570312 4949.523438 1528.75 4948.585938 1531.71875 C 4948.421875 1532.75 4948.1875 1533.71875 4947.921875 1534.632812 C 4947.625 1535.546875 4947.5 1536.445312 4947.5 1537.296875 Z M 4947.5 1537.296875 "/>
</g>
</svg>
