<svg width="1313" height="610" viewBox="0 0 1313 610" fill="none" xmlns="http://www.w3.org/2000/svg">
<path d="M263.397 356.349C264.348 351.307 265.174 345.877 265.865 340.059C266.557 334.242 267.704 328.715 269.321 323.479C270.962 318.218 273.344 313.928 276.478 310.631C279.637 307.31 284.105 305.638 289.905 305.638C296.642 305.638 302.936 308.498 308.761 314.219C314.585 319.915 317.498 326.994 317.498 335.454C316.535 340.241 315.19 345.198 313.45 350.337C311.698 355.476 310.834 360.688 310.834 365.948C310.834 367.536 311.401 369.185 312.561 370.893C313.746 372.615 315.498 373.463 317.843 373.463C321.101 373.463 324.063 371.475 326.728 367.5C329.394 363.5 331.874 358.579 334.182 352.761C336.514 346.944 338.97 341.174 341.537 335.454C344.103 329.733 347.127 324.885 350.619 320.909C354.099 316.909 358.171 314.897 362.811 314.897C366.069 314.897 369.722 315.988 373.77 318.146C377.842 320.315 381.334 323.333 384.234 327.212C387.159 331.09 388.627 335.672 388.627 340.932C388.627 342.75 388.282 344.35 387.591 345.732C384.099 354.628 380.014 363.985 375.349 373.802C370.709 383.632 365.304 392.892 359.159 401.582C353.001 410.248 346.029 417.327 338.229 422.817C330.43 428.283 321.644 431.01 311.87 431.01C300.48 431.01 291.188 428.102 283.981 422.284C276.774 416.466 271.542 409.339 268.284 400.903C265.026 392.443 263.397 384.323 263.397 376.566C263.397 373.366 263.558 370.057 263.891 366.627C264.249 363.209 264.557 359.779 264.829 356.349C264.829 356.349 264.693 356.349 264.434 356.349C264.2 356.349 263.854 356.349 263.397 356.349Z" fill="black"/>
<path d="M525.678 190.203C534.291 190.434 543.078 192.215 552.037 195.536C560.983 198.833 569.227 203.233 576.767 208.723C584.331 214.19 590.44 220.638 595.08 228.067C599.745 235.473 602.089 243.63 602.089 252.55C602.089 260.768 600.115 269.034 596.166 277.373C592.217 285.712 587.256 293.651 581.308 301.177C575.385 308.716 569.523 315.564 563.735 321.733C559.515 326.072 557.417 330.193 557.417 334.096C557.417 337.041 559.342 340.811 563.192 345.392C567.043 349.95 571.744 354.87 577.31 360.131C582.9 365.367 588.478 370.675 594.043 376.033C599.633 381.402 604.335 386.492 608.161 391.304C612.011 396.092 613.936 400.419 613.936 404.297C613.936 409.339 611.196 413.4 605.742 416.466C600.275 419.545 593.303 422.041 584.813 423.981C576.322 425.92 567.709 427.52 558.997 428.78C550.272 430.041 542.535 431.253 535.797 432.416C529.306 433.556 522.691 434.344 515.953 434.792C509.203 435.24 502.342 436.392 495.37 438.234C493.716 438.452 492.186 438.731 490.779 439.058C489.397 439.41 488.015 439.592 486.633 439.592C485.473 439.592 483.202 438.622 479.821 436.683C476.464 434.743 473.317 432.295 470.393 429.314C467.493 426.344 466.049 423.375 466.049 420.393C466.049 416.514 467.554 413.218 470.59 410.503C473.614 407.764 477.451 405.461 482.091 403.618C486.756 401.776 491.421 400.407 496.061 399.498C500.701 398.601 504.526 398.14 507.562 398.14C509.894 398.14 512.276 398.431 514.719 399.013C517.15 399.57 519.532 399.837 521.877 399.837C526.739 399.837 531.502 398.601 536.142 396.104C540.807 393.583 543.152 390.722 543.152 387.523C543.152 385.002 541.918 382.384 539.449 379.669C537.006 376.929 534.094 374.239 530.712 371.621C527.356 368.978 524.271 366.857 521.482 365.27C518.718 363.658 516.867 362.846 515.953 362.846C513.387 362.846 511.165 364.179 509.29 366.821C507.439 369.439 505.538 372.421 503.564 375.742C501.589 379.038 499.195 381.996 496.406 384.614C493.605 387.232 490.002 388.541 485.596 388.541C476.97 388.541 470.343 385.705 465.703 380.008C461.063 374.287 457.756 366.748 455.782 357.367C453.807 347.998 452.524 337.781 451.932 326.727C451.339 315.649 450.697 304.619 450.006 293.663C449.315 282.706 447.797 272.997 445.465 264.525C443.849 258.356 442.281 251.508 440.776 243.969C439.258 236.442 438.505 230.625 438.505 226.516C438.505 219.438 441.516 213.62 447.538 209.063C453.585 204.481 461.211 200.869 470.393 198.251C479.599 195.633 489.15 193.694 499.022 192.434C508.895 191.173 517.78 190.434 525.678 190.203ZM553.616 255.605C553.616 254.926 553.616 254.247 553.616 253.569C553.616 252.89 553.616 252.332 553.616 251.872C553.616 242.733 550.469 236.442 544.188 233.012C537.895 229.594 529.639 227.873 519.409 227.873C511.276 227.873 504.304 229.207 498.479 231.849C492.679 234.467 489.792 237.836 489.792 241.933C492.322 247.399 494.049 254.138 494.975 262.15C495.925 270.137 496.752 278.076 497.443 285.954C498.134 293.844 499.232 300.474 500.75 305.831C502.256 311.201 504.872 313.879 508.599 313.879C510.474 313.879 512.807 313.189 515.608 311.795C526.072 305.177 534.143 296.959 539.844 287.166C545.533 277.349 550.124 266.828 553.616 255.605Z" fill="black"/>
<path d="M722.083 312.134C722.083 325.394 721.49 338.641 720.306 351.889C719.146 365.148 718.578 378.505 718.578 391.983C718.578 398.382 719.146 404.721 720.306 410.988C721.49 417.266 722.083 423.484 722.083 429.653C722.083 433.762 720.799 437.919 718.233 442.161C715.666 446.391 712.519 449.979 708.805 452.924C705.078 455.893 701.363 457.384 697.649 457.384C694.157 457.384 690.442 455.893 686.493 452.924C682.544 449.979 679.052 446.282 676.029 441.822C672.993 437.361 671.142 432.744 670.451 427.956C668.34 409.436 667.292 390.941 667.292 372.445C667.292 349.15 667.983 325.163 669.365 300.499C670.772 275.846 672.302 251.75 673.955 228.213C674.646 216.359 676.67 208.032 680.027 203.245C683.408 198.433 689.06 196.021 696.958 196.021C705.547 196.021 712.507 199.003 717.838 204.942C723.193 210.856 725.884 218.613 725.884 228.213C725.884 240.794 725.193 253.132 723.81 265.253C722.428 277.349 721.737 289.433 721.737 301.517C721.737 303.141 721.737 304.862 721.737 306.704C721.737 308.522 721.848 310.328 722.083 312.134Z" fill="black"/>
<path d="M835.41 341.611C842.616 341.611 849.058 343.623 854.759 347.622C860.485 351.598 865.088 356.785 868.581 363.185C872.061 369.585 873.813 376.323 873.813 383.402C873.541 391.389 871.147 398.758 866.606 405.509C862.09 412.236 856.24 417.666 849.033 421.799C841.827 425.908 833.904 427.956 825.291 427.956C812.284 427.956 801.943 424.49 794.242 417.533C786.566 410.551 782.741 401.922 782.741 391.644C782.741 373.354 787.097 360.446 795.822 352.907C804.534 345.38 817.738 341.611 835.41 341.611Z" fill="black"/>
<path d="M1061.8 466.305C1060.14 485.503 1055.77 503.199 1048.67 519.392C1041.58 535.609 1030.85 549.766 1016.43 561.862C1013.4 564.152 1010.19 565.934 1006.81 567.195C1003.45 568.455 1000.5 569.085 997.972 569.085C993.06 569.085 988.346 567.146 983.805 563.268C979.288 559.389 977.042 554.25 977.042 547.851C977.042 544.651 977.845 541.839 979.461 539.415C981.102 537.015 982.966 534.688 985.039 532.433C991.086 526.252 996.256 518.544 1000.54 509.308C1004.85 500.06 1008.21 490.691 1010.66 481.189C1013.13 471.71 1014.36 463.663 1014.36 457.045C1014.36 452.257 1013.99 446.488 1013.27 439.737C1012.58 433.022 1011.41 426.526 1009.77 420.248C1008.15 413.945 1006.07 408.697 1003.5 404.491C1000.96 400.261 997.836 398.14 994.122 398.14C991.777 398.14 988.803 399.001 985.187 400.71C981.596 402.431 977.647 404.14 973.34 405.849C969.058 407.57 964.714 408.418 960.309 408.418C955.866 408.418 951.325 407.158 946.685 404.637C942.045 402.115 938.207 398.528 935.184 393.874C932.148 389.195 930.643 383.644 930.643 377.245C930.643 371.984 932.321 366.615 935.678 361.149C939.059 355.658 943.489 351.04 948.956 347.283C954.41 343.501 960.173 341.611 966.232 341.611C968.071 341.611 969.91 341.793 971.761 342.144C973.636 342.471 975.389 342.629 977.042 342.629C982.373 342.629 987.359 341.55 991.999 339.381C996.664 337.223 1001.33 333.975 1005.97 329.636C1008.76 327.115 1012.6 325.854 1017.47 325.854C1021.91 325.854 1026.27 326.897 1030.55 328.957C1034.86 330.993 1038.46 333.793 1041.36 337.344C1044.29 340.871 1045.75 344.932 1045.75 349.513C1045.75 361.149 1047.01 372.445 1049.55 383.402C1052.12 394.358 1054.69 405.267 1057.25 416.127C1059.82 426.986 1061.11 438.113 1061.11 449.53C1061.11 452.5 1061.03 455.409 1060.91 458.257C1060.81 461.093 1061.11 463.784 1061.8 466.305Z" fill="black"/>
<path d="M1118.62 406.382C1119.31 400.443 1121.21 394.892 1124.35 389.753C1127.51 384.614 1131.28 380.396 1135.7 377.099C1140.14 373.778 1144.56 372.106 1148.98 372.106C1151.77 372.106 1154.85 373.366 1158.21 375.887C1161.59 378.384 1164.85 381.584 1167.98 385.486C1171.14 389.365 1173.71 393.316 1175.68 397.316C1177.66 401.291 1178.65 404.661 1178.65 407.4C1177.68 412.188 1175.4 416.696 1171.79 420.926C1168.19 425.168 1163.84 428.538 1158.7 431.059C1153.6 433.556 1148.39 434.792 1143.06 434.792C1134.43 434.792 1128.2 432.113 1124.35 426.744C1120.52 421.387 1118.62 414.599 1118.62 406.382Z" fill="black"/>
<path d="M404.94 526.007L404.447 526.492C402.078 526.662 399.671 526.759 397.24 526.783C394.834 526.819 392.415 526.807 389.984 526.734C387.281 526.734 384.616 526.759 381.987 526.783C379.347 526.819 376.804 526.965 374.336 527.219C373.571 526.734 373.226 526.25 373.3 525.765C373.398 525.28 373.547 524.831 373.744 524.407C373.966 523.995 374.09 523.716 374.09 523.583C374.386 523.389 374.731 523.292 375.126 523.292C375.521 523.292 375.928 523.292 376.36 523.292C376.582 523.292 376.829 523.316 377.101 523.341C377.36 523.341 377.607 523.329 377.841 523.292C378.063 519.935 378.187 516.384 378.187 512.626C378.187 508.881 378.162 505.233 378.137 501.669C378.137 500.7 378.113 499.767 378.088 498.858C378.051 497.924 378.038 496.991 378.038 496.046C378.001 494.3 377.989 492.652 377.989 491.1C378.014 489.525 378.063 488.034 378.137 486.64C377.804 486.543 377.458 486.495 377.101 486.495C376.73 486.471 376.385 486.446 376.064 486.446C375.472 486.446 374.892 486.386 374.336 486.252C373.806 486.131 373.349 485.816 372.954 485.331C373.016 485.174 373.065 484.98 373.102 484.749C373.201 484.204 373.349 483.671 373.547 483.15C373.769 482.604 374.213 482.362 374.879 482.422C376.656 482.459 378.631 482.507 380.803 482.568C382.999 482.64 385.196 482.665 387.368 482.665C389.54 482.665 391.391 482.665 392.946 482.665C393.501 482.665 394.056 482.653 394.624 482.616C395.179 482.592 395.735 482.544 396.302 482.471C397.906 482.35 399.474 482.277 400.992 482.277C402.497 482.277 403.817 482.665 404.94 483.44C404.866 483.901 404.854 484.446 404.891 485.089C404.916 485.707 404.94 486.349 404.94 487.028C405.039 488.325 405.064 489.646 405.039 491.004C405.002 492.337 404.805 493.403 404.447 494.203C403.583 494.373 402.966 494.252 402.571 493.864C402.176 493.476 401.905 492.943 401.781 492.264C401.584 491.331 401.448 490.276 401.386 489.113C401.312 487.925 401.066 487.028 400.646 486.446C400.054 486.446 399.412 486.446 398.721 486.446C398.055 486.446 397.351 486.422 396.598 486.349C394.352 486.349 391.971 486.349 389.441 486.349C386.936 486.349 384.912 486.446 383.369 486.64C383.394 487.222 383.419 487.986 383.419 488.919C383.419 489.864 383.394 490.894 383.369 492.022C383.369 492.676 383.369 493.331 383.369 494.009C383.369 494.688 383.369 495.367 383.369 496.046C383.369 497.185 383.394 498.3 383.468 499.391C383.53 500.494 383.616 501.56 383.715 502.591C385.517 502.397 387.392 502.288 389.342 502.251C391.317 502.191 393.242 502.106 395.118 502.009C395.735 501.754 396.179 501.33 396.45 500.748C396.746 500.167 397.006 499.536 397.24 498.858C397.462 498.179 397.783 497.621 398.178 497.161C398.499 496.967 398.783 496.918 399.017 497.015C399.239 497.088 399.486 497.185 399.758 497.306C399.856 497.342 399.967 497.403 400.103 497.5C400.263 497.573 400.449 497.621 400.646 497.645C400.35 498.688 400.165 499.851 400.103 501.136C400.066 502.433 400.078 503.742 400.152 505.063C400.152 506.166 400.115 507.245 400.054 508.311C400.017 509.378 399.918 510.299 399.758 511.075C398.696 511.172 398.005 510.917 397.684 510.299C397.351 509.693 397.092 508.978 396.895 508.166C396.796 507.851 396.697 507.524 396.598 507.196C396.5 506.881 396.376 506.59 396.253 506.324C394.081 506.009 391.81 505.827 389.441 505.79C387.096 505.73 385.072 506.081 383.369 506.857C383.431 509.414 383.481 512.02 383.518 514.662C383.579 517.317 383.53 520.092 383.369 523.001C385.072 523.098 386.973 523.183 389.046 523.244C391.119 523.28 393.192 523.219 395.266 523.05C397.339 522.892 399.215 522.601 400.893 522.177C401.411 521.304 401.781 520.311 401.979 519.171C402.176 518.044 402.435 516.977 402.769 515.971C403.126 514.941 403.78 514.226 404.743 513.838C405.434 515.232 405.743 516.784 405.681 518.492C405.607 520.177 405.459 521.741 405.237 523.195C405.163 523.716 405.101 524.213 405.039 524.698C404.965 525.159 404.94 525.595 404.94 526.007Z" fill="black"/>
<path d="M462.364 484.022C461.302 485.028 460.105 485.901 458.76 486.64C457.44 487.392 456.305 488.325 455.354 489.452C455.083 490.616 454.811 491.767 454.515 492.894C454.219 493.997 453.898 495.076 453.577 496.143C452.121 501.088 450.492 505.875 448.691 510.493C446.876 515.087 445.248 519.971 443.804 525.134C443.31 525.619 442.915 526.153 442.619 526.734C442.323 527.292 441.953 527.813 441.533 528.334C441.002 528.625 440.509 528.722 440.052 528.625C439.583 528.528 439.139 528.407 438.719 528.286C438.325 528.189 438.053 528.104 437.93 528.043C435.918 523.135 434.08 517.911 432.401 512.384C430.723 506.833 428.995 501.379 427.218 496.046C426.589 494.203 425.947 492.41 425.293 490.664C424.627 488.895 423.923 487.161 423.171 485.477C422.776 485.319 422.356 485.271 421.937 485.331C421.542 485.368 421.159 485.416 420.801 485.477C420.369 485.549 419.962 485.598 419.567 485.622C419.197 485.658 418.839 485.61 418.481 485.477C418.148 484.968 418.049 484.507 418.185 484.119C418.309 483.731 418.481 483.343 418.679 482.956C418.777 482.834 418.851 482.713 418.926 482.616C418.987 482.495 419.049 482.35 419.123 482.18C420.036 482.253 420.962 482.265 421.887 482.228C422.837 482.168 423.788 482.119 424.75 482.083C425.441 481.986 426.145 481.925 426.873 481.889C427.625 481.865 428.329 481.841 428.995 481.841C430.242 481.913 431.414 482.107 432.5 482.422C433.611 482.75 434.585 483.392 435.412 484.362C434.548 484.786 433.598 485.174 432.549 485.525C431.488 485.889 430.637 486.107 429.982 486.204C430.34 487.828 430.735 489.452 431.167 491.101C431.624 492.749 432.117 494.397 432.648 496.046C433.931 500.094 435.314 504.142 436.794 508.214C438.3 512.263 439.571 516.335 440.595 520.432C442.236 516.553 443.902 512.626 445.581 508.651C447.259 504.651 448.752 500.482 450.073 496.143C451.023 493.04 451.8 489.888 452.393 486.689C452.059 486.204 451.566 485.865 450.912 485.671C450.245 485.452 449.554 485.234 448.839 485.04C448.148 484.846 447.568 484.58 447.111 484.216C447.21 483.513 447.654 482.992 448.444 482.665C449.233 482.313 450.221 482.083 451.405 481.986C452.59 481.889 453.799 481.877 455.058 481.938C456.305 481.974 457.427 482.035 458.415 482.131C459.229 482.228 460.007 482.459 460.735 482.81C461.487 483.137 462.03 483.537 462.364 484.022Z" fill="black"/>
<path d="M506.503 526.007L506.009 526.492C503.64 526.662 501.234 526.759 498.802 526.783C496.396 526.819 493.977 526.807 491.546 526.734C488.844 526.734 486.178 526.759 483.55 526.783C480.909 526.819 478.367 526.965 475.899 527.219C475.134 526.734 474.788 526.25 474.862 525.765C474.961 525.28 475.109 524.831 475.306 524.407C475.529 523.995 475.652 523.716 475.652 523.583C475.948 523.389 476.294 523.292 476.689 523.292C477.083 523.292 477.491 523.292 477.923 523.292C478.145 523.292 478.392 523.316 478.663 523.341C478.922 523.341 479.169 523.329 479.403 523.292C479.626 519.935 479.749 516.384 479.749 512.626C479.749 508.881 479.724 505.233 479.7 501.669C479.7 500.7 479.675 499.767 479.65 498.858C479.613 497.924 479.601 496.991 479.601 496.046C479.564 494.3 479.552 492.652 479.552 491.1C479.576 489.525 479.626 488.034 479.7 486.64C479.366 486.543 479.021 486.495 478.663 486.495C478.293 486.471 477.947 486.446 477.626 486.446C477.034 486.446 476.454 486.386 475.899 486.252C475.368 486.131 474.912 485.816 474.517 485.331C474.578 485.174 474.628 484.98 474.665 484.749C474.763 484.204 474.912 483.671 475.109 483.15C475.331 482.604 475.775 482.362 476.442 482.422C478.219 482.459 480.193 482.507 482.365 482.568C484.562 482.64 486.758 482.665 488.93 482.665C491.102 482.665 492.953 482.665 494.508 482.665C495.063 482.665 495.619 482.653 496.186 482.616C496.742 482.592 497.297 482.544 497.865 482.471C499.469 482.35 501.036 482.277 502.554 482.277C504.059 482.277 505.38 482.665 506.503 483.44C506.429 483.901 506.416 484.446 506.454 485.089C506.478 485.707 506.503 486.349 506.503 487.028C506.602 488.325 506.626 489.646 506.602 491.004C506.565 492.337 506.367 493.403 506.009 494.203C505.145 494.373 504.528 494.252 504.134 493.864C503.739 493.476 503.467 492.943 503.344 492.264C503.146 491.331 503.011 490.276 502.949 489.113C502.875 487.925 502.628 487.028 502.208 486.446C501.616 486.446 500.974 486.446 500.283 486.446C499.617 486.446 498.914 486.422 498.161 486.349C495.915 486.349 493.533 486.349 491.003 486.349C488.498 486.349 486.474 486.446 484.932 486.64C484.957 487.222 484.981 487.986 484.981 488.919C484.981 489.864 484.957 490.894 484.932 492.022C484.932 492.676 484.932 493.331 484.932 494.009C484.932 494.688 484.932 495.367 484.932 496.046C484.932 497.185 484.957 498.3 485.031 499.391C485.092 500.494 485.179 501.56 485.277 502.591C487.079 502.397 488.955 502.288 490.905 502.251C492.879 502.191 494.804 502.106 496.68 502.009C497.297 501.754 497.741 501.33 498.013 500.748C498.309 500.167 498.568 499.536 498.802 498.858C499.025 498.179 499.345 497.621 499.74 497.161C500.061 496.967 500.345 496.918 500.579 497.015C500.802 497.088 501.048 497.185 501.32 497.306C501.419 497.342 501.53 497.403 501.665 497.5C501.826 497.573 502.011 497.621 502.208 497.645C501.912 498.688 501.727 499.851 501.665 501.136C501.628 502.433 501.641 503.742 501.715 505.063C501.715 506.166 501.678 507.245 501.616 508.311C501.579 509.378 501.48 510.299 501.32 511.075C500.259 511.172 499.568 510.917 499.247 510.299C498.914 509.693 498.654 508.978 498.457 508.166C498.358 507.851 498.26 507.524 498.161 507.196C498.062 506.881 497.939 506.59 497.815 506.324C495.643 506.009 493.373 505.827 491.003 505.79C488.659 505.73 486.635 506.081 484.932 506.857C484.994 509.414 485.043 512.02 485.08 514.662C485.142 517.317 485.092 520.092 484.932 523.001C486.635 523.098 488.535 523.183 490.608 523.244C492.682 523.28 494.755 523.219 496.828 523.05C498.901 522.892 500.777 522.601 502.455 522.177C502.974 521.304 503.344 520.311 503.541 519.171C503.739 518.044 503.998 516.977 504.331 515.971C504.689 514.941 505.343 514.226 506.305 513.838C506.996 515.232 507.305 516.784 507.243 518.492C507.169 520.177 507.021 521.741 506.799 523.195C506.725 523.716 506.663 524.213 506.602 524.698C506.528 525.159 506.503 525.595 506.503 526.007Z" fill="black"/>
<path d="M560.964 526.977C559.385 527.365 557.916 527.486 556.571 527.316C555.251 527.159 553.918 526.916 552.573 526.589C551.61 525.498 550.808 524.153 550.154 522.565C549.488 520.989 548.883 519.305 548.328 517.523C547.76 515.717 547.106 514.032 546.353 512.481C545.588 510.869 544.687 509.523 543.638 508.457C542.577 507.39 541.195 506.748 539.492 506.518C538.801 506.421 538.073 506.372 537.32 506.372C536.555 506.372 535.839 506.408 535.148 506.469C534.556 506.505 534.025 506.518 533.569 506.518C533.1 506.518 532.68 506.505 532.285 506.469C532.211 507.705 532.187 508.942 532.187 510.202C532.211 511.438 532.285 512.675 532.384 513.935C532.409 515.329 532.446 516.735 532.483 518.153C532.544 519.547 532.483 520.941 532.285 522.322C532.606 523.001 533.174 523.462 533.964 523.68C534.778 523.874 535.605 524.092 536.432 524.31C537.246 524.504 537.838 524.916 538.209 525.522C537.641 526.237 536.703 526.674 535.395 526.831C534.075 527.001 532.68 527.074 531.199 527.074C530.804 527.074 530.385 527.074 529.965 527.074C529.533 527.074 529.139 527.074 528.781 527.074C527.497 527.049 526.313 527.049 525.227 527.074C524.165 527.074 523.314 527.207 522.66 527.462C522.265 526.492 522.24 525.765 522.61 525.28C523.005 524.795 523.511 524.395 524.141 524.068C524.733 523.753 525.338 523.438 525.967 523.147C526.621 522.856 527.065 522.444 527.3 521.886C527.201 517.329 527.115 512.99 527.053 508.845C526.979 504.675 526.905 500.409 526.806 496.046L526.609 485.864C526.214 485.743 525.819 485.671 525.424 485.671C525.029 485.671 524.634 485.671 524.239 485.671C523.77 485.707 523.314 485.719 522.857 485.719C522.425 485.695 522.03 485.513 521.673 485.186C521.697 484.968 521.685 484.786 521.623 484.652C521.549 484.495 521.475 484.349 521.376 484.216C521.302 484.095 521.253 483.949 521.228 483.78C521.191 483.622 521.204 483.44 521.278 483.247C522.228 482.737 523.302 482.447 524.486 482.374C525.696 482.313 526.967 482.301 528.287 482.325C528.805 482.325 529.324 482.325 529.817 482.325C530.336 482.325 530.866 482.313 531.397 482.277C534.062 482.083 536.678 482.01 539.245 482.034C541.812 482.071 544.181 482.313 546.353 482.762C548.55 483.186 550.413 483.962 551.931 485.089C553.178 486.058 554.128 487.343 554.794 488.919C555.448 490.507 555.658 492.506 555.436 494.931C555.399 495.124 555.312 495.318 555.189 495.512C555.09 495.706 554.992 495.924 554.893 496.143C554.597 496.7 554.325 497.258 554.103 497.839C553.869 498.421 553.684 499.039 553.56 499.682C552.474 500.07 551.549 500.651 550.796 501.427C550.031 502.203 549.229 502.918 548.377 503.56C547.513 504.215 546.403 504.603 545.021 504.724C546.995 505.887 548.624 507.414 549.907 509.281C551.191 511.123 552.301 513.147 553.264 515.341C554.251 517.511 555.201 519.692 556.127 521.886C556.386 522.056 556.645 522.201 556.917 522.322C557.213 522.419 557.484 522.541 557.756 522.662C558.706 523.025 559.582 523.486 560.372 524.068C561.162 524.65 561.359 525.619 560.964 526.977ZM549.019 493.428C549.019 492.361 548.846 491.27 548.525 490.131C548.192 488.967 547.686 487.804 546.995 486.64C545.28 485.768 543.49 485.283 541.615 485.186C539.764 485.089 537.777 485.065 535.642 485.089C535.148 485.089 534.667 485.113 534.21 485.137C533.741 485.174 533.248 485.186 532.73 485.186C532.298 485.61 532.088 486.192 532.088 486.931C532.088 487.646 532.113 488.422 532.187 489.258C532.211 489.585 532.236 489.913 532.236 490.228C532.261 490.555 532.285 490.882 532.285 491.197C532.285 491.949 532.261 492.737 532.236 493.573C532.199 494.421 532.15 495.246 532.088 496.046C532.051 497.246 532.039 498.494 532.039 499.779C532.039 501.039 532.113 502.3 532.285 503.56C534.556 503.924 536.888 503.924 539.295 503.56C541.689 503.172 543.638 502.397 545.119 501.233C546.921 499.876 548.106 498.179 548.673 496.143C548.895 495.209 549.019 494.3 549.019 493.428Z" fill="black"/>
<path d="M608.903 484.41C608.373 485.064 608.077 485.852 608.015 486.786C607.978 487.695 608.015 488.628 608.114 489.597C608.114 489.694 608.138 489.864 608.212 490.082C608.311 491.149 608.336 492.215 608.311 493.282C608.274 494.324 607.929 495.173 607.274 495.852C606.386 495.755 605.744 495.415 605.349 494.833C604.954 494.227 604.658 493.5 604.461 492.652C604.263 491.682 604.091 490.664 603.967 489.597C603.869 488.507 603.634 487.585 603.276 486.834C601.721 486.422 599.833 486.155 597.6 486.058C595.354 485.937 593.379 485.937 591.676 486.058C591.676 487.682 591.676 489.331 591.676 491.003C591.676 492.652 591.652 494.337 591.627 496.045C591.627 496.918 591.602 497.791 591.578 498.663C591.54 499.512 591.528 500.36 591.528 501.233C591.491 504.857 591.479 508.481 591.479 512.093C591.479 515.717 591.54 519.292 591.676 522.807C592.195 523.231 592.836 523.522 593.601 523.68C594.391 523.85 595.132 524.056 595.823 524.31C596.538 524.54 597.02 525.025 597.254 525.765C597.02 526.383 596.44 526.807 595.526 527.025C594.601 527.219 593.527 527.316 592.318 527.316C591.096 527.316 589.875 527.268 588.665 527.171C588.036 527.171 587.443 527.158 586.888 527.122C586.321 527.098 585.815 527.074 585.358 527.074C585.124 527.074 584.877 527.098 584.618 527.122C584.383 527.158 584.136 527.171 583.877 527.171C582.989 527.268 582.125 527.268 581.31 527.171C580.521 527.074 580.101 526.54 580.076 525.571C580.076 525.219 580.2 524.88 580.471 524.553C580.767 524.237 580.989 523.91 581.162 523.583C581.977 523.91 582.902 523.801 583.926 523.244C584.975 522.662 585.704 521.971 586.098 521.159C586.061 518.711 586.049 516.286 586.049 513.887C586.049 511.463 586.049 509.075 586.049 506.711C586.049 504.942 586.049 503.172 586.049 501.427C586.049 499.657 586.049 497.864 586.049 496.045C586.049 492.785 585.975 489.452 585.852 486.058C584.038 485.743 582.162 485.707 580.224 485.961C578.275 486.192 576.547 486.422 575.041 486.64C574.807 486.676 574.597 486.713 574.4 486.737C574.202 486.773 574.017 486.81 573.857 486.834C573.758 487.355 573.672 487.889 573.61 488.434C573.536 488.991 573.511 489.537 573.511 490.082C573.412 491.282 573.264 492.409 573.067 493.476C572.87 494.543 572.376 495.343 571.586 495.852C571.117 495.888 570.759 495.827 570.5 495.658C570.266 495.5 570.031 495.306 569.809 495.076C569.71 494.979 569.587 494.906 569.464 494.833C569.365 494.736 569.241 494.64 569.118 494.543C569.414 492.64 569.562 490.64 569.562 488.531C569.562 486.434 569.858 484.628 570.451 483.101C572.721 482.689 575.251 482.471 578.052 482.471C580.878 482.446 583.643 482.446 586.345 482.471C587.16 482.543 587.974 482.568 588.764 482.568C589.578 482.568 590.368 482.568 591.133 482.568C591.923 482.568 592.725 482.556 593.552 482.519C594.366 482.459 595.181 482.398 595.971 482.325C598.537 482.204 600.969 482.18 603.276 482.277C605.571 482.374 607.447 483.089 608.903 484.41Z" fill="black"/>
<path d="M663.492 524.941C663.295 525.789 662.813 526.346 662.061 526.637C661.333 526.928 660.432 527.11 659.346 527.171C658.815 527.171 658.285 527.159 657.766 527.122C657.273 527.098 656.754 527.074 656.236 527.074C655.15 527.013 654.163 527.001 653.274 527.025C652.411 527.025 651.818 527.195 651.497 527.51C651.127 527.534 650.621 527.449 649.967 527.219C649.338 526.965 648.881 526.54 648.585 525.959C648.289 525.353 648.388 524.589 648.881 523.68C649.498 523.425 650.214 523.244 651.004 523.147C651.794 523.025 652.497 522.844 653.126 522.613C653.126 521.232 653.102 519.789 653.077 518.299C653.077 516.82 653.077 515.365 653.077 513.935C653.003 512.36 652.954 510.869 652.929 509.475C652.929 508.057 652.941 506.76 652.978 505.596C650.078 505.245 647.154 505.1 644.192 505.16C641.255 505.196 638.429 505.257 635.702 505.354C634.677 505.354 633.678 505.39 632.691 505.451C631.728 505.487 630.778 505.499 629.828 505.499C629.828 506.833 629.84 508.093 629.877 509.281C629.902 510.481 629.926 511.644 629.926 512.772C629.951 514.226 629.988 515.717 630.025 517.232C630.05 518.723 630.037 520.371 629.976 522.177C630.371 522.698 630.889 523.098 631.555 523.389C632.209 523.656 632.863 523.922 633.53 524.213C634.184 524.48 634.677 524.88 635.011 525.425C634.813 526.177 634.431 526.662 633.875 526.88C633.345 527.11 632.691 527.207 631.901 527.171C631.605 527.171 631.284 527.159 630.963 527.122C630.63 527.098 630.297 527.062 629.976 527.025C629.408 527.001 628.816 526.965 628.199 526.928C627.569 526.868 626.928 526.831 626.274 526.831C625.94 526.831 625.607 526.868 625.286 526.928C624.99 527.001 624.694 527.074 624.398 527.171C624.126 527.268 623.867 527.352 623.608 527.413C623.337 527.449 623.114 527.437 622.917 527.365C622.152 527.243 621.51 526.831 620.992 526.153C620.461 525.45 620.326 524.783 620.597 524.165C620.819 523.68 621.202 523.389 621.732 523.292C622.251 523.171 622.818 523.05 623.411 522.953C624.028 522.856 624.571 522.613 625.04 522.226C625.04 517.765 625.04 513.293 625.04 508.796C625.04 504.275 624.99 500.021 624.892 496.046C624.854 494.179 624.805 492.385 624.743 490.664C624.706 488.955 624.645 487.355 624.546 485.865C624.176 485.671 623.781 485.562 623.361 485.525C622.929 485.501 622.485 485.501 622.029 485.525C621.498 485.525 620.967 485.513 620.449 485.477C619.955 485.416 619.462 485.222 618.968 484.895C618.931 484.543 618.968 484.265 619.067 484.071C619.19 483.853 619.326 483.634 619.462 483.44C619.622 483.319 619.758 483.15 619.857 482.956C619.98 482.762 620.054 482.507 620.054 482.18C621.041 482.277 622.041 482.313 623.065 482.277C624.114 482.216 625.151 482.156 626.175 482.083C626.693 482.083 627.211 482.071 627.705 482.034C628.223 481.974 628.754 481.938 629.285 481.938C630.63 481.877 631.864 482.01 632.987 482.325C634.097 482.616 634.937 483.247 635.504 484.216C635.011 484.774 634.283 485.113 633.332 485.234C632.407 485.331 631.383 485.368 630.272 485.331C629.939 486.471 629.754 488.034 629.729 490.034C629.729 492.01 629.741 494.009 629.778 496.046V496.191C629.803 497.136 629.84 498.058 629.877 498.954C629.902 499.827 629.889 500.676 629.828 501.476C632.419 501.706 635.085 501.803 637.824 501.766C640.551 501.706 643.229 501.621 645.87 501.524C647.018 501.5 648.165 501.463 649.325 501.427C650.51 501.366 651.621 501.33 652.682 501.33C652.879 500.554 652.991 499.754 653.028 498.906C653.052 498.033 653.028 497.112 652.929 496.143C652.855 495.597 652.793 495.015 652.731 494.397C652.694 493.791 652.645 493.185 652.583 492.603C652.485 491.44 652.386 490.301 652.287 489.161C652.188 488.034 652.151 486.931 652.188 485.865C651.522 485.865 650.732 485.816 649.819 485.719C648.931 485.598 648.067 485.38 647.252 485.089C646.981 484.64 646.919 484.24 647.055 483.877C647.178 483.489 647.351 483.137 647.548 482.81C647.647 482.689 647.746 482.544 647.845 482.374C647.943 482.216 648.005 482.034 648.042 481.841C648.894 481.913 649.745 481.925 650.609 481.889C651.497 481.865 652.336 481.828 653.126 481.792C655.101 481.695 656.952 481.695 658.704 481.792C660.444 481.889 661.925 482.325 663.147 483.101C662.85 483.974 662.221 484.531 661.271 484.749C660.308 484.943 659.222 485.028 658.013 484.992C657.84 486.616 657.729 488.373 657.668 490.276C657.631 492.155 657.643 494.106 657.717 496.143C657.717 497.379 657.729 498.615 657.766 499.876C657.828 501.112 657.877 502.372 657.914 503.657C658.013 507.051 658.062 510.372 658.062 513.596C658.087 516.832 657.988 519.705 657.766 522.226C658.42 522.977 659.296 523.425 660.382 523.583C661.493 523.753 662.53 524.201 663.492 524.941Z" fill="black"/>
<path d="M695.037 484.071C694.766 484.749 694.211 485.137 693.359 485.234C692.495 485.331 691.594 485.368 690.644 485.331C690.348 485.331 690.052 485.331 689.756 485.331C689.484 485.331 689.225 485.331 688.966 485.331C688.769 485.465 688.818 485.804 689.114 486.349C689.176 486.543 689.237 486.761 689.312 486.98C689.41 487.174 689.46 487.355 689.46 487.513C689.262 487.707 689.114 487.937 689.015 488.192C688.917 488.458 688.818 488.761 688.719 489.113C688.682 490.276 688.67 491.428 688.67 492.555C688.67 493.694 688.645 494.858 688.62 496.046C688.546 500.482 688.497 504.966 688.472 509.523C688.472 514.056 688.472 518.541 688.472 523.001C689.558 523.074 690.718 523.329 691.977 523.777C693.26 524.238 694.174 524.941 694.741 525.91C693.557 526.625 692.187 527.001 690.644 527.025C689.126 527.062 687.547 527.049 685.906 526.977C684.918 526.916 683.943 526.88 682.993 526.88C682.031 526.856 681.093 526.904 680.18 527.025C679.908 527.062 679.698 527.159 679.538 527.316C679.402 527.486 679.266 527.655 679.143 527.849C679.007 528.14 678.81 528.383 678.551 528.577C678.316 528.795 677.958 528.831 677.465 528.674C676.971 528.019 676.786 527.389 676.922 526.734C677.045 526.092 677.317 525.498 677.712 524.941C678.106 524.359 678.464 523.874 678.798 523.486C679.02 523.486 679.266 523.486 679.538 523.486C679.797 523.486 680.056 523.486 680.328 523.486C680.92 523.486 681.488 523.486 682.055 523.486C682.611 523.486 683.104 523.389 683.536 523.195C683.462 519.062 683.438 514.65 683.438 509.96C683.438 505.281 683.388 500.639 683.289 496.046C683.252 492.458 683.117 489.004 682.895 485.671C682.561 485.574 682.203 485.525 681.809 485.525C681.438 485.501 681.043 485.477 680.624 485.477C679.958 485.477 679.316 485.465 678.699 485.428C678.106 485.368 677.576 485.137 677.119 484.749C677.021 484.398 677.021 484.119 677.119 483.925C677.243 483.731 677.378 483.562 677.514 483.392C677.638 483.234 677.761 483.077 677.86 482.907C677.958 482.75 678.008 482.556 678.008 482.325C679.452 482.325 681.019 482.265 682.697 482.131C684.375 482.01 686.017 481.938 687.633 481.938C689.213 481.938 690.657 482.083 691.977 482.374C693.285 482.641 694.309 483.198 695.037 484.071Z" fill="black"/>
<path d="M754.595 483.392C754.558 484.362 754.076 484.943 753.163 485.137C752.238 485.307 751.238 485.38 750.152 485.38C749.782 485.477 749.535 485.707 749.412 486.058C749.313 486.386 749.214 486.761 749.116 487.174C749.017 487.561 748.733 487.889 748.276 488.143C748.4 489.404 748.499 490.713 748.573 492.07C748.634 493.403 748.696 494.761 748.77 496.143C748.795 497.694 748.819 499.294 748.819 500.942C748.819 502.591 748.819 504.239 748.819 505.887C748.881 509.451 748.943 512.954 749.017 516.408C749.079 519.838 749.325 522.989 749.757 525.862C749.227 526.613 748.425 527.025 747.339 527.122C746.253 527.195 745.512 526.977 745.117 526.492C743.957 525.134 742.871 523.632 741.859 521.983C740.872 520.311 739.688 518.686 738.305 517.135C735.763 514.166 733.32 510.784 730.951 507.002C728.606 503.221 726.274 499.573 723.941 496.046C723.053 494.628 722.127 493.27 721.177 491.973C720.251 490.688 719.314 489.452 718.363 488.289C718.326 489.682 718.277 491.004 718.215 492.264C718.178 493.5 718.166 494.761 718.166 496.046C718.166 497.767 718.178 499.536 718.215 501.379C718.277 503.197 718.326 505.209 718.363 507.439C718.363 508.251 718.339 509.111 718.314 510.008C718.314 510.917 718.277 511.802 718.215 512.675C718.117 514.517 718.043 516.262 718.018 517.911C718.018 519.559 718.228 520.917 718.66 521.983C718.882 522.638 719.301 523.122 719.894 523.438C720.511 523.765 721.152 524.056 721.819 524.31C722.473 524.541 722.966 524.892 723.3 525.377C723.102 525.934 722.707 526.298 722.115 526.492C721.547 526.662 721.128 526.953 720.831 527.365C719.968 527.049 719.079 526.904 718.166 526.928C717.277 526.965 716.364 527.049 715.451 527.171C714.464 527.268 713.526 527.316 712.637 527.316C711.749 527.316 710.922 527.11 710.169 526.686C709.898 526.298 709.799 525.995 709.873 525.765C709.935 525.51 710.034 525.268 710.169 525.037C710.268 524.844 710.367 524.674 710.466 524.504C710.564 524.347 710.614 524.153 710.614 523.922C711.206 523.704 711.823 523.51 712.489 523.341C713.143 523.183 713.797 523.001 714.464 522.807C714.883 519.256 715.069 515.535 715.007 511.657C714.933 507.778 714.785 503.791 714.563 499.682C714.563 499.076 714.538 498.47 714.513 497.888C714.476 497.282 714.439 496.664 714.414 496.046C714.377 494.3 714.316 492.579 714.217 490.858C714.143 489.113 714.094 487.355 714.069 485.574C713.501 485.768 712.909 485.852 712.292 485.816C711.663 485.755 711.157 485.61 710.762 485.38C710.268 485.065 709.972 484.628 709.873 484.071C709.799 483.525 710.095 482.883 710.762 482.131C711.354 482.168 711.946 482.18 712.539 482.18C713.156 482.18 713.785 482.168 714.414 482.131C716.019 482.131 717.586 482.18 719.104 482.277C720.609 482.374 722.066 482.713 723.448 483.295C723.448 483.525 723.374 483.683 723.25 483.78C723.151 483.877 723.016 483.974 722.855 484.071C722.485 484.204 722.312 484.386 722.312 484.604C723.62 486.519 724.941 488.434 726.261 490.373C727.606 492.288 728.939 494.179 730.26 496.046C732.826 499.609 735.368 503.16 737.911 506.712C740.477 510.275 743.007 513.79 745.512 517.28C745.413 513.693 745.364 510.154 745.364 506.663C745.364 503.148 745.315 499.633 745.216 496.143C745.142 492.652 744.945 489.186 744.624 485.719C744.291 485.598 743.957 485.513 743.636 485.477C743.303 485.416 742.97 485.38 742.649 485.38C742.02 485.283 741.465 485.174 740.971 485.04C740.502 484.919 740.255 484.543 740.231 483.925C740.194 483.15 740.774 482.592 741.958 482.228C743.143 481.877 744.537 481.683 746.154 481.647C747.363 481.622 748.585 481.671 749.807 481.792C751.016 481.925 752.077 482.131 752.966 482.422C753.879 482.689 754.422 483.004 754.595 483.392Z" fill="black"/>
<path d="M810.701 507.923C810.504 508.505 810.072 508.845 809.418 508.942C808.751 509.039 808.036 509.087 807.246 509.087C806.913 509.087 806.567 509.111 806.209 509.136C805.839 509.136 805.531 509.172 805.271 509.232C804.839 510.202 804.593 511.366 804.531 512.723C804.457 514.081 804.445 515.511 804.482 516.99C804.506 518.42 804.506 519.85 804.482 521.304C804.445 522.735 804.21 523.995 803.791 525.086C803.161 525.51 802.532 525.74 801.915 525.765C801.322 525.765 800.705 525.522 800.088 525.037C798.706 525.946 796.991 526.674 794.955 527.219C792.943 527.728 790.821 528.019 788.587 528.092C786.378 528.152 784.219 527.922 782.121 527.413C780.048 526.868 778.221 525.995 776.642 524.795C776.21 524.48 775.827 524.044 775.506 523.486C775.21 522.904 774.84 522.407 774.42 521.983C773.952 521.474 773.446 521.05 772.89 520.723C772.36 520.407 771.952 520.068 771.656 519.704C770.274 517.802 769.237 515.62 768.546 513.159C767.855 510.675 767.51 508.117 767.51 505.499C767.51 503.887 767.621 502.288 767.855 500.7C768.077 499.088 768.411 497.536 768.843 496.046C769.657 493.331 770.817 490.882 772.298 488.676C773.779 486.446 775.556 484.749 777.629 483.586C778.974 482.846 780.517 482.253 782.269 481.792C784.046 481.344 785.897 481.089 787.847 481.016C789.328 480.992 790.821 481.113 792.339 481.404C793.881 481.695 795.313 482.204 796.633 482.907C796.954 482.616 797.299 482.507 797.67 482.568C798.065 482.64 798.459 482.713 798.854 482.81C799.114 482.907 799.36 482.992 799.595 483.053C799.854 483.125 800.101 483.137 800.335 483.101C800.594 483.077 800.854 482.992 801.125 482.859C801.421 482.701 801.693 482.556 801.964 482.422C802.322 482.204 802.668 482.022 803.001 481.889C803.359 481.731 803.753 481.744 804.185 481.937C803.951 482.713 803.852 483.574 803.889 484.507C803.951 485.416 804.037 486.349 804.136 487.319C804.161 487.779 804.198 488.24 804.235 488.725C804.296 489.185 804.333 489.622 804.333 490.034C804.395 491.1 804.296 492.07 804.037 492.943C803.803 493.815 803.297 494.518 802.507 495.027C801.717 494.64 801.248 494.131 801.125 493.476C801.026 492.834 800.977 492.143 800.977 491.391C800.977 491.003 800.94 490.591 800.878 490.131C800.841 489.682 800.742 489.258 800.582 488.87C799.99 487.101 798.583 485.816 796.386 485.04C794.214 484.265 791.87 483.925 789.377 484.022C787.625 484.059 785.897 484.289 784.194 484.701C782.516 485.125 781.146 485.719 780.097 486.495C778.616 487.501 777.394 488.846 776.444 490.519C775.519 492.167 774.828 494.009 774.371 496.046C774.137 497.209 773.952 498.409 773.828 499.633C773.729 500.869 773.68 502.094 773.68 503.318C773.705 506.13 774.05 508.917 774.717 511.657C775.371 514.408 776.321 516.844 777.58 518.977C778.826 521.086 780.319 522.613 782.071 523.583C783.848 524.237 785.848 524.625 788.094 524.747C790.327 524.843 792.437 524.637 794.412 524.116C796.411 523.607 797.941 522.783 799.002 521.644C798.83 520.517 798.756 519.304 798.756 518.008C798.756 516.723 798.805 515.426 798.904 514.129C798.904 513.353 798.916 512.578 798.953 511.802C798.978 511.002 799.002 510.226 799.002 509.475C798.571 509.087 798.015 508.893 797.324 508.893C796.633 508.893 795.991 508.929 795.399 508.99C794.868 509.087 794.387 509.136 793.968 509.136C793.536 509.136 793.202 509.063 792.98 508.893C792.746 507.184 793.042 506.202 793.869 505.936C794.72 505.681 795.967 505.596 797.62 505.693C798.213 505.693 798.805 505.718 799.397 505.742C800.014 505.742 800.656 505.73 801.322 505.693C801.582 505.693 801.841 505.681 802.112 505.645C802.408 505.621 802.705 505.584 803.001 505.548C804.111 505.451 805.234 505.402 806.357 505.402C807.505 505.402 808.455 505.584 809.22 505.936C810.01 506.299 810.504 506.954 810.701 507.923Z" fill="black"/>
<path d="M891.315 524.941C890.747 525.656 889.809 526.201 888.501 526.589C887.218 526.977 885.786 527.219 884.207 527.316C882.627 527.413 881.121 527.365 879.715 527.171C878.333 526.952 877.259 526.589 876.506 526.104C876.407 525.789 876.407 525.547 876.506 525.377C876.63 525.183 876.765 524.989 876.901 524.795C877.061 524.674 877.21 524.528 877.345 524.359C877.469 524.165 877.543 523.91 877.543 523.583C878.061 523.583 878.653 523.486 879.32 523.292C880.011 523.074 880.615 522.795 881.146 522.468C881.146 518.202 881.109 513.875 881.047 509.475C880.973 505.051 880.912 500.603 880.85 496.143C880.813 494.373 880.801 492.591 880.801 490.81C880.801 489.04 880.801 487.27 880.801 485.525C880.801 485.525 880.603 486.095 880.208 487.222C879.838 488.361 879.616 489.731 879.517 491.343C878.826 492.87 878.11 494.47 877.395 496.143C876.235 498.954 875.038 501.888 873.791 504.918C872.533 507.924 871.348 510.832 870.237 513.644C869.842 514.614 869.41 515.729 868.954 516.99C868.485 518.226 868.065 519.402 867.67 520.529C867.633 520.698 867.584 520.868 867.522 521.062C867.485 521.256 867.436 521.474 867.374 521.692C867.202 522.371 866.992 523.074 866.733 523.777C866.498 524.456 866.103 525.013 865.548 525.425C865.017 525.85 864.265 525.947 863.277 525.716C861.031 520.965 858.933 516.068 856.959 511.026C854.985 505.984 852.961 500.991 850.888 496.046C850.258 494.591 849.654 493.161 849.061 491.731C848.494 490.313 847.889 488.907 847.235 487.513C847.235 487.513 847.247 487.925 847.284 488.725C847.346 489.501 847.395 490.41 847.432 491.44C847.457 492.482 847.482 493.416 847.482 494.252L847.58 496.046C847.704 499.051 847.802 502.203 847.876 505.499C847.938 508.772 848 511.948 848.074 515.05C848.173 518.153 848.234 520.965 848.271 523.486C848.888 523.947 849.579 524.286 850.345 524.504C851.134 524.698 851.69 525.159 852.023 525.862C851.554 526.516 850.813 526.965 849.802 527.219C848.777 527.449 847.654 527.534 846.445 527.51C845.26 527.51 844.051 527.449 842.842 527.316C841.657 527.159 840.645 527.013 839.831 526.88C839.497 525.692 839.794 524.722 840.719 523.971C841.669 523.232 842.694 522.735 843.779 522.468C844.273 518.492 844.446 514.25 844.322 509.717C844.224 505.196 844.051 500.639 843.829 496.046C843.73 494.337 843.644 492.652 843.582 491.004C843.508 489.331 843.434 487.683 843.335 486.058C842.805 485.998 842.2 485.961 841.509 485.961C840.842 485.961 840.127 485.913 839.337 485.816C839.337 485.598 839.288 485.38 839.189 485.186C839.09 484.992 838.991 484.834 838.893 484.701C838.695 484.386 838.547 484.059 838.448 483.731C838.374 483.416 838.547 483.04 838.942 482.616C839.757 482.616 840.546 482.592 841.311 482.519C842.101 482.459 842.891 482.35 843.681 482.18C845.186 482.022 846.642 481.925 848.025 481.889C849.407 481.828 850.665 482.168 851.825 482.907C851.949 483.137 852.023 483.368 852.023 483.586C852.023 483.78 851.986 483.962 851.924 484.119C851.924 484.386 851.924 484.628 851.924 484.846C851.924 485.077 851.998 485.319 852.171 485.574C852.961 487.295 853.713 489.04 854.442 490.81C855.157 492.555 855.898 494.3 856.663 496.046C858.07 499.439 859.476 502.857 860.859 506.275C862.241 509.669 863.734 512.966 865.35 516.165C866.893 513.002 868.287 509.717 869.546 506.324C870.83 502.93 872.076 499.536 873.298 496.143C874.211 493.719 875.124 491.343 876.013 489.016C876.926 486.689 877.938 484.446 879.024 482.277C879.875 481.986 880.924 481.816 882.183 481.744C883.466 481.647 884.725 481.671 885.984 481.792C887.23 481.925 888.279 482.228 889.143 482.713C890.031 483.174 890.5 483.828 890.574 484.701C890.401 485.065 890.081 485.283 889.587 485.38C889.118 485.477 888.612 485.525 888.057 485.525C887.687 485.525 887.316 485.562 886.921 485.622C886.551 485.658 886.23 485.743 885.934 485.865C885.897 487.549 885.86 489.246 885.835 490.955C885.798 492.64 885.811 494.373 885.885 496.143C885.885 497.282 885.897 498.445 885.934 499.633C885.996 500.797 886.033 501.96 886.033 503.124C886.095 506.396 886.144 509.657 886.181 512.917C886.243 516.153 886.193 519.292 886.033 522.323C886.391 522.844 886.897 523.195 887.563 523.389C888.254 523.559 888.945 523.728 889.636 523.922C890.352 524.092 890.92 524.431 891.315 524.941Z" fill="black"/>
<path d="M935.815 526.007L935.322 526.492C932.952 526.662 930.546 526.759 928.115 526.783C925.708 526.819 923.29 526.807 920.859 526.734C918.156 526.734 915.491 526.759 912.862 526.783C910.221 526.819 907.679 526.965 905.211 527.219C904.446 526.734 904.1 526.25 904.175 525.765C904.273 525.28 904.421 524.831 904.619 524.407C904.841 523.995 904.964 523.716 904.964 523.583C905.26 523.389 905.606 523.292 906.001 523.292C906.396 523.292 906.803 523.292 907.235 523.292C907.457 523.292 907.704 523.316 907.975 523.341C908.234 523.341 908.481 523.329 908.716 523.292C908.938 519.935 909.061 516.384 909.061 512.626C909.061 508.881 909.037 505.233 909.012 501.669C909.012 500.7 908.987 499.767 908.963 498.858C908.926 497.924 908.913 496.991 908.913 496.046C908.876 494.3 908.864 492.652 908.864 491.1C908.889 489.525 908.938 488.034 909.012 486.64C908.679 486.543 908.333 486.495 907.975 486.495C907.605 486.471 907.26 486.446 906.939 486.446C906.346 486.446 905.766 486.386 905.211 486.252C904.68 486.131 904.224 485.816 903.829 485.331C903.891 485.174 903.94 484.98 903.977 484.749C904.076 484.204 904.224 483.671 904.421 483.15C904.643 482.604 905.088 482.362 905.754 482.422C907.531 482.459 909.506 482.507 911.677 482.568C913.874 482.64 916.071 482.665 918.243 482.665C920.414 482.665 922.265 482.665 923.82 482.665C924.376 482.665 924.931 482.653 925.499 482.616C926.054 482.592 926.609 482.544 927.177 482.471C928.781 482.35 930.348 482.277 931.866 482.277C933.372 482.277 934.692 482.665 935.815 483.44C935.741 483.901 935.729 484.446 935.766 485.089C935.791 485.707 935.815 486.349 935.815 487.028C935.914 488.325 935.939 489.646 935.914 491.004C935.877 492.337 935.679 493.403 935.322 494.203C934.458 494.373 933.841 494.252 933.446 493.864C933.051 493.476 932.779 492.943 932.656 492.264C932.459 491.331 932.323 490.276 932.261 489.113C932.187 487.925 931.94 487.028 931.521 486.446C930.928 486.446 930.287 486.446 929.596 486.446C928.929 486.446 928.226 486.422 927.473 486.349C925.227 486.349 922.845 486.349 920.316 486.349C917.811 486.349 915.787 486.446 914.244 486.64C914.269 487.222 914.294 487.986 914.294 488.919C914.294 489.864 914.269 490.894 914.244 492.022C914.244 492.676 914.244 493.331 914.244 494.009C914.244 494.688 914.244 495.367 914.244 496.046C914.244 497.185 914.269 498.3 914.343 499.391C914.405 500.494 914.491 501.56 914.59 502.591C916.391 502.397 918.267 502.288 920.217 502.251C922.191 502.191 924.117 502.106 925.992 502.009C926.609 501.754 927.054 501.33 927.325 500.748C927.621 500.167 927.88 499.536 928.115 498.858C928.337 498.179 928.658 497.621 929.053 497.161C929.374 496.967 929.657 496.918 929.892 497.015C930.114 497.088 930.361 497.185 930.632 497.306C930.731 497.342 930.842 497.403 930.978 497.5C931.138 497.573 931.323 497.621 931.521 497.645C931.225 498.688 931.039 499.851 930.978 501.136C930.941 502.433 930.953 503.742 931.027 505.063C931.027 506.166 930.99 507.245 930.928 508.311C930.891 509.378 930.793 510.299 930.632 511.075C929.571 511.172 928.88 510.917 928.559 510.299C928.226 509.693 927.967 508.978 927.769 508.166C927.671 507.851 927.572 507.524 927.473 507.196C927.374 506.881 927.251 506.59 927.128 506.324C924.956 506.009 922.685 505.827 920.316 505.79C917.971 505.73 915.947 506.081 914.244 506.857C914.306 509.414 914.355 512.02 914.392 514.662C914.454 517.317 914.405 520.092 914.244 523.001C915.947 523.098 917.848 523.183 919.921 523.244C921.994 523.28 924.067 523.219 926.14 523.05C928.214 522.892 930.089 522.601 931.768 522.177C932.286 521.304 932.656 520.311 932.854 519.171C933.051 518.044 933.31 516.977 933.643 515.971C934.001 514.941 934.655 514.226 935.618 513.838C936.309 515.232 936.617 516.784 936.556 518.492C936.482 520.177 936.334 521.741 936.111 523.195C936.037 523.716 935.976 524.213 935.914 524.698C935.84 525.159 935.815 525.595 935.815 526.007Z" fill="black"/>
</svg>
