<?xml version="1.0" encoding="UTF-8"?>
<svg xmlns="http://www.w3.org/2000/svg" xmlns:xlink="http://www.w3.org/1999/xlink" width="3840px" height="1080px" viewBox="0 0 3840 1080" version="1.1">
<g id="surface1">
<path style=" stroke:none;fill-rule:nonzero;fill:rgb(0%,0%,0%);fill-opacity:1;" d="M 912.746094 567.015625 C 915.183594 560.324219 917.308594 553.097656 919.121094 545.347656 C 920.953125 537.597656 923.996094 530.234375 928.246094 523.246094 C 932.515625 516.246094 938.753906 510.546875 946.953125 506.140625 C 955.171875 501.738281 966.878906 499.535156 982.078125 499.535156 C 999.683594 499.535156 1016.089844 503.339844 1031.285156 510.933594 C 1046.503906 518.53125 1054.121094 527.953125 1054.121094 539.203125 C 1051.671875 545.578125 1048.171875 552.191406 1043.621094 559.035156 C 1039.058594 565.871094 1036.785156 572.785156 1036.785156 579.785156 C 1036.785156 581.910156 1038.296875 584.113281 1041.328125 586.390625 C 1044.378906 588.671875 1048.953125 589.808594 1055.035156 589.808594 C 1063.535156 589.808594 1071.285156 587.152344 1078.285156 581.828125 C 1085.285156 576.511719 1091.808594 569.972656 1097.871094 562.222656 C 1103.953125 554.472656 1110.339844 546.800781 1117.035156 539.203125 C 1123.722656 531.609375 1131.628906 525.152344 1140.746094 519.828125 C 1149.847656 514.511719 1160.496094 511.847656 1172.660156 511.847656 C 1181.183594 511.847656 1190.765625 513.296875 1201.410156 516.183594 C 1212.046875 519.058594 1221.160156 523.089844 1228.746094 528.265625 C 1236.347656 533.433594 1240.160156 539.511719 1240.160156 546.496094 C 1240.160156 548.925781 1239.246094 551.050781 1237.410156 552.871094 C 1228.296875 564.734375 1217.660156 577.199219 1205.496094 590.265625 C 1193.328125 603.339844 1179.183594 615.652344 1163.078125 627.203125 C 1146.964844 638.761719 1128.722656 648.183594 1108.371094 655.472656 C 1088.003906 662.765625 1065.058594 666.410156 1039.535156 666.410156 C 1009.722656 666.410156 985.390625 662.535156 966.535156 654.785156 C 947.703125 647.035156 934.015625 637.535156 925.496094 626.285156 C 916.996094 615.035156 912.746094 604.246094 912.746094 593.910156 C 912.746094 589.660156 913.203125 585.261719 914.121094 580.703125 C 915.035156 576.136719 915.796875 571.574219 916.410156 567.015625 C 916.410156 567.015625 916.097656 567.015625 915.496094 567.015625 C 914.878906 567.015625 913.964844 567.015625 912.746094 567.015625 Z M 912.746094 567.015625 "/>
<path style=" stroke:none;fill-rule:nonzero;fill:rgb(0%,0%,0%);fill-opacity:1;" d="M 1522.804688 345.871094 C 1545.304688 346.175781 1568.242188 348.53125 1591.636719 352.933594 C 1615.054688 357.339844 1636.636719 363.191406 1656.386719 370.496094 C 1676.15625 377.785156 1692.117188 386.378906 1704.261719 396.265625 C 1716.429688 406.140625 1722.511719 417.003906 1722.511719 428.847656 C 1722.511719 439.796875 1717.34375 450.816406 1707.011719 461.910156 C 1696.679688 473.011719 1683.761719 483.574219 1668.261719 493.597656 C 1652.761719 503.628906 1637.40625 512.746094 1622.21875 520.953125 C 1611.273438 526.734375 1605.804688 532.203125 1605.804688 537.371094 C 1605.804688 541.328125 1610.8125 546.347656 1620.84375 552.433594 C 1630.867188 558.503906 1643.179688 565.035156 1657.761719 572.035156 C 1672.367188 579.027344 1686.96875 586.09375 1701.554688 593.246094 C 1716.136719 600.386719 1728.4375 607.152344 1738.46875 613.535156 C 1748.492188 619.910156 1753.511719 625.683594 1753.511719 630.847656 C 1753.511719 637.546875 1746.367188 642.949219 1732.09375 647.058594 C 1717.8125 651.15625 1699.574219 654.496094 1677.386719 657.078125 C 1655.1875 659.660156 1632.6875 661.785156 1609.886719 663.453125 C 1587.074219 665.121094 1566.867188 666.71875 1549.261719 668.246094 C 1532.230469 669.761719 1514.898438 670.824219 1497.261719 671.433594 C 1479.617188 672.042969 1461.6875 673.5625 1443.46875 675.996094 C 1439.21875 676.296875 1435.261719 676.671875 1431.59375 677.121094 C 1427.949219 677.578125 1424.3125 677.808594 1420.679688 677.808594 C 1417.617188 677.808594 1411.679688 676.515625 1402.84375 673.933594 C 1394.03125 671.347656 1385.824219 668.089844 1378.21875 664.140625 C 1370.636719 660.183594 1366.84375 656.234375 1366.84375 652.285156 C 1366.84375 647.121094 1370.78125 642.714844 1378.679688 639.058594 C 1386.59375 635.40625 1396.636719 632.363281 1408.804688 629.933594 C 1420.96875 627.503906 1433.117188 625.683594 1445.261719 624.472656 C 1457.429688 623.253906 1467.46875 622.640625 1475.386719 622.640625 C 1481.46875 622.640625 1487.6875 623.027344 1494.054688 623.785156 C 1500.4375 624.550781 1506.679688 624.933594 1512.761719 624.933594 C 1525.53125 624.933594 1537.992188 623.261719 1550.136719 619.910156 C 1562.304688 616.566406 1568.386719 612.765625 1568.386719 608.515625 C 1568.386719 605.171875 1565.1875 601.675781 1558.804688 598.035156 C 1552.4375 594.386719 1544.84375 590.808594 1536.011719 587.308594 C 1527.199219 583.808594 1519.148438 580.996094 1511.84375 578.871094 C 1504.5625 576.746094 1499.699219 575.683594 1497.261719 575.683594 C 1490.5625 575.683594 1484.78125 577.433594 1479.929688 580.933594 C 1475.0625 584.421875 1470.054688 588.371094 1464.886719 592.785156 C 1459.71875 597.191406 1453.480469 601.140625 1446.179688 604.640625 C 1438.898438 608.128906 1429.480469 609.871094 1417.929688 609.871094 C 1395.429688 609.871094 1378.09375 606.074219 1365.929688 598.472656 C 1353.78125 590.878906 1345.136719 580.847656 1339.96875 568.390625 C 1334.804688 555.921875 1331.449219 542.316406 1329.929688 527.578125 C 1328.398438 512.828125 1326.71875 498.160156 1324.886719 483.578125 C 1323.074219 468.984375 1319.136719 456.058594 1313.054688 444.808594 C 1308.804688 436.597656 1304.6875 427.484375 1300.71875 417.453125 C 1296.773438 407.425781 1294.804688 399.675781 1294.804688 394.203125 C 1294.804688 384.777344 1302.699219 377.027344 1318.511719 370.953125 C 1334.3125 364.871094 1354.21875 360.078125 1378.21875 356.578125 C 1402.242188 353.078125 1427.179688 350.496094 1453.011719 348.828125 C 1478.867188 347.160156 1502.136719 346.175781 1522.804688 345.871094 Z M 1595.761719 432.953125 C 1595.761719 432.035156 1595.761719 431.128906 1595.761719 430.222656 C 1595.761719 429.308594 1595.761719 428.546875 1595.761719 427.933594 C 1595.761719 415.78125 1587.554688 407.425781 1571.136719 402.871094 C 1554.71875 398.300781 1533.136719 396.015625 1506.386719 396.015625 C 1485.105469 396.015625 1466.867188 397.765625 1451.679688 401.265625 C 1436.480469 404.765625 1428.886719 409.253906 1428.886719 414.722656 C 1435.554688 422.015625 1440.09375 430.984375 1442.511719 441.621094 C 1444.949219 452.261719 1447.09375 462.824219 1448.929688 473.308594 C 1450.761719 483.796875 1453.648438 492.613281 1457.59375 499.765625 C 1461.53125 506.90625 1468.386719 510.472656 1478.136719 510.472656 C 1482.992188 510.472656 1489.0625 509.566406 1496.34375 507.746094 C 1523.699219 498.925781 1544.824219 487.984375 1559.71875 474.910156 C 1574.636719 461.84375 1586.648438 447.859375 1595.761719 432.953125 Z M 1595.761719 432.953125 "/>
<path style=" stroke:none;fill-rule:nonzero;fill:rgb(0%,0%,0%);fill-opacity:1;" d="M 1960.476562 508.183594 C 1960.476562 525.824219 1958.945312 543.464844 1955.894531 561.097656 C 1952.863281 578.722656 1951.351562 596.503906 1951.351562 614.433594 C 1951.351562 622.949219 1952.863281 631.386719 1955.894531 639.746094 C 1958.945312 648.109375 1960.476562 656.390625 1960.476562 664.597656 C 1960.476562 670.074219 1957.121094 675.609375 1950.433594 681.222656 C 1943.738281 686.847656 1935.527344 691.640625 1925.808594 695.597656 C 1916.082031 699.558594 1906.363281 701.535156 1896.644531 701.535156 C 1887.496094 701.535156 1877.769531 699.558594 1867.433594 695.597656 C 1857.101562 691.640625 1847.976562 686.691406 1840.058594 680.765625 C 1832.164062 674.847656 1827.308594 668.699219 1825.476562 662.308594 C 1819.996094 637.683594 1817.269531 613.066406 1817.269531 588.453125 C 1817.269531 557.441406 1819.082031 525.527344 1822.726562 492.703125 C 1826.394531 459.871094 1830.351562 427.796875 1834.601562 396.472656 C 1836.433594 380.671875 1841.746094 369.578125 1850.558594 363.203125 C 1859.394531 356.816406 1874.144531 353.621094 1894.808594 353.621094 C 1917.308594 353.621094 1935.539062 357.574219 1949.519531 365.472656 C 1963.488281 373.378906 1970.476562 383.714844 1970.476562 396.472656 C 1970.476562 413.199219 1968.652344 429.613281 1965.019531 445.722656 C 1961.371094 461.839844 1959.558594 477.949219 1959.558594 494.058594 C 1959.558594 496.183594 1959.558594 498.464844 1959.558594 500.890625 C 1959.558594 503.324219 1959.863281 505.753906 1960.476562 508.183594 Z M 1960.476562 508.183594 "/>
<path style=" stroke:none;fill-rule:nonzero;fill:rgb(0%,0%,0%);fill-opacity:1;" d="M 2181.105469 547.410156 C 2199.960938 547.410156 2216.835938 550.074219 2231.730469 555.390625 C 2246.617188 560.714844 2258.617188 567.628906 2267.730469 576.140625 C 2276.867188 584.640625 2281.441406 593.609375 2281.441406 603.035156 C 2280.824219 613.675781 2274.585938 623.484375 2262.730469 632.453125 C 2250.867188 641.410156 2235.503906 648.628906 2216.648438 654.097656 C 2197.816406 659.574219 2177.160156 662.308594 2154.691406 662.308594 C 2120.628906 662.308594 2093.566406 657.675781 2073.480469 648.410156 C 2053.417969 639.136719 2043.398438 627.65625 2043.398438 613.972656 C 2043.398438 589.65625 2054.792969 572.484375 2077.605469 562.453125 C 2100.410156 552.425781 2134.910156 547.410156 2181.105469 547.410156 Z M 2181.105469 547.410156 "/>
<path style=" stroke:none;fill-rule:nonzero;fill:rgb(0%,0%,0%);fill-opacity:1;" d="M 2697.230469 713.390625 C 2692.980469 738.917969 2681.574219 762.472656 2663.023438 784.058594 C 2644.492188 805.640625 2616.375 824.484375 2578.6875 840.597656 C 2570.773438 843.640625 2562.40625 845.996094 2553.605469 847.660156 C 2544.792969 849.339844 2537.042969 850.183594 2530.355469 850.183594 C 2517.574219 850.183594 2505.25 847.597656 2493.398438 842.433594 C 2481.5625 837.265625 2475.648438 830.421875 2475.648438 821.910156 C 2475.648438 817.644531 2477.773438 813.917969 2482.023438 810.722656 C 2486.273438 807.542969 2491.125 804.433594 2496.605469 801.390625 C 2512.40625 793.183594 2525.9375 782.917969 2537.1875 770.597656 C 2548.4375 758.292969 2557.242188 745.828125 2563.605469 733.203125 C 2569.992188 720.589844 2573.1875 709.878906 2573.1875 701.078125 C 2573.1875 694.6875 2572.273438 687.003906 2570.4375 678.035156 C 2568.625 669.078125 2565.605469 660.421875 2561.355469 652.058594 C 2557.105469 643.699219 2551.625 636.703125 2544.9375 631.078125 C 2538.242188 625.453125 2530.03125 622.640625 2520.3125 622.640625 C 2514.230469 622.640625 2506.480469 623.78125 2497.0625 626.058594 C 2487.648438 628.339844 2477.3125 630.621094 2466.0625 632.910156 C 2454.8125 635.191406 2443.40625 636.328125 2431.855469 636.328125 C 2420.292969 636.328125 2408.4375 634.65625 2396.273438 631.308594 C 2384.125 627.964844 2374.105469 623.175781 2366.1875 616.953125 C 2358.292969 610.71875 2354.355469 603.34375 2354.355469 594.828125 C 2354.355469 587.84375 2358.75 580.703125 2367.5625 573.410156 C 2376.367188 566.109375 2387.90625 559.949219 2402.1875 554.933594 C 2416.492188 549.921875 2431.542969 547.410156 2447.355469 547.410156 C 2452.210938 547.410156 2457.074219 547.640625 2461.9375 548.097656 C 2466.792969 548.546875 2471.367188 548.765625 2475.648438 548.765625 C 2489.617188 548.765625 2502.667969 547.328125 2514.8125 544.453125 C 2526.980469 541.566406 2539.148438 537.234375 2551.3125 531.453125 C 2558.617188 528.109375 2568.648438 526.433594 2581.398438 526.433594 C 2592.949219 526.433594 2604.355469 527.800781 2615.605469 530.535156 C 2626.855469 533.277344 2636.273438 536.996094 2643.855469 541.703125 C 2651.460938 546.410156 2655.273438 551.808594 2655.273438 557.890625 C 2655.273438 573.390625 2658.617188 588.441406 2665.3125 603.035156 C 2672 617.636719 2678.6875 632.15625 2685.355469 646.597656 C 2692.042969 661.03125 2695.398438 675.839844 2695.398438 691.035156 C 2695.398438 694.996094 2695.242188 698.871094 2694.9375 702.660156 C 2694.625 706.464844 2695.398438 710.042969 2697.230469 713.390625 Z M 2697.230469 713.390625 "/>
<path style=" stroke:none;fill-rule:nonzero;fill:rgb(0%,0%,0%);fill-opacity:1;" d="M 2770.117188 633.578125 C 2771.949219 625.675781 2776.960938 618.308594 2785.160156 611.472656 C 2793.378906 604.628906 2803.261719 599.003906 2814.824219 594.597656 C 2826.378906 590.199219 2837.929688 587.996094 2849.492188 587.996094 C 2856.761719 587.996094 2864.804688 589.671875 2873.617188 593.015625 C 2882.449219 596.347656 2890.960938 600.597656 2899.160156 605.765625 C 2907.378906 610.933594 2914.074219 616.175781 2919.242188 621.496094 C 2924.410156 626.816406 2926.992188 631.300781 2926.992188 634.953125 C 2924.542969 641.34375 2918.617188 647.347656 2909.199219 652.972656 C 2899.785156 658.589844 2888.378906 663.066406 2874.992188 666.410156 C 2861.628906 669.761719 2847.949219 671.433594 2833.949219 671.433594 C 2811.472656 671.433594 2795.210938 667.863281 2785.160156 660.722656 C 2775.128906 653.574219 2770.117188 644.527344 2770.117188 633.578125 Z M 2770.117188 633.578125 "/>
<path style=" stroke:none;fill-rule:nonzero;fill:rgb(0%,0%,0%);fill-opacity:1;" d="M 1426.589844 768.648438 L 1425.632812 769.128906 C 1420.984375 769.3125 1416.277344 769.414062 1411.507812 769.441406 C 1406.726562 769.472656 1401.921875 769.457031 1397.089844 769.398438 C 1391.808594 769.398438 1386.570312 769.414062 1381.382812 769.441406 C 1376.183594 769.472656 1371.132812 769.625 1366.214844 769.898438 C 1364.734375 769.390625 1364.089844 768.890625 1364.257812 768.398438 C 1364.445312 767.914062 1364.726562 767.460938 1365.089844 767.046875 C 1365.558594 766.628906 1365.796875 766.351562 1365.796875 766.210938 C 1366.351562 766.019531 1367.015625 765.921875 1367.796875 765.921875 C 1368.601562 765.921875 1369.421875 765.921875 1370.257812 765.921875 C 1370.726562 765.921875 1371.214844 765.9375 1371.714844 765.960938 C 1372.214844 765.992188 1372.695312 765.976562 1373.171875 765.921875 C 1373.640625 762.546875 1373.882812 758.984375 1373.882812 755.234375 C 1373.882812 751.472656 1373.820312 747.804688 1373.714844 744.234375 C 1373.714844 743.25 1373.683594 742.296875 1373.632812 741.378906 C 1373.601562 740.453125 1373.589844 739.519531 1373.589844 738.585938 C 1373.507812 736.828125 1373.476562 735.160156 1373.507812 733.585938 C 1373.558594 732.003906 1373.632812 730.519531 1373.714844 729.128906 C 1373.070312 729.035156 1372.402344 728.976562 1371.714844 728.960938 C 1371.015625 728.9375 1370.339844 728.921875 1369.671875 728.921875 C 1368.476562 728.921875 1367.339844 728.867188 1366.257812 728.753906 C 1365.195312 728.628906 1364.308594 728.316406 1363.589844 727.816406 C 1363.671875 727.679688 1363.757812 727.492188 1363.839844 727.253906 C 1364.027344 726.703125 1364.339844 726.160156 1364.757812 725.628906 C 1365.171875 725.085938 1366.027344 724.835938 1367.339844 724.878906 C 1370.859375 724.9375 1374.777344 725 1379.089844 725.066406 C 1383.390625 725.140625 1387.671875 725.171875 1391.921875 725.171875 C 1396.195312 725.171875 1399.859375 725.171875 1402.921875 725.171875 C 1404.058594 725.171875 1405.183594 725.148438 1406.296875 725.109375 C 1407.402344 725.054688 1408.515625 725.003906 1409.632812 724.960938 C 1412.765625 724.828125 1415.820312 724.753906 1418.796875 724.753906 C 1421.765625 724.753906 1424.359375 725.144531 1426.589844 725.921875 C 1426.507812 726.394531 1426.476562 726.941406 1426.507812 727.566406 C 1426.558594 728.191406 1426.589844 728.851562 1426.589844 729.546875 C 1426.777344 730.851562 1426.851562 732.179688 1426.796875 733.523438 C 1426.734375 734.859375 1426.351562 735.921875 1425.632812 736.710938 C 1423.964844 736.894531 1422.726562 736.789062 1421.921875 736.398438 C 1421.140625 736.015625 1420.609375 735.460938 1420.339844 734.753906 C 1419.976562 733.835938 1419.726562 732.789062 1419.589844 731.609375 C 1419.445312 730.414062 1418.945312 729.519531 1418.089844 728.921875 C 1416.976562 728.921875 1415.757812 728.921875 1414.421875 728.921875 C 1413.089844 728.921875 1411.671875 728.898438 1410.171875 728.859375 C 1405.726562 728.859375 1401.015625 728.859375 1396.046875 728.859375 C 1391.101562 728.859375 1387.089844 728.953125 1384.007812 729.128906 C 1384.109375 729.726562 1384.171875 730.492188 1384.171875 731.421875 C 1384.171875 732.351562 1384.109375 733.394531 1384.007812 734.546875 C 1384.007812 735.203125 1384.007812 735.867188 1384.007812 736.546875 C 1384.007812 737.210938 1384.007812 737.894531 1384.007812 738.585938 C 1384.007812 739.703125 1384.070312 740.816406 1384.214844 741.941406 C 1384.351562 743.054688 1384.515625 744.117188 1384.714844 745.128906 C 1388.320312 744.953125 1392.046875 744.835938 1395.882812 744.796875 C 1399.734375 744.742188 1403.527344 744.664062 1407.257812 744.566406 C 1408.445312 744.289062 1409.320312 743.867188 1409.882812 743.296875 C 1410.433594 742.710938 1410.945312 742.085938 1411.421875 741.421875 C 1411.890625 740.742188 1412.507812 740.171875 1413.257812 739.710938 C 1413.890625 739.519531 1414.433594 739.457031 1414.882812 739.523438 C 1415.351562 739.597656 1415.859375 739.703125 1416.421875 739.835938 C 1416.609375 739.894531 1416.851562 739.957031 1417.132812 740.023438 C 1417.402344 740.097656 1417.726562 740.148438 1418.089844 740.191406 C 1417.527344 741.207031 1417.214844 742.367188 1417.132812 743.671875 C 1417.046875 744.960938 1417.046875 746.285156 1417.132812 747.628906 C 1417.132812 748.742188 1417.070312 749.832031 1416.964844 750.898438 C 1416.882812 751.972656 1416.695312 752.898438 1416.421875 753.691406 C 1414.308594 753.773438 1412.921875 753.503906 1412.257812 752.878906 C 1411.609375 752.253906 1411.101562 751.546875 1410.714844 750.753906 C 1410.546875 750.4375 1410.359375 750.117188 1410.171875 749.796875 C 1409.976562 749.460938 1409.734375 749.160156 1409.464844 748.878906 C 1405.214844 748.5625 1400.765625 748.378906 1396.132812 748.335938 C 1391.484375 748.285156 1387.445312 748.648438 1384.007812 749.441406 C 1384.195312 752 1384.339844 754.609375 1384.421875 757.273438 C 1384.527344 759.941406 1384.390625 762.734375 1384.007812 765.648438 C 1387.445312 765.75 1391.214844 765.816406 1395.296875 765.859375 C 1399.382812 765.898438 1403.464844 765.847656 1407.546875 765.691406 C 1411.632812 765.523438 1415.339844 765.234375 1418.671875 764.816406 C 1419.695312 763.929688 1420.390625 762.921875 1420.757812 761.796875 C 1421.109375 760.660156 1421.640625 759.582031 1422.339844 758.566406 C 1423.027344 757.539062 1424.308594 756.835938 1426.171875 756.460938 C 1427.558594 757.851562 1428.183594 759.394531 1428.046875 761.085938 C 1427.902344 762.785156 1427.601562 764.375 1427.132812 765.859375 C 1427.046875 766.375 1426.933594 766.859375 1426.796875 767.316406 C 1426.652344 767.773438 1426.589844 768.222656 1426.589844 768.648438 Z M 1426.589844 768.648438 "/>
<path style=" stroke:none;fill-rule:nonzero;fill:rgb(0%,0%,0%);fill-opacity:1;" d="M 1539.84375 726.484375 C 1537.78125 727.515625 1535.4375 728.394531 1532.800781 729.128906 C 1530.15625 729.867188 1527.90625 730.816406 1526.050781 731.984375 C 1525.488281 733.140625 1524.9375 734.273438 1524.382812 735.398438 C 1523.820312 736.515625 1523.226562 737.597656 1522.59375 738.648438 C 1519.695312 743.625 1516.46875 748.429688 1512.882812 753.066406 C 1509.320312 757.707031 1506.113281 762.617188 1503.257812 767.796875 C 1502.3125 768.269531 1501.53125 768.796875 1500.925781 769.378906 C 1500.34375 769.953125 1499.632812 770.488281 1498.800781 771.003906 C 1497.769531 771.28125 1496.78125 771.367188 1495.84375 771.273438 C 1494.925781 771.191406 1494.050781 771.078125 1493.21875 770.941406 C 1492.488281 770.84375 1491.988281 770.773438 1491.71875 770.734375 C 1487.71875 765.765625 1484.0625 760.5 1480.757812 754.941406 C 1477.476562 749.375 1474.070312 743.921875 1470.550781 738.585938 C 1469.351562 736.742188 1468.101562 734.9375 1466.800781 733.171875 C 1465.488281 731.410156 1464.101562 729.664062 1462.632812 727.941406 C 1461.800781 727.804688 1460.976562 727.765625 1460.175781 727.816406 C 1459.394531 727.859375 1458.632812 727.898438 1457.882812 727.941406 C 1457.050781 728.039062 1456.257812 728.101562 1455.507812 728.128906 C 1454.78125 728.144531 1454.050781 728.082031 1453.300781 727.941406 C 1452.65625 727.429688 1452.476562 726.976562 1452.757812 726.585938 C 1453.03125 726.203125 1453.351562 725.816406 1453.71875 725.441406 C 1453.90625 725.304688 1454.070312 725.179688 1454.21875 725.066406 C 1454.351562 724.941406 1454.46875 724.8125 1454.550781 724.671875 C 1456.40625 724.726562 1458.257812 724.734375 1460.09375 724.691406 C 1461.945312 724.640625 1463.8125 724.585938 1465.675781 724.546875 C 1467.0625 724.453125 1468.476562 724.394531 1469.925781 724.378906 C 1471.363281 724.351562 1472.738281 724.335938 1474.050781 724.335938 C 1476.550781 724.378906 1478.882812 724.566406 1481.050781 724.898438 C 1483.238281 725.222656 1485.113281 725.867188 1486.675781 726.835938 C 1485.007812 727.253906 1483.132812 727.648438 1481.050781 728.023438 C 1478.96875 728.390625 1477.269531 728.617188 1475.96875 728.710938 C 1476.71875 730.335938 1477.519531 731.976562 1478.382812 733.628906 C 1479.269531 735.269531 1480.226562 736.921875 1481.257812 738.585938 C 1483.757812 742.628906 1486.488281 746.691406 1489.46875 750.773438 C 1492.4375 754.847656 1494.945312 758.941406 1497.007812 763.066406 C 1500.226562 759.179688 1503.476562 755.226562 1506.757812 751.210938 C 1510.0625 747.203125 1513.019531 743.015625 1515.632812 738.648438 C 1517.488281 735.554688 1519.019531 732.398438 1520.21875 729.191406 C 1519.570312 728.691406 1518.601562 728.335938 1517.300781 728.128906 C 1515.988281 727.921875 1514.644531 727.726562 1513.257812 727.546875 C 1511.863281 727.351562 1510.71875 727.066406 1509.800781 726.691406 C 1509.96875 726 1510.84375 725.476562 1512.425781 725.128906 C 1514.007812 724.785156 1515.945312 724.566406 1518.257812 724.484375 C 1520.59375 724.390625 1522.976562 724.359375 1525.425781 724.398438 C 1527.894531 724.441406 1530.101562 724.515625 1532.050781 724.609375 C 1533.71875 724.707031 1535.269531 724.929688 1536.71875 725.273438 C 1538.15625 725.625 1539.195312 726.023438 1539.84375 726.484375 Z M 1539.84375 726.484375 "/>
<path style=" stroke:none;fill-rule:nonzero;fill:rgb(0%,0%,0%);fill-opacity:1;" d="M 1626.921875 768.648438 L 1625.964844 769.128906 C 1621.320312 769.3125 1616.609375 769.414062 1611.839844 769.441406 C 1607.058594 769.472656 1602.257812 769.457031 1597.421875 769.398438 C 1592.140625 769.398438 1586.902344 769.414062 1581.714844 769.441406 C 1576.515625 769.472656 1571.464844 769.625 1566.546875 769.898438 C 1565.070312 769.390625 1564.421875 768.890625 1564.589844 768.398438 C 1564.777344 767.914062 1565.058594 767.460938 1565.421875 767.046875 C 1565.890625 766.628906 1566.132812 766.351562 1566.132812 766.210938 C 1566.683594 766.019531 1567.351562 765.921875 1568.132812 765.921875 C 1568.933594 765.921875 1569.757812 765.921875 1570.589844 765.921875 C 1571.058594 765.921875 1571.546875 765.9375 1572.046875 765.960938 C 1572.546875 765.992188 1573.027344 765.976562 1573.507812 765.921875 C 1573.976562 762.546875 1574.214844 758.984375 1574.214844 755.234375 C 1574.214844 751.472656 1574.152344 747.804688 1574.046875 744.234375 C 1574.046875 743.25 1574.015625 742.296875 1573.964844 741.378906 C 1573.933594 740.453125 1573.921875 739.519531 1573.921875 738.585938 C 1573.839844 736.828125 1573.808594 735.160156 1573.839844 733.585938 C 1573.890625 732.003906 1573.964844 730.519531 1574.046875 729.128906 C 1573.402344 729.035156 1572.734375 728.976562 1572.046875 728.960938 C 1571.351562 728.9375 1570.671875 728.921875 1570.007812 728.921875 C 1568.808594 728.921875 1567.671875 728.867188 1566.589844 728.753906 C 1565.527344 728.628906 1564.640625 728.316406 1563.921875 727.816406 C 1564.007812 727.679688 1564.089844 727.492188 1564.171875 727.253906 C 1564.359375 726.703125 1564.671875 726.160156 1565.089844 725.628906 C 1565.507812 725.085938 1566.359375 724.835938 1567.671875 724.878906 C 1571.195312 724.9375 1575.109375 725 1579.421875 725.066406 C 1583.726562 725.140625 1588.007812 725.171875 1592.257812 725.171875 C 1596.527344 725.171875 1600.195312 725.171875 1603.257812 725.171875 C 1604.390625 725.171875 1605.515625 725.148438 1606.632812 725.109375 C 1607.734375 725.054688 1608.851562 725.003906 1609.964844 724.960938 C 1613.101562 724.828125 1616.152344 724.753906 1619.132812 724.753906 C 1622.101562 724.753906 1624.695312 725.144531 1626.921875 725.921875 C 1626.839844 726.394531 1626.808594 726.941406 1626.839844 727.566406 C 1626.890625 728.191406 1626.921875 728.851562 1626.921875 729.546875 C 1627.109375 730.851562 1627.183594 732.179688 1627.132812 733.523438 C 1627.070312 734.859375 1626.683594 735.921875 1625.964844 736.710938 C 1624.296875 736.894531 1623.058594 736.789062 1622.257812 736.398438 C 1621.476562 736.015625 1620.945312 735.460938 1620.671875 734.753906 C 1620.308594 733.835938 1620.058594 732.789062 1619.921875 731.609375 C 1619.777344 730.414062 1619.277344 729.519531 1618.421875 728.921875 C 1617.308594 728.921875 1616.089844 728.921875 1614.757812 728.921875 C 1613.421875 728.921875 1612.007812 728.898438 1610.507812 728.859375 C 1606.058594 728.859375 1601.351562 728.859375 1596.382812 728.859375 C 1591.433594 728.859375 1587.421875 728.953125 1584.339844 729.128906 C 1584.445312 729.726562 1584.507812 730.492188 1584.507812 731.421875 C 1584.507812 732.351562 1584.445312 733.394531 1584.339844 734.546875 C 1584.339844 735.203125 1584.339844 735.867188 1584.339844 736.546875 C 1584.339844 737.210938 1584.339844 737.894531 1584.339844 738.585938 C 1584.339844 739.703125 1584.402344 740.816406 1584.546875 741.941406 C 1584.683594 743.054688 1584.851562 744.117188 1585.046875 745.128906 C 1588.652344 744.953125 1592.382812 744.835938 1596.214844 744.796875 C 1600.070312 744.742188 1603.859375 744.664062 1607.589844 744.566406 C 1608.777344 744.289062 1609.652344 743.867188 1610.214844 743.296875 C 1610.765625 742.710938 1611.277344 742.085938 1611.757812 741.421875 C 1612.226562 740.742188 1612.839844 740.171875 1613.589844 739.710938 C 1614.226562 739.519531 1614.765625 739.457031 1615.214844 739.523438 C 1615.683594 739.597656 1616.195312 739.703125 1616.757812 739.835938 C 1616.945312 739.894531 1617.183594 739.957031 1617.464844 740.023438 C 1617.734375 740.097656 1618.058594 740.148438 1618.421875 740.191406 C 1617.859375 741.207031 1617.546875 742.367188 1617.464844 743.671875 C 1617.382812 744.960938 1617.382812 746.285156 1617.464844 747.628906 C 1617.464844 748.742188 1617.402344 749.832031 1617.296875 750.898438 C 1617.214844 751.972656 1617.027344 752.898438 1616.757812 753.691406 C 1614.640625 753.773438 1613.257812 753.503906 1612.589844 752.878906 C 1611.945312 752.253906 1611.433594 751.546875 1611.046875 750.753906 C 1610.882812 750.4375 1610.695312 750.117188 1610.507812 749.796875 C 1610.308594 749.460938 1610.070312 749.160156 1609.796875 748.878906 C 1605.546875 748.5625 1601.101562 748.378906 1596.464844 748.335938 C 1591.820312 748.285156 1587.777344 748.648438 1584.339844 749.441406 C 1584.527344 752 1584.671875 754.609375 1584.757812 757.273438 C 1584.859375 759.941406 1584.726562 762.734375 1584.339844 765.648438 C 1587.777344 765.75 1591.546875 765.816406 1595.632812 765.859375 C 1599.714844 765.898438 1603.796875 765.847656 1607.882812 765.691406 C 1611.964844 765.523438 1615.671875 765.234375 1619.007812 764.816406 C 1620.027344 763.929688 1620.726562 762.921875 1621.089844 761.796875 C 1621.445312 760.660156 1621.976562 759.582031 1622.671875 758.566406 C 1623.359375 757.539062 1624.640625 756.835938 1626.507812 756.460938 C 1627.890625 757.851562 1628.515625 759.394531 1628.382812 761.085938 C 1628.234375 762.785156 1627.933594 764.375 1627.464844 765.859375 C 1627.382812 766.375 1627.265625 766.859375 1627.132812 767.316406 C 1626.984375 767.773438 1626.921875 768.222656 1626.921875 768.648438 Z M 1626.921875 768.648438 "/>
<path style=" stroke:none;fill-rule:nonzero;fill:rgb(0%,0%,0%);fill-opacity:1;" d="M 1734.34375 769.609375 C 1731.28125 770.023438 1728.425781 770.160156 1725.757812 770.003906 C 1723.113281 769.835938 1720.445312 769.597656 1717.757812 769.273438 C 1715.925781 768.148438 1714.351562 766.789062 1713.050781 765.191406 C 1711.738281 763.597656 1710.53125 761.910156 1709.425781 760.128906 C 1708.3125 758.335938 1707.019531 756.648438 1705.550781 755.066406 C 1704.050781 753.457031 1702.257812 752.117188 1700.175781 751.046875 C 1698.09375 749.976562 1695.382812 749.328125 1692.050781 749.085938 C 1690.65625 749.003906 1689.21875 748.960938 1687.71875 748.960938 C 1686.238281 748.960938 1684.8125 748.984375 1683.425781 749.023438 C 1682.3125 749.066406 1681.28125 749.085938 1680.34375 749.085938 C 1679.425781 749.085938 1678.59375 749.066406 1677.84375 749.023438 C 1677.644531 750.273438 1677.570312 751.523438 1677.632812 752.773438 C 1677.6875 754.023438 1677.800781 755.285156 1677.96875 756.546875 C 1678.070312 757.9375 1678.175781 759.335938 1678.257812 760.753906 C 1678.34375 762.160156 1678.195312 763.5625 1677.84375 764.960938 C 1678.476562 765.660156 1679.59375 766.109375 1681.175781 766.316406 C 1682.757812 766.523438 1684.351562 766.734375 1685.96875 766.941406 C 1687.601562 767.148438 1688.800781 767.554688 1689.550781 768.148438 C 1688.40625 768.898438 1686.53125 769.359375 1683.925781 769.523438 C 1681.34375 769.679688 1678.570312 769.753906 1675.632812 769.753906 C 1674.882812 769.753906 1674.09375 769.753906 1673.257812 769.753906 C 1672.425781 769.753906 1671.632812 769.753906 1670.882812 769.753906 C 1668.382812 769.710938 1666.0625 769.707031 1663.925781 769.734375 C 1661.78125 769.75 1660.070312 769.875 1658.800781 770.109375 C 1658.050781 769.140625 1658.03125 768.410156 1658.757812 767.921875 C 1659.507812 767.421875 1660.488281 767.015625 1661.71875 766.691406 C 1662.90625 766.375 1664.132812 766.078125 1665.382812 765.796875 C 1666.632812 765.519531 1667.488281 765.101562 1667.96875 764.546875 C 1667.769531 759.953125 1667.601562 755.566406 1667.46875 751.398438 C 1667.320312 747.222656 1667.175781 742.953125 1667.007812 738.585938 L 1666.59375 728.359375 C 1665.84375 728.222656 1665.0625 728.148438 1664.257812 728.148438 C 1663.476562 728.148438 1662.71875 728.148438 1661.96875 728.148438 C 1661.050781 728.207031 1660.144531 728.222656 1659.257812 728.191406 C 1658.394531 728.164062 1657.59375 727.992188 1656.84375 727.671875 C 1656.925781 727.4375 1656.894531 727.25 1656.757812 727.109375 C 1656.613281 726.972656 1656.46875 726.832031 1656.300781 726.691406 C 1656.1875 726.554688 1656.09375 726.410156 1656.007812 726.253906 C 1655.925781 726.085938 1655.96875 725.910156 1656.132812 725.710938 C 1657.988281 725.210938 1660.101562 724.929688 1662.46875 724.859375 C 1664.820312 724.789062 1667.3125 724.773438 1669.925781 724.816406 C 1670.925781 724.816406 1671.9375 724.816406 1672.96875 724.816406 C 1673.988281 724.816406 1675.019531 724.796875 1676.050781 724.753906 C 1681.320312 724.5625 1686.488281 724.476562 1691.550781 724.503906 C 1696.601562 724.535156 1701.28125 724.769531 1705.59375 725.210938 C 1709.894531 725.644531 1713.53125 726.441406 1716.507812 727.609375 C 1719.007812 728.582031 1720.90625 729.859375 1722.21875 731.441406 C 1723.519531 733.015625 1723.9375 735.023438 1723.46875 737.484375 C 1723.382812 737.664062 1723.21875 737.851562 1722.96875 738.046875 C 1722.738281 738.226562 1722.550781 738.429688 1722.382812 738.648438 C 1721.820312 739.207031 1721.3125 739.773438 1720.84375 740.359375 C 1720.363281 740.941406 1719.988281 741.5625 1719.71875 742.210938 C 1717.570312 742.628906 1715.757812 743.222656 1714.257812 743.984375 C 1712.78125 744.75 1711.21875 745.457031 1709.550781 746.109375 C 1707.882812 746.75 1705.65625 747.140625 1702.882812 747.273438 C 1706.769531 748.441406 1709.988281 749.960938 1712.550781 751.835938 C 1715.101562 753.710938 1717.320312 755.742188 1719.21875 757.921875 C 1721.132812 760.101562 1723.019531 762.3125 1724.882812 764.546875 C 1725.320312 764.6875 1725.820312 764.8125 1726.382812 764.921875 C 1726.9375 765.035156 1727.488281 765.160156 1728.050781 765.296875 C 1729.90625 765.671875 1731.632812 766.148438 1733.21875 766.734375 C 1734.800781 767.304688 1735.175781 768.265625 1734.34375 769.609375 Z M 1710.800781 735.941406 C 1710.800781 734.875 1710.476562 733.765625 1709.84375 732.609375 C 1709.195312 731.441406 1708.1875 730.285156 1706.800781 729.128906 C 1703.4375 728.253906 1699.925781 727.769531 1696.257812 727.671875 C 1692.613281 727.578125 1688.65625 727.554688 1684.382812 727.609375 C 1683.46875 727.609375 1682.53125 727.625 1681.59375 727.648438 C 1680.675781 727.664062 1679.695312 727.671875 1678.675781 727.671875 C 1677.84375 728.085938 1677.425781 728.671875 1677.425781 729.421875 C 1677.425781 730.160156 1677.46875 730.941406 1677.550781 731.773438 C 1677.65625 732.097656 1677.726562 732.421875 1677.757812 732.753906 C 1677.8125 733.078125 1677.84375 733.394531 1677.84375 733.710938 C 1677.84375 734.460938 1677.78125 735.253906 1677.675781 736.085938 C 1677.59375 736.921875 1677.507812 737.753906 1677.425781 738.585938 C 1677.34375 739.796875 1677.300781 741.039062 1677.300781 742.316406 C 1677.300781 743.597656 1677.476562 744.859375 1677.84375 746.109375 C 1682.28125 746.472656 1686.863281 746.472656 1691.59375 746.109375 C 1696.34375 745.734375 1700.195312 744.972656 1703.175781 743.816406 C 1706.695312 742.414062 1709.019531 740.691406 1710.132812 738.648438 C 1710.570312 737.734375 1710.800781 736.832031 1710.800781 735.941406 Z M 1710.800781 735.941406 "/>
<path style=" stroke:none;fill-rule:nonzero;fill:rgb(0%,0%,0%);fill-opacity:1;" d="M 1828.9375 726.898438 C 1827.90625 727.554688 1827.351562 728.347656 1827.269531 729.273438 C 1827.1875 730.191406 1827.226562 731.144531 1827.394531 732.128906 C 1827.394531 732.210938 1827.445312 732.375 1827.5625 732.609375 C 1827.726562 733.679688 1827.78125 734.734375 1827.726562 735.773438 C 1827.695312 736.816406 1827.03125 737.6875 1825.726562 738.378906 C 1823.976562 738.285156 1822.695312 737.9375 1821.894531 737.335938 C 1821.113281 736.742188 1820.539062 736.019531 1820.1875 735.171875 C 1819.789062 734.203125 1819.488281 733.171875 1819.269531 732.085938 C 1819.039062 730.992188 1818.5625 730.078125 1817.8125 729.335938 C 1814.75 728.921875 1811.019531 728.660156 1806.601562 728.546875 C 1802.1875 728.421875 1798.3125 728.429688 1794.976562 728.566406 C 1794.976562 730.191406 1794.976562 731.847656 1794.976562 733.523438 C 1794.976562 735.191406 1794.9375 736.878906 1794.851562 738.585938 C 1794.851562 739.476562 1794.820312 740.351562 1794.769531 741.210938 C 1794.738281 742.0625 1794.726562 742.929688 1794.726562 743.816406 C 1794.613281 747.429688 1794.5625 751.054688 1794.5625 754.691406 C 1794.5625 758.332031 1794.695312 761.914062 1794.976562 765.441406 C 1796 765.859375 1797.28125 766.148438 1798.8125 766.316406 C 1800.332031 766.472656 1801.789062 766.679688 1803.1875 766.941406 C 1804.570312 767.191406 1805.5 767.691406 1805.976562 768.441406 C 1805.5 769.039062 1804.363281 769.441406 1802.5625 769.648438 C 1800.75 769.859375 1798.644531 769.960938 1796.226562 769.960938 C 1793.8125 769.960938 1791.40625 769.914062 1789.019531 769.816406 C 1787.789062 769.816406 1786.625 769.8125 1785.519531 769.796875 C 1784.40625 769.769531 1783.394531 769.753906 1782.476562 769.753906 C 1782 769.753906 1781.53125 769.769531 1781.0625 769.796875 C 1780.613281 769.8125 1780.113281 769.816406 1779.5625 769.816406 C 1777.78125 769.914062 1776.101562 769.921875 1774.519531 769.835938 C 1772.957031 769.742188 1772.125 769.207031 1772.019531 768.234375 C 1772.019531 767.859375 1772.289062 767.515625 1772.851562 767.191406 C 1773.40625 766.859375 1773.875 766.535156 1774.269531 766.210938 C 1775.820312 766.535156 1777.613281 766.414062 1779.644531 765.859375 C 1781.695312 765.304688 1783.144531 764.609375 1783.976562 763.773438 C 1783.894531 761.316406 1783.851562 758.890625 1783.851562 756.484375 C 1783.851562 754.066406 1783.851562 751.671875 1783.851562 749.296875 C 1783.851562 747.492188 1783.851562 745.707031 1783.851562 743.941406 C 1783.851562 742.179688 1783.851562 740.394531 1783.851562 738.585938 C 1783.851562 735.296875 1783.707031 731.957031 1783.4375 728.566406 C 1779.90625 728.25 1776.207031 728.207031 1772.351562 728.441406 C 1768.519531 728.664062 1765.113281 728.894531 1762.144531 729.128906 C 1761.695312 729.171875 1761.28125 729.207031 1760.894531 729.234375 C 1760.53125 729.265625 1760.15625 729.296875 1759.769531 729.335938 C 1759.601562 729.851562 1759.445312 730.390625 1759.3125 730.941406 C 1759.164062 731.5 1759.101562 732.054688 1759.101562 732.609375 C 1758.90625 733.816406 1758.613281 734.957031 1758.226562 736.023438 C 1757.863281 737.082031 1756.90625 737.867188 1755.351562 738.378906 C 1754.40625 738.421875 1753.695312 738.367188 1753.226562 738.210938 C 1752.78125 738.046875 1752.320312 737.847656 1751.851562 737.609375 C 1751.65625 737.523438 1751.445312 737.4375 1751.226562 737.335938 C 1751 737.242188 1750.75 737.148438 1750.476562 737.066406 C 1751.03125 735.164062 1751.3125 733.160156 1751.3125 731.046875 C 1751.3125 728.9375 1751.90625 727.117188 1753.101562 725.585938 C 1757.539062 725.171875 1762.539062 724.953125 1768.101562 724.921875 C 1773.6875 724.894531 1779.113281 724.910156 1784.394531 724.960938 C 1786.082031 725.003906 1787.707031 725.023438 1789.269531 725.023438 C 1790.851562 725.023438 1792.375 725.023438 1793.851562 725.023438 C 1795.4375 725.023438 1797.03125 725.003906 1798.644531 724.960938 C 1800.28125 724.910156 1801.894531 724.859375 1803.476562 724.816406 C 1808.476562 724.679688 1813.238281 724.660156 1817.769531 724.753906 C 1822.320312 724.835938 1826.039062 725.554688 1828.9375 726.898438 Z M 1828.9375 726.898438 "/>
<path style=" stroke:none;fill-rule:nonzero;fill:rgb(0%,0%,0%);fill-opacity:1;" d="M 1936.59375 767.585938 C 1936.230469 768.4375 1935.304688 769.015625 1933.804688 769.316406 C 1932.324219 769.609375 1930.523438 769.773438 1928.386719 769.816406 C 1927.386719 769.816406 1926.367188 769.8125 1925.34375 769.796875 C 1924.3125 769.769531 1923.285156 769.753906 1922.261719 769.753906 C 1920.148438 769.660156 1918.230469 769.625 1916.511719 769.648438 C 1914.785156 769.679688 1913.605469 769.851562 1912.96875 770.171875 C 1912.21875 770.210938 1911.21875 770.109375 1909.96875 769.859375 C 1908.71875 769.609375 1907.785156 769.1875 1907.179688 768.585938 C 1906.59375 767.976562 1906.804688 767.226562 1907.804688 766.335938 C 1909.023438 766.0625 1910.40625 765.867188 1911.96875 765.753906 C 1913.554688 765.644531 1914.949219 765.472656 1916.179688 765.234375 C 1916.179688 763.847656 1916.148438 762.410156 1916.09375 760.921875 C 1916.035156 759.4375 1916.011719 757.976562 1916.011719 756.546875 C 1915.929688 754.960938 1915.855469 753.460938 1915.804688 752.046875 C 1915.773438 750.628906 1915.804688 749.347656 1915.886719 748.191406 C 1910.136719 747.816406 1904.355469 747.660156 1898.554688 747.710938 C 1892.742188 747.753906 1887.15625 747.828125 1881.804688 747.921875 C 1879.742188 747.921875 1877.761719 747.941406 1875.84375 747.984375 C 1873.949219 748.023438 1872.09375 748.046875 1870.261719 748.046875 C 1870.261719 749.394531 1870.273438 750.671875 1870.304688 751.878906 C 1870.355469 753.085938 1870.386719 754.25 1870.386719 755.359375 C 1870.46875 756.847656 1870.535156 758.347656 1870.59375 759.859375 C 1870.648438 761.359375 1870.617188 763.015625 1870.511719 764.816406 C 1871.261719 765.332031 1872.285156 765.726562 1873.59375 766.003906 C 1874.898438 766.285156 1876.1875 766.5625 1877.46875 766.835938 C 1878.773438 767.117188 1879.742188 767.535156 1880.386719 768.085938 C 1880.023438 768.828125 1879.304688 769.3125 1878.21875 769.546875 C 1877.15625 769.785156 1875.855469 769.875 1874.304688 769.816406 C 1873.71875 769.816406 1873.105469 769.8125 1872.46875 769.796875 C 1871.824219 769.769531 1871.179688 769.734375 1870.511719 769.691406 C 1869.398438 769.640625 1868.21875 769.585938 1866.96875 769.546875 C 1865.71875 769.503906 1864.4375 769.484375 1863.136719 769.484375 C 1862.492188 769.484375 1861.867188 769.519531 1861.261719 769.585938 C 1860.679688 769.660156 1860.105469 769.734375 1859.554688 769.816406 C 1858.992188 769.914062 1858.449219 769.992188 1857.929688 770.046875 C 1857.429688 770.085938 1856.980469 770.082031 1856.59375 770.023438 C 1855.117188 769.890625 1853.84375 769.472656 1852.761719 768.773438 C 1851.699219 768.082031 1851.449219 767.4375 1852.011719 766.835938 C 1852.480469 766.328125 1853.21875 766.015625 1854.21875 765.898438 C 1855.242188 765.773438 1856.355469 765.671875 1857.554688 765.585938 C 1858.773438 765.492188 1859.855469 765.253906 1860.804688 764.878906 C 1860.804688 760.378906 1860.804688 755.875 1860.804688 751.359375 C 1860.804688 746.832031 1860.699219 742.578125 1860.511719 738.585938 C 1860.429688 736.6875 1860.324219 734.878906 1860.21875 733.171875 C 1860.136719 731.453125 1859.992188 729.847656 1859.804688 728.359375 C 1859.074219 728.179688 1858.285156 728.066406 1857.429688 728.023438 C 1856.59375 727.972656 1855.71875 727.972656 1854.804688 728.023438 C 1853.773438 728.023438 1852.742188 728.003906 1851.71875 727.960938 C 1850.71875 727.910156 1849.742188 727.722656 1848.804688 727.398438 C 1848.71875 727.023438 1848.785156 726.734375 1849.011719 726.523438 C 1849.261719 726.316406 1849.523438 726.117188 1849.804688 725.921875 C 1850.074219 725.785156 1850.324219 725.625 1850.554688 725.441406 C 1850.804688 725.265625 1850.929688 725.003906 1850.929688 724.671875 C 1852.867188 724.769531 1854.855469 724.796875 1856.886719 724.753906 C 1858.9375 724.703125 1860.980469 724.628906 1863.011719 724.546875 C 1864.035156 724.546875 1865.054688 724.523438 1866.054688 724.484375 C 1867.074219 724.429688 1868.105469 724.398438 1869.136719 724.398438 C 1871.824219 724.359375 1874.261719 724.492188 1876.429688 724.796875 C 1878.617188 725.085938 1880.273438 725.722656 1881.386719 726.691406 C 1880.4375 727.25 1879.035156 727.585938 1877.179688 727.710938 C 1875.34375 727.828125 1873.3125 727.859375 1871.09375 727.816406 C 1870.429688 728.972656 1870.0625 730.546875 1870.011719 732.546875 C 1869.980469 734.535156 1870.011719 736.546875 1870.09375 738.585938 L 1870.09375 738.734375 C 1870.199219 739.664062 1870.273438 740.582031 1870.304688 741.484375 C 1870.355469 742.390625 1870.34375 743.234375 1870.261719 744.023438 C 1875.34375 744.25 1880.574219 744.335938 1885.96875 744.296875 C 1891.355469 744.253906 1896.648438 744.1875 1901.84375 744.085938 C 1904.148438 744.046875 1906.4375 744.003906 1908.71875 743.960938 C 1910.992188 743.910156 1913.199219 743.878906 1915.34375 743.878906 C 1915.699219 743.085938 1915.898438 742.269531 1915.929688 741.421875 C 1915.980469 740.5625 1915.929688 739.640625 1915.761719 738.648438 C 1915.648438 738.097656 1915.554688 737.519531 1915.46875 736.921875 C 1915.386719 736.328125 1915.242188 735.722656 1915.054688 735.109375 C 1914.855469 733.957031 1914.65625 732.8125 1914.46875 731.671875 C 1914.304688 730.535156 1914.261719 729.429688 1914.34375 728.359375 C 1913.035156 728.359375 1911.480469 728.304688 1909.679688 728.191406 C 1907.867188 728.082031 1906.179688 727.890625 1904.59375 727.609375 C 1904.035156 727.140625 1903.898438 726.722656 1904.179688 726.359375 C 1904.449219 725.984375 1904.785156 725.628906 1905.179688 725.296875 C 1905.34375 725.160156 1905.523438 725.015625 1905.71875 724.859375 C 1905.90625 724.691406 1906.054688 724.519531 1906.136719 724.335938 C 1907.804688 724.378906 1909.492188 724.394531 1911.21875 724.378906 C 1912.9375 724.351562 1914.59375 724.3125 1916.179688 724.253906 C 1920.0625 724.171875 1923.71875 724.179688 1927.136719 724.273438 C 1930.574219 724.359375 1933.511719 724.796875 1935.929688 725.585938 C 1935.367188 726.460938 1934.136719 727.003906 1932.21875 727.210938 C 1930.324219 727.421875 1928.179688 727.503906 1925.761719 727.460938 C 1925.480469 729.085938 1925.285156 730.851562 1925.179688 732.753906 C 1925.09375 734.660156 1925.105469 736.625 1925.21875 738.648438 C 1925.21875 739.914062 1925.261719 741.171875 1925.34375 742.421875 C 1925.429688 743.671875 1925.523438 744.941406 1925.636719 746.234375 C 1925.804688 749.625 1925.90625 752.941406 1925.96875 756.191406 C 1926.023438 759.441406 1925.8125 762.335938 1925.34375 764.878906 C 1926.648438 765.628906 1928.386719 766.085938 1930.554688 766.253906 C 1932.742188 766.410156 1934.761719 766.851562 1936.59375 767.585938 Z M 1936.59375 767.585938 "/>
<path style=" stroke:none;fill-rule:nonzero;fill:rgb(0%,0%,0%);fill-opacity:1;" d="M 1998.808594 726.546875 C 1998.328125 727.253906 1997.234375 727.660156 1995.515625 727.753906 C 1993.789062 727.835938 1992.015625 727.859375 1990.183594 727.816406 C 1989.621094 727.816406 1989.070312 727.816406 1988.515625 727.816406 C 1987.953125 727.816406 1987.402344 727.816406 1986.851562 727.816406 C 1986.453125 727.957031 1986.539062 728.304688 1987.101562 728.859375 C 1987.289062 729.039062 1987.453125 729.234375 1987.601562 729.441406 C 1987.734375 729.648438 1987.808594 729.847656 1987.808594 730.023438 C 1987.445312 730.222656 1987.164062 730.441406 1986.976562 730.691406 C 1986.777344 730.941406 1986.601562 731.253906 1986.433594 731.628906 C 1986.320312 732.796875 1986.265625 733.953125 1986.265625 735.085938 C 1986.265625 736.210938 1986.226562 737.378906 1986.140625 738.585938 C 1986.058594 743.046875 1985.984375 747.546875 1985.933594 752.085938 C 1985.871094 756.628906 1985.851562 761.148438 1985.851562 765.648438 C 1987.984375 765.691406 1990.308594 765.953125 1992.808594 766.421875 C 1995.308594 766.878906 1997.109375 767.597656 1998.226562 768.566406 C 1995.914062 769.265625 1993.246094 769.640625 1990.226562 769.691406 C 1987.226562 769.734375 1984.101562 769.707031 1980.851562 769.609375 C 1978.902344 769.566406 1976.976562 769.539062 1975.058594 769.523438 C 1973.164062 769.5 1971.351562 769.554688 1969.601562 769.691406 C 1969.039062 769.734375 1968.609375 769.835938 1968.308594 770.003906 C 1968.027344 770.160156 1967.746094 770.328125 1967.476562 770.523438 C 1967.195312 770.800781 1966.820312 771.046875 1966.351562 771.253906 C 1965.902344 771.460938 1965.164062 771.492188 1964.140625 771.359375 C 1963.226562 770.703125 1962.871094 770.0625 1963.101562 769.421875 C 1963.351562 768.769531 1963.859375 768.148438 1964.640625 767.566406 C 1965.414062 766.984375 1966.140625 766.503906 1966.808594 766.128906 C 1967.246094 766.128906 1967.726562 766.128906 1968.226562 766.128906 C 1968.746094 766.128906 1969.289062 766.128906 1969.851562 766.128906 C 1970.953125 766.128906 1972.070312 766.128906 1973.183594 766.128906 C 1974.289062 766.128906 1975.265625 766.039062 1976.101562 765.859375 C 1976.015625 761.679688 1975.976562 757.242188 1975.976562 752.546875 C 1975.976562 747.835938 1975.871094 743.1875 1975.683594 738.585938 C 1975.601562 734.976562 1975.320312 731.5 1974.851562 728.148438 C 1974.203125 728.066406 1973.515625 728.015625 1972.765625 727.984375 C 1972.039062 727.957031 1971.265625 727.941406 1970.433594 727.941406 C 1969.121094 727.941406 1967.859375 727.921875 1966.640625 727.878906 C 1965.445312 727.835938 1964.390625 727.628906 1963.476562 727.253906 C 1963.277344 726.878906 1963.289062 726.601562 1963.515625 726.421875 C 1963.765625 726.226562 1964.027344 726.039062 1964.308594 725.859375 C 1964.578125 725.722656 1964.808594 725.578125 1964.976562 725.421875 C 1965.164062 725.253906 1965.265625 725.054688 1965.265625 724.816406 C 1968.152344 724.816406 1971.234375 724.75 1974.515625 724.609375 C 1977.820312 724.472656 1981.039062 724.398438 1984.183594 724.398438 C 1987.351562 724.398438 1990.226562 724.539062 1992.808594 724.816406 C 1995.414062 725.097656 1997.414062 725.671875 1998.808594 726.546875 Z M 1998.808594 726.546875 "/>
<path style=" stroke:none;fill-rule:nonzero;fill:rgb(0%,0%,0%);fill-opacity:1;" d="M 2116.363281 725.859375 C 2116.28125 726.832031 2115.320312 727.414062 2113.488281 727.609375 C 2111.675781 727.789062 2109.71875 727.878906 2107.613281 727.878906 C 2106.863281 727.976562 2106.363281 728.203125 2106.113281 728.546875 C 2105.882812 728.894531 2105.675781 729.265625 2105.488281 729.648438 C 2105.320312 730.039062 2104.757812 730.375 2103.820312 730.648438 C 2104.089844 731.914062 2104.300781 733.222656 2104.445312 734.566406 C 2104.582031 735.898438 2104.707031 737.265625 2104.820312 738.648438 C 2104.90625 740.234375 2104.945312 741.851562 2104.945312 743.503906 C 2104.945312 745.144531 2104.945312 746.796875 2104.945312 748.460938 C 2105.03125 752.035156 2105.132812 755.546875 2105.28125 759.003906 C 2105.414062 762.460938 2105.90625 765.628906 2106.738281 768.503906 C 2105.738281 769.242188 2104.164062 769.660156 2102.03125 769.753906 C 2099.882812 769.851562 2098.40625 769.644531 2097.570312 769.128906 C 2095.339844 767.785156 2093.238281 766.273438 2091.238281 764.609375 C 2089.238281 762.941406 2086.90625 761.316406 2084.238281 759.734375 C 2079.207031 756.765625 2074.371094 753.378906 2069.738281 749.585938 C 2065.089844 745.785156 2060.457031 742.117188 2055.820312 738.585938 C 2054.070312 737.160156 2052.257812 735.796875 2050.40625 734.503906 C 2048.539062 733.203125 2046.695312 731.960938 2044.863281 730.796875 C 2044.746094 732.1875 2044.65625 733.515625 2044.570312 734.773438 C 2044.488281 736.023438 2044.445312 737.296875 2044.445312 738.585938 C 2044.445312 740.3125 2044.488281 742.085938 2044.570312 743.921875 C 2044.65625 745.742188 2044.746094 747.769531 2044.863281 750.003906 C 2044.863281 750.835938 2044.832031 751.707031 2044.78125 752.609375 C 2044.71875 753.515625 2044.65625 754.398438 2044.570312 755.273438 C 2044.371094 757.140625 2044.246094 758.894531 2044.195312 760.546875 C 2044.164062 762.1875 2044.570312 763.539062 2045.40625 764.609375 C 2045.871094 765.265625 2046.707031 765.75 2047.90625 766.066406 C 2049.089844 766.390625 2050.339844 766.679688 2051.65625 766.941406 C 2052.957031 767.191406 2053.925781 767.546875 2054.570312 768.003906 C 2054.207031 768.578125 2053.445312 768.953125 2052.28125 769.128906 C 2051.132812 769.3125 2050.28125 769.609375 2049.695312 770.023438 C 2048.03125 769.707031 2046.289062 769.5625 2044.488281 769.585938 C 2042.675781 769.601562 2040.90625 769.679688 2039.15625 769.816406 C 2037.207031 769.914062 2035.339844 769.960938 2033.570312 769.960938 C 2031.820312 769.960938 2030.195312 769.753906 2028.695312 769.335938 C 2028.132812 768.960938 2027.925781 768.648438 2028.070312 768.398438 C 2028.207031 768.140625 2028.414062 767.894531 2028.695312 767.671875 C 2028.882812 767.476562 2029.070312 767.304688 2029.238281 767.148438 C 2029.425781 766.984375 2029.53125 766.785156 2029.53125 766.546875 C 2030.746094 766.328125 2031.996094 766.128906 2033.28125 765.960938 C 2034.582031 765.796875 2035.882812 765.625 2037.195312 765.441406 C 2038.03125 761.875 2038.371094 758.144531 2038.238281 754.253906 C 2038.089844 750.351562 2037.789062 746.335938 2037.320312 742.210938 C 2037.320312 741.601562 2037.289062 741 2037.238281 740.398438 C 2037.207031 739.789062 2037.15625 739.1875 2037.070312 738.585938 C 2036.957031 736.828125 2036.832031 735.078125 2036.695312 733.335938 C 2036.550781 731.601562 2036.445312 729.851562 2036.363281 728.085938 C 2035.246094 728.269531 2034.082031 728.335938 2032.863281 728.296875 C 2031.664062 728.253906 2030.65625 728.117188 2029.820312 727.878906 C 2028.90625 727.5625 2028.339844 727.125 2028.15625 726.566406 C 2027.957031 726 2028.507812 725.347656 2029.820312 724.609375 C 2031.007812 724.648438 2032.207031 724.671875 2033.40625 724.671875 C 2034.621094 724.671875 2035.839844 724.648438 2037.070312 724.609375 C 2040.207031 724.609375 2043.28125 724.660156 2046.28125 724.753906 C 2049.300781 724.835938 2052.164062 725.1875 2054.863281 725.796875 C 2054.863281 726.019531 2054.738281 726.179688 2054.488281 726.273438 C 2054.257812 726.375 2054.007812 726.460938 2053.738281 726.546875 C 2053.007812 726.6875 2052.65625 726.875 2052.65625 727.109375 C 2055.238281 729.015625 2057.839844 730.929688 2060.488281 732.859375 C 2063.121094 734.773438 2065.746094 736.6875 2068.363281 738.585938 C 2073.363281 742.160156 2078.382812 745.726562 2083.445312 749.296875 C 2088.496094 752.867188 2093.488281 756.394531 2098.40625 759.878906 C 2098.207031 756.3125 2098.113281 752.765625 2098.113281 749.234375 C 2098.113281 745.707031 2098.03125 742.179688 2097.863281 738.648438 C 2097.664062 735.179688 2097.246094 731.707031 2096.613281 728.234375 C 2095.945312 728.097656 2095.289062 728.003906 2094.65625 727.960938 C 2094.007812 727.910156 2093.363281 727.878906 2092.695312 727.878906 C 2091.496094 727.785156 2090.425781 727.664062 2089.488281 727.523438 C 2088.570312 727.390625 2088.070312 727.019531 2087.988281 726.421875 C 2087.871094 725.628906 2088.996094 725.0625 2091.363281 724.710938 C 2093.746094 724.367188 2096.507812 724.171875 2099.65625 724.128906 C 2102.070312 724.078125 2104.488281 724.117188 2106.90625 724.253906 C 2109.320312 724.394531 2111.40625 724.601562 2113.15625 724.878906 C 2114.925781 725.160156 2115.996094 725.484375 2116.363281 725.859375 Z M 2116.363281 725.859375 "/>
<path style=" stroke:none;fill-rule:nonzero;fill:rgb(0%,0%,0%);fill-opacity:1;" d="M 2226.941406 750.484375 C 2226.578125 751.082031 2225.742188 751.429688 2224.441406 751.523438 C 2223.160156 751.625 2221.734375 751.671875 2220.148438 751.671875 C 2219.484375 751.671875 2218.796875 751.6875 2218.109375 751.710938 C 2217.410156 751.726562 2216.785156 751.765625 2216.234375 751.816406 C 2215.398438 752.789062 2214.910156 753.960938 2214.773438 755.335938 C 2214.628906 756.703125 2214.617188 758.117188 2214.734375 759.585938 C 2214.816406 761.035156 2214.796875 762.476562 2214.691406 763.921875 C 2214.609375 765.351562 2214.148438 766.625 2213.316406 767.734375 C 2212.117188 768.148438 2210.910156 768.375 2209.691406 768.398438 C 2208.492188 768.429688 2207.296875 768.1875 2206.109375 767.671875 C 2203.296875 768.601562 2199.898438 769.332031 2195.898438 769.859375 C 2191.921875 770.382812 2187.753906 770.679688 2183.398438 770.753906 C 2179.035156 770.820312 2174.785156 770.59375 2170.648438 770.066406 C 2166.535156 769.539062 2162.910156 768.671875 2159.773438 767.460938 C 2158.941406 767.128906 2158.210938 766.679688 2157.609375 766.109375 C 2156.992188 765.523438 2156.273438 765.023438 2155.441406 764.609375 C 2154.523438 764.097656 2153.523438 763.679688 2152.441406 763.359375 C 2151.378906 763.023438 2150.578125 762.679688 2150.023438 762.316406 C 2147.242188 760.414062 2145.171875 758.226562 2143.816406 755.753906 C 2142.484375 753.269531 2141.816406 750.703125 2141.816406 748.046875 C 2141.816406 746.421875 2142.035156 744.8125 2142.484375 743.210938 C 2142.953125 741.617188 2143.609375 740.078125 2144.441406 738.585938 C 2146.023438 735.851562 2148.273438 733.375 2151.191406 731.148438 C 2154.109375 728.929688 2157.609375 727.234375 2161.691406 726.066406 C 2164.378906 725.332031 2167.460938 724.734375 2170.941406 724.273438 C 2174.441406 723.804688 2178.085938 723.546875 2181.898438 723.503906 C 2184.835938 723.453125 2187.816406 723.578125 2190.816406 723.878906 C 2193.835938 724.1875 2196.660156 724.6875 2199.273438 725.378906 C 2199.910156 725.101562 2200.609375 725 2201.359375 725.066406 C 2202.109375 725.140625 2202.835938 725.210938 2203.566406 725.296875 C 2204.117188 725.394531 2204.628906 725.476562 2205.109375 725.546875 C 2205.578125 725.617188 2206.046875 725.628906 2206.523438 725.585938 C 2207.078125 725.535156 2207.628906 725.4375 2208.191406 725.296875 C 2208.742188 725.160156 2209.242188 725.019531 2209.691406 724.878906 C 2210.441406 724.660156 2211.160156 724.476562 2211.859375 724.335938 C 2212.546875 724.203125 2213.316406 724.222656 2214.148438 724.398438 C 2213.703125 725.191406 2213.523438 726.054688 2213.609375 726.984375 C 2213.691406 727.898438 2213.828125 728.847656 2214.023438 729.816406 C 2214.109375 730.289062 2214.191406 730.765625 2214.273438 731.234375 C 2214.378906 731.691406 2214.441406 732.128906 2214.441406 732.546875 C 2214.523438 733.601562 2214.328125 734.578125 2213.859375 735.460938 C 2213.410156 736.335938 2212.398438 737.035156 2210.816406 737.546875 C 2209.234375 737.171875 2208.328125 736.664062 2208.109375 736.023438 C 2207.878906 735.375 2207.773438 734.671875 2207.773438 733.921875 C 2207.773438 733.503906 2207.710938 733.082031 2207.609375 732.648438 C 2207.523438 732.207031 2207.335938 731.773438 2207.066406 731.359375 C 2205.867188 729.597656 2203.109375 728.316406 2198.773438 727.523438 C 2194.460938 726.734375 2189.859375 726.390625 2184.941406 726.484375 C 2181.492188 726.523438 2178.109375 726.765625 2174.773438 727.191406 C 2171.441406 727.609375 2168.703125 728.207031 2166.566406 728.984375 C 2163.703125 730.015625 2161.335938 731.359375 2159.484375 733.023438 C 2157.617188 734.691406 2156.234375 736.546875 2155.316406 738.585938 C 2154.835938 739.753906 2154.484375 740.957031 2154.234375 742.191406 C 2154.003906 743.414062 2153.898438 744.648438 2153.898438 745.898438 C 2154.003906 748.722656 2154.703125 751.515625 2155.984375 754.273438 C 2157.285156 757.039062 2159.160156 759.476562 2161.609375 761.585938 C 2164.078125 763.703125 2167.035156 765.242188 2170.484375 766.210938 C 2174.003906 766.851562 2177.960938 767.234375 2182.359375 767.359375 C 2186.773438 767.472656 2190.953125 767.273438 2194.898438 766.773438 C 2198.835938 766.265625 2201.828125 765.421875 2203.859375 764.253906 C 2203.578125 763.144531 2203.441406 761.941406 2203.441406 760.648438 C 2203.441406 759.347656 2203.535156 758.046875 2203.734375 756.753906 C 2203.734375 755.960938 2203.742188 755.171875 2203.773438 754.378906 C 2203.828125 753.585938 2203.859375 752.828125 2203.859375 752.085938 C 2203.023438 751.671875 2201.921875 751.460938 2200.566406 751.460938 C 2199.234375 751.460938 2197.960938 751.503906 2196.773438 751.585938 C 2195.742188 751.6875 2194.816406 751.734375 2193.984375 751.734375 C 2193.148438 751.734375 2192.492188 751.644531 2192.023438 751.460938 C 2191.578125 749.742188 2192.191406 748.753906 2193.859375 748.503906 C 2195.523438 748.253906 2197.984375 748.171875 2201.234375 748.253906 C 2202.335938 748.253906 2203.492188 748.269531 2204.691406 748.296875 C 2205.910156 748.328125 2207.160156 748.3125 2208.441406 748.253906 C 2208.992188 748.253906 2209.546875 748.25 2210.109375 748.234375 C 2210.660156 748.207031 2211.210938 748.171875 2211.773438 748.128906 C 2214.023438 748.035156 2216.253906 747.984375 2218.484375 747.984375 C 2220.703125 747.984375 2222.578125 748.160156 2224.109375 748.503906 C 2225.628906 748.851562 2226.578125 749.515625 2226.941406 750.484375 Z M 2226.941406 750.484375 "/>
<path style=" stroke:none;fill-rule:nonzero;fill:rgb(0%,0%,0%);fill-opacity:1;" d="M 2385.96875 767.585938 C 2384.855469 768.296875 2383.019531 768.847656 2380.46875 769.234375 C 2377.90625 769.625 2375.074219 769.867188 2371.96875 769.960938 C 2368.886719 770.0625 2365.9375 770.003906 2363.136719 769.796875 C 2360.355469 769.585938 2358.230469 769.25 2356.761719 768.773438 C 2356.5625 768.457031 2356.574219 768.207031 2356.800781 768.023438 C 2357.050781 767.832031 2357.3125 767.644531 2357.59375 767.460938 C 2357.863281 767.328125 2358.144531 767.164062 2358.425781 766.984375 C 2358.699219 766.789062 2358.84375 766.535156 2358.84375 766.210938 C 2359.863281 766.210938 2361.050781 766.109375 2362.386719 765.898438 C 2363.738281 765.691406 2364.925781 765.421875 2365.925781 765.085938 C 2365.925781 760.828125 2365.855469 756.476562 2365.71875 752.046875 C 2365.574219 747.617188 2365.46875 743.148438 2365.386719 738.648438 C 2365.300781 736.898438 2365.261719 735.128906 2365.261719 733.335938 C 2365.261719 731.546875 2365.261719 729.773438 2365.261719 728.023438 C 2365.261719 728.023438 2364.886719 728.597656 2364.136719 729.734375 C 2363.386719 730.859375 2362.90625 732.234375 2362.71875 733.859375 C 2361.324219 735.390625 2359.9375 736.984375 2358.550781 738.648438 C 2356.238281 741.484375 2353.855469 744.421875 2351.386719 747.460938 C 2348.9375 750.503906 2346.605469 753.4375 2344.386719 756.253906 C 2343.636719 757.226562 2342.78125 758.347656 2341.84375 759.609375 C 2340.925781 760.859375 2340.105469 762.039062 2339.386719 763.148438 C 2339.269531 763.332031 2339.175781 763.519531 2339.09375 763.710938 C 2339.011719 763.894531 2338.90625 764.101562 2338.800781 764.335938 C 2338.4375 765.035156 2338.019531 765.726562 2337.550781 766.421875 C 2337.074219 767.117188 2336.3125 767.671875 2335.261719 768.085938 C 2334.199219 768.503906 2332.699219 768.597656 2330.761719 768.359375 C 2326.28125 763.582031 2322.105469 758.664062 2318.21875 753.609375 C 2314.324219 748.554688 2310.34375 743.546875 2306.261719 738.585938 C 2305.03125 737.101562 2303.84375 735.660156 2302.675781 734.253906 C 2301.53125 732.835938 2300.3125 731.429688 2299.011719 730.023438 C 2299.011719 730.023438 2299.050781 730.421875 2299.136719 731.210938 C 2299.238281 732.003906 2299.34375 732.921875 2299.425781 733.960938 C 2299.53125 735.003906 2299.59375 735.941406 2299.59375 736.773438 L 2299.71875 738.585938 C 2299.988281 741.601562 2300.199219 744.753906 2300.34375 748.046875 C 2300.480469 751.335938 2300.613281 754.539062 2300.761719 757.648438 C 2300.894531 760.765625 2301.011719 763.585938 2301.09375 766.128906 C 2302.3125 766.601562 2303.6875 766.941406 2305.21875 767.148438 C 2306.738281 767.359375 2307.824219 767.8125 2308.46875 768.503906 C 2307.550781 769.160156 2306.09375 769.609375 2304.09375 769.859375 C 2302.09375 770.109375 2299.90625 770.21875 2297.550781 770.191406 C 2295.1875 770.175781 2292.824219 770.101562 2290.46875 769.960938 C 2288.105469 769.828125 2286.09375 769.6875 2284.425781 769.546875 C 2283.761719 768.335938 2284.355469 767.367188 2286.21875 766.628906 C 2288.074219 765.878906 2290.074219 765.367188 2292.21875 765.085938 C 2293.21875 761.101562 2293.605469 756.835938 2293.386719 752.296875 C 2293.15625 747.753906 2292.8125 743.1875 2292.34375 738.585938 C 2292.144531 736.878906 2291.980469 735.191406 2291.84375 733.523438 C 2291.699219 731.847656 2291.550781 730.191406 2291.386719 728.566406 C 2290.355469 728.484375 2289.15625 728.441406 2287.800781 728.441406 C 2286.46875 728.441406 2285.011719 728.394531 2283.425781 728.296875 C 2283.425781 728.0625 2283.324219 727.851562 2283.136719 727.671875 C 2282.96875 727.492188 2282.78125 727.328125 2282.59375 727.171875 C 2282.230469 726.851562 2281.949219 726.535156 2281.761719 726.210938 C 2281.59375 725.878906 2281.925781 725.503906 2282.761719 725.085938 C 2284.3125 725.085938 2285.855469 725.054688 2287.386719 724.984375 C 2288.9375 724.914062 2290.488281 724.8125 2292.050781 724.671875 C 2295.019531 724.492188 2297.863281 724.378906 2300.59375 724.335938 C 2303.34375 724.285156 2305.824219 724.628906 2308.050781 725.378906 C 2308.324219 725.601562 2308.46875 725.816406 2308.46875 726.023438 C 2308.46875 726.234375 2308.425781 726.4375 2308.34375 726.628906 C 2308.34375 726.851562 2308.34375 727.082031 2308.34375 727.316406 C 2308.34375 727.554688 2308.480469 727.8125 2308.761719 728.085938 C 2310.34375 729.796875 2311.84375 731.535156 2313.261719 733.296875 C 2314.699219 735.0625 2316.175781 736.828125 2317.675781 738.585938 C 2320.449219 741.976562 2323.199219 745.390625 2325.925781 748.816406 C 2328.675781 752.25 2331.613281 755.5625 2334.761719 758.753906 C 2337.84375 755.601562 2340.636719 752.328125 2343.136719 748.921875 C 2345.636719 745.519531 2348.09375 742.097656 2350.511719 738.648438 C 2352.261719 736.25 2354.03125 733.878906 2355.84375 731.546875 C 2357.644531 729.203125 2359.613281 726.9375 2361.761719 724.753906 C 2363.425781 724.476562 2365.511719 724.289062 2368.011719 724.191406 C 2370.53125 724.097656 2373.019531 724.117188 2375.46875 724.253906 C 2377.90625 724.394531 2379.988281 724.703125 2381.71875 725.171875 C 2383.4375 725.628906 2384.394531 726.296875 2384.59375 727.171875 C 2384.199219 727.546875 2383.550781 727.785156 2382.636719 727.878906 C 2381.71875 727.976562 2380.699219 728.023438 2379.59375 728.023438 C 2378.84375 728.023438 2378.09375 728.046875 2377.34375 728.085938 C 2376.59375 728.128906 2375.9375 728.222656 2375.386719 728.359375 C 2375.300781 730.023438 2375.230469 731.722656 2375.175781 733.441406 C 2375.144531 735.164062 2375.175781 736.898438 2375.261719 738.648438 C 2375.261719 739.816406 2375.300781 740.992188 2375.386719 742.171875 C 2375.488281 743.351562 2375.550781 744.523438 2375.550781 745.691406 C 2375.71875 748.984375 2375.84375 752.253906 2375.925781 755.503906 C 2376.03125 758.742188 2375.90625 761.894531 2375.550781 764.960938 C 2376.269531 765.460938 2377.300781 765.8125 2378.636719 766.003906 C 2379.988281 766.1875 2381.363281 766.375 2382.761719 766.566406 C 2384.144531 766.75 2385.21875 767.085938 2385.96875 767.585938 Z M 2385.96875 767.585938 "/>
<path style=" stroke:none;fill-rule:nonzero;fill:rgb(0%,0%,0%);fill-opacity:1;" d="M 2473.75 768.648438 L 2472.792969 769.128906 C 2468.148438 769.3125 2463.441406 769.414062 2458.667969 769.441406 C 2453.886719 769.472656 2449.085938 769.457031 2444.25 769.398438 C 2438.96875 769.398438 2433.730469 769.414062 2428.542969 769.441406 C 2423.34375 769.472656 2418.292969 769.625 2413.375 769.898438 C 2411.898438 769.390625 2411.25 768.890625 2411.417969 768.398438 C 2411.605469 767.914062 2411.886719 767.460938 2412.25 767.046875 C 2412.71875 766.628906 2412.960938 766.351562 2412.960938 766.210938 C 2413.511719 766.019531 2414.179688 765.921875 2414.960938 765.921875 C 2415.761719 765.921875 2416.585938 765.921875 2417.417969 765.921875 C 2417.886719 765.921875 2418.375 765.9375 2418.875 765.960938 C 2419.375 765.992188 2419.855469 765.976562 2420.335938 765.921875 C 2420.804688 762.546875 2421.042969 758.984375 2421.042969 755.234375 C 2421.042969 751.472656 2420.980469 747.804688 2420.875 744.234375 C 2420.875 743.25 2420.84375 742.296875 2420.792969 741.378906 C 2420.761719 740.453125 2420.75 739.519531 2420.75 738.585938 C 2420.667969 736.828125 2420.636719 735.160156 2420.667969 733.585938 C 2420.71875 732.003906 2420.792969 730.519531 2420.875 729.128906 C 2420.230469 729.035156 2419.5625 728.976562 2418.875 728.960938 C 2418.179688 728.9375 2417.5 728.921875 2416.835938 728.921875 C 2415.636719 728.921875 2414.5 728.867188 2413.417969 728.753906 C 2412.355469 728.628906 2411.46875 728.316406 2410.75 727.816406 C 2410.835938 727.679688 2410.917969 727.492188 2411 727.253906 C 2411.191406 726.703125 2411.5 726.160156 2411.917969 725.628906 C 2412.335938 725.085938 2413.191406 724.835938 2414.5 724.878906 C 2418.023438 724.9375 2421.941406 725 2426.25 725.066406 C 2430.554688 725.140625 2434.835938 725.171875 2439.085938 725.171875 C 2443.355469 725.171875 2447.023438 725.171875 2450.085938 725.171875 C 2451.21875 725.171875 2452.34375 725.148438 2453.460938 725.109375 C 2454.5625 725.054688 2455.679688 725.003906 2456.792969 724.960938 C 2459.929688 724.828125 2462.980469 724.753906 2465.960938 724.753906 C 2468.929688 724.753906 2471.523438 725.144531 2473.75 725.921875 C 2473.667969 726.394531 2473.636719 726.941406 2473.667969 727.566406 C 2473.71875 728.191406 2473.75 728.851562 2473.75 729.546875 C 2473.941406 730.851562 2474.011719 732.179688 2473.960938 733.523438 C 2473.898438 734.859375 2473.511719 735.921875 2472.792969 736.710938 C 2471.125 736.894531 2469.886719 736.789062 2469.085938 736.398438 C 2468.304688 736.015625 2467.773438 735.460938 2467.5 734.753906 C 2467.136719 733.835938 2466.886719 732.789062 2466.75 731.609375 C 2466.605469 730.414062 2466.105469 729.519531 2465.25 728.921875 C 2464.136719 728.921875 2462.917969 728.921875 2461.585938 728.921875 C 2460.25 728.921875 2458.835938 728.898438 2457.335938 728.859375 C 2452.886719 728.859375 2448.179688 728.859375 2443.210938 728.859375 C 2438.261719 728.859375 2434.25 728.953125 2431.167969 729.128906 C 2431.273438 729.726562 2431.335938 730.492188 2431.335938 731.421875 C 2431.335938 732.351562 2431.273438 733.394531 2431.167969 734.546875 C 2431.167969 735.203125 2431.167969 735.867188 2431.167969 736.546875 C 2431.167969 737.210938 2431.167969 737.894531 2431.167969 738.585938 C 2431.167969 739.703125 2431.230469 740.816406 2431.375 741.941406 C 2431.511719 743.054688 2431.679688 744.117188 2431.875 745.128906 C 2435.480469 744.953125 2439.210938 744.835938 2443.042969 744.796875 C 2446.898438 744.742188 2450.691406 744.664062 2454.417969 744.566406 C 2455.605469 744.289062 2456.480469 743.867188 2457.042969 743.296875 C 2457.59375 742.710938 2458.105469 742.085938 2458.585938 741.421875 C 2459.054688 740.742188 2459.667969 740.171875 2460.417969 739.710938 C 2461.054688 739.519531 2461.59375 739.457031 2462.042969 739.523438 C 2462.511719 739.597656 2463.023438 739.703125 2463.585938 739.835938 C 2463.773438 739.894531 2464.011719 739.957031 2464.292969 740.023438 C 2464.5625 740.097656 2464.886719 740.148438 2465.25 740.191406 C 2464.691406 741.207031 2464.375 742.367188 2464.292969 743.671875 C 2464.210938 744.960938 2464.210938 746.285156 2464.292969 747.628906 C 2464.292969 748.742188 2464.230469 749.832031 2464.125 750.898438 C 2464.042969 751.972656 2463.855469 752.898438 2463.585938 753.691406 C 2461.46875 753.773438 2460.085938 753.503906 2459.417969 752.878906 C 2458.773438 752.253906 2458.261719 751.546875 2457.875 750.753906 C 2457.710938 750.4375 2457.523438 750.117188 2457.335938 749.796875 C 2457.136719 749.460938 2456.898438 749.160156 2456.625 748.878906 C 2452.375 748.5625 2447.929688 748.378906 2443.292969 748.335938 C 2438.648438 748.285156 2434.605469 748.648438 2431.167969 749.441406 C 2431.355469 752 2431.5 754.609375 2431.585938 757.273438 C 2431.691406 759.941406 2431.554688 762.734375 2431.167969 765.648438 C 2434.605469 765.75 2438.375 765.816406 2442.460938 765.859375 C 2446.542969 765.898438 2450.625 765.847656 2454.710938 765.691406 C 2458.792969 765.523438 2462.5 765.234375 2465.835938 764.816406 C 2466.855469 763.929688 2467.554688 762.921875 2467.917969 761.796875 C 2468.273438 760.660156 2468.804688 759.582031 2469.5 758.566406 C 2470.191406 757.539062 2471.46875 756.835938 2473.335938 756.460938 C 2474.71875 757.851562 2475.34375 759.394531 2475.210938 761.085938 C 2475.0625 762.785156 2474.761719 764.375 2474.292969 765.859375 C 2474.210938 766.375 2474.09375 766.859375 2473.960938 767.316406 C 2473.8125 767.773438 2473.75 768.222656 2473.75 768.648438 Z M 2473.75 768.648438 "/>
</g>
</svg>
