<?xml version="1.0" standalone="no"?>
<!DOCTYPE svg PUBLIC "-//W3C//DTD SVG 20010904//EN"
 "http://www.w3.org/TR/2001/REC-SVG-20010904/DTD/svg10.dtd">
<svg version="1.0" xmlns="http://www.w3.org/2000/svg"
 width="968.000000pt" height="492.000000pt" viewBox="0 0 968.000000 492.000000"
 preserveAspectRatio="xMidYMid meet">

<g transform="translate(0.000000,492.000000) scale(0.100000,-0.100000)"
fill="#000000" stroke="none">
<path d="M3515 3379 c-240 -19 -414 -87 -452 -176 -17 -42 -13 -88 23 -240 23
-102 35 -199 53 -455 22 -291 78 -398 209 -398 49 0 83 25 129 97 19 30 41 57
50 60 34 13 148 -69 179 -129 13 -25 13 -32 2 -46 -35 -45 -98 -64 -176 -51
-89 14 -214 -22 -274 -79 -53 -49 -24 -124 65 -171 30 -16 33 -15 447 51 345
55 432 106 374 221 -9 18 -86 102 -170 188 -88 90 -156 167 -160 182 -10 44 3
73 67 144 77 87 146 189 178 267 36 87 36 189 0 267 -63 133 -246 252 -419
271 -19 2 -75 1 -125 -3z m153 -245 c17 -4 48 -21 69 -39 37 -32 38 -34 38
-101 0 -62 -5 -80 -47 -168 -74 -153 -203 -267 -254 -225 -26 21 -34 54 -49
198 -8 75 -22 166 -31 204 -19 78 -14 89 51 118 41 19 159 26 223 13z"/>
<path d="M4626 3335 c-64 -34 -71 -61 -90 -340 -31 -450 -40 -771 -27 -961 6
-99 16 -196 21 -216 13 -44 88 -131 130 -148 16 -7 41 -9 55 -6 40 10 102 73
121 122 15 40 16 56 4 165 -9 82 -11 170 -6 277 4 86 11 270 16 407 5 138 12
318 16 401 7 161 1 199 -38 250 -44 55 -143 79 -202 49z"/>
<path d="M2048 2624 c-61 -32 -97 -172 -99 -383 -2 -107 2 -138 20 -193 27
-81 84 -149 154 -185 71 -35 173 -36 250 0 71 32 158 122 220 225 66 112 141
289 140 332 -1 78 -68 149 -148 158 -43 4 -48 2 -84 -35 -24 -26 -55 -80 -85
-149 -65 -149 -89 -184 -126 -184 -16 0 -32 5 -36 12 -12 19 -5 88 16 164 11
39 18 78 16 85 -2 8 -7 26 -10 41 -8 34 -59 94 -97 114 -36 18 -96 17 -131 -2z"/>
<path d="M6639 2477 c-80 -62 -106 -71 -204 -72 -100 -1 -132 -12 -188 -69
-19 -19 -44 -55 -57 -81 -62 -128 45 -285 185 -272 28 3 73 15 100 27 97 43
104 43 140 7 49 -49 84 -195 85 -348 0 -140 -83 -373 -169 -471 -50 -56 -61
-79 -61 -123 0 -78 53 -129 132 -128 59 1 99 25 176 107 109 117 177 259 208
439 21 121 13 299 -22 462 -45 212 -54 264 -62 359 -10 109 -29 143 -95 175
-65 32 -115 28 -168 -12z"/>
<path d="M5447 2399 c-122 -29 -190 -107 -206 -238 -22 -170 49 -273 205 -302
270 -50 469 259 297 461 -67 78 -176 107 -296 79z"/>
<path d="M7484 2191 c-108 -66 -152 -220 -91 -320 61 -100 236 -71 321 54 14
21 26 49 26 63 0 41 -42 113 -97 170 -44 45 -57 52 -90 52 -21 0 -52 -9 -69
-19z"/>
<path d="M5211 1493 c-51 -27 -73 -75 -69 -150 3 -55 8 -67 37 -97 39 -41 68
-48 139 -34 l52 11 0 49 c0 41 3 51 20 55 35 9 10 23 -41 23 -49 0 -66 -13
-29 -23 15 -4 20 -14 20 -39 0 -45 -15 -58 -66 -58 -68 0 -94 39 -94 140 0 72
25 108 82 117 44 7 88 -17 88 -47 0 -11 5 -20 10 -20 6 0 10 18 10 39 0 32 -4
40 -17 39 -10 -1 -38 2 -63 6 -34 5 -53 2 -79 -11z"/>
<path d="M2640 1490 c0 -6 7 -13 15 -16 12 -5 15 -28 15 -120 0 -93 -3 -116
-15 -120 -38 -15 -7 -24 80 -24 104 0 110 3 103 57 l-4 28 -12 -27 c-11 -26
-16 -28 -67 -28 l-55 0 0 49 c0 35 4 51 16 55 31 12 62 6 77 -16 15 -22 16
-22 16 25 1 46 -11 62 -23 31 -4 -11 -17 -14 -43 -12 -38 3 -38 3 -41 51 l-3
47 60 0 c54 0 61 -2 61 -19 0 -11 5 -23 11 -26 7 -5 9 6 7 31 l-3 39 -97 3
c-65 2 -98 -1 -98 -8z"/>
<path d="M2930 1490 c0 -5 7 -10 15 -10 10 0 27 -40 55 -127 22 -71 45 -135
50 -143 16 -26 35 6 75 130 22 66 46 121 56 129 30 22 22 31 -26 31 -25 0 -45
-4 -45 -10 0 -5 7 -10 15 -10 8 0 15 -7 15 -15 0 -18 -30 -109 -55 -170 l-17
-40 -34 105 c-30 92 -33 106 -20 116 9 6 13 14 9 17 -10 11 -93 8 -93 -3z"/>
<path d="M3285 1490 c-3 -6 1 -13 9 -16 13 -5 16 -26 16 -125 0 -73 -4 -119
-10 -119 -5 0 -10 -4 -10 -10 0 -6 38 -10 94 -10 101 0 106 3 106 56 0 31 -16
31 -24 -1 -6 -23 -11 -25 -62 -25 l-55 0 3 53 c3 50 4 52 35 55 23 2 35 -3 47
-20 16 -22 16 -21 16 27 -1 44 -2 48 -14 33 -8 -12 -27 -18 -50 -18 l-36 0 0
50 0 50 55 0 c48 0 55 -3 55 -19 0 -11 5 -23 10 -26 6 -4 10 10 10 34 l0 41
-94 0 c-53 0 -98 -4 -101 -10z"/>
<path d="M3580 1490 c0 -5 6 -10 14 -10 20 0 30 -230 10 -246 -23 -19 -16 -24
31 -24 25 0 45 5 45 10 0 6 -7 10 -15 10 -12 0 -15 13 -15 55 0 54 1 55 28 55
32 0 56 -22 67 -60 13 -45 34 -70 60 -70 28 0 34 17 10 27 -9 3 -23 22 -31 42
-8 19 -24 45 -35 57 -19 20 -19 21 6 34 45 24 48 96 5 117 -30 15 -180 18
-180 3z m158 -22 c19 -19 14 -66 -8 -88 -11 -11 -33 -20 -50 -20 l-30 0 0 60
0 60 38 0 c21 0 43 -5 50 -12z"/>
<path d="M3890 1480 c-13 -24 -10 -61 5 -61 6 0 11 11 13 25 2 18 11 26 32 31
16 4 34 4 40 0 6 -4 10 -53 10 -120 0 -105 -2 -114 -20 -120 -38 -12 -20 -25
35 -25 54 0 74 13 35 23 -19 5 -20 14 -20 120 0 64 4 118 9 121 20 12 70 -6
73 -27 2 -11 9 -22 16 -25 10 -3 12 6 10 34 l-3 39 -112 3 c-105 2 -113 1
-123 -18z"/>
<path d="M4200 1490 c0 -5 7 -10 15 -10 12 0 15 -20 15 -119 0 -69 -4 -122
-10 -126 -22 -13 -8 -25 30 -25 38 0 52 12 30 25 -5 3 -10 31 -10 61 l0 54 70
0 70 0 0 -55 c0 -40 -4 -57 -15 -61 -26 -10 -5 -24 35 -24 42 0 62 15 30 23
-19 5 -20 14 -20 126 0 101 2 121 15 121 8 0 15 5 15 10 0 6 -20 10 -45 10
-44 0 -60 -12 -30 -24 10 -4 15 -19 15 -49 0 -42 -2 -45 -31 -51 -17 -3 -49
-6 -70 -6 -35 0 -39 2 -44 34 -8 42 1 76 21 76 8 0 12 5 9 10 -3 6 -26 10 -51
10 -24 0 -44 -4 -44 -10z"/>
<path d="M4570 1490 c0 -5 6 -10 14 -10 9 0 15 -22 20 -77 11 -141 9 -162 -19
-173 -42 -16 -28 -27 28 -22 60 5 69 10 44 23 -15 9 -17 26 -17 129 0 100 3
120 15 120 8 0 15 5 15 10 0 6 -22 10 -50 10 -27 0 -50 -4 -50 -10z"/>
<path d="M4770 1490 c0 -5 7 -10 15 -10 12 0 15 -17 17 -82 3 -121 0 -152 -17
-164 -24 -18 -18 -24 25 -24 45 0 46 1 27 33 -11 16 -12 46 -8 117 l6 95 38
-62 c58 -95 127 -185 139 -181 6 2 10 50 9 136 -2 113 0 132 14 132 8 0 15 5
15 10 0 6 -18 10 -40 10 -38 0 -54 -14 -27 -22 8 -3 13 -36 15 -104 2 -62 0
-95 -6 -89 -16 18 -133 187 -139 201 -6 16 -83 20 -83 4z"/>
<path d="M5590 1491 c0 -5 7 -11 15 -15 12 -4 15 -27 15 -120 0 -66 -4 -117
-10 -121 -21 -13 -9 -25 26 -25 28 0 34 3 27 13 -14 17 -27 231 -13 222 5 -3
10 -11 10 -16 0 -20 83 -209 91 -209 5 0 14 12 19 28 6 15 25 64 42 110 l33
83 7 -43 c12 -81 9 -155 -7 -162 -29 -11 -15 -26 24 -26 41 0 62 14 36 24 -12
4 -15 28 -15 126 0 73 4 120 10 120 6 0 10 5 10 10 0 6 -15 10 -34 10 -33 0
-35 -2 -62 -72 -52 -139 -54 -144 -64 -128 -5 8 -26 57 -47 107 l-38 93 -37 0
c-21 0 -38 -4 -38 -9z"/>
<path d="M6005 1490 c-3 -6 1 -13 9 -16 13 -5 16 -26 16 -125 0 -73 -4 -119
-10 -119 -5 0 -10 -4 -10 -10 0 -6 38 -10 94 -10 101 0 106 3 106 56 0 31 -16
31 -24 -1 -6 -23 -11 -25 -62 -25 l-55 0 3 53 c3 50 4 52 35 55 23 2 35 -3 46
-18 14 -20 15 -19 19 24 3 45 -7 61 -18 31 -4 -10 -20 -15 -45 -15 l-39 0 0
50 0 50 55 0 c48 0 55 -3 55 -19 0 -11 5 -23 10 -26 6 -4 10 10 10 34 l0 41
-94 0 c-53 0 -98 -4 -101 -10z"/>
</g>
</svg>
